<?xml version="1.0" encoding="UTF-8"?>
<svg xmlns="http://www.w3.org/2000/svg" xmlns:xlink="http://www.w3.org/1999/xlink" width="140mm" height="234mm" viewBox="0 -8 140 234">
<text x="70" y="-2.2" text-anchor="middle" font-family="system-ui,sans-serif" font-size="3" fill="#1c1a18">Weiß = erhaben · Schwarz = Zwischenraum · unten fertig · 2-/10-mm-Raster</text>
<rect x="0" y="0" width="140" height="220" fill="#111"/>
<image xlink:href="ahnenraster-geometrie-linien-ohne-raster.png" x="0" y="0" width="140" height="220" preserveAspectRatio="none"/>
<line x1="0" y1="0" x2="0" y2="220" stroke="#e06060" stroke-width="0.38" opacity="0.7"/>
<line x1="2" y1="0" x2="2" y2="220" stroke="#e06060" stroke-width="0.1" opacity="0.32"/>
<line x1="4" y1="0" x2="4" y2="220" stroke="#e06060" stroke-width="0.1" opacity="0.32"/>
<line x1="6" y1="0" x2="6" y2="220" stroke="#e06060" stroke-width="0.1" opacity="0.32"/>
<line x1="8" y1="0" x2="8" y2="220" stroke="#e06060" stroke-width="0.1" opacity="0.32"/>
<line x1="10" y1="0" x2="10" y2="220" stroke="#e06060" stroke-width="0.38" opacity="0.7"/>
<line x1="12" y1="0" x2="12" y2="220" stroke="#e06060" stroke-width="0.1" opacity="0.32"/>
<line x1="14" y1="0" x2="14" y2="220" stroke="#e06060" stroke-width="0.1" opacity="0.32"/>
<line x1="16" y1="0" x2="16" y2="220" stroke="#e06060" stroke-width="0.1" opacity="0.32"/>
<line x1="18" y1="0" x2="18" y2="220" stroke="#e06060" stroke-width="0.1" opacity="0.32"/>
<line x1="20" y1="0" x2="20" y2="220" stroke="#e06060" stroke-width="0.38" opacity="0.7"/>
<line x1="22" y1="0" x2="22" y2="220" stroke="#e06060" stroke-width="0.1" opacity="0.32"/>
<line x1="24" y1="0" x2="24" y2="220" stroke="#e06060" stroke-width="0.1" opacity="0.32"/>
<line x1="26" y1="0" x2="26" y2="220" stroke="#e06060" stroke-width="0.1" opacity="0.32"/>
<line x1="28" y1="0" x2="28" y2="220" stroke="#e06060" stroke-width="0.1" opacity="0.32"/>
<line x1="30" y1="0" x2="30" y2="220" stroke="#e06060" stroke-width="0.38" opacity="0.7"/>
<line x1="32" y1="0" x2="32" y2="220" stroke="#e06060" stroke-width="0.1" opacity="0.32"/>
<line x1="34" y1="0" x2="34" y2="220" stroke="#e06060" stroke-width="0.1" opacity="0.32"/>
<line x1="36" y1="0" x2="36" y2="220" stroke="#e06060" stroke-width="0.1" opacity="0.32"/>
<line x1="38" y1="0" x2="38" y2="220" stroke="#e06060" stroke-width="0.1" opacity="0.32"/>
<line x1="40" y1="0" x2="40" y2="220" stroke="#e06060" stroke-width="0.38" opacity="0.7"/>
<line x1="42" y1="0" x2="42" y2="220" stroke="#e06060" stroke-width="0.1" opacity="0.32"/>
<line x1="44" y1="0" x2="44" y2="220" stroke="#e06060" stroke-width="0.1" opacity="0.32"/>
<line x1="46" y1="0" x2="46" y2="220" stroke="#e06060" stroke-width="0.1" opacity="0.32"/>
<line x1="48" y1="0" x2="48" y2="220" stroke="#e06060" stroke-width="0.1" opacity="0.32"/>
<line x1="50" y1="0" x2="50" y2="220" stroke="#e06060" stroke-width="0.38" opacity="0.7"/>
<line x1="52" y1="0" x2="52" y2="220" stroke="#e06060" stroke-width="0.1" opacity="0.32"/>
<line x1="54" y1="0" x2="54" y2="220" stroke="#e06060" stroke-width="0.1" opacity="0.32"/>
<line x1="56" y1="0" x2="56" y2="220" stroke="#e06060" stroke-width="0.1" opacity="0.32"/>
<line x1="58" y1="0" x2="58" y2="220" stroke="#e06060" stroke-width="0.1" opacity="0.32"/>
<line x1="60" y1="0" x2="60" y2="220" stroke="#e06060" stroke-width="0.38" opacity="0.7"/>
<line x1="62" y1="0" x2="62" y2="220" stroke="#e06060" stroke-width="0.1" opacity="0.32"/>
<line x1="64" y1="0" x2="64" y2="220" stroke="#e06060" stroke-width="0.1" opacity="0.32"/>
<line x1="66" y1="0" x2="66" y2="220" stroke="#e06060" stroke-width="0.1" opacity="0.32"/>
<line x1="68" y1="0" x2="68" y2="220" stroke="#e06060" stroke-width="0.1" opacity="0.32"/>
<line x1="70" y1="0" x2="70" y2="220" stroke="#e06060" stroke-width="0.38" opacity="0.7"/>
<line x1="72" y1="0" x2="72" y2="220" stroke="#e06060" stroke-width="0.1" opacity="0.32"/>
<line x1="74" y1="0" x2="74" y2="220" stroke="#e06060" stroke-width="0.1" opacity="0.32"/>
<line x1="76" y1="0" x2="76" y2="220" stroke="#e06060" stroke-width="0.1" opacity="0.32"/>
<line x1="78" y1="0" x2="78" y2="220" stroke="#e06060" stroke-width="0.1" opacity="0.32"/>
<line x1="80" y1="0" x2="80" y2="220" stroke="#e06060" stroke-width="0.38" opacity="0.7"/>
<line x1="82" y1="0" x2="82" y2="220" stroke="#e06060" stroke-width="0.1" opacity="0.32"/>
<line x1="84" y1="0" x2="84" y2="220" stroke="#e06060" stroke-width="0.1" opacity="0.32"/>
<line x1="86" y1="0" x2="86" y2="220" stroke="#e06060" stroke-width="0.1" opacity="0.32"/>
<line x1="88" y1="0" x2="88" y2="220" stroke="#e06060" stroke-width="0.1" opacity="0.32"/>
<line x1="90" y1="0" x2="90" y2="220" stroke="#e06060" stroke-width="0.38" opacity="0.7"/>
<line x1="92" y1="0" x2="92" y2="220" stroke="#e06060" stroke-width="0.1" opacity="0.32"/>
<line x1="94" y1="0" x2="94" y2="220" stroke="#e06060" stroke-width="0.1" opacity="0.32"/>
<line x1="96" y1="0" x2="96" y2="220" stroke="#e06060" stroke-width="0.1" opacity="0.32"/>
<line x1="98" y1="0" x2="98" y2="220" stroke="#e06060" stroke-width="0.1" opacity="0.32"/>
<line x1="100" y1="0" x2="100" y2="220" stroke="#e06060" stroke-width="0.38" opacity="0.7"/>
<line x1="102" y1="0" x2="102" y2="220" stroke="#e06060" stroke-width="0.1" opacity="0.32"/>
<line x1="104" y1="0" x2="104" y2="220" stroke="#e06060" stroke-width="0.1" opacity="0.32"/>
<line x1="106" y1="0" x2="106" y2="220" stroke="#e06060" stroke-width="0.1" opacity="0.32"/>
<line x1="108" y1="0" x2="108" y2="220" stroke="#e06060" stroke-width="0.1" opacity="0.32"/>
<line x1="110" y1="0" x2="110" y2="220" stroke="#e06060" stroke-width="0.38" opacity="0.7"/>
<line x1="112" y1="0" x2="112" y2="220" stroke="#e06060" stroke-width="0.1" opacity="0.32"/>
<line x1="114" y1="0" x2="114" y2="220" stroke="#e06060" stroke-width="0.1" opacity="0.32"/>
<line x1="116" y1="0" x2="116" y2="220" stroke="#e06060" stroke-width="0.1" opacity="0.32"/>
<line x1="118" y1="0" x2="118" y2="220" stroke="#e06060" stroke-width="0.1" opacity="0.32"/>
<line x1="120" y1="0" x2="120" y2="220" stroke="#e06060" stroke-width="0.38" opacity="0.7"/>
<line x1="122" y1="0" x2="122" y2="220" stroke="#e06060" stroke-width="0.1" opacity="0.32"/>
<line x1="124" y1="0" x2="124" y2="220" stroke="#e06060" stroke-width="0.1" opacity="0.32"/>
<line x1="126" y1="0" x2="126" y2="220" stroke="#e06060" stroke-width="0.1" opacity="0.32"/>
<line x1="128" y1="0" x2="128" y2="220" stroke="#e06060" stroke-width="0.1" opacity="0.32"/>
<line x1="130" y1="0" x2="130" y2="220" stroke="#e06060" stroke-width="0.38" opacity="0.7"/>
<line x1="132" y1="0" x2="132" y2="220" stroke="#e06060" stroke-width="0.1" opacity="0.32"/>
<line x1="134" y1="0" x2="134" y2="220" stroke="#e06060" stroke-width="0.1" opacity="0.32"/>
<line x1="136" y1="0" x2="136" y2="220" stroke="#e06060" stroke-width="0.1" opacity="0.32"/>
<line x1="138" y1="0" x2="138" y2="220" stroke="#e06060" stroke-width="0.1" opacity="0.32"/>
<line x1="140" y1="0" x2="140" y2="220" stroke="#e06060" stroke-width="0.38" opacity="0.7"/>
<line x1="0" y1="0" x2="140" y2="0" stroke="#e06060" stroke-width="0.38" opacity="0.7"/>
<line x1="0" y1="2" x2="140" y2="2" stroke="#e06060" stroke-width="0.1" opacity="0.32"/>
<line x1="0" y1="4" x2="140" y2="4" stroke="#e06060" stroke-width="0.1" opacity="0.32"/>
<line x1="0" y1="6" x2="140" y2="6" stroke="#e06060" stroke-width="0.1" opacity="0.32"/>
<line x1="0" y1="8" x2="140" y2="8" stroke="#e06060" stroke-width="0.1" opacity="0.32"/>
<line x1="0" y1="10" x2="140" y2="10" stroke="#e06060" stroke-width="0.38" opacity="0.7"/>
<line x1="0" y1="12" x2="140" y2="12" stroke="#e06060" stroke-width="0.1" opacity="0.32"/>
<line x1="0" y1="14" x2="140" y2="14" stroke="#e06060" stroke-width="0.1" opacity="0.32"/>
<line x1="0" y1="16" x2="140" y2="16" stroke="#e06060" stroke-width="0.1" opacity="0.32"/>
<line x1="0" y1="18" x2="140" y2="18" stroke="#e06060" stroke-width="0.1" opacity="0.32"/>
<line x1="0" y1="20" x2="140" y2="20" stroke="#e06060" stroke-width="0.38" opacity="0.7"/>
<line x1="0" y1="22" x2="140" y2="22" stroke="#e06060" stroke-width="0.1" opacity="0.32"/>
<line x1="0" y1="24" x2="140" y2="24" stroke="#e06060" stroke-width="0.1" opacity="0.32"/>
<line x1="0" y1="26" x2="140" y2="26" stroke="#e06060" stroke-width="0.1" opacity="0.32"/>
<line x1="0" y1="28" x2="140" y2="28" stroke="#e06060" stroke-width="0.1" opacity="0.32"/>
<line x1="0" y1="30" x2="140" y2="30" stroke="#e06060" stroke-width="0.38" opacity="0.7"/>
<line x1="0" y1="32" x2="140" y2="32" stroke="#e06060" stroke-width="0.1" opacity="0.32"/>
<line x1="0" y1="34" x2="140" y2="34" stroke="#e06060" stroke-width="0.1" opacity="0.32"/>
<line x1="0" y1="36" x2="140" y2="36" stroke="#e06060" stroke-width="0.1" opacity="0.32"/>
<line x1="0" y1="38" x2="140" y2="38" stroke="#e06060" stroke-width="0.1" opacity="0.32"/>
<line x1="0" y1="40" x2="140" y2="40" stroke="#e06060" stroke-width="0.38" opacity="0.7"/>
<line x1="0" y1="42" x2="140" y2="42" stroke="#e06060" stroke-width="0.1" opacity="0.32"/>
<line x1="0" y1="44" x2="140" y2="44" stroke="#e06060" stroke-width="0.1" opacity="0.32"/>
<line x1="0" y1="46" x2="140" y2="46" stroke="#e06060" stroke-width="0.1" opacity="0.32"/>
<line x1="0" y1="48" x2="140" y2="48" stroke="#e06060" stroke-width="0.1" opacity="0.32"/>
<line x1="0" y1="50" x2="140" y2="50" stroke="#e06060" stroke-width="0.38" opacity="0.7"/>
<line x1="0" y1="52" x2="140" y2="52" stroke="#e06060" stroke-width="0.1" opacity="0.32"/>
<line x1="0" y1="54" x2="140" y2="54" stroke="#e06060" stroke-width="0.1" opacity="0.32"/>
<line x1="0" y1="56" x2="140" y2="56" stroke="#e06060" stroke-width="0.1" opacity="0.32"/>
<line x1="0" y1="58" x2="140" y2="58" stroke="#e06060" stroke-width="0.1" opacity="0.32"/>
<line x1="0" y1="60" x2="140" y2="60" stroke="#e06060" stroke-width="0.38" opacity="0.7"/>
<line x1="0" y1="62" x2="140" y2="62" stroke="#e06060" stroke-width="0.1" opacity="0.32"/>
<line x1="0" y1="64" x2="140" y2="64" stroke="#e06060" stroke-width="0.1" opacity="0.32"/>
<line x1="0" y1="66" x2="140" y2="66" stroke="#e06060" stroke-width="0.1" opacity="0.32"/>
<line x1="0" y1="68" x2="140" y2="68" stroke="#e06060" stroke-width="0.1" opacity="0.32"/>
<line x1="0" y1="70" x2="140" y2="70" stroke="#e06060" stroke-width="0.38" opacity="0.7"/>
<line x1="0" y1="72" x2="140" y2="72" stroke="#e06060" stroke-width="0.1" opacity="0.32"/>
<line x1="0" y1="74" x2="140" y2="74" stroke="#e06060" stroke-width="0.1" opacity="0.32"/>
<line x1="0" y1="76" x2="140" y2="76" stroke="#e06060" stroke-width="0.1" opacity="0.32"/>
<line x1="0" y1="78" x2="140" y2="78" stroke="#e06060" stroke-width="0.1" opacity="0.32"/>
<line x1="0" y1="80" x2="140" y2="80" stroke="#e06060" stroke-width="0.38" opacity="0.7"/>
<line x1="0" y1="82" x2="140" y2="82" stroke="#e06060" stroke-width="0.1" opacity="0.32"/>
<line x1="0" y1="84" x2="140" y2="84" stroke="#e06060" stroke-width="0.1" opacity="0.32"/>
<line x1="0" y1="86" x2="140" y2="86" stroke="#e06060" stroke-width="0.1" opacity="0.32"/>
<line x1="0" y1="88" x2="140" y2="88" stroke="#e06060" stroke-width="0.1" opacity="0.32"/>
<line x1="0" y1="90" x2="140" y2="90" stroke="#e06060" stroke-width="0.38" opacity="0.7"/>
<line x1="0" y1="92" x2="140" y2="92" stroke="#e06060" stroke-width="0.1" opacity="0.32"/>
<line x1="0" y1="94" x2="140" y2="94" stroke="#e06060" stroke-width="0.1" opacity="0.32"/>
<line x1="0" y1="96" x2="140" y2="96" stroke="#e06060" stroke-width="0.1" opacity="0.32"/>
<line x1="0" y1="98" x2="140" y2="98" stroke="#e06060" stroke-width="0.1" opacity="0.32"/>
<line x1="0" y1="100" x2="140" y2="100" stroke="#e06060" stroke-width="0.38" opacity="0.7"/>
<line x1="0" y1="102" x2="140" y2="102" stroke="#e06060" stroke-width="0.1" opacity="0.32"/>
<line x1="0" y1="104" x2="140" y2="104" stroke="#e06060" stroke-width="0.1" opacity="0.32"/>
<line x1="0" y1="106" x2="140" y2="106" stroke="#e06060" stroke-width="0.1" opacity="0.32"/>
<line x1="0" y1="108" x2="140" y2="108" stroke="#e06060" stroke-width="0.1" opacity="0.32"/>
<line x1="0" y1="110" x2="140" y2="110" stroke="#e06060" stroke-width="0.38" opacity="0.7"/>
<line x1="0" y1="112" x2="140" y2="112" stroke="#e06060" stroke-width="0.1" opacity="0.32"/>
<line x1="0" y1="114" x2="140" y2="114" stroke="#e06060" stroke-width="0.1" opacity="0.32"/>
<line x1="0" y1="116" x2="140" y2="116" stroke="#e06060" stroke-width="0.1" opacity="0.32"/>
<line x1="0" y1="118" x2="140" y2="118" stroke="#e06060" stroke-width="0.1" opacity="0.32"/>
<line x1="0" y1="120" x2="140" y2="120" stroke="#e06060" stroke-width="0.38" opacity="0.7"/>
<line x1="0" y1="122" x2="140" y2="122" stroke="#e06060" stroke-width="0.1" opacity="0.32"/>
<line x1="0" y1="124" x2="140" y2="124" stroke="#e06060" stroke-width="0.1" opacity="0.32"/>
<line x1="0" y1="126" x2="140" y2="126" stroke="#e06060" stroke-width="0.1" opacity="0.32"/>
<line x1="0" y1="128" x2="140" y2="128" stroke="#e06060" stroke-width="0.1" opacity="0.32"/>
<line x1="0" y1="130" x2="140" y2="130" stroke="#e06060" stroke-width="0.38" opacity="0.7"/>
<line x1="0" y1="132" x2="140" y2="132" stroke="#e06060" stroke-width="0.1" opacity="0.32"/>
<line x1="0" y1="134" x2="140" y2="134" stroke="#e06060" stroke-width="0.1" opacity="0.32"/>
<line x1="0" y1="136" x2="140" y2="136" stroke="#e06060" stroke-width="0.1" opacity="0.32"/>
<line x1="0" y1="138" x2="140" y2="138" stroke="#e06060" stroke-width="0.1" opacity="0.32"/>
<line x1="0" y1="140" x2="140" y2="140" stroke="#e06060" stroke-width="0.38" opacity="0.7"/>
<line x1="0" y1="142" x2="140" y2="142" stroke="#e06060" stroke-width="0.1" opacity="0.32"/>
<line x1="0" y1="144" x2="140" y2="144" stroke="#e06060" stroke-width="0.1" opacity="0.32"/>
<line x1="0" y1="146" x2="140" y2="146" stroke="#e06060" stroke-width="0.1" opacity="0.32"/>
<line x1="0" y1="148" x2="140" y2="148" stroke="#e06060" stroke-width="0.1" opacity="0.32"/>
<line x1="0" y1="150" x2="140" y2="150" stroke="#e06060" stroke-width="0.38" opacity="0.7"/>
<line x1="0" y1="152" x2="140" y2="152" stroke="#e06060" stroke-width="0.1" opacity="0.32"/>
<line x1="0" y1="154" x2="140" y2="154" stroke="#e06060" stroke-width="0.1" opacity="0.32"/>
<line x1="0" y1="156" x2="140" y2="156" stroke="#e06060" stroke-width="0.1" opacity="0.32"/>
<line x1="0" y1="158" x2="140" y2="158" stroke="#e06060" stroke-width="0.1" opacity="0.32"/>
<line x1="0" y1="160" x2="140" y2="160" stroke="#e06060" stroke-width="0.38" opacity="0.7"/>
<line x1="0" y1="162" x2="140" y2="162" stroke="#e06060" stroke-width="0.1" opacity="0.32"/>
<line x1="0" y1="164" x2="140" y2="164" stroke="#e06060" stroke-width="0.1" opacity="0.32"/>
<line x1="0" y1="166" x2="140" y2="166" stroke="#e06060" stroke-width="0.1" opacity="0.32"/>
<line x1="0" y1="168" x2="140" y2="168" stroke="#e06060" stroke-width="0.1" opacity="0.32"/>
<line x1="0" y1="170" x2="140" y2="170" stroke="#e06060" stroke-width="0.38" opacity="0.7"/>
<line x1="0" y1="172" x2="140" y2="172" stroke="#e06060" stroke-width="0.1" opacity="0.32"/>
<line x1="0" y1="174" x2="140" y2="174" stroke="#e06060" stroke-width="0.1" opacity="0.32"/>
<line x1="0" y1="176" x2="140" y2="176" stroke="#e06060" stroke-width="0.1" opacity="0.32"/>
<line x1="0" y1="178" x2="140" y2="178" stroke="#e06060" stroke-width="0.1" opacity="0.32"/>
<line x1="0" y1="180" x2="140" y2="180" stroke="#e06060" stroke-width="0.38" opacity="0.7"/>
<line x1="0" y1="182" x2="140" y2="182" stroke="#e06060" stroke-width="0.1" opacity="0.32"/>
<line x1="0" y1="184" x2="140" y2="184" stroke="#e06060" stroke-width="0.1" opacity="0.32"/>
<line x1="0" y1="186" x2="140" y2="186" stroke="#e06060" stroke-width="0.1" opacity="0.32"/>
<line x1="0" y1="188" x2="140" y2="188" stroke="#e06060" stroke-width="0.1" opacity="0.32"/>
<line x1="0" y1="190" x2="140" y2="190" stroke="#e06060" stroke-width="0.38" opacity="0.7"/>
<line x1="0" y1="192" x2="140" y2="192" stroke="#e06060" stroke-width="0.1" opacity="0.32"/>
<line x1="0" y1="194" x2="140" y2="194" stroke="#e06060" stroke-width="0.1" opacity="0.32"/>
<line x1="0" y1="196" x2="140" y2="196" stroke="#e06060" stroke-width="0.1" opacity="0.32"/>
<line x1="0" y1="198" x2="140" y2="198" stroke="#e06060" stroke-width="0.1" opacity="0.32"/>
<line x1="0" y1="200" x2="140" y2="200" stroke="#e06060" stroke-width="0.38" opacity="0.7"/>
<line x1="0" y1="202" x2="140" y2="202" stroke="#e06060" stroke-width="0.1" opacity="0.32"/>
<line x1="0" y1="204" x2="140" y2="204" stroke="#e06060" stroke-width="0.1" opacity="0.32"/>
<line x1="0" y1="206" x2="140" y2="206" stroke="#e06060" stroke-width="0.1" opacity="0.32"/>
<line x1="0" y1="208" x2="140" y2="208" stroke="#e06060" stroke-width="0.1" opacity="0.32"/>
<line x1="0" y1="210" x2="140" y2="210" stroke="#e06060" stroke-width="0.38" opacity="0.7"/>
<line x1="0" y1="212" x2="140" y2="212" stroke="#e06060" stroke-width="0.1" opacity="0.32"/>
<line x1="0" y1="214" x2="140" y2="214" stroke="#e06060" stroke-width="0.1" opacity="0.32"/>
<line x1="0" y1="216" x2="140" y2="216" stroke="#e06060" stroke-width="0.1" opacity="0.32"/>
<line x1="0" y1="218" x2="140" y2="218" stroke="#e06060" stroke-width="0.1" opacity="0.32"/>
<line x1="0" y1="220" x2="140" y2="220" stroke="#e06060" stroke-width="0.38" opacity="0.7"/>
<text x="2" y="227" font-family="system-ui,sans-serif" font-size="2.3" fill="#5c5650">Weiß = erhabene Stege · Schwarz = vertiefte Zwischenräume · Orange = Stopp</text>
</svg>