<?xml version="1.0"?><svg xmlns="http://www.w3.org/2000/svg" width="140mm" height="220mm" viewBox="0 0 140 220">
<rect width="140" height="220" fill="#fff"/><g id="STEMPEL" fill="#000">
<rect x="0" y="0" width="140" height="2"/>
<rect x="0" y="2" width="2" height="218"/>
<rect x="138" y="2" width="2" height="218"/>
<rect x="86" y="8" width="52" height="2"/>
<rect x="88" y="10" width="2" height="22"/>
<rect x="100" y="10" width="4" height="2"/>
<rect x="128" y="10" width="4" height="2"/>
<rect x="134" y="10" width="4" height="2"/>
<rect x="100" y="12" width="2" height="14"/>
<rect x="130" y="12" width="2" height="14"/>
<rect x="136" y="12" width="2" height="14"/>
<rect x="106" y="14" width="20" height="2"/>
<rect x="128" y="14" width="2" height="12"/>
<rect x="106" y="16" width="2" height="10"/>
<rect x="86" y="18" width="2" height="14"/>
<rect x="134" y="22" width="2" height="76"/>
<rect x="96" y="24" width="4" height="2"/>
<rect x="108" y="24" width="20" height="2"/>
<rect x="92" y="28" width="4" height="4"/>
<rect x="90" y="30" width="2" height="2"/>
<rect x="96" y="30" width="34" height="2"/>
<rect x="128" y="32" width="2" height="26"/>
<rect x="130" y="34" width="2" height="6"/>
<rect x="112" y="44" width="2" height="20"/>
<rect x="72" y="60" width="18" height="4"/>
<rect x="110" y="60" width="2" height="4"/>
<rect x="90" y="62" width="20" height="2"/>
<rect x="114" y="62" width="20" height="2"/>
<rect x="70" y="64" width="4" height="22"/>
<rect x="106" y="64" width="2" height="22"/>
<rect x="2" y="66" width="2" height="46"/>
<rect x="78" y="66" width="12" height="4"/>
<rect x="90" y="68" width="12" height="2"/>
<rect x="78" y="70" width="2" height="26"/>
<rect x="100" y="70" width="2" height="12"/>
<rect x="116" y="74" width="8" height="2"/>
<rect x="116" y="76" width="4" height="6"/>
<rect x="76" y="78" width="2" height="18"/>
<rect x="88" y="78" width="12" height="4"/>
<rect x="104" y="78" width="2" height="8"/>
<rect x="88" y="82" width="2" height="4"/>
<rect x="116" y="82" width="2" height="32"/>
<rect x="128" y="82" width="2" height="20"/>
<rect x="90" y="84" width="14" height="2"/>
<rect x="122" y="84" width="6" height="2"/>
<rect x="70" y="86" width="2" height="58"/>
<rect x="122" y="86" width="2" height="10"/>
<rect x="132" y="88" width="2" height="14"/>
<rect x="126" y="92" width="2" height="6"/>
<rect x="80" y="94" width="36" height="2"/>
<rect x="120" y="98" width="2" height="4"/>
<rect x="118" y="100" width="2" height="2"/>
<rect x="122" y="100" width="6" height="2"/>
<rect x="132" y="104" width="2" height="116"/>
<rect x="118" y="106" width="14" height="2"/>
<rect x="108" y="110" width="2" height="4"/>
<rect x="114" y="110" width="2" height="4"/>
<rect x="106" y="112" width="2" height="2"/>
<rect x="110" y="112" width="4" height="2"/>
<rect x="118" y="112" width="14" height="2"/>
<rect x="6" y="114" width="6" height="4"/>
<rect x="2" y="116" width="4" height="2"/>
<rect x="12" y="116" width="30" height="2"/>
<rect x="44" y="116" width="26" height="2"/>
<rect x="76" y="116" width="42" height="2"/>
<rect x="2" y="118" width="2" height="6"/>
<rect x="24" y="118" width="2" height="12"/>
<rect x="44" y="118" width="2" height="12"/>
<rect x="50" y="118" width="2" height="6"/>
<rect x="76" y="118" width="2" height="12"/>
<rect x="88" y="118" width="4" height="2"/>
<rect x="94" y="118" width="36" height="2"/>
<rect x="68" y="120" width="2" height="36"/>
<rect x="88" y="120" width="2" height="10"/>
<rect x="106" y="120" width="2" height="10"/>
<rect x="116" y="120" width="2" height="12"/>
<rect x="94" y="122" width="12" height="2"/>
<rect x="108" y="122" width="4" height="4"/>
<rect x="94" y="124" width="4" height="2"/>
<rect x="100" y="124" width="4" height="2"/>
<rect x="22" y="126" width="2" height="4"/>
<rect x="30" y="126" width="2" height="4"/>
<rect x="94" y="126" width="2" height="4"/>
<rect x="18" y="128" width="4" height="2"/>
<rect x="26" y="128" width="4" height="2"/>
<rect x="32" y="128" width="12" height="2"/>
<rect x="46" y="128" width="18" height="2"/>
<rect x="78" y="128" width="10" height="2"/>
<rect x="96" y="128" width="10" height="2"/>
<rect x="108" y="128" width="4" height="2"/>
<rect x="114" y="128" width="2" height="4"/>
<rect x="128" y="128" width="4" height="4"/>
<rect x="118" y="130" width="10" height="2"/>
<rect x="76" y="134" width="52" height="2"/>
<rect x="76" y="136" width="2" height="8"/>
<rect x="98" y="136" width="30" height="2"/>
<rect x="120" y="138" width="2" height="14"/>
<rect x="126" y="138" width="2" height="14"/>
<rect x="14" y="140" width="2" height="46"/>
<rect x="74" y="140" width="2" height="4"/>
<rect x="114" y="140" width="2" height="16"/>
<rect x="80" y="142" width="30" height="2"/>
<rect x="116" y="142" width="4" height="2"/>
<rect x="100" y="144" width="4" height="2"/>
<rect x="108" y="144" width="2" height="36"/>
<rect x="34" y="146" width="24" height="2"/>
<rect x="70" y="146" width="2" height="4"/>
<rect x="52" y="148" width="6" height="2"/>
<rect x="72" y="148" width="32" height="2"/>
<rect x="124" y="148" width="2" height="4"/>
<rect x="54" y="150" width="2" height="10"/>
<rect x="102" y="150" width="2" height="36"/>
<rect x="122" y="150" width="2" height="2"/>
<rect x="60" y="152" width="4" height="4"/>
<rect x="56" y="154" width="4" height="2"/>
<rect x="64" y="154" width="4" height="2"/>
<rect x="70" y="154" width="32" height="2"/>
<rect x="116" y="154" width="12" height="2"/>
<rect x="16" y="156" width="4" height="2"/>
<rect x="100" y="156" width="2" height="2"/>
<rect x="118" y="156" width="14" height="2"/>
<rect x="18" y="158" width="36" height="2"/>
<rect x="56" y="158" width="10" height="2"/>
<rect x="60" y="160" width="16" height="2"/>
<rect x="80" y="160" width="22" height="2"/>
<rect x="114" y="160" width="10" height="4"/>
<rect x="74" y="162" width="2" height="6"/>
<rect x="80" y="162" width="2" height="6"/>
<rect x="124" y="162" width="8" height="2"/>
<rect x="66" y="164" width="4" height="8"/>
<rect x="100" y="164" width="2" height="10"/>
<rect x="114" y="164" width="2" height="20"/>
<rect x="70" y="166" width="4" height="2"/>
<rect x="82" y="166" width="10" height="2"/>
<rect x="120" y="168" width="12" height="2"/>
<rect x="120" y="170" width="2" height="20"/>
<rect x="68" y="172" width="2" height="38"/>
<rect x="126" y="172" width="2" height="22"/>
<rect x="130" y="174" width="2" height="2"/>
<rect x="104" y="176" width="4" height="4"/>
<rect x="66" y="178" width="2" height="32"/>
<rect x="100" y="178" width="2" height="12"/>
<rect x="130" y="178" width="2" height="4"/>
<rect x="2" y="180" width="2" height="32"/>
<rect x="78" y="182" width="20" height="2"/>
<rect x="104" y="182" width="2" height="2"/>
<rect x="6" y="184" width="8" height="2"/>
<rect x="16" y="184" width="18" height="2"/>
<rect x="36" y="184" width="2" height="4"/>
<rect x="80" y="184" width="2" height="16"/>
<rect x="84" y="184" width="4" height="16"/>
<rect x="90" y="184" width="4" height="4"/>
<rect x="124" y="184" width="2" height="12"/>
<rect x="32" y="186" width="4" height="2"/>
<rect x="78" y="186" width="2" height="4"/>
<rect x="74" y="188" width="4" height="2"/>
<rect x="92" y="188" width="8" height="2"/>
<rect x="102" y="188" width="18" height="2"/>
<rect x="72" y="190" width="4" height="20"/>
<rect x="90" y="190" width="4" height="4"/>
<rect x="130" y="190" width="2" height="10"/>
<rect x="94" y="192" width="30" height="2"/>
<rect x="118" y="194" width="6" height="2"/>
<rect x="78" y="196" width="2" height="14"/>
<rect x="88" y="198" width="42" height="2"/>
<rect x="84" y="200" width="2" height="10"/>
<rect x="124" y="200" width="2" height="12"/>
<rect x="86" y="202" width="10" height="2"/>
<rect x="98" y="202" width="8" height="4"/>
<rect x="130" y="202" width="2" height="4"/>
<rect x="86" y="204" width="2" height="6"/>
<rect x="92" y="204" width="6" height="2"/>
<rect x="106" y="204" width="18" height="2"/>
<rect x="92" y="206" width="4" height="4"/>
<rect x="104" y="206" width="2" height="4"/>
<rect x="76" y="208" width="2" height="2"/>
<rect x="80" y="208" width="4" height="2"/>
<rect x="90" y="208" width="2" height="2"/>
<rect x="98" y="208" width="6" height="2"/>
<rect x="108" y="208" width="8" height="4"/>
<rect x="122" y="208" width="2" height="4"/>
<rect x="130" y="208" width="2" height="12"/>
<rect x="4" y="210" width="16" height="2"/>
<rect x="116" y="210" width="6" height="2"/>
<rect x="10" y="212" width="48" height="2"/>
<rect x="44" y="214" width="4" height="2"/>
<rect x="50" y="214" width="62" height="2"/>
<rect x="96" y="216" width="34" height="4"/>
<rect x="2" y="218" width="94" height="2"/>
<rect x="134" y="218" width="4" height="2"/>
<rect x="8" y="6" width="26" height="4"/>
<rect x="36" y="6" width="12" height="4"/>
<rect x="50" y="6" width="4" height="4"/>
<rect x="58" y="6" width="18" height="4"/>
<rect x="80" y="6" width="4" height="4"/>
<rect x="6" y="8" width="2" height="30"/>
<rect x="34" y="8" width="2" height="2"/>
<rect x="48" y="8" width="2" height="2"/>
<rect x="54" y="8" width="4" height="2"/>
<rect x="76" y="8" width="4" height="2"/>
<rect x="30" y="10" width="2" height="14"/>
<rect x="56" y="10" width="2" height="14"/>
<rect x="82" y="10" width="2" height="14"/>
<rect x="80" y="12" width="2" height="30"/>
<rect x="54" y="22" width="2" height="2"/>
<rect x="4" y="36" width="2" height="26"/>
<rect x="78" y="38" width="2" height="4"/>
<rect x="14" y="12" width="12" height="2"/>
<rect x="12" y="14" width="4" height="2"/>
<rect x="12" y="16" width="2" height="8"/>
<rect x="38" y="12" width="14" height="4"/>
<rect x="36" y="14" width="2" height="10"/>
<rect x="40" y="16" width="2" height="4"/>
<rect x="50" y="16" width="2" height="4"/>
<rect x="38" y="18" width="2" height="2"/>
<rect x="42" y="18" width="8" height="2"/>
<rect x="38" y="22" width="14" height="2"/>
<rect x="62" y="12" width="2" height="28"/>
<rect x="10" y="28" width="48" height="2"/>
<rect x="60" y="28" width="2" height="4"/>
<rect x="10" y="30" width="4" height="10"/>
<rect x="18" y="30" width="2" height="16"/>
<rect x="38" y="30" width="2" height="10"/>
<rect x="44" y="30" width="16" height="2"/>
<rect x="54" y="32" width="2" height="14"/>
<rect x="20" y="34" width="18" height="2"/>
<rect x="40" y="34" width="12" height="2"/>
<rect x="60" y="34" width="2" height="16"/>
<rect x="20" y="38" width="18" height="2"/>
<rect x="40" y="38" width="6" height="2"/>
<rect x="10" y="40" width="2" height="12"/>
<rect x="16" y="40" width="2" height="30"/>
<rect x="28" y="44" width="26" height="2"/>
<rect x="28" y="46" width="2" height="4"/>
<rect x="30" y="48" width="30" height="2"/>
<rect x="14" y="58" width="2" height="4"/>
<rect x="18" y="60" width="50" height="2"/>
<rect x="26" y="62" width="2" height="12"/>
<rect x="66" y="62" width="2" height="18"/>
<rect x="14" y="66" width="2" height="34"/>
<rect x="64" y="66" width="2" height="40"/>
<rect x="12" y="92" width="2" height="14"/>
<rect x="6" y="98" width="6" height="2"/>
<rect x="6" y="104" width="6" height="2"/>
<rect x="14" y="104" width="2" height="2"/>
<rect x="44" y="104" width="20" height="2"/>
<rect x="94" y="12" width="2" height="4"/>
<rect x="68" y="14" width="2" height="32"/>
<rect x="66" y="34" width="2" height="22"/>
<rect x="22" y="46" width="2" height="10"/>
<rect x="24" y="54" width="42" height="2"/>
<rect x="74" y="14" width="2" height="36"/>
<rect x="72" y="38" width="2" height="20"/>
<rect x="18" y="18" width="8" height="2"/>
<rect x="94" y="18" width="2" height="2"/>
<rect x="124" y="18" width="2" height="4"/>
<rect x="110" y="20" width="14" height="2"/>
<rect x="24" y="22" width="2" height="2"/>
<rect x="86" y="34" width="14" height="2"/>
<rect x="86" y="36" width="2" height="12"/>
<rect x="124" y="34" width="2" height="24"/>
<rect x="122" y="48" width="2" height="10"/>
<rect x="118" y="36" width="2" height="22"/>
<rect x="116" y="50" width="2" height="8"/>
<rect x="92" y="40" width="22" height="2"/>
<rect x="92" y="42" width="4" height="2"/>
<rect x="92" y="44" width="2" height="2"/>
<rect x="78" y="44" width="4" height="14"/>
<rect x="98" y="44" width="6" height="4"/>
<rect x="106" y="46" width="2" height="12"/>
<rect x="84" y="56" width="22" height="2"/>
<rect x="86" y="50" width="16" height="2"/>
<rect x="10" y="54" width="2" height="16"/>
<rect x="8" y="60" width="2" height="2"/>
<rect x="8" y="64" width="2" height="32"/>
<rect x="6" y="92" width="2" height="2"/>
<rect x="20" y="66" width="4" height="2"/>
<rect x="20" y="68" width="2" height="6"/>
<rect x="32" y="66" width="30" height="2"/>
<rect x="60" y="68" width="2" height="6"/>
<rect x="32" y="70" width="6" height="4"/>
<rect x="58" y="70" width="2" height="4"/>
<rect x="38" y="72" width="20" height="2"/>
<rect x="32" y="74" width="4" height="6"/>
<rect x="36" y="78" width="24" height="2"/>
<rect x="32" y="80" width="2" height="4"/>
<rect x="52" y="80" width="2" height="16"/>
<rect x="58" y="80" width="2" height="20"/>
<rect x="40" y="82" width="8" height="4"/>
<rect x="38" y="84" width="2" height="2"/>
<rect x="48" y="84" width="4" height="2"/>
<rect x="18" y="96" width="2" height="4"/>
<rect x="20" y="98" width="38" height="2"/>
<rect x="24" y="100" width="2" height="12"/>
<rect x="34" y="100" width="4" height="8"/>
<rect x="30" y="104" width="2" height="8"/>
<rect x="34" y="108" width="2" height="4"/>
<rect x="6" y="110" width="18" height="2"/>
<rect x="26" y="110" width="4" height="2"/>
<rect x="110" y="68" width="20" height="2"/>
<rect x="110" y="70" width="4" height="4"/>
<rect x="128" y="70" width="2" height="10"/>
<rect x="84" y="72" width="10" height="4"/>
<rect x="94" y="74" width="2" height="2"/>
<rect x="110" y="74" width="2" height="18"/>
<rect x="84" y="76" width="2" height="16"/>
<rect x="82" y="82" width="2" height="10"/>
<rect x="86" y="90" width="24" height="2"/>
<rect x="24" y="78" width="4" height="14"/>
<rect x="28" y="88" width="22" height="2"/>
<rect x="24" y="92" width="2" height="2"/>
<rect x="122" y="78" width="2" height="2"/>
<rect x="20" y="82" width="2" height="4"/>
<rect x="20" y="94" width="2" height="2"/>
<rect x="76" y="98" width="16" height="4"/>
<rect x="94" y="98" width="2" height="4"/>
<rect x="92" y="100" width="2" height="2"/>
<rect x="96" y="100" width="16" height="2"/>
<rect x="96" y="102" width="2" height="10"/>
<rect x="102" y="102" width="2" height="10"/>
<rect x="94" y="104" width="2" height="8"/>
<rect x="40" y="102" width="2" height="10"/>
<rect x="42" y="110" width="24" height="2"/>
<rect x="18" y="104" width="2" height="2"/>
<rect x="76" y="104" width="8" height="4"/>
<rect x="76" y="108" width="2" height="4"/>
<rect x="78" y="110" width="6" height="2"/>
<rect x="88" y="104" width="2" height="10"/>
<rect x="108" y="106" width="4" height="2"/>
<rect x="18" y="120" width="2" height="4"/>
<rect x="12" y="122" width="6" height="2"/>
<rect x="12" y="124" width="2" height="4"/>
<rect x="6" y="122" width="4" height="14"/>
<rect x="10" y="132" width="10" height="4"/>
<rect x="20" y="134" width="38" height="2"/>
<rect x="56" y="136" width="2" height="6"/>
<rect x="30" y="122" width="10" height="2"/>
<rect x="54" y="122" width="12" height="2"/>
<rect x="82" y="122" width="2" height="4"/>
<rect x="126" y="122" width="2" height="4"/>
<rect x="120" y="124" width="6" height="2"/>
<rect x="62" y="132" width="2" height="18"/>
<rect x="6" y="140" width="6" height="2"/>
<rect x="18" y="140" width="2" height="14"/>
<rect x="22" y="140" width="30" height="2"/>
<rect x="30" y="142" width="2" height="6"/>
<rect x="42" y="142" width="4" height="2"/>
<rect x="48" y="142" width="4" height="2"/>
<rect x="24" y="144" width="2" height="4"/>
<rect x="22" y="146" width="2" height="2"/>
<rect x="26" y="146" width="4" height="2"/>
<rect x="22" y="152" width="28" height="2"/>
<rect x="4" y="158" width="2" height="2"/>
<rect x="8" y="158" width="2" height="2"/>
<rect x="18" y="162" width="2" height="18"/>
<rect x="22" y="162" width="4" height="18"/>
<rect x="20" y="178" width="2" height="2"/>
<rect x="24" y="180" width="20" height="2"/>
<rect x="40" y="182" width="4" height="4"/>
<rect x="42" y="186" width="2" height="6"/>
<rect x="40" y="188" width="2" height="4"/>
<rect x="24" y="190" width="16" height="2"/>
<rect x="30" y="162" width="2" height="14"/>
<rect x="48" y="162" width="2" height="4"/>
<rect x="28" y="164" width="2" height="8"/>
<rect x="32" y="164" width="16" height="2"/>
<rect x="54" y="164" width="8" height="4"/>
<rect x="54" y="168" width="4" height="14"/>
<rect x="60" y="170" width="4" height="2"/>
<rect x="62" y="172" width="2" height="20"/>
<rect x="60" y="174" width="2" height="10"/>
<rect x="54" y="182" width="2" height="16"/>
<rect x="56" y="186" width="6" height="2"/>
<rect x="56" y="188" width="2" height="10"/>
<rect x="60" y="190" width="2" height="2"/>
<rect x="58" y="196" width="6" height="2"/>
<rect x="94" y="166" width="4" height="14"/>
<rect x="80" y="176" width="2" height="4"/>
<rect x="82" y="178" width="12" height="2"/>
<rect x="6" y="168" width="2" height="12"/>
<rect x="34" y="168" width="4" height="4"/>
<rect x="38" y="170" width="6" height="2"/>
<rect x="48" y="168" width="2" height="30"/>
<rect x="12" y="194" width="20" height="2"/>
<rect x="46" y="194" width="2" height="4"/>
<rect x="12" y="196" width="2" height="10"/>
<rect x="26" y="196" width="20" height="2"/>
<rect x="14" y="200" width="30" height="2"/>
<rect x="52" y="200" width="2" height="4"/>
<rect x="20" y="202" width="4" height="6"/>
<rect x="26" y="202" width="2" height="6"/>
<rect x="40" y="202" width="12" height="2"/>
<rect x="54" y="202" width="10" height="2"/>
<rect x="62" y="204" width="2" height="6"/>
<rect x="28" y="206" width="30" height="2"/>
<rect x="60" y="206" width="2" height="4"/>
<rect x="52" y="208" width="8" height="2"/>
<rect x="74" y="172" width="18" height="2"/>
<rect x="72" y="174" width="4" height="10"/>
<rect x="34" y="174" width="10" height="2"/>
<rect x="38" y="176" width="6" height="2"/>
<rect x="6" y="188" width="8" height="2"/>
<rect x="6" y="190" width="2" height="2"/>
<rect x="6" y="194" width="4" height="8"/>
<rect x="8" y="202" width="2" height="4"/>
</g></svg>