0
SECTION
2
HEADER
9
$INSUNITS
70
4
9
$MEASUREMENT
70
1
0
ENDSEC
0
SECTION
2
TABLES
0
TABLE
2
LAYER
70
4
0
LAYER
2
PLATTE
70
0
62
7
6
CONTINUOUS
0
LAYER
2
RILLE
70
0
62
1
6
CONTINUOUS
0
LAYER
2
STOPP
70
0
62
30
6
CONTINUOUS
0
LAYER
2
INFO
70
0
62
3
6
CONTINUOUS
0
ENDTAB
0
ENDSEC
0
SECTION
2
ENTITIES
0
POLYLINE
8
PLATTE
66
1
70
1
0
VERTEX
8
PLATTE
10
0.0000
20
0.0000
30
0.0
0
VERTEX
8
PLATTE
10
140.0000
20
0.0000
30
0.0
0
VERTEX
8
PLATTE
10
140.0000
20
220.0000
30
0.0
0
VERTEX
8
PLATTE
10
0.0000
20
220.0000
30
0.0
0
VERTEX
8
PLATTE
10
0.0000
20
0.0000
30
0.0
0
SEQEND
0
POLYLINE
8
RILLE
66
1
70
0
0
VERTEX
8
RILLE
10
76.0000
20
34.0000
30
0.0
0
VERTEX
8
RILLE
10
78.0000
20
34.0000
30
0.0
0
VERTEX
8
RILLE
10
78.0000
20
40.0000
30
0.0
0
VERTEX
8
RILLE
10
90.0000
20
40.0000
30
0.0
0
VERTEX
8
RILLE
10
90.0000
20
28.0000
30
0.0
0
VERTEX
8
RILLE
10
116.0000
20
28.0000
30
0.0
0
VERTEX
8
RILLE
10
116.0000
20
26.0000
30
0.0
0
VERTEX
8
RILLE
10
124.0000
20
26.0000
30
0.0
0
VERTEX
8
RILLE
10
124.0000
20
28.0000
30
0.0
0
VERTEX
8
RILLE
10
126.0000
20
28.0000
30
0.0
0
VERTEX
8
RILLE
10
126.0000
20
26.0000
30
0.0
0
VERTEX
8
RILLE
10
128.0000
20
26.0000
30
0.0
0
VERTEX
8
RILLE
10
128.0000
20
24.0000
30
0.0
0
VERTEX
8
RILLE
10
108.0000
20
24.0000
30
0.0
0
VERTEX
8
RILLE
10
108.0000
20
26.0000
30
0.0
0
VERTEX
8
RILLE
10
106.0000
20
26.0000
30
0.0
0
VERTEX
8
RILLE
10
106.0000
20
24.0000
30
0.0
0
VERTEX
8
RILLE
10
100.0000
20
24.0000
30
0.0
0
VERTEX
8
RILLE
10
100.0000
20
26.0000
30
0.0
0
VERTEX
8
RILLE
10
98.0000
20
26.0000
30
0.0
0
VERTEX
8
RILLE
10
98.0000
20
24.0000
30
0.0
0
VERTEX
8
RILLE
10
86.0000
20
24.0000
30
0.0
0
VERTEX
8
RILLE
10
86.0000
20
36.0000
30
0.0
0
VERTEX
8
RILLE
10
88.0000
20
36.0000
30
0.0
0
VERTEX
8
RILLE
10
88.0000
20
38.0000
30
0.0
0
VERTEX
8
RILLE
10
94.0000
20
38.0000
30
0.0
0
VERTEX
8
RILLE
10
94.0000
20
40.0000
30
0.0
0
VERTEX
8
RILLE
10
96.0000
20
40.0000
30
0.0
0
VERTEX
8
RILLE
10
96.0000
20
36.0000
30
0.0
0
VERTEX
8
RILLE
10
94.0000
20
36.0000
30
0.0
0
VERTEX
8
RILLE
10
94.0000
20
34.0000
30
0.0
0
VERTEX
8
RILLE
10
100.0000
20
34.0000
30
0.0
0
VERTEX
8
RILLE
10
100.0000
20
38.0000
30
0.0
0
VERTEX
8
RILLE
10
98.0000
20
38.0000
30
0.0
0
VERTEX
8
RILLE
10
98.0000
20
40.0000
30
0.0
0
VERTEX
8
RILLE
10
100.0000
20
40.0000
30
0.0
0
VERTEX
8
RILLE
10
100.0000
20
58.0000
30
0.0
0
VERTEX
8
RILLE
10
86.0000
20
58.0000
30
0.0
0
VERTEX
8
RILLE
10
86.0000
20
60.0000
30
0.0
0
VERTEX
8
RILLE
10
82.0000
20
60.0000
30
0.0
0
VERTEX
8
RILLE
10
82.0000
20
54.0000
30
0.0
0
VERTEX
8
RILLE
10
78.0000
20
54.0000
30
0.0
0
VERTEX
8
RILLE
10
78.0000
20
56.0000
30
0.0
0
VERTEX
8
RILLE
10
80.0000
20
56.0000
30
0.0
0
VERTEX
8
RILLE
10
80.0000
20
62.0000
30
0.0
0
VERTEX
8
RILLE
10
92.0000
20
62.0000
30
0.0
0
VERTEX
8
RILLE
10
92.0000
20
60.0000
30
0.0
0
VERTEX
8
RILLE
10
94.0000
20
60.0000
30
0.0
0
VERTEX
8
RILLE
10
94.0000
20
62.0000
30
0.0
0
VERTEX
8
RILLE
10
98.0000
20
62.0000
30
0.0
0
VERTEX
8
RILLE
10
98.0000
20
60.0000
30
0.0
0
VERTEX
8
RILLE
10
100.0000
20
60.0000
30
0.0
0
VERTEX
8
RILLE
10
100.0000
20
62.0000
30
0.0
0
VERTEX
8
RILLE
10
104.0000
20
62.0000
30
0.0
0
VERTEX
8
RILLE
10
104.0000
20
58.0000
30
0.0
0
VERTEX
8
RILLE
10
102.0000
20
58.0000
30
0.0
0
VERTEX
8
RILLE
10
102.0000
20
56.0000
30
0.0
0
VERTEX
8
RILLE
10
104.0000
20
56.0000
30
0.0
0
VERTEX
8
RILLE
10
104.0000
20
48.0000
30
0.0
0
VERTEX
8
RILLE
10
102.0000
20
48.0000
30
0.0
0
VERTEX
8
RILLE
10
102.0000
20
44.0000
30
0.0
0
VERTEX
8
RILLE
10
106.0000
20
44.0000
30
0.0
0
VERTEX
8
RILLE
10
106.0000
20
60.0000
30
0.0
0
VERTEX
8
RILLE
10
110.0000
20
60.0000
30
0.0
0
VERTEX
8
RILLE
10
110.0000
20
58.0000
30
0.0
0
VERTEX
8
RILLE
10
108.0000
20
58.0000
30
0.0
0
VERTEX
8
RILLE
10
108.0000
20
56.0000
30
0.0
0
VERTEX
8
RILLE
10
110.0000
20
56.0000
30
0.0
0
VERTEX
8
RILLE
10
110.0000
20
54.0000
30
0.0
0
VERTEX
8
RILLE
10
108.0000
20
54.0000
30
0.0
0
VERTEX
8
RILLE
10
108.0000
20
42.0000
30
0.0
0
VERTEX
8
RILLE
10
102.0000
20
42.0000
30
0.0
0
VERTEX
8
RILLE
10
102.0000
20
38.0000
30
0.0
0
VERTEX
8
RILLE
10
104.0000
20
38.0000
30
0.0
0
VERTEX
8
RILLE
10
104.0000
20
40.0000
30
0.0
0
VERTEX
8
RILLE
10
106.0000
20
40.0000
30
0.0
0
VERTEX
8
RILLE
10
106.0000
20
38.0000
30
0.0
0
VERTEX
8
RILLE
10
112.0000
20
38.0000
30
0.0
0
VERTEX
8
RILLE
10
112.0000
20
44.0000
30
0.0
0
VERTEX
8
RILLE
10
110.0000
20
44.0000
30
0.0
0
VERTEX
8
RILLE
10
110.0000
20
46.0000
30
0.0
0
VERTEX
8
RILLE
10
112.0000
20
46.0000
30
0.0
0
VERTEX
8
RILLE
10
112.0000
20
62.0000
30
0.0
0
VERTEX
8
RILLE
10
114.0000
20
62.0000
30
0.0
0
VERTEX
8
RILLE
10
114.0000
20
60.0000
30
0.0
0
VERTEX
8
RILLE
10
130.0000
20
60.0000
30
0.0
0
VERTEX
8
RILLE
10
130.0000
20
64.0000
30
0.0
0
VERTEX
8
RILLE
10
112.0000
20
64.0000
30
0.0
0
VERTEX
8
RILLE
10
112.0000
20
82.0000
30
0.0
0
VERTEX
8
RILLE
10
114.0000
20
82.0000
30
0.0
0
VERTEX
8
RILLE
10
114.0000
20
80.0000
30
0.0
0
VERTEX
8
RILLE
10
116.0000
20
80.0000
30
0.0
0
VERTEX
8
RILLE
10
116.0000
20
66.0000
30
0.0
0
VERTEX
8
RILLE
10
124.0000
20
66.0000
30
0.0
0
VERTEX
8
RILLE
10
124.0000
20
68.0000
30
0.0
0
VERTEX
8
RILLE
10
126.0000
20
68.0000
30
0.0
0
VERTEX
8
RILLE
10
126.0000
20
66.0000
30
0.0
0
VERTEX
8
RILLE
10
130.0000
20
66.0000
30
0.0
0
VERTEX
8
RILLE
10
130.0000
20
90.0000
30
0.0
0
VERTEX
8
RILLE
10
92.0000
20
90.0000
30
0.0
0
VERTEX
8
RILLE
10
92.0000
20
92.0000
30
0.0
0
VERTEX
8
RILLE
10
94.0000
20
92.0000
30
0.0
0
VERTEX
8
RILLE
10
94.0000
20
98.0000
30
0.0
0
VERTEX
8
RILLE
10
104.0000
20
98.0000
30
0.0
0
VERTEX
8
RILLE
10
104.0000
20
102.0000
30
0.0
0
VERTEX
8
RILLE
10
90.0000
20
102.0000
30
0.0
0
VERTEX
8
RILLE
10
90.0000
20
90.0000
30
0.0
0
VERTEX
8
RILLE
10
74.0000
20
90.0000
30
0.0
0
VERTEX
8
RILLE
10
74.0000
20
104.0000
30
0.0
0
VERTEX
8
RILLE
10
122.0000
20
104.0000
30
0.0
0
VERTEX
8
RILLE
10
122.0000
20
102.0000
30
0.0
0
VERTEX
8
RILLE
10
126.0000
20
102.0000
30
0.0
0
VERTEX
8
RILLE
10
126.0000
20
104.0000
30
0.0
0
VERTEX
8
RILLE
10
128.0000
20
104.0000
30
0.0
0
VERTEX
8
RILLE
10
128.0000
20
100.0000
30
0.0
0
VERTEX
8
RILLE
10
116.0000
20
100.0000
30
0.0
0
VERTEX
8
RILLE
10
116.0000
20
96.0000
30
0.0
0
VERTEX
8
RILLE
10
118.0000
20
96.0000
30
0.0
0
VERTEX
8
RILLE
10
118.0000
20
98.0000
30
0.0
0
VERTEX
8
RILLE
10
128.0000
20
98.0000
30
0.0
0
VERTEX
8
RILLE
10
128.0000
20
96.0000
30
0.0
0
VERTEX
8
RILLE
10
126.0000
20
96.0000
30
0.0
0
VERTEX
8
RILLE
10
126.0000
20
94.0000
30
0.0
0
VERTEX
8
RILLE
10
118.0000
20
94.0000
30
0.0
0
VERTEX
8
RILLE
10
118.0000
20
92.0000
30
0.0
0
VERTEX
8
RILLE
10
130.0000
20
92.0000
30
0.0
0
VERTEX
8
RILLE
10
130.0000
20
106.0000
30
0.0
0
VERTEX
8
RILLE
10
110.0000
20
106.0000
30
0.0
0
VERTEX
8
RILLE
10
110.0000
20
110.0000
30
0.0
0
VERTEX
8
RILLE
10
114.0000
20
110.0000
30
0.0
0
VERTEX
8
RILLE
10
114.0000
20
124.0000
30
0.0
0
VERTEX
8
RILLE
10
76.0000
20
124.0000
30
0.0
0
VERTEX
8
RILLE
10
76.0000
20
142.0000
30
0.0
0
VERTEX
8
RILLE
10
78.0000
20
142.0000
30
0.0
0
VERTEX
8
RILLE
10
78.0000
20
144.0000
30
0.0
0
VERTEX
8
RILLE
10
76.0000
20
144.0000
30
0.0
0
VERTEX
8
RILLE
10
76.0000
20
146.0000
30
0.0
0
VERTEX
8
RILLE
10
78.0000
20
146.0000
30
0.0
0
VERTEX
8
RILLE
10
78.0000
20
152.0000
30
0.0
0
VERTEX
8
RILLE
10
100.0000
20
152.0000
30
0.0
0
VERTEX
8
RILLE
10
100.0000
20
150.0000
30
0.0
0
VERTEX
8
RILLE
10
80.0000
20
150.0000
30
0.0
0
VERTEX
8
RILLE
10
80.0000
20
138.0000
30
0.0
0
VERTEX
8
RILLE
10
78.0000
20
138.0000
30
0.0
0
VERTEX
8
RILLE
10
78.0000
20
126.0000
30
0.0
0
VERTEX
8
RILLE
10
114.0000
20
126.0000
30
0.0
0
VERTEX
8
RILLE
10
114.0000
20
146.0000
30
0.0
0
VERTEX
8
RILLE
10
122.0000
20
146.0000
30
0.0
0
VERTEX
8
RILLE
10
122.0000
20
144.0000
30
0.0
0
VERTEX
8
RILLE
10
118.0000
20
144.0000
30
0.0
0
VERTEX
8
RILLE
10
118.0000
20
132.0000
30
0.0
0
VERTEX
8
RILLE
10
116.0000
20
132.0000
30
0.0
0
VERTEX
8
RILLE
10
116.0000
20
120.0000
30
0.0
0
VERTEX
8
RILLE
10
126.0000
20
120.0000
30
0.0
0
VERTEX
8
RILLE
10
126.0000
20
122.0000
30
0.0
0
VERTEX
8
RILLE
10
124.0000
20
122.0000
30
0.0
0
VERTEX
8
RILLE
10
124.0000
20
124.0000
30
0.0
0
VERTEX
8
RILLE
10
126.0000
20
124.0000
30
0.0
0
VERTEX
8
RILLE
10
126.0000
20
134.0000
30
0.0
0
VERTEX
8
RILLE
10
122.0000
20
134.0000
30
0.0
0
VERTEX
8
RILLE
10
122.0000
20
124.0000
30
0.0
0
VERTEX
8
RILLE
10
120.0000
20
124.0000
30
0.0
0
VERTEX
8
RILLE
10
120.0000
20
136.0000
30
0.0
0
VERTEX
8
RILLE
10
126.0000
20
136.0000
30
0.0
0
VERTEX
8
RILLE
10
126.0000
20
140.0000
30
0.0
0
VERTEX
8
RILLE
10
122.0000
20
140.0000
30
0.0
0
VERTEX
8
RILLE
10
122.0000
20
138.0000
30
0.0
0
VERTEX
8
RILLE
10
120.0000
20
138.0000
30
0.0
0
VERTEX
8
RILLE
10
120.0000
20
142.0000
30
0.0
0
VERTEX
8
RILLE
10
126.0000
20
142.0000
30
0.0
0
VERTEX
8
RILLE
10
126.0000
20
150.0000
30
0.0
0
VERTEX
8
RILLE
10
112.0000
20
150.0000
30
0.0
0
VERTEX
8
RILLE
10
112.0000
20
134.0000
30
0.0
0
VERTEX
8
RILLE
10
110.0000
20
134.0000
30
0.0
0
VERTEX
8
RILLE
10
110.0000
20
128.0000
30
0.0
0
VERTEX
8
RILLE
10
82.0000
20
128.0000
30
0.0
0
VERTEX
8
RILLE
10
82.0000
20
146.0000
30
0.0
0
VERTEX
8
RILLE
10
84.0000
20
146.0000
30
0.0
0
VERTEX
8
RILLE
10
84.0000
20
148.0000
30
0.0
0
VERTEX
8
RILLE
10
86.0000
20
148.0000
30
0.0
0
VERTEX
8
RILLE
10
86.0000
20
146.0000
30
0.0
0
VERTEX
8
RILLE
10
94.0000
20
146.0000
30
0.0
0
VERTEX
8
RILLE
10
94.0000
20
144.0000
30
0.0
0
VERTEX
8
RILLE
10
86.0000
20
144.0000
30
0.0
0
VERTEX
8
RILLE
10
86.0000
20
134.0000
30
0.0
0
VERTEX
8
RILLE
10
84.0000
20
134.0000
30
0.0
0
VERTEX
8
RILLE
10
84.0000
20
130.0000
30
0.0
0
VERTEX
8
RILLE
10
108.0000
20
130.0000
30
0.0
0
VERTEX
8
RILLE
10
108.0000
20
140.0000
30
0.0
0
VERTEX
8
RILLE
10
110.0000
20
140.0000
30
0.0
0
VERTEX
8
RILLE
10
110.0000
20
152.0000
30
0.0
0
VERTEX
8
RILLE
10
128.0000
20
152.0000
30
0.0
0
VERTEX
8
RILLE
10
128.0000
20
118.0000
30
0.0
0
VERTEX
8
RILLE
10
116.0000
20
118.0000
30
0.0
0
VERTEX
8
RILLE
10
116.0000
20
114.0000
30
0.0
0
VERTEX
8
RILLE
10
130.0000
20
114.0000
30
0.0
0
VERTEX
8
RILLE
10
130.0000
20
116.0000
30
0.0
0
VERTEX
8
RILLE
10
132.0000
20
116.0000
30
0.0
0
VERTEX
8
RILLE
10
132.0000
20
118.0000
30
0.0
0
VERTEX
8
RILLE
10
130.0000
20
118.0000
30
0.0
0
VERTEX
8
RILLE
10
130.0000
20
126.0000
30
0.0
0
VERTEX
8
RILLE
10
132.0000
20
126.0000
30
0.0
0
VERTEX
8
RILLE
10
132.0000
20
128.0000
30
0.0
0
VERTEX
8
RILLE
10
130.0000
20
128.0000
30
0.0
0
VERTEX
8
RILLE
10
130.0000
20
140.0000
30
0.0
0
VERTEX
8
RILLE
10
132.0000
20
140.0000
30
0.0
0
VERTEX
8
RILLE
10
132.0000
20
142.0000
30
0.0
0
VERTEX
8
RILLE
10
130.0000
20
142.0000
30
0.0
0
VERTEX
8
RILLE
10
130.0000
20
144.0000
30
0.0
0
VERTEX
8
RILLE
10
132.0000
20
144.0000
30
0.0
0
VERTEX
8
RILLE
10
132.0000
20
146.0000
30
0.0
0
VERTEX
8
RILLE
10
130.0000
20
146.0000
30
0.0
0
VERTEX
8
RILLE
10
130.0000
20
148.0000
30
0.0
0
VERTEX
8
RILLE
10
132.0000
20
148.0000
30
0.0
0
VERTEX
8
RILLE
10
132.0000
20
156.0000
30
0.0
0
VERTEX
8
RILLE
10
106.0000
20
156.0000
30
0.0
0
VERTEX
8
RILLE
10
106.0000
20
134.0000
30
0.0
0
VERTEX
8
RILLE
10
102.0000
20
134.0000
30
0.0
0
VERTEX
8
RILLE
10
102.0000
20
136.0000
30
0.0
0
VERTEX
8
RILLE
10
104.0000
20
136.0000
30
0.0
0
VERTEX
8
RILLE
10
104.0000
20
156.0000
30
0.0
0
VERTEX
8
RILLE
10
74.0000
20
156.0000
30
0.0
0
VERTEX
8
RILLE
10
74.0000
20
140.0000
30
0.0
0
VERTEX
8
RILLE
10
72.0000
20
140.0000
30
0.0
0
VERTEX
8
RILLE
10
72.0000
20
76.0000
30
0.0
0
VERTEX
8
RILLE
10
70.0000
20
76.0000
30
0.0
0
VERTEX
8
RILLE
10
70.0000
20
74.0000
30
0.0
0
VERTEX
8
RILLE
10
72.0000
20
74.0000
30
0.0
0
VERTEX
8
RILLE
10
72.0000
20
72.0000
30
0.0
0
VERTEX
8
RILLE
10
70.0000
20
72.0000
30
0.0
0
VERTEX
8
RILLE
10
70.0000
20
66.0000
30
0.0
0
VERTEX
8
RILLE
10
56.0000
20
66.0000
30
0.0
0
VERTEX
8
RILLE
10
56.0000
20
62.0000
30
0.0
0
VERTEX
8
RILLE
10
76.0000
20
62.0000
30
0.0
0
VERTEX
8
RILLE
10
76.0000
20
54.0000
30
0.0
0
VERTEX
8
RILLE
10
72.0000
20
54.0000
30
0.0
0
VERTEX
8
RILLE
10
72.0000
20
56.0000
30
0.0
0
VERTEX
8
RILLE
10
74.0000
20
56.0000
30
0.0
0
VERTEX
8
RILLE
10
74.0000
20
60.0000
30
0.0
0
VERTEX
8
RILLE
10
70.0000
20
60.0000
30
0.0
0
VERTEX
8
RILLE
10
70.0000
20
38.0000
30
0.0
0
VERTEX
8
RILLE
10
72.0000
20
38.0000
30
0.0
0
VERTEX
8
RILLE
10
72.0000
20
50.0000
30
0.0
0
VERTEX
8
RILLE
10
88.0000
20
50.0000
30
0.0
0
VERTEX
8
RILLE
10
88.0000
20
48.0000
30
0.0
0
VERTEX
8
RILLE
10
76.0000
20
48.0000
30
0.0
0
VERTEX
8
RILLE
10
76.0000
20
38.0000
30
0.0
0
VERTEX
8
RILLE
10
74.0000
20
38.0000
30
0.0
0
VERTEX
8
RILLE
10
74.0000
20
34.0000
30
0.0
0
VERTEX
8
RILLE
10
70.0000
20
34.0000
30
0.0
0
VERTEX
8
RILLE
10
70.0000
20
26.0000
30
0.0
0
VERTEX
8
RILLE
10
68.0000
20
26.0000
30
0.0
0
VERTEX
8
RILLE
10
68.0000
20
22.0000
30
0.0
0
VERTEX
8
RILLE
10
70.0000
20
22.0000
30
0.0
0
VERTEX
8
RILLE
10
70.0000
20
20.0000
30
0.0
0
VERTEX
8
RILLE
10
68.0000
20
20.0000
30
0.0
0
VERTEX
8
RILLE
10
68.0000
20
18.0000
30
0.0
0
VERTEX
8
RILLE
10
70.0000
20
18.0000
30
0.0
0
VERTEX
8
RILLE
10
70.0000
20
16.0000
30
0.0
0
VERTEX
8
RILLE
10
68.0000
20
16.0000
30
0.0
0
VERTEX
8
RILLE
10
68.0000
20
8.0000
30
0.0
0
VERTEX
8
RILLE
10
104.0000
20
8.0000
30
0.0
0
VERTEX
8
RILLE
10
104.0000
20
6.0000
30
0.0
0
VERTEX
8
RILLE
10
114.0000
20
6.0000
30
0.0
0
VERTEX
8
RILLE
10
114.0000
20
8.0000
30
0.0
0
VERTEX
8
RILLE
10
118.0000
20
8.0000
30
0.0
0
VERTEX
8
RILLE
10
118.0000
20
6.0000
30
0.0
0
VERTEX
8
RILLE
10
120.0000
20
6.0000
30
0.0
0
VERTEX
8
RILLE
10
120.0000
20
8.0000
30
0.0
0
VERTEX
8
RILLE
10
122.0000
20
8.0000
30
0.0
0
VERTEX
8
RILLE
10
122.0000
20
6.0000
30
0.0
0
VERTEX
8
RILLE
10
128.0000
20
6.0000
30
0.0
0
VERTEX
8
RILLE
10
128.0000
20
8.0000
30
0.0
0
VERTEX
8
RILLE
10
126.0000
20
8.0000
30
0.0
0
VERTEX
8
RILLE
10
126.0000
20
10.0000
30
0.0
0
VERTEX
8
RILLE
10
128.0000
20
10.0000
30
0.0
0
VERTEX
8
RILLE
10
128.0000
20
14.0000
30
0.0
0
VERTEX
8
RILLE
10
126.0000
20
14.0000
30
0.0
0
VERTEX
8
RILLE
10
126.0000
20
16.0000
30
0.0
0
VERTEX
8
RILLE
10
130.0000
20
16.0000
30
0.0
0
VERTEX
8
RILLE
10
130.0000
20
14.0000
30
0.0
0
SEQEND
0
POLYLINE
8
RILLE
66
1
70
1
0
VERTEX
8
RILLE
10
104.0000
20
70.0000
30
0.0
0
VERTEX
8
RILLE
10
104.0000
20
74.0000
30
0.0
0
VERTEX
8
RILLE
10
102.0000
20
74.0000
30
0.0
0
VERTEX
8
RILLE
10
102.0000
20
72.0000
30
0.0
0
VERTEX
8
RILLE
10
82.0000
20
72.0000
30
0.0
0
VERTEX
8
RILLE
10
82.0000
20
74.0000
30
0.0
0
VERTEX
8
RILLE
10
80.0000
20
74.0000
30
0.0
0
VERTEX
8
RILLE
10
80.0000
20
72.0000
30
0.0
0
VERTEX
8
RILLE
10
78.0000
20
72.0000
30
0.0
0
VERTEX
8
RILLE
10
78.0000
20
74.0000
30
0.0
0
VERTEX
8
RILLE
10
76.0000
20
74.0000
30
0.0
0
VERTEX
8
RILLE
10
76.0000
20
76.0000
30
0.0
0
VERTEX
8
RILLE
10
78.0000
20
76.0000
30
0.0
0
VERTEX
8
RILLE
10
78.0000
20
84.0000
30
0.0
0
VERTEX
8
RILLE
10
118.0000
20
84.0000
30
0.0
0
VERTEX
8
RILLE
10
118.0000
20
78.0000
30
0.0
0
VERTEX
8
RILLE
10
122.0000
20
78.0000
30
0.0
0
VERTEX
8
RILLE
10
122.0000
20
80.0000
30
0.0
0
VERTEX
8
RILLE
10
120.0000
20
80.0000
30
0.0
0
VERTEX
8
RILLE
10
120.0000
20
82.0000
30
0.0
0
VERTEX
8
RILLE
10
122.0000
20
82.0000
30
0.0
0
VERTEX
8
RILLE
10
122.0000
20
84.0000
30
0.0
0
VERTEX
8
RILLE
10
124.0000
20
84.0000
30
0.0
0
VERTEX
8
RILLE
10
124.0000
20
72.0000
30
0.0
0
VERTEX
8
RILLE
10
120.0000
20
72.0000
30
0.0
0
VERTEX
8
RILLE
10
120.0000
20
74.0000
30
0.0
0
VERTEX
8
RILLE
10
118.0000
20
74.0000
30
0.0
0
VERTEX
8
RILLE
10
118.0000
20
70.0000
30
0.0
0
VERTEX
8
RILLE
10
128.0000
20
70.0000
30
0.0
0
VERTEX
8
RILLE
10
128.0000
20
72.0000
30
0.0
0
VERTEX
8
RILLE
10
126.0000
20
72.0000
30
0.0
0
VERTEX
8
RILLE
10
126.0000
20
84.0000
30
0.0
0
VERTEX
8
RILLE
10
128.0000
20
84.0000
30
0.0
0
VERTEX
8
RILLE
10
128.0000
20
86.0000
30
0.0
0
VERTEX
8
RILLE
10
96.0000
20
86.0000
30
0.0
0
VERTEX
8
RILLE
10
96.0000
20
88.0000
30
0.0
0
VERTEX
8
RILLE
10
94.0000
20
88.0000
30
0.0
0
VERTEX
8
RILLE
10
94.0000
20
86.0000
30
0.0
0
VERTEX
8
RILLE
10
82.0000
20
86.0000
30
0.0
0
VERTEX
8
RILLE
10
82.0000
20
88.0000
30
0.0
0
VERTEX
8
RILLE
10
80.0000
20
88.0000
30
0.0
0
VERTEX
8
RILLE
10
80.0000
20
86.0000
30
0.0
0
VERTEX
8
RILLE
10
74.0000
20
86.0000
30
0.0
0
VERTEX
8
RILLE
10
74.0000
20
70.0000
30
0.0
0
SEQEND
0
POLYLINE
8
RILLE
66
1
70
0
0
VERTEX
8
RILLE
10
38.0000
20
136.0000
30
0.0
0
VERTEX
8
RILLE
10
40.0000
20
136.0000
30
0.0
0
VERTEX
8
RILLE
10
40.0000
20
138.0000
30
0.0
0
VERTEX
8
RILLE
10
42.0000
20
138.0000
30
0.0
0
VERTEX
8
RILLE
10
42.0000
20
136.0000
30
0.0
0
VERTEX
8
RILLE
10
46.0000
20
136.0000
30
0.0
0
VERTEX
8
RILLE
10
46.0000
20
138.0000
30
0.0
0
VERTEX
8
RILLE
10
48.0000
20
138.0000
30
0.0
0
VERTEX
8
RILLE
10
48.0000
20
136.0000
30
0.0
0
VERTEX
8
RILLE
10
52.0000
20
136.0000
30
0.0
0
VERTEX
8
RILLE
10
52.0000
20
140.0000
30
0.0
0
VERTEX
8
RILLE
10
40.0000
20
140.0000
30
0.0
0
VERTEX
8
RILLE
10
40.0000
20
142.0000
30
0.0
0
VERTEX
8
RILLE
10
62.0000
20
142.0000
30
0.0
0
VERTEX
8
RILLE
10
62.0000
20
138.0000
30
0.0
0
VERTEX
8
RILLE
10
60.0000
20
138.0000
30
0.0
0
VERTEX
8
RILLE
10
60.0000
20
120.0000
30
0.0
0
VERTEX
8
RILLE
10
48.0000
20
120.0000
30
0.0
0
VERTEX
8
RILLE
10
48.0000
20
118.0000
30
0.0
0
VERTEX
8
RILLE
10
46.0000
20
118.0000
30
0.0
0
VERTEX
8
RILLE
10
46.0000
20
120.0000
30
0.0
0
VERTEX
8
RILLE
10
40.0000
20
120.0000
30
0.0
0
VERTEX
8
RILLE
10
40.0000
20
118.0000
30
0.0
0
VERTEX
8
RILLE
10
38.0000
20
118.0000
30
0.0
0
VERTEX
8
RILLE
10
38.0000
20
108.0000
30
0.0
0
VERTEX
8
RILLE
10
34.0000
20
108.0000
30
0.0
0
VERTEX
8
RILLE
10
34.0000
20
110.0000
30
0.0
0
VERTEX
8
RILLE
10
36.0000
20
110.0000
30
0.0
0
VERTEX
8
RILLE
10
36.0000
20
112.0000
30
0.0
0
VERTEX
8
RILLE
10
34.0000
20
112.0000
30
0.0
0
VERTEX
8
RILLE
10
34.0000
20
114.0000
30
0.0
0
VERTEX
8
RILLE
10
36.0000
20
114.0000
30
0.0
0
VERTEX
8
RILLE
10
36.0000
20
120.0000
30
0.0
0
VERTEX
8
RILLE
10
28.0000
20
120.0000
30
0.0
0
VERTEX
8
RILLE
10
28.0000
20
112.0000
30
0.0
0
VERTEX
8
RILLE
10
30.0000
20
112.0000
30
0.0
0
VERTEX
8
RILLE
10
30.0000
20
114.0000
30
0.0
0
VERTEX
8
RILLE
10
32.0000
20
114.0000
30
0.0
0
VERTEX
8
RILLE
10
32.0000
20
108.0000
30
0.0
0
VERTEX
8
RILLE
10
10.0000
20
108.0000
30
0.0
0
VERTEX
8
RILLE
10
10.0000
20
110.0000
30
0.0
0
VERTEX
8
RILLE
10
24.0000
20
110.0000
30
0.0
0
VERTEX
8
RILLE
10
24.0000
20
112.0000
30
0.0
0
VERTEX
8
RILLE
10
26.0000
20
112.0000
30
0.0
0
VERTEX
8
RILLE
10
26.0000
20
114.0000
30
0.0
0
VERTEX
8
RILLE
10
24.0000
20
114.0000
30
0.0
0
VERTEX
8
RILLE
10
24.0000
20
118.0000
30
0.0
0
VERTEX
8
RILLE
10
26.0000
20
118.0000
30
0.0
0
VERTEX
8
RILLE
10
26.0000
20
120.0000
30
0.0
0
VERTEX
8
RILLE
10
22.0000
20
120.0000
30
0.0
0
VERTEX
8
RILLE
10
22.0000
20
114.0000
30
0.0
0
VERTEX
8
RILLE
10
10.0000
20
114.0000
30
0.0
0
VERTEX
8
RILLE
10
10.0000
20
116.0000
30
0.0
0
VERTEX
8
RILLE
10
14.0000
20
116.0000
30
0.0
0
VERTEX
8
RILLE
10
14.0000
20
120.0000
30
0.0
0
VERTEX
8
RILLE
10
10.0000
20
120.0000
30
0.0
0
VERTEX
8
RILLE
10
10.0000
20
122.0000
30
0.0
0
VERTEX
8
RILLE
10
14.0000
20
122.0000
30
0.0
0
VERTEX
8
RILLE
10
14.0000
20
142.0000
30
0.0
0
VERTEX
8
RILLE
10
16.0000
20
142.0000
30
0.0
0
VERTEX
8
RILLE
10
16.0000
20
166.0000
30
0.0
0
VERTEX
8
RILLE
10
18.0000
20
166.0000
30
0.0
0
VERTEX
8
RILLE
10
18.0000
20
186.0000
30
0.0
0
VERTEX
8
RILLE
10
22.0000
20
186.0000
30
0.0
0
VERTEX
8
RILLE
10
22.0000
20
182.0000
30
0.0
0
VERTEX
8
RILLE
10
20.0000
20
182.0000
30
0.0
0
VERTEX
8
RILLE
10
20.0000
20
162.0000
30
0.0
0
VERTEX
8
RILLE
10
18.0000
20
162.0000
30
0.0
0
VERTEX
8
RILLE
10
18.0000
20
160.0000
30
0.0
0
VERTEX
8
RILLE
10
68.0000
20
160.0000
30
0.0
0
VERTEX
8
RILLE
10
68.0000
20
142.0000
30
0.0
0
VERTEX
8
RILLE
10
66.0000
20
142.0000
30
0.0
0
VERTEX
8
RILLE
10
66.0000
20
114.0000
30
0.0
0
VERTEX
8
RILLE
10
46.0000
20
114.0000
30
0.0
0
VERTEX
8
RILLE
10
46.0000
20
116.0000
30
0.0
0
VERTEX
8
RILLE
10
64.0000
20
116.0000
30
0.0
0
VERTEX
8
RILLE
10
64.0000
20
150.0000
30
0.0
0
VERTEX
8
RILLE
10
66.0000
20
150.0000
30
0.0
0
VERTEX
8
RILLE
10
66.0000
20
158.0000
30
0.0
0
VERTEX
8
RILLE
10
30.0000
20
158.0000
30
0.0
0
VERTEX
8
RILLE
10
30.0000
20
152.0000
30
0.0
0
VERTEX
8
RILLE
10
28.0000
20
152.0000
30
0.0
0
VERTEX
8
RILLE
10
28.0000
20
148.0000
30
0.0
0
VERTEX
8
RILLE
10
26.0000
20
148.0000
30
0.0
0
VERTEX
8
RILLE
10
26.0000
20
156.0000
30
0.0
0
VERTEX
8
RILLE
10
28.0000
20
156.0000
30
0.0
0
VERTEX
8
RILLE
10
28.0000
20
158.0000
30
0.0
0
VERTEX
8
RILLE
10
24.0000
20
158.0000
30
0.0
0
VERTEX
8
RILLE
10
24.0000
20
156.0000
30
0.0
0
VERTEX
8
RILLE
10
22.0000
20
156.0000
30
0.0
0
VERTEX
8
RILLE
10
22.0000
20
158.0000
30
0.0
0
VERTEX
8
RILLE
10
18.0000
20
158.0000
30
0.0
0
VERTEX
8
RILLE
10
18.0000
20
142.0000
30
0.0
0
VERTEX
8
RILLE
10
20.0000
20
142.0000
30
0.0
0
VERTEX
8
RILLE
10
20.0000
20
144.0000
30
0.0
0
VERTEX
8
RILLE
10
22.0000
20
144.0000
30
0.0
0
VERTEX
8
RILLE
10
22.0000
20
142.0000
30
0.0
0
VERTEX
8
RILLE
10
24.0000
20
142.0000
30
0.0
0
VERTEX
8
RILLE
10
24.0000
20
140.0000
30
0.0
0
VERTEX
8
RILLE
10
18.0000
20
140.0000
30
0.0
0
VERTEX
8
RILLE
10
18.0000
20
130.0000
30
0.0
0
VERTEX
8
RILLE
10
16.0000
20
130.0000
30
0.0
0
VERTEX
8
RILLE
10
16.0000
20
116.0000
30
0.0
0
VERTEX
8
RILLE
10
20.0000
20
116.0000
30
0.0
0
VERTEX
8
RILLE
10
20.0000
20
122.0000
30
0.0
0
VERTEX
8
RILLE
10
18.0000
20
122.0000
30
0.0
0
VERTEX
8
RILLE
10
18.0000
20
124.0000
30
0.0
0
VERTEX
8
RILLE
10
20.0000
20
124.0000
30
0.0
0
VERTEX
8
RILLE
10
20.0000
20
136.0000
30
0.0
0
VERTEX
8
RILLE
10
22.0000
20
136.0000
30
0.0
0
VERTEX
8
RILLE
10
22.0000
20
122.0000
30
0.0
0
VERTEX
8
RILLE
10
58.0000
20
122.0000
30
0.0
0
VERTEX
8
RILLE
10
58.0000
20
140.0000
30
0.0
0
VERTEX
8
RILLE
10
54.0000
20
140.0000
30
0.0
0
VERTEX
8
RILLE
10
54.0000
20
138.0000
30
0.0
0
VERTEX
8
RILLE
10
56.0000
20
138.0000
30
0.0
0
VERTEX
8
RILLE
10
56.0000
20
136.0000
30
0.0
0
VERTEX
8
RILLE
10
54.0000
20
136.0000
30
0.0
0
VERTEX
8
RILLE
10
54.0000
20
124.0000
30
0.0
0
VERTEX
8
RILLE
10
40.0000
20
124.0000
30
0.0
0
VERTEX
8
RILLE
10
40.0000
20
126.0000
30
0.0
0
VERTEX
8
RILLE
10
52.0000
20
126.0000
30
0.0
0
VERTEX
8
RILLE
10
52.0000
20
134.0000
30
0.0
0
VERTEX
8
RILLE
10
36.0000
20
134.0000
30
0.0
0
VERTEX
8
RILLE
10
36.0000
20
136.0000
30
0.0
0
VERTEX
8
RILLE
10
34.0000
20
136.0000
30
0.0
0
VERTEX
8
RILLE
10
34.0000
20
134.0000
30
0.0
0
VERTEX
8
RILLE
10
32.0000
20
134.0000
30
0.0
0
VERTEX
8
RILLE
10
32.0000
20
140.0000
30
0.0
0
VERTEX
8
RILLE
10
34.0000
20
140.0000
30
0.0
0
VERTEX
8
RILLE
10
34.0000
20
144.0000
30
0.0
0
VERTEX
8
RILLE
10
32.0000
20
144.0000
30
0.0
0
VERTEX
8
RILLE
10
32.0000
20
148.0000
30
0.0
0
VERTEX
8
RILLE
10
34.0000
20
148.0000
30
0.0
0
VERTEX
8
RILLE
10
34.0000
20
150.0000
30
0.0
0
VERTEX
8
RILLE
10
36.0000
20
150.0000
30
0.0
0
VERTEX
8
RILLE
10
36.0000
20
148.0000
30
0.0
0
VERTEX
8
RILLE
10
60.0000
20
148.0000
30
0.0
0
VERTEX
8
RILLE
10
60.0000
20
152.0000
30
0.0
0
VERTEX
8
RILLE
10
34.0000
20
152.0000
30
0.0
0
VERTEX
8
RILLE
10
34.0000
20
154.0000
30
0.0
0
VERTEX
8
RILLE
10
62.0000
20
154.0000
30
0.0
0
VERTEX
8
RILLE
10
62.0000
20
146.0000
30
0.0
0
VERTEX
8
RILLE
10
36.0000
20
146.0000
30
0.0
0
VERTEX
8
RILLE
10
36.0000
20
138.0000
30
0.0
0
SEQEND
0
POLYLINE
8
RILLE
66
1
70
1
0
VERTEX
8
RILLE
10
8.0000
20
190.0000
30
0.0
0
VERTEX
8
RILLE
10
10.0000
20
190.0000
30
0.0
0
VERTEX
8
RILLE
10
10.0000
20
208.0000
30
0.0
0
VERTEX
8
RILLE
10
12.0000
20
208.0000
30
0.0
0
VERTEX
8
RILLE
10
12.0000
20
210.0000
30
0.0
0
VERTEX
8
RILLE
10
28.0000
20
210.0000
30
0.0
0
VERTEX
8
RILLE
10
28.0000
20
208.0000
30
0.0
0
VERTEX
8
RILLE
10
32.0000
20
208.0000
30
0.0
0
VERTEX
8
RILLE
10
32.0000
20
206.0000
30
0.0
0
VERTEX
8
RILLE
10
30.0000
20
206.0000
30
0.0
0
VERTEX
8
RILLE
10
30.0000
20
196.0000
30
0.0
0
VERTEX
8
RILLE
10
16.0000
20
196.0000
30
0.0
0
VERTEX
8
RILLE
10
16.0000
20
204.0000
30
0.0
0
VERTEX
8
RILLE
10
26.0000
20
204.0000
30
0.0
0
VERTEX
8
RILLE
10
26.0000
20
200.0000
30
0.0
0
VERTEX
8
RILLE
10
20.0000
20
200.0000
30
0.0
0
VERTEX
8
RILLE
10
20.0000
20
198.0000
30
0.0
0
VERTEX
8
RILLE
10
28.0000
20
198.0000
30
0.0
0
VERTEX
8
RILLE
10
28.0000
20
206.0000
30
0.0
0
VERTEX
8
RILLE
10
14.0000
20
206.0000
30
0.0
0
VERTEX
8
RILLE
10
14.0000
20
200.0000
30
0.0
0
VERTEX
8
RILLE
10
12.0000
20
200.0000
30
0.0
0
VERTEX
8
RILLE
10
12.0000
20
194.0000
30
0.0
0
VERTEX
8
RILLE
10
32.0000
20
194.0000
30
0.0
0
VERTEX
8
RILLE
10
32.0000
20
202.0000
30
0.0
0
VERTEX
8
RILLE
10
34.0000
20
202.0000
30
0.0
0
VERTEX
8
RILLE
10
34.0000
20
208.0000
30
0.0
0
VERTEX
8
RILLE
10
54.0000
20
208.0000
30
0.0
0
VERTEX
8
RILLE
10
54.0000
20
210.0000
30
0.0
0
VERTEX
8
RILLE
10
56.0000
20
210.0000
30
0.0
0
VERTEX
8
RILLE
10
56.0000
20
204.0000
30
0.0
0
VERTEX
8
RILLE
10
54.0000
20
204.0000
30
0.0
0
VERTEX
8
RILLE
10
54.0000
20
202.0000
30
0.0
0
VERTEX
8
RILLE
10
56.0000
20
202.0000
30
0.0
0
VERTEX
8
RILLE
10
56.0000
20
196.0000
30
0.0
0
VERTEX
8
RILLE
10
54.0000
20
196.0000
30
0.0
0
VERTEX
8
RILLE
10
54.0000
20
194.0000
30
0.0
0
VERTEX
8
RILLE
10
58.0000
20
194.0000
30
0.0
0
VERTEX
8
RILLE
10
58.0000
20
208.0000
30
0.0
0
VERTEX
8
RILLE
10
84.0000
20
208.0000
30
0.0
0
VERTEX
8
RILLE
10
84.0000
20
210.0000
30
0.0
0
VERTEX
8
RILLE
10
86.0000
20
210.0000
30
0.0
0
VERTEX
8
RILLE
10
86.0000
20
188.0000
30
0.0
0
VERTEX
8
RILLE
10
108.0000
20
188.0000
30
0.0
0
VERTEX
8
RILLE
10
108.0000
20
186.0000
30
0.0
0
VERTEX
8
RILLE
10
122.0000
20
186.0000
30
0.0
0
VERTEX
8
RILLE
10
122.0000
20
168.0000
30
0.0
0
VERTEX
8
RILLE
10
118.0000
20
168.0000
30
0.0
0
VERTEX
8
RILLE
10
118.0000
20
182.0000
30
0.0
0
VERTEX
8
RILLE
10
120.0000
20
182.0000
30
0.0
0
VERTEX
8
RILLE
10
120.0000
20
184.0000
30
0.0
0
VERTEX
8
RILLE
10
86.0000
20
184.0000
30
0.0
0
VERTEX
8
RILLE
10
86.0000
20
178.0000
30
0.0
0
VERTEX
8
RILLE
10
84.0000
20
178.0000
30
0.0
0
VERTEX
8
RILLE
10
84.0000
20
166.0000
30
0.0
0
VERTEX
8
RILLE
10
102.0000
20
166.0000
30
0.0
0
VERTEX
8
RILLE
10
102.0000
20
172.0000
30
0.0
0
VERTEX
8
RILLE
10
106.0000
20
172.0000
30
0.0
0
VERTEX
8
RILLE
10
106.0000
20
174.0000
30
0.0
0
VERTEX
8
RILLE
10
98.0000
20
174.0000
30
0.0
0
VERTEX
8
RILLE
10
98.0000
20
172.0000
30
0.0
0
VERTEX
8
RILLE
10
100.0000
20
172.0000
30
0.0
0
VERTEX
8
RILLE
10
100.0000
20
168.0000
30
0.0
0
VERTEX
8
RILLE
10
96.0000
20
168.0000
30
0.0
0
VERTEX
8
RILLE
10
96.0000
20
170.0000
30
0.0
0
VERTEX
8
RILLE
10
94.0000
20
170.0000
30
0.0
0
VERTEX
8
RILLE
10
94.0000
20
168.0000
30
0.0
0
VERTEX
8
RILLE
10
88.0000
20
168.0000
30
0.0
0
VERTEX
8
RILLE
10
88.0000
20
170.0000
30
0.0
0
VERTEX
8
RILLE
10
86.0000
20
170.0000
30
0.0
0
VERTEX
8
RILLE
10
86.0000
20
172.0000
30
0.0
0
VERTEX
8
RILLE
10
88.0000
20
172.0000
30
0.0
0
VERTEX
8
RILLE
10
88.0000
20
182.0000
30
0.0
0
VERTEX
8
RILLE
10
116.0000
20
182.0000
30
0.0
0
VERTEX
8
RILLE
10
116.0000
20
168.0000
30
0.0
0
VERTEX
8
RILLE
10
114.0000
20
168.0000
30
0.0
0
VERTEX
8
RILLE
10
114.0000
20
166.0000
30
0.0
0
VERTEX
8
RILLE
10
116.0000
20
166.0000
30
0.0
0
VERTEX
8
RILLE
10
116.0000
20
164.0000
30
0.0
0
VERTEX
8
RILLE
10
114.0000
20
164.0000
30
0.0
0
VERTEX
8
RILLE
10
114.0000
20
162.0000
30
0.0
0
VERTEX
8
RILLE
10
118.0000
20
162.0000
30
0.0
0
VERTEX
8
RILLE
10
118.0000
20
166.0000
30
0.0
0
VERTEX
8
RILLE
10
122.0000
20
166.0000
30
0.0
0
VERTEX
8
RILLE
10
122.0000
20
164.0000
30
0.0
0
VERTEX
8
RILLE
10
120.0000
20
164.0000
30
0.0
0
VERTEX
8
RILLE
10
120.0000
20
162.0000
30
0.0
0
VERTEX
8
RILLE
10
124.0000
20
162.0000
30
0.0
0
VERTEX
8
RILLE
10
124.0000
20
184.0000
30
0.0
0
VERTEX
8
RILLE
10
126.0000
20
184.0000
30
0.0
0
VERTEX
8
RILLE
10
126.0000
20
162.0000
30
0.0
0
VERTEX
8
RILLE
10
128.0000
20
162.0000
30
0.0
0
VERTEX
8
RILLE
10
128.0000
20
174.0000
30
0.0
0
VERTEX
8
RILLE
10
130.0000
20
174.0000
30
0.0
0
VERTEX
8
RILLE
10
130.0000
20
190.0000
30
0.0
0
VERTEX
8
RILLE
10
120.0000
20
190.0000
30
0.0
0
VERTEX
8
RILLE
10
120.0000
20
188.0000
30
0.0
0
VERTEX
8
RILLE
10
118.0000
20
188.0000
30
0.0
0
VERTEX
8
RILLE
10
118.0000
20
190.0000
30
0.0
0
VERTEX
8
RILLE
10
88.0000
20
190.0000
30
0.0
0
VERTEX
8
RILLE
10
88.0000
20
198.0000
30
0.0
0
VERTEX
8
RILLE
10
90.0000
20
198.0000
30
0.0
0
VERTEX
8
RILLE
10
90.0000
20
200.0000
30
0.0
0
VERTEX
8
RILLE
10
88.0000
20
200.0000
30
0.0
0
VERTEX
8
RILLE
10
88.0000
20
202.0000
30
0.0
0
VERTEX
8
RILLE
10
90.0000
20
202.0000
30
0.0
0
VERTEX
8
RILLE
10
90.0000
20
208.0000
30
0.0
0
VERTEX
8
RILLE
10
100.0000
20
208.0000
30
0.0
0
VERTEX
8
RILLE
10
100.0000
20
206.0000
30
0.0
0
VERTEX
8
RILLE
10
98.0000
20
206.0000
30
0.0
0
VERTEX
8
RILLE
10
98.0000
20
204.0000
30
0.0
0
VERTEX
8
RILLE
10
100.0000
20
204.0000
30
0.0
0
VERTEX
8
RILLE
10
100.0000
20
202.0000
30
0.0
0
VERTEX
8
RILLE
10
98.0000
20
202.0000
30
0.0
0
VERTEX
8
RILLE
10
98.0000
20
194.0000
30
0.0
0
VERTEX
8
RILLE
10
102.0000
20
194.0000
30
0.0
0
VERTEX
8
RILLE
10
102.0000
20
208.0000
30
0.0
0
VERTEX
8
RILLE
10
134.0000
20
208.0000
30
0.0
0
VERTEX
8
RILLE
10
134.0000
20
202.0000
30
0.0
0
VERTEX
8
RILLE
10
132.0000
20
202.0000
30
0.0
0
VERTEX
8
RILLE
10
132.0000
20
196.0000
30
0.0
0
VERTEX
8
RILLE
10
134.0000
20
196.0000
30
0.0
0
VERTEX
8
RILLE
10
134.0000
20
194.0000
30
0.0
0
VERTEX
8
RILLE
10
132.0000
20
194.0000
30
0.0
0
VERTEX
8
RILLE
10
132.0000
20
158.0000
30
0.0
0
VERTEX
8
RILLE
10
112.0000
20
158.0000
30
0.0
0
VERTEX
8
RILLE
10
112.0000
20
174.0000
30
0.0
0
VERTEX
8
RILLE
10
110.0000
20
174.0000
30
0.0
0
VERTEX
8
RILLE
10
110.0000
20
158.0000
30
0.0
0
VERTEX
8
RILLE
10
72.0000
20
158.0000
30
0.0
0
VERTEX
8
RILLE
10
72.0000
20
160.0000
30
0.0
0
VERTEX
8
RILLE
10
70.0000
20
160.0000
30
0.0
0
VERTEX
8
RILLE
10
70.0000
20
156.0000
30
0.0
0
VERTEX
8
RILLE
10
72.0000
20
156.0000
30
0.0
0
VERTEX
8
RILLE
10
72.0000
20
154.0000
30
0.0
0
VERTEX
8
RILLE
10
70.0000
20
154.0000
30
0.0
0
VERTEX
8
RILLE
10
70.0000
20
152.0000
30
0.0
0
VERTEX
8
RILLE
10
72.0000
20
152.0000
30
0.0
0
VERTEX
8
RILLE
10
72.0000
20
150.0000
30
0.0
0
VERTEX
8
RILLE
10
70.0000
20
150.0000
30
0.0
0
VERTEX
8
RILLE
10
70.0000
20
110.0000
30
0.0
0
VERTEX
8
RILLE
10
68.0000
20
110.0000
30
0.0
0
VERTEX
8
RILLE
10
68.0000
20
108.0000
30
0.0
0
VERTEX
8
RILLE
10
70.0000
20
108.0000
30
0.0
0
VERTEX
8
RILLE
10
70.0000
20
104.0000
30
0.0
0
VERTEX
8
RILLE
10
50.0000
20
104.0000
30
0.0
0
VERTEX
8
RILLE
10
50.0000
20
96.0000
30
0.0
0
VERTEX
8
RILLE
10
64.0000
20
96.0000
30
0.0
0
VERTEX
8
RILLE
10
64.0000
20
98.0000
30
0.0
0
VERTEX
8
RILLE
10
52.0000
20
98.0000
30
0.0
0
VERTEX
8
RILLE
10
52.0000
20
102.0000
30
0.0
0
VERTEX
8
RILLE
10
70.0000
20
102.0000
30
0.0
0
VERTEX
8
RILLE
10
70.0000
20
100.0000
30
0.0
0
VERTEX
8
RILLE
10
68.0000
20
100.0000
30
0.0
0
VERTEX
8
RILLE
10
68.0000
20
74.0000
30
0.0
0
VERTEX
8
RILLE
10
66.0000
20
74.0000
30
0.0
0
VERTEX
8
RILLE
10
66.0000
20
72.0000
30
0.0
0
VERTEX
8
RILLE
10
68.0000
20
72.0000
30
0.0
0
VERTEX
8
RILLE
10
68.0000
20
68.0000
30
0.0
0
VERTEX
8
RILLE
10
64.0000
20
68.0000
30
0.0
0
VERTEX
8
RILLE
10
64.0000
20
86.0000
30
0.0
0
VERTEX
8
RILLE
10
66.0000
20
86.0000
30
0.0
0
VERTEX
8
RILLE
10
66.0000
20
88.0000
30
0.0
0
VERTEX
8
RILLE
10
62.0000
20
88.0000
30
0.0
0
VERTEX
8
RILLE
10
62.0000
20
68.0000
30
0.0
0
VERTEX
8
RILLE
10
56.0000
20
68.0000
30
0.0
0
VERTEX
8
RILLE
10
56.0000
20
70.0000
30
0.0
0
VERTEX
8
RILLE
10
54.0000
20
70.0000
30
0.0
0
VERTEX
8
RILLE
10
54.0000
20
60.0000
30
0.0
0
VERTEX
8
RILLE
10
68.0000
20
60.0000
30
0.0
0
VERTEX
8
RILLE
10
68.0000
20
58.0000
30
0.0
0
VERTEX
8
RILLE
10
66.0000
20
58.0000
30
0.0
0
VERTEX
8
RILLE
10
66.0000
20
8.0000
30
0.0
0
VERTEX
8
RILLE
10
64.0000
20
8.0000
30
0.0
0
VERTEX
8
RILLE
10
64.0000
20
10.0000
30
0.0
0
VERTEX
8
RILLE
10
62.0000
20
10.0000
30
0.0
0
VERTEX
8
RILLE
10
62.0000
20
8.0000
30
0.0
0
VERTEX
8
RILLE
10
60.0000
20
8.0000
30
0.0
0
VERTEX
8
RILLE
10
60.0000
20
10.0000
30
0.0
0
VERTEX
8
RILLE
10
58.0000
20
10.0000
30
0.0
0
VERTEX
8
RILLE
10
58.0000
20
8.0000
30
0.0
0
VERTEX
8
RILLE
10
52.0000
20
8.0000
30
0.0
0
VERTEX
8
RILLE
10
52.0000
20
10.0000
30
0.0
0
VERTEX
8
RILLE
10
50.0000
20
10.0000
30
0.0
0
VERTEX
8
RILLE
10
50.0000
20
12.0000
30
0.0
0
VERTEX
8
RILLE
10
48.0000
20
12.0000
30
0.0
0
VERTEX
8
RILLE
10
48.0000
20
10.0000
30
0.0
0
VERTEX
8
RILLE
10
36.0000
20
10.0000
30
0.0
0
VERTEX
8
RILLE
10
36.0000
20
12.0000
30
0.0
0
VERTEX
8
RILLE
10
32.0000
20
12.0000
30
0.0
0
VERTEX
8
RILLE
10
32.0000
20
10.0000
30
0.0
0
VERTEX
8
RILLE
10
30.0000
20
10.0000
30
0.0
0
VERTEX
8
RILLE
10
30.0000
20
12.0000
30
0.0
0
VERTEX
8
RILLE
10
28.0000
20
12.0000
30
0.0
0
VERTEX
8
RILLE
10
28.0000
20
10.0000
30
0.0
0
VERTEX
8
RILLE
10
26.0000
20
10.0000
30
0.0
0
VERTEX
8
RILLE
10
26.0000
20
12.0000
30
0.0
0
VERTEX
8
RILLE
10
24.0000
20
12.0000
30
0.0
0
VERTEX
8
RILLE
10
24.0000
20
10.0000
30
0.0
0
VERTEX
8
RILLE
10
22.0000
20
10.0000
30
0.0
0
VERTEX
8
RILLE
10
22.0000
20
12.0000
30
0.0
0
VERTEX
8
RILLE
10
20.0000
20
12.0000
30
0.0
0
VERTEX
8
RILLE
10
20.0000
20
10.0000
30
0.0
0
VERTEX
8
RILLE
10
18.0000
20
10.0000
30
0.0
0
VERTEX
8
RILLE
10
18.0000
20
12.0000
30
0.0
0
VERTEX
8
RILLE
10
6.0000
20
12.0000
30
0.0
0
VERTEX
8
RILLE
10
6.0000
20
28.0000
30
0.0
0
VERTEX
8
RILLE
10
4.0000
20
28.0000
30
0.0
0
VERTEX
8
RILLE
10
4.0000
20
10.0000
30
0.0
0
VERTEX
8
RILLE
10
12.0000
20
10.0000
30
0.0
0
VERTEX
8
RILLE
10
12.0000
20
8.0000
30
0.0
0
VERTEX
8
RILLE
10
50.0000
20
8.0000
30
0.0
0
VERTEX
8
RILLE
10
50.0000
20
6.0000
30
0.0
0
VERTEX
8
RILLE
10
98.0000
20
6.0000
30
0.0
0
VERTEX
8
RILLE
10
98.0000
20
4.0000
30
0.0
0
VERTEX
8
RILLE
10
100.0000
20
4.0000
30
0.0
0
VERTEX
8
RILLE
10
100.0000
20
6.0000
30
0.0
0
VERTEX
8
RILLE
10
102.0000
20
6.0000
30
0.0
0
VERTEX
8
RILLE
10
102.0000
20
4.0000
30
0.0
0
VERTEX
8
RILLE
10
132.0000
20
4.0000
30
0.0
0
VERTEX
8
RILLE
10
132.0000
20
110.0000
30
0.0
0
VERTEX
8
RILLE
10
130.0000
20
110.0000
30
0.0
0
VERTEX
8
RILLE
10
130.0000
20
108.0000
30
0.0
0
VERTEX
8
RILLE
10
116.0000
20
108.0000
30
0.0
0
VERTEX
8
RILLE
10
116.0000
20
112.0000
30
0.0
0
VERTEX
8
RILLE
10
132.0000
20
112.0000
30
0.0
0
VERTEX
8
RILLE
10
132.0000
20
114.0000
30
0.0
0
VERTEX
8
RILLE
10
134.0000
20
114.0000
30
0.0
0
VERTEX
8
RILLE
10
134.0000
20
192.0000
30
0.0
0
VERTEX
8
RILLE
10
136.0000
20
192.0000
30
0.0
0
VERTEX
8
RILLE
10
136.0000
20
214.0000
30
0.0
0
VERTEX
8
RILLE
10
134.0000
20
214.0000
30
0.0
0
VERTEX
8
RILLE
10
134.0000
20
210.0000
30
0.0
0
VERTEX
8
RILLE
10
114.0000
20
210.0000
30
0.0
0
VERTEX
8
RILLE
10
114.0000
20
212.0000
30
0.0
0
VERTEX
8
RILLE
10
112.0000
20
212.0000
30
0.0
0
VERTEX
8
RILLE
10
112.0000
20
210.0000
30
0.0
0
VERTEX
8
RILLE
10
108.0000
20
210.0000
30
0.0
0
VERTEX
8
RILLE
10
108.0000
20
212.0000
30
0.0
0
VERTEX
8
RILLE
10
106.0000
20
212.0000
30
0.0
0
VERTEX
8
RILLE
10
106.0000
20
210.0000
30
0.0
0
VERTEX
8
RILLE
10
100.0000
20
210.0000
30
0.0
0
VERTEX
8
RILLE
10
100.0000
20
212.0000
30
0.0
0
VERTEX
8
RILLE
10
8.0000
20
212.0000
30
0.0
0
VERTEX
8
RILLE
10
8.0000
20
192.0000
30
0.0
0
VERTEX
8
RILLE
10
6.0000
20
192.0000
30
0.0
0
VERTEX
8
RILLE
10
6.0000
20
162.0000
30
0.0
0
VERTEX
8
RILLE
10
4.0000
20
162.0000
30
0.0
0
VERTEX
8
RILLE
10
4.0000
20
118.0000
30
0.0
0
VERTEX
8
RILLE
10
6.0000
20
118.0000
30
0.0
0
VERTEX
8
RILLE
10
6.0000
20
160.0000
30
0.0
0
VERTEX
8
RILLE
10
8.0000
20
160.0000
30
0.0
0
SEQEND
0
POLYLINE
8
RILLE
66
1
70
1
0
VERTEX
8
RILLE
10
38.0000
20
180.0000
30
0.0
0
VERTEX
8
RILLE
10
38.0000
20
188.0000
30
0.0
0
VERTEX
8
RILLE
10
14.0000
20
188.0000
30
0.0
0
VERTEX
8
RILLE
10
14.0000
20
168.0000
30
0.0
0
VERTEX
8
RILLE
10
10.0000
20
168.0000
30
0.0
0
VERTEX
8
RILLE
10
10.0000
20
172.0000
30
0.0
0
VERTEX
8
RILLE
10
12.0000
20
172.0000
30
0.0
0
VERTEX
8
RILLE
10
12.0000
20
174.0000
30
0.0
0
VERTEX
8
RILLE
10
10.0000
20
174.0000
30
0.0
0
VERTEX
8
RILLE
10
10.0000
20
176.0000
30
0.0
0
VERTEX
8
RILLE
10
12.0000
20
176.0000
30
0.0
0
VERTEX
8
RILLE
10
12.0000
20
190.0000
30
0.0
0
VERTEX
8
RILLE
10
62.0000
20
190.0000
30
0.0
0
VERTEX
8
RILLE
10
62.0000
20
194.0000
30
0.0
0
VERTEX
8
RILLE
10
60.0000
20
194.0000
30
0.0
0
VERTEX
8
RILLE
10
60.0000
20
196.0000
30
0.0
0
VERTEX
8
RILLE
10
62.0000
20
196.0000
30
0.0
0
VERTEX
8
RILLE
10
62.0000
20
206.0000
30
0.0
0
VERTEX
8
RILLE
10
76.0000
20
206.0000
30
0.0
0
VERTEX
8
RILLE
10
76.0000
20
178.0000
30
0.0
0
VERTEX
8
RILLE
10
74.0000
20
178.0000
30
0.0
0
VERTEX
8
RILLE
10
74.0000
20
164.0000
30
0.0
0
VERTEX
8
RILLE
10
72.0000
20
164.0000
30
0.0
0
VERTEX
8
RILLE
10
72.0000
20
188.0000
30
0.0
0
VERTEX
8
RILLE
10
74.0000
20
188.0000
30
0.0
0
VERTEX
8
RILLE
10
74.0000
20
192.0000
30
0.0
0
VERTEX
8
RILLE
10
72.0000
20
192.0000
30
0.0
0
VERTEX
8
RILLE
10
72.0000
20
194.0000
30
0.0
0
VERTEX
8
RILLE
10
74.0000
20
194.0000
30
0.0
0
VERTEX
8
RILLE
10
74.0000
20
204.0000
30
0.0
0
VERTEX
8
RILLE
10
70.0000
20
204.0000
30
0.0
0
VERTEX
8
RILLE
10
70.0000
20
182.0000
30
0.0
0
VERTEX
8
RILLE
10
68.0000
20
182.0000
30
0.0
0
VERTEX
8
RILLE
10
68.0000
20
164.0000
30
0.0
0
VERTEX
8
RILLE
10
22.0000
20
164.0000
30
0.0
0
VERTEX
8
RILLE
10
22.0000
20
166.0000
30
0.0
0
VERTEX
8
RILLE
10
24.0000
20
166.0000
30
0.0
0
VERTEX
8
RILLE
10
24.0000
20
174.0000
30
0.0
0
VERTEX
8
RILLE
10
26.0000
20
174.0000
30
0.0
0
VERTEX
8
RILLE
10
26.0000
20
166.0000
30
0.0
0
VERTEX
8
RILLE
10
66.0000
20
166.0000
30
0.0
0
VERTEX
8
RILLE
10
66.0000
20
186.0000
30
0.0
0
VERTEX
8
RILLE
10
68.0000
20
186.0000
30
0.0
0
VERTEX
8
RILLE
10
68.0000
20
188.0000
30
0.0
0
VERTEX
8
RILLE
10
66.0000
20
188.0000
30
0.0
0
VERTEX
8
RILLE
10
66.0000
20
192.0000
30
0.0
0
VERTEX
8
RILLE
10
68.0000
20
192.0000
30
0.0
0
VERTEX
8
RILLE
10
68.0000
20
204.0000
30
0.0
0
VERTEX
8
RILLE
10
64.0000
20
204.0000
30
0.0
0
VERTEX
8
RILLE
10
64.0000
20
178.0000
30
0.0
0
VERTEX
8
RILLE
10
62.0000
20
178.0000
30
0.0
0
VERTEX
8
RILLE
10
62.0000
20
168.0000
30
0.0
0
VERTEX
8
RILLE
10
28.0000
20
168.0000
30
0.0
0
VERTEX
8
RILLE
10
28.0000
20
176.0000
30
0.0
0
VERTEX
8
RILLE
10
54.0000
20
176.0000
30
0.0
0
VERTEX
8
RILLE
10
54.0000
20
186.0000
30
0.0
0
VERTEX
8
RILLE
10
58.0000
20
186.0000
30
0.0
0
VERTEX
8
RILLE
10
58.0000
20
182.0000
30
0.0
0
VERTEX
8
RILLE
10
56.0000
20
182.0000
30
0.0
0
VERTEX
8
RILLE
10
56.0000
20
174.0000
30
0.0
0
VERTEX
8
RILLE
10
30.0000
20
174.0000
30
0.0
0
VERTEX
8
RILLE
10
30.0000
20
170.0000
30
0.0
0
VERTEX
8
RILLE
10
60.0000
20
170.0000
30
0.0
0
VERTEX
8
RILLE
10
60.0000
20
186.0000
30
0.0
0
VERTEX
8
RILLE
10
62.0000
20
186.0000
30
0.0
0
VERTEX
8
RILLE
10
62.0000
20
188.0000
30
0.0
0
VERTEX
8
RILLE
10
40.0000
20
188.0000
30
0.0
0
VERTEX
8
RILLE
10
40.0000
20
180.0000
30
0.0
0
VERTEX
8
RILLE
10
44.0000
20
180.0000
30
0.0
0
VERTEX
8
RILLE
10
44.0000
20
178.0000
30
0.0
0
VERTEX
8
RILLE
10
26.0000
20
178.0000
30
0.0
0
VERTEX
8
RILLE
10
26.0000
20
180.0000
30
0.0
0
SEQEND
0
POLYLINE
8
RILLE
66
1
70
1
0
VERTEX
8
RILLE
10
120.0000
20
198.0000
30
0.0
0
VERTEX
8
RILLE
10
120.0000
20
200.0000
30
0.0
0
VERTEX
8
RILLE
10
110.0000
20
200.0000
30
0.0
0
VERTEX
8
RILLE
10
110.0000
20
196.0000
30
0.0
0
VERTEX
8
RILLE
10
112.0000
20
196.0000
30
0.0
0
VERTEX
8
RILLE
10
112.0000
20
198.0000
30
0.0
0
VERTEX
8
RILLE
10
118.0000
20
198.0000
30
0.0
0
VERTEX
8
RILLE
10
118.0000
20
196.0000
30
0.0
0
VERTEX
8
RILLE
10
124.0000
20
196.0000
30
0.0
0
VERTEX
8
RILLE
10
124.0000
20
200.0000
30
0.0
0
VERTEX
8
RILLE
10
122.0000
20
200.0000
30
0.0
0
VERTEX
8
RILLE
10
122.0000
20
198.0000
30
0.0
0
SEQEND
0
POLYLINE
8
RILLE
66
1
70
1
0
VERTEX
8
RILLE
10
10.0000
20
78.0000
30
0.0
0
VERTEX
8
RILLE
10
8.0000
20
78.0000
30
0.0
0
VERTEX
8
RILLE
10
8.0000
20
62.0000
30
0.0
0
VERTEX
8
RILLE
10
6.0000
20
62.0000
30
0.0
0
VERTEX
8
RILLE
10
6.0000
20
82.0000
30
0.0
0
VERTEX
8
RILLE
10
12.0000
20
82.0000
30
0.0
0
VERTEX
8
RILLE
10
12.0000
20
40.0000
30
0.0
0
VERTEX
8
RILLE
10
10.0000
20
40.0000
30
0.0
0
VERTEX
8
RILLE
10
10.0000
20
42.0000
30
0.0
0
VERTEX
8
RILLE
10
8.0000
20
42.0000
30
0.0
0
VERTEX
8
RILLE
10
8.0000
20
44.0000
30
0.0
0
VERTEX
8
RILLE
10
10.0000
20
44.0000
30
0.0
0
VERTEX
8
RILLE
10
10.0000
20
50.0000
30
0.0
0
VERTEX
8
RILLE
10
6.0000
20
50.0000
30
0.0
0
VERTEX
8
RILLE
10
6.0000
20
54.0000
30
0.0
0
VERTEX
8
RILLE
10
8.0000
20
54.0000
30
0.0
0
VERTEX
8
RILLE
10
8.0000
20
52.0000
30
0.0
0
VERTEX
8
RILLE
10
10.0000
20
52.0000
30
0.0
0
SEQEND
0
POLYLINE
8
RILLE
66
1
70
1
0
VERTEX
8
RILLE
10
38.0000
20
46.0000
30
0.0
0
VERTEX
8
RILLE
10
38.0000
20
48.0000
30
0.0
0
VERTEX
8
RILLE
10
40.0000
20
48.0000
30
0.0
0
VERTEX
8
RILLE
10
40.0000
20
46.0000
30
0.0
0
VERTEX
8
RILLE
10
44.0000
20
46.0000
30
0.0
0
VERTEX
8
RILLE
10
44.0000
20
48.0000
30
0.0
0
VERTEX
8
RILLE
10
46.0000
20
48.0000
30
0.0
0
VERTEX
8
RILLE
10
46.0000
20
44.0000
30
0.0
0
VERTEX
8
RILLE
10
28.0000
20
44.0000
30
0.0
0
VERTEX
8
RILLE
10
28.0000
20
46.0000
30
0.0
0
VERTEX
8
RILLE
10
30.0000
20
46.0000
30
0.0
0
VERTEX
8
RILLE
10
30.0000
20
56.0000
30
0.0
0
VERTEX
8
RILLE
10
28.0000
20
56.0000
30
0.0
0
VERTEX
8
RILLE
10
28.0000
20
58.0000
30
0.0
0
VERTEX
8
RILLE
10
30.0000
20
58.0000
30
0.0
0
VERTEX
8
RILLE
10
30.0000
20
60.0000
30
0.0
0
VERTEX
8
RILLE
10
32.0000
20
60.0000
30
0.0
0
VERTEX
8
RILLE
10
32.0000
20
58.0000
30
0.0
0
VERTEX
8
RILLE
10
50.0000
20
58.0000
30
0.0
0
VERTEX
8
RILLE
10
50.0000
20
56.0000
30
0.0
0
VERTEX
8
RILLE
10
48.0000
20
56.0000
30
0.0
0
VERTEX
8
RILLE
10
48.0000
20
54.0000
30
0.0
0
VERTEX
8
RILLE
10
46.0000
20
54.0000
30
0.0
0
VERTEX
8
RILLE
10
46.0000
20
56.0000
30
0.0
0
VERTEX
8
RILLE
10
44.0000
20
56.0000
30
0.0
0
VERTEX
8
RILLE
10
44.0000
20
54.0000
30
0.0
0
VERTEX
8
RILLE
10
42.0000
20
54.0000
30
0.0
0
VERTEX
8
RILLE
10
42.0000
20
56.0000
30
0.0
0
VERTEX
8
RILLE
10
32.0000
20
56.0000
30
0.0
0
VERTEX
8
RILLE
10
32.0000
20
46.0000
30
0.0
0
SEQEND
0
POLYLINE
8
RILLE
66
1
70
1
0
VERTEX
8
RILLE
10
120.0000
20
32.0000
30
0.0
0
VERTEX
8
RILLE
10
120.0000
20
52.0000
30
0.0
0
VERTEX
8
RILLE
10
130.0000
20
52.0000
30
0.0
0
VERTEX
8
RILLE
10
130.0000
20
48.0000
30
0.0
0
VERTEX
8
RILLE
10
128.0000
20
48.0000
30
0.0
0
VERTEX
8
RILLE
10
128.0000
20
46.0000
30
0.0
0
VERTEX
8
RILLE
10
130.0000
20
46.0000
30
0.0
0
VERTEX
8
RILLE
10
130.0000
20
44.0000
30
0.0
0
VERTEX
8
RILLE
10
128.0000
20
44.0000
30
0.0
0
VERTEX
8
RILLE
10
128.0000
20
38.0000
30
0.0
0
VERTEX
8
RILLE
10
130.0000
20
38.0000
30
0.0
0
VERTEX
8
RILLE
10
130.0000
20
36.0000
30
0.0
0
VERTEX
8
RILLE
10
128.0000
20
36.0000
30
0.0
0
VERTEX
8
RILLE
10
128.0000
20
32.0000
30
0.0
0
VERTEX
8
RILLE
10
130.0000
20
32.0000
30
0.0
0
VERTEX
8
RILLE
10
130.0000
20
30.0000
30
0.0
0
VERTEX
8
RILLE
10
128.0000
20
30.0000
30
0.0
0
VERTEX
8
RILLE
10
128.0000
20
28.0000
30
0.0
0
VERTEX
8
RILLE
10
126.0000
20
28.0000
30
0.0
0
VERTEX
8
RILLE
10
126.0000
20
48.0000
30
0.0
0
VERTEX
8
RILLE
10
124.0000
20
48.0000
30
0.0
0
VERTEX
8
RILLE
10
124.0000
20
46.0000
30
0.0
0
VERTEX
8
RILLE
10
122.0000
20
46.0000
30
0.0
0
VERTEX
8
RILLE
10
122.0000
20
40.0000
30
0.0
0
VERTEX
8
RILLE
10
124.0000
20
40.0000
30
0.0
0
VERTEX
8
RILLE
10
124.0000
20
36.0000
30
0.0
0
VERTEX
8
RILLE
10
122.0000
20
36.0000
30
0.0
0
VERTEX
8
RILLE
10
122.0000
20
30.0000
30
0.0
0
VERTEX
8
RILLE
10
94.0000
20
30.0000
30
0.0
0
VERTEX
8
RILLE
10
94.0000
20
32.0000
30
0.0
0
SEQEND
0
POLYLINE
8
RILLE
66
1
70
1
0
VERTEX
8
RILLE
10
112.0000
20
180.0000
30
0.0
0
VERTEX
8
RILLE
10
112.0000
20
178.0000
30
0.0
0
VERTEX
8
RILLE
10
96.0000
20
178.0000
30
0.0
0
VERTEX
8
RILLE
10
96.0000
20
176.0000
30
0.0
0
VERTEX
8
RILLE
10
94.0000
20
176.0000
30
0.0
0
VERTEX
8
RILLE
10
94.0000
20
172.0000
30
0.0
0
VERTEX
8
RILLE
10
90.0000
20
172.0000
30
0.0
0
VERTEX
8
RILLE
10
90.0000
20
174.0000
30
0.0
0
VERTEX
8
RILLE
10
92.0000
20
174.0000
30
0.0
0
VERTEX
8
RILLE
10
92.0000
20
180.0000
30
0.0
0
SEQEND
0
POLYLINE
8
RILLE
66
1
70
1
0
VERTEX
8
RILLE
10
32.0000
20
130.0000
30
0.0
0
VERTEX
8
RILLE
10
32.0000
20
132.0000
30
0.0
0
VERTEX
8
RILLE
10
48.0000
20
132.0000
30
0.0
0
VERTEX
8
RILLE
10
48.0000
20
130.0000
30
0.0
0
SEQEND
0
POLYLINE
8
RILLE
66
1
70
1
0
VERTEX
8
RILLE
10
14.0000
20
54.0000
30
0.0
0
VERTEX
8
RILLE
10
14.0000
20
56.0000
30
0.0
0
VERTEX
8
RILLE
10
16.0000
20
56.0000
30
0.0
0
VERTEX
8
RILLE
10
16.0000
20
58.0000
30
0.0
0
VERTEX
8
RILLE
10
14.0000
20
58.0000
30
0.0
0
VERTEX
8
RILLE
10
14.0000
20
60.0000
30
0.0
0
VERTEX
8
RILLE
10
16.0000
20
60.0000
30
0.0
0
VERTEX
8
RILLE
10
16.0000
20
62.0000
30
0.0
0
VERTEX
8
RILLE
10
14.0000
20
62.0000
30
0.0
0
VERTEX
8
RILLE
10
14.0000
20
64.0000
30
0.0
0
VERTEX
8
RILLE
10
16.0000
20
64.0000
30
0.0
0
VERTEX
8
RILLE
10
16.0000
20
66.0000
30
0.0
0
VERTEX
8
RILLE
10
14.0000
20
66.0000
30
0.0
0
VERTEX
8
RILLE
10
14.0000
20
68.0000
30
0.0
0
VERTEX
8
RILLE
10
16.0000
20
68.0000
30
0.0
0
VERTEX
8
RILLE
10
16.0000
20
80.0000
30
0.0
0
VERTEX
8
RILLE
10
18.0000
20
80.0000
30
0.0
0
VERTEX
8
RILLE
10
18.0000
20
72.0000
30
0.0
0
VERTEX
8
RILLE
10
20.0000
20
72.0000
30
0.0
0
VERTEX
8
RILLE
10
20.0000
20
80.0000
30
0.0
0
VERTEX
8
RILLE
10
22.0000
20
80.0000
30
0.0
0
VERTEX
8
RILLE
10
22.0000
20
68.0000
30
0.0
0
VERTEX
8
RILLE
10
18.0000
20
68.0000
30
0.0
0
VERTEX
8
RILLE
10
18.0000
20
64.0000
30
0.0
0
VERTEX
8
RILLE
10
46.0000
20
64.0000
30
0.0
0
VERTEX
8
RILLE
10
46.0000
20
62.0000
30
0.0
0
VERTEX
8
RILLE
10
48.0000
20
62.0000
30
0.0
0
VERTEX
8
RILLE
10
48.0000
20
64.0000
30
0.0
0
VERTEX
8
RILLE
10
50.0000
20
64.0000
30
0.0
0
VERTEX
8
RILLE
10
50.0000
20
62.0000
30
0.0
0
VERTEX
8
RILLE
10
52.0000
20
62.0000
30
0.0
0
VERTEX
8
RILLE
10
52.0000
20
60.0000
30
0.0
0
VERTEX
8
RILLE
10
44.0000
20
60.0000
30
0.0
0
VERTEX
8
RILLE
10
44.0000
20
62.0000
30
0.0
0
VERTEX
8
RILLE
10
18.0000
20
62.0000
30
0.0
0
VERTEX
8
RILLE
10
18.0000
20
38.0000
30
0.0
0
VERTEX
8
RILLE
10
24.0000
20
38.0000
30
0.0
0
VERTEX
8
RILLE
10
24.0000
20
36.0000
30
0.0
0
VERTEX
8
RILLE
10
10.0000
20
36.0000
30
0.0
0
VERTEX
8
RILLE
10
10.0000
20
32.0000
30
0.0
0
VERTEX
8
RILLE
10
8.0000
20
32.0000
30
0.0
0
VERTEX
8
RILLE
10
8.0000
20
36.0000
30
0.0
0
VERTEX
8
RILLE
10
6.0000
20
36.0000
30
0.0
0
VERTEX
8
RILLE
10
6.0000
20
38.0000
30
0.0
0
VERTEX
8
RILLE
10
16.0000
20
38.0000
30
0.0
0
VERTEX
8
RILLE
10
16.0000
20
40.0000
30
0.0
0
VERTEX
8
RILLE
10
14.0000
20
40.0000
30
0.0
0
VERTEX
8
RILLE
10
14.0000
20
42.0000
30
0.0
0
VERTEX
8
RILLE
10
16.0000
20
42.0000
30
0.0
0
VERTEX
8
RILLE
10
16.0000
20
44.0000
30
0.0
0
VERTEX
8
RILLE
10
14.0000
20
44.0000
30
0.0
0
VERTEX
8
RILLE
10
14.0000
20
48.0000
30
0.0
0
VERTEX
8
RILLE
10
16.0000
20
48.0000
30
0.0
0
VERTEX
8
RILLE
10
16.0000
20
50.0000
30
0.0
0
VERTEX
8
RILLE
10
14.0000
20
50.0000
30
0.0
0
VERTEX
8
RILLE
10
14.0000
20
52.0000
30
0.0
0
VERTEX
8
RILLE
10
16.0000
20
52.0000
30
0.0
0
VERTEX
8
RILLE
10
16.0000
20
54.0000
30
0.0
0
SEQEND
0
POLYLINE
8
RILLE
66
1
70
1
0
VERTEX
8
RILLE
10
30.0000
20
80.0000
30
0.0
0
VERTEX
8
RILLE
10
30.0000
20
82.0000
30
0.0
0
VERTEX
8
RILLE
10
28.0000
20
82.0000
30
0.0
0
VERTEX
8
RILLE
10
28.0000
20
80.0000
30
0.0
0
VERTEX
8
RILLE
10
26.0000
20
80.0000
30
0.0
0
VERTEX
8
RILLE
10
26.0000
20
82.0000
30
0.0
0
VERTEX
8
RILLE
10
24.0000
20
82.0000
30
0.0
0
VERTEX
8
RILLE
10
24.0000
20
74.0000
30
0.0
0
VERTEX
8
RILLE
10
26.0000
20
74.0000
30
0.0
0
VERTEX
8
RILLE
10
26.0000
20
78.0000
30
0.0
0
VERTEX
8
RILLE
10
30.0000
20
78.0000
30
0.0
0
VERTEX
8
RILLE
10
30.0000
20
74.0000
30
0.0
0
VERTEX
8
RILLE
10
28.0000
20
74.0000
30
0.0
0
VERTEX
8
RILLE
10
28.0000
20
72.0000
30
0.0
0
VERTEX
8
RILLE
10
30.0000
20
72.0000
30
0.0
0
VERTEX
8
RILLE
10
30.0000
20
70.0000
30
0.0
0
VERTEX
8
RILLE
10
26.0000
20
70.0000
30
0.0
0
VERTEX
8
RILLE
10
26.0000
20
68.0000
30
0.0
0
VERTEX
8
RILLE
10
32.0000
20
68.0000
30
0.0
0
VERTEX
8
RILLE
10
32.0000
20
78.0000
30
0.0
0
VERTEX
8
RILLE
10
58.0000
20
78.0000
30
0.0
0
VERTEX
8
RILLE
10
58.0000
20
86.0000
30
0.0
0
VERTEX
8
RILLE
10
50.0000
20
86.0000
30
0.0
0
VERTEX
8
RILLE
10
50.0000
20
88.0000
30
0.0
0
VERTEX
8
RILLE
10
48.0000
20
88.0000
30
0.0
0
VERTEX
8
RILLE
10
48.0000
20
86.0000
30
0.0
0
VERTEX
8
RILLE
10
46.0000
20
86.0000
30
0.0
0
VERTEX
8
RILLE
10
46.0000
20
88.0000
30
0.0
0
VERTEX
8
RILLE
10
44.0000
20
88.0000
30
0.0
0
VERTEX
8
RILLE
10
44.0000
20
86.0000
30
0.0
0
VERTEX
8
RILLE
10
40.0000
20
86.0000
30
0.0
0
VERTEX
8
RILLE
10
40.0000
20
88.0000
30
0.0
0
VERTEX
8
RILLE
10
38.0000
20
88.0000
30
0.0
0
VERTEX
8
RILLE
10
38.0000
20
86.0000
30
0.0
0
VERTEX
8
RILLE
10
36.0000
20
86.0000
30
0.0
0
VERTEX
8
RILLE
10
36.0000
20
88.0000
30
0.0
0
VERTEX
8
RILLE
10
24.0000
20
88.0000
30
0.0
0
VERTEX
8
RILLE
10
24.0000
20
86.0000
30
0.0
0
VERTEX
8
RILLE
10
22.0000
20
86.0000
30
0.0
0
VERTEX
8
RILLE
10
22.0000
20
88.0000
30
0.0
0
VERTEX
8
RILLE
10
10.0000
20
88.0000
30
0.0
0
VERTEX
8
RILLE
10
10.0000
20
98.0000
30
0.0
0
VERTEX
8
RILLE
10
12.0000
20
98.0000
30
0.0
0
VERTEX
8
RILLE
10
12.0000
20
100.0000
30
0.0
0
VERTEX
8
RILLE
10
8.0000
20
100.0000
30
0.0
0
VERTEX
8
RILLE
10
8.0000
20
84.0000
30
0.0
0
VERTEX
8
RILLE
10
10.0000
20
84.0000
30
0.0
0
VERTEX
8
RILLE
10
10.0000
20
86.0000
30
0.0
0
VERTEX
8
RILLE
10
20.0000
20
86.0000
30
0.0
0
VERTEX
8
RILLE
10
20.0000
20
84.0000
30
0.0
0
VERTEX
8
RILLE
10
56.0000
20
84.0000
30
0.0
0
VERTEX
8
RILLE
10
56.0000
20
80.0000
30
0.0
0
VERTEX
8
RILLE
10
52.0000
20
80.0000
30
0.0
0
VERTEX
8
RILLE
10
52.0000
20
82.0000
30
0.0
0
VERTEX
8
RILLE
10
50.0000
20
82.0000
30
0.0
0
VERTEX
8
RILLE
10
50.0000
20
80.0000
30
0.0
0
VERTEX
8
RILLE
10
48.0000
20
80.0000
30
0.0
0
VERTEX
8
RILLE
10
48.0000
20
82.0000
30
0.0
0
VERTEX
8
RILLE
10
46.0000
20
82.0000
30
0.0
0
VERTEX
8
RILLE
10
46.0000
20
80.0000
30
0.0
0
SEQEND
0
POLYLINE
8
RILLE
66
1
70
1
0
VERTEX
8
RILLE
10
8.0000
20
128.0000
30
0.0
0
VERTEX
8
RILLE
10
12.0000
20
128.0000
30
0.0
0
VERTEX
8
RILLE
10
12.0000
20
126.0000
30
0.0
0
VERTEX
8
RILLE
10
10.0000
20
126.0000
30
0.0
0
VERTEX
8
RILLE
10
10.0000
20
124.0000
30
0.0
0
VERTEX
8
RILLE
10
8.0000
20
124.0000
30
0.0
0
SEQEND
0
POLYLINE
8
RILLE
66
1
70
1
0
VERTEX
8
RILLE
10
106.0000
20
116.0000
30
0.0
0
VERTEX
8
RILLE
10
108.0000
20
116.0000
30
0.0
0
VERTEX
8
RILLE
10
108.0000
20
114.0000
30
0.0
0
VERTEX
8
RILLE
10
110.0000
20
114.0000
30
0.0
0
VERTEX
8
RILLE
10
110.0000
20
116.0000
30
0.0
0
VERTEX
8
RILLE
10
112.0000
20
116.0000
30
0.0
0
VERTEX
8
RILLE
10
112.0000
20
112.0000
30
0.0
0
VERTEX
8
RILLE
10
108.0000
20
112.0000
30
0.0
0
VERTEX
8
RILLE
10
108.0000
20
108.0000
30
0.0
0
VERTEX
8
RILLE
10
106.0000
20
108.0000
30
0.0
0
SEQEND
0
POLYLINE
8
RILLE
66
1
70
1
0
VERTEX
8
RILLE
10
30.0000
20
20.0000
30
0.0
0
VERTEX
8
RILLE
10
40.0000
20
20.0000
30
0.0
0
VERTEX
8
RILLE
10
40.0000
20
18.0000
30
0.0
0
VERTEX
8
RILLE
10
60.0000
20
18.0000
30
0.0
0
VERTEX
8
RILLE
10
60.0000
20
16.0000
30
0.0
0
VERTEX
8
RILLE
10
58.0000
20
16.0000
30
0.0
0
VERTEX
8
RILLE
10
58.0000
20
14.0000
30
0.0
0
VERTEX
8
RILLE
10
56.0000
20
14.0000
30
0.0
0
VERTEX
8
RILLE
10
56.0000
20
16.0000
30
0.0
0
VERTEX
8
RILLE
10
30.0000
20
16.0000
30
0.0
0
SEQEND
0
POLYLINE
8
RILLE
66
1
70
1
0
VERTEX
8
RILLE
10
26.0000
20
142.0000
30
0.0
0
VERTEX
8
RILLE
10
28.0000
20
142.0000
30
0.0
0
VERTEX
8
RILLE
10
28.0000
20
126.0000
30
0.0
0
VERTEX
8
RILLE
10
24.0000
20
126.0000
30
0.0
0
VERTEX
8
RILLE
10
24.0000
20
128.0000
30
0.0
0
VERTEX
8
RILLE
10
26.0000
20
128.0000
30
0.0
0
SEQEND
0
POLYLINE
8
RILLE
66
1
70
1
0
VERTEX
8
RILLE
10
22.0000
20
150.0000
30
0.0
0
VERTEX
8
RILLE
10
22.0000
20
152.0000
30
0.0
0
VERTEX
8
RILLE
10
24.0000
20
152.0000
30
0.0
0
VERTEX
8
RILLE
10
24.0000
20
146.0000
30
0.0
0
VERTEX
8
RILLE
10
20.0000
20
146.0000
30
0.0
0
VERTEX
8
RILLE
10
20.0000
20
150.0000
30
0.0
0
SEQEND
0
POLYLINE
8
RILLE
66
1
70
1
0
VERTEX
8
RILLE
10
40.0000
20
200.0000
30
0.0
0
VERTEX
8
RILLE
10
50.0000
20
200.0000
30
0.0
0
VERTEX
8
RILLE
10
50.0000
20
204.0000
30
0.0
0
VERTEX
8
RILLE
10
42.0000
20
204.0000
30
0.0
0
VERTEX
8
RILLE
10
42.0000
20
202.0000
30
0.0
0
VERTEX
8
RILLE
10
40.0000
20
202.0000
30
0.0
0
SEQEND
0
POLYLINE
8
RILLE
66
1
70
1
0
VERTEX
8
RILLE
10
104.0000
20
118.0000
30
0.0
0
VERTEX
8
RILLE
10
110.0000
20
118.0000
30
0.0
0
VERTEX
8
RILLE
10
110.0000
20
120.0000
30
0.0
0
VERTEX
8
RILLE
10
96.0000
20
120.0000
30
0.0
0
VERTEX
8
RILLE
10
96.0000
20
122.0000
30
0.0
0
VERTEX
8
RILLE
10
94.0000
20
122.0000
30
0.0
0
VERTEX
8
RILLE
10
94.0000
20
120.0000
30
0.0
0
VERTEX
8
RILLE
10
90.0000
20
120.0000
30
0.0
0
VERTEX
8
RILLE
10
90.0000
20
122.0000
30
0.0
0
VERTEX
8
RILLE
10
88.0000
20
122.0000
30
0.0
0
VERTEX
8
RILLE
10
88.0000
20
120.0000
30
0.0
0
VERTEX
8
RILLE
10
86.0000
20
120.0000
30
0.0
0
VERTEX
8
RILLE
10
86.0000
20
122.0000
30
0.0
0
VERTEX
8
RILLE
10
76.0000
20
122.0000
30
0.0
0
VERTEX
8
RILLE
10
76.0000
20
120.0000
30
0.0
0
VERTEX
8
RILLE
10
78.0000
20
120.0000
30
0.0
0
VERTEX
8
RILLE
10
78.0000
20
118.0000
30
0.0
0
VERTEX
8
RILLE
10
94.0000
20
118.0000
30
0.0
0
VERTEX
8
RILLE
10
94.0000
20
110.0000
30
0.0
0
VERTEX
8
RILLE
10
90.0000
20
110.0000
30
0.0
0
VERTEX
8
RILLE
10
90.0000
20
114.0000
30
0.0
0
VERTEX
8
RILLE
10
88.0000
20
114.0000
30
0.0
0
VERTEX
8
RILLE
10
88.0000
20
110.0000
30
0.0
0
VERTEX
8
RILLE
10
86.0000
20
110.0000
30
0.0
0
VERTEX
8
RILLE
10
86.0000
20
108.0000
30
0.0
0
VERTEX
8
RILLE
10
96.0000
20
108.0000
30
0.0
0
VERTEX
8
RILLE
10
96.0000
20
118.0000
30
0.0
0
VERTEX
8
RILLE
10
100.0000
20
118.0000
30
0.0
0
VERTEX
8
RILLE
10
100.0000
20
106.0000
30
0.0
0
VERTEX
8
RILLE
10
102.0000
20
106.0000
30
0.0
0
VERTEX
8
RILLE
10
102.0000
20
108.0000
30
0.0
0
VERTEX
8
RILLE
10
104.0000
20
108.0000
30
0.0
0
SEQEND
0
POLYLINE
8
RILLE
66
1
70
1
0
VERTEX
8
RILLE
10
36.0000
20
4.0000
30
0.0
0
VERTEX
8
RILLE
10
36.0000
20
6.0000
30
0.0
0
VERTEX
8
RILLE
10
34.0000
20
6.0000
30
0.0
0
VERTEX
8
RILLE
10
34.0000
20
4.0000
30
0.0
0
SEQEND
0
POLYLINE
8
RILLE
66
1
70
1
0
VERTEX
8
RILLE
10
48.0000
20
50.0000
30
0.0
0
VERTEX
8
RILLE
10
50.0000
20
50.0000
30
0.0
0
VERTEX
8
RILLE
10
50.0000
20
28.0000
30
0.0
0
VERTEX
8
RILLE
10
52.0000
20
28.0000
30
0.0
0
VERTEX
8
RILLE
10
52.0000
20
24.0000
30
0.0
0
VERTEX
8
RILLE
10
28.0000
20
24.0000
30
0.0
0
VERTEX
8
RILLE
10
28.0000
20
26.0000
30
0.0
0
VERTEX
8
RILLE
10
26.0000
20
26.0000
30
0.0
0
VERTEX
8
RILLE
10
26.0000
20
28.0000
30
0.0
0
VERTEX
8
RILLE
10
36.0000
20
28.0000
30
0.0
0
VERTEX
8
RILLE
10
36.0000
20
26.0000
30
0.0
0
VERTEX
8
RILLE
10
42.0000
20
26.0000
30
0.0
0
VERTEX
8
RILLE
10
42.0000
20
28.0000
30
0.0
0
VERTEX
8
RILLE
10
44.0000
20
28.0000
30
0.0
0
VERTEX
8
RILLE
10
44.0000
20
26.0000
30
0.0
0
VERTEX
8
RILLE
10
46.0000
20
26.0000
30
0.0
0
VERTEX
8
RILLE
10
46.0000
20
28.0000
30
0.0
0
VERTEX
8
RILLE
10
48.0000
20
28.0000
30
0.0
0
VERTEX
8
RILLE
10
48.0000
20
30.0000
30
0.0
0
VERTEX
8
RILLE
10
46.0000
20
30.0000
30
0.0
0
VERTEX
8
RILLE
10
46.0000
20
32.0000
30
0.0
0
VERTEX
8
RILLE
10
48.0000
20
32.0000
30
0.0
0
VERTEX
8
RILLE
10
48.0000
20
34.0000
30
0.0
0
VERTEX
8
RILLE
10
46.0000
20
34.0000
30
0.0
0
VERTEX
8
RILLE
10
46.0000
20
36.0000
30
0.0
0
VERTEX
8
RILLE
10
48.0000
20
36.0000
30
0.0
0
SEQEND
0
POLYLINE
8
RILLE
66
1
70
1
0
VERTEX
8
RILLE
10
6.0000
20
106.0000
30
0.0
0
VERTEX
8
RILLE
10
28.0000
20
106.0000
30
0.0
0
VERTEX
8
RILLE
10
28.0000
20
104.0000
30
0.0
0
VERTEX
8
RILLE
10
32.0000
20
104.0000
30
0.0
0
VERTEX
8
RILLE
10
32.0000
20
106.0000
30
0.0
0
VERTEX
8
RILLE
10
36.0000
20
106.0000
30
0.0
0
VERTEX
8
RILLE
10
36.0000
20
104.0000
30
0.0
0
VERTEX
8
RILLE
10
38.0000
20
104.0000
30
0.0
0
VERTEX
8
RILLE
10
38.0000
20
106.0000
30
0.0
0
VERTEX
8
RILLE
10
42.0000
20
106.0000
30
0.0
0
VERTEX
8
RILLE
10
42.0000
20
102.0000
30
0.0
0
VERTEX
8
RILLE
10
26.0000
20
102.0000
30
0.0
0
VERTEX
8
RILLE
10
26.0000
20
94.0000
30
0.0
0
VERTEX
8
RILLE
10
24.0000
20
94.0000
30
0.0
0
VERTEX
8
RILLE
10
24.0000
20
102.0000
30
0.0
0
VERTEX
8
RILLE
10
18.0000
20
102.0000
30
0.0
0
VERTEX
8
RILLE
10
18.0000
20
104.0000
30
0.0
0
VERTEX
8
RILLE
10
16.0000
20
104.0000
30
0.0
0
VERTEX
8
RILLE
10
16.0000
20
102.0000
30
0.0
0
VERTEX
8
RILLE
10
14.0000
20
102.0000
30
0.0
0
VERTEX
8
RILLE
10
14.0000
20
104.0000
30
0.0
0
VERTEX
8
RILLE
10
12.0000
20
104.0000
30
0.0
0
VERTEX
8
RILLE
10
12.0000
20
102.0000
30
0.0
0
VERTEX
8
RILLE
10
8.0000
20
102.0000
30
0.0
0
VERTEX
8
RILLE
10
8.0000
20
104.0000
30
0.0
0
VERTEX
8
RILLE
10
6.0000
20
104.0000
30
0.0
0
SEQEND
0
POLYLINE
8
RILLE
66
1
70
1
0
VERTEX
8
RILLE
10
50.0000
20
196.0000
30
0.0
0
VERTEX
8
RILLE
10
50.0000
20
194.0000
30
0.0
0
VERTEX
8
RILLE
10
36.0000
20
194.0000
30
0.0
0
VERTEX
8
RILLE
10
36.0000
20
204.0000
30
0.0
0
VERTEX
8
RILLE
10
38.0000
20
204.0000
30
0.0
0
VERTEX
8
RILLE
10
38.0000
20
206.0000
30
0.0
0
VERTEX
8
RILLE
10
52.0000
20
206.0000
30
0.0
0
VERTEX
8
RILLE
10
52.0000
20
198.0000
30
0.0
0
VERTEX
8
RILLE
10
40.0000
20
198.0000
30
0.0
0
VERTEX
8
RILLE
10
40.0000
20
196.0000
30
0.0
0
SEQEND
0
POLYLINE
8
RILLE
66
1
70
1
0
VERTEX
8
RILLE
10
104.0000
20
64.0000
30
0.0
0
VERTEX
8
RILLE
10
104.0000
20
68.0000
30
0.0
0
VERTEX
8
RILLE
10
102.0000
20
68.0000
30
0.0
0
VERTEX
8
RILLE
10
102.0000
20
66.0000
30
0.0
0
VERTEX
8
RILLE
10
94.0000
20
66.0000
30
0.0
0
VERTEX
8
RILLE
10
94.0000
20
68.0000
30
0.0
0
VERTEX
8
RILLE
10
92.0000
20
68.0000
30
0.0
0
VERTEX
8
RILLE
10
92.0000
20
66.0000
30
0.0
0
VERTEX
8
RILLE
10
90.0000
20
66.0000
30
0.0
0
VERTEX
8
RILLE
10
90.0000
20
68.0000
30
0.0
0
VERTEX
8
RILLE
10
88.0000
20
68.0000
30
0.0
0
VERTEX
8
RILLE
10
88.0000
20
66.0000
30
0.0
0
VERTEX
8
RILLE
10
76.0000
20
66.0000
30
0.0
0
VERTEX
8
RILLE
10
76.0000
20
68.0000
30
0.0
0
VERTEX
8
RILLE
10
74.0000
20
68.0000
30
0.0
0
VERTEX
8
RILLE
10
74.0000
20
64.0000
30
0.0
0
SEQEND
0
POLYLINE
8
RILLE
66
1
70
1
0
VERTEX
8
RILLE
10
80.0000
20
14.0000
30
0.0
0
VERTEX
8
RILLE
10
80.0000
20
22.0000
30
0.0
0
VERTEX
8
RILLE
10
82.0000
20
22.0000
30
0.0
0
VERTEX
8
RILLE
10
82.0000
20
26.0000
30
0.0
0
VERTEX
8
RILLE
10
80.0000
20
26.0000
30
0.0
0
VERTEX
8
RILLE
10
80.0000
20
28.0000
30
0.0
0
VERTEX
8
RILLE
10
78.0000
20
28.0000
30
0.0
0
VERTEX
8
RILLE
10
78.0000
20
26.0000
30
0.0
0
VERTEX
8
RILLE
10
76.0000
20
26.0000
30
0.0
0
VERTEX
8
RILLE
10
76.0000
20
32.0000
30
0.0
0
VERTEX
8
RILLE
10
80.0000
20
32.0000
30
0.0
0
VERTEX
8
RILLE
10
80.0000
20
36.0000
30
0.0
0
VERTEX
8
RILLE
10
82.0000
20
36.0000
30
0.0
0
VERTEX
8
RILLE
10
82.0000
20
38.0000
30
0.0
0
VERTEX
8
RILLE
10
84.0000
20
38.0000
30
0.0
0
VERTEX
8
RILLE
10
84.0000
20
30.0000
30
0.0
0
VERTEX
8
RILLE
10
82.0000
20
30.0000
30
0.0
0
VERTEX
8
RILLE
10
82.0000
20
28.0000
30
0.0
0
VERTEX
8
RILLE
10
84.0000
20
28.0000
30
0.0
0
VERTEX
8
RILLE
10
84.0000
20
20.0000
30
0.0
0
VERTEX
8
RILLE
10
82.0000
20
20.0000
30
0.0
0
VERTEX
8
RILLE
10
82.0000
20
18.0000
30
0.0
0
VERTEX
8
RILLE
10
84.0000
20
18.0000
30
0.0
0
VERTEX
8
RILLE
10
84.0000
20
14.0000
30
0.0
0
SEQEND
0
POLYLINE
8
RILLE
66
1
70
0
0
VERTEX
8
RILLE
10
128.0000
20
18.0000
30
0.0
0
VERTEX
8
RILLE
10
130.0000
20
18.0000
30
0.0
0
VERTEX
8
RILLE
10
130.0000
20
22.0000
30
0.0
0
VERTEX
8
RILLE
10
124.0000
20
22.0000
30
0.0
0
VERTEX
8
RILLE
10
124.0000
20
10.0000
30
0.0
0
VERTEX
8
RILLE
10
112.0000
20
10.0000
30
0.0
0
VERTEX
8
RILLE
10
112.0000
20
12.0000
30
0.0
0
VERTEX
8
RILLE
10
108.0000
20
12.0000
30
0.0
0
VERTEX
8
RILLE
10
108.0000
20
14.0000
30
0.0
0
VERTEX
8
RILLE
10
120.0000
20
14.0000
30
0.0
0
VERTEX
8
RILLE
10
120.0000
20
16.0000
30
0.0
0
VERTEX
8
RILLE
10
94.0000
20
16.0000
30
0.0
0
VERTEX
8
RILLE
10
94.0000
20
12.0000
30
0.0
0
VERTEX
8
RILLE
10
70.0000
20
12.0000
30
0.0
0
VERTEX
8
RILLE
10
70.0000
20
14.0000
30
0.0
0
VERTEX
8
RILLE
10
72.0000
20
14.0000
30
0.0
0
VERTEX
8
RILLE
10
72.0000
20
32.0000
30
0.0
0
VERTEX
8
RILLE
10
74.0000
20
32.0000
30
0.0
0
SEQEND
0
POLYLINE
8
RILLE
66
1
70
1
0
VERTEX
8
RILLE
10
38.0000
20
42.0000
30
0.0
0
VERTEX
8
RILLE
10
38.0000
20
40.0000
30
0.0
0
VERTEX
8
RILLE
10
20.0000
20
40.0000
30
0.0
0
VERTEX
8
RILLE
10
20.0000
20
58.0000
30
0.0
0
VERTEX
8
RILLE
10
26.0000
20
58.0000
30
0.0
0
VERTEX
8
RILLE
10
26.0000
20
42.0000
30
0.0
0
SEQEND
0
POLYLINE
8
RILLE
66
1
70
1
0
VERTEX
8
RILLE
10
104.0000
20
96.0000
30
0.0
0
VERTEX
8
RILLE
10
104.0000
20
92.0000
30
0.0
0
VERTEX
8
RILLE
10
96.0000
20
92.0000
30
0.0
0
VERTEX
8
RILLE
10
96.0000
20
96.0000
30
0.0
0
SEQEND
0
POLYLINE
8
RILLE
66
1
70
1
0
VERTEX
8
RILLE
10
12.0000
20
30.0000
30
0.0
0
VERTEX
8
RILLE
10
12.0000
20
34.0000
30
0.0
0
VERTEX
8
RILLE
10
20.0000
20
34.0000
30
0.0
0
VERTEX
8
RILLE
10
20.0000
20
32.0000
30
0.0
0
VERTEX
8
RILLE
10
22.0000
20
32.0000
30
0.0
0
VERTEX
8
RILLE
10
22.0000
20
34.0000
30
0.0
0
VERTEX
8
RILLE
10
24.0000
20
34.0000
30
0.0
0
VERTEX
8
RILLE
10
24.0000
20
32.0000
30
0.0
0
VERTEX
8
RILLE
10
42.0000
20
32.0000
30
0.0
0
VERTEX
8
RILLE
10
42.0000
20
40.0000
30
0.0
0
VERTEX
8
RILLE
10
44.0000
20
40.0000
30
0.0
0
VERTEX
8
RILLE
10
44.0000
20
30.0000
30
0.0
0
SEQEND
0
POLYLINE
8
RILLE
66
1
70
1
0
VERTEX
8
RILLE
10
106.0000
20
162.0000
30
0.0
0
VERTEX
8
RILLE
10
106.0000
20
168.0000
30
0.0
0
VERTEX
8
RILLE
10
104.0000
20
168.0000
30
0.0
0
VERTEX
8
RILLE
10
104.0000
20
164.0000
30
0.0
0
VERTEX
8
RILLE
10
80.0000
20
164.0000
30
0.0
0
VERTEX
8
RILLE
10
80.0000
20
166.0000
30
0.0
0
VERTEX
8
RILLE
10
82.0000
20
166.0000
30
0.0
0
VERTEX
8
RILLE
10
82.0000
20
174.0000
30
0.0
0
VERTEX
8
RILLE
10
78.0000
20
174.0000
30
0.0
0
VERTEX
8
RILLE
10
78.0000
20
162.0000
30
0.0
0
SEQEND
0
POLYLINE
8
RILLE
66
1
70
1
0
VERTEX
8
RILLE
10
106.0000
20
92.0000
30
0.0
0
VERTEX
8
RILLE
10
114.0000
20
92.0000
30
0.0
0
VERTEX
8
RILLE
10
114.0000
20
102.0000
30
0.0
0
VERTEX
8
RILLE
10
108.0000
20
102.0000
30
0.0
0
VERTEX
8
RILLE
10
108.0000
20
100.0000
30
0.0
0
VERTEX
8
RILLE
10
106.0000
20
100.0000
30
0.0
0
VERTEX
8
RILLE
10
106.0000
20
98.0000
30
0.0
0
VERTEX
8
RILLE
10
108.0000
20
98.0000
30
0.0
0
VERTEX
8
RILLE
10
108.0000
20
96.0000
30
0.0
0
VERTEX
8
RILLE
10
106.0000
20
96.0000
30
0.0
0
SEQEND
0
POLYLINE
8
RILLE
66
1
70
1
0
VERTEX
8
RILLE
10
46.0000
20
90.0000
30
0.0
0
VERTEX
8
RILLE
10
46.0000
20
102.0000
30
0.0
0
VERTEX
8
RILLE
10
48.0000
20
102.0000
30
0.0
0
VERTEX
8
RILLE
10
48.0000
20
104.0000
30
0.0
0
VERTEX
8
RILLE
10
44.0000
20
104.0000
30
0.0
0
VERTEX
8
RILLE
10
44.0000
20
92.0000
30
0.0
0
VERTEX
8
RILLE
10
42.0000
20
92.0000
30
0.0
0
VERTEX
8
RILLE
10
42.0000
20
94.0000
30
0.0
0
VERTEX
8
RILLE
10
34.0000
20
94.0000
30
0.0
0
VERTEX
8
RILLE
10
34.0000
20
96.0000
30
0.0
0
VERTEX
8
RILLE
10
42.0000
20
96.0000
30
0.0
0
VERTEX
8
RILLE
10
42.0000
20
100.0000
30
0.0
0
VERTEX
8
RILLE
10
38.0000
20
100.0000
30
0.0
0
VERTEX
8
RILLE
10
38.0000
20
98.0000
30
0.0
0
VERTEX
8
RILLE
10
36.0000
20
98.0000
30
0.0
0
VERTEX
8
RILLE
10
36.0000
20
100.0000
30
0.0
0
VERTEX
8
RILLE
10
30.0000
20
100.0000
30
0.0
0
VERTEX
8
RILLE
10
30.0000
20
92.0000
30
0.0
0
VERTEX
8
RILLE
10
34.0000
20
92.0000
30
0.0
0
VERTEX
8
RILLE
10
34.0000
20
90.0000
30
0.0
0
SEQEND
0
POLYLINE
8
RILLE
66
1
70
1
0
VERTEX
8
RILLE
10
8.0000
20
138.0000
30
0.0
0
VERTEX
8
RILLE
10
10.0000
20
138.0000
30
0.0
0
VERTEX
8
RILLE
10
10.0000
20
142.0000
30
0.0
0
VERTEX
8
RILLE
10
8.0000
20
142.0000
30
0.0
0
VERTEX
8
RILLE
10
8.0000
20
144.0000
30
0.0
0
VERTEX
8
RILLE
10
10.0000
20
144.0000
30
0.0
0
VERTEX
8
RILLE
10
10.0000
20
166.0000
30
0.0
0
VERTEX
8
RILLE
10
12.0000
20
166.0000
30
0.0
0
VERTEX
8
RILLE
10
12.0000
20
164.0000
30
0.0
0
VERTEX
8
RILLE
10
14.0000
20
164.0000
30
0.0
0
VERTEX
8
RILLE
10
14.0000
20
160.0000
30
0.0
0
VERTEX
8
RILLE
10
12.0000
20
160.0000
30
0.0
0
VERTEX
8
RILLE
10
12.0000
20
132.0000
30
0.0
0
VERTEX
8
RILLE
10
8.0000
20
132.0000
30
0.0
0
VERTEX
8
RILLE
10
8.0000
20
134.0000
30
0.0
0
VERTEX
8
RILLE
10
10.0000
20
134.0000
30
0.0
0
VERTEX
8
RILLE
10
10.0000
20
136.0000
30
0.0
0
VERTEX
8
RILLE
10
8.0000
20
136.0000
30
0.0
0
SEQEND
0
POLYLINE
8
RILLE
66
1
70
1
0
VERTEX
8
RILLE
10
98.0000
20
12.0000
30
0.0
0
VERTEX
8
RILLE
10
98.0000
20
14.0000
30
0.0
0
VERTEX
8
RILLE
10
102.0000
20
14.0000
30
0.0
0
VERTEX
8
RILLE
10
102.0000
20
12.0000
30
0.0
0
SEQEND
0
POLYLINE
8
RILLE
66
1
70
0
0
VERTEX
8
RILLE
10
54.0000
20
20.0000
30
0.0
0
VERTEX
8
RILLE
10
62.0000
20
20.0000
30
0.0
0
VERTEX
8
RILLE
10
62.0000
20
22.0000
30
0.0
0
VERTEX
8
RILLE
10
64.0000
20
22.0000
30
0.0
0
VERTEX
8
RILLE
10
64.0000
20
14.0000
30
0.0
0
VERTEX
8
RILLE
10
62.0000
20
14.0000
30
0.0
0
VERTEX
8
RILLE
10
62.0000
20
12.0000
30
0.0
0
VERTEX
8
RILLE
10
54.0000
20
12.0000
30
0.0
0
VERTEX
8
RILLE
10
54.0000
20
14.0000
30
0.0
0
VERTEX
8
RILLE
10
16.0000
20
14.0000
30
0.0
0
VERTEX
8
RILLE
10
16.0000
20
16.0000
30
0.0
0
VERTEX
8
RILLE
10
22.0000
20
16.0000
30
0.0
0
VERTEX
8
RILLE
10
22.0000
20
20.0000
30
0.0
0
VERTEX
8
RILLE
10
16.0000
20
20.0000
30
0.0
0
VERTEX
8
RILLE
10
16.0000
20
16.0000
30
0.0
0
VERTEX
8
RILLE
10
14.0000
20
16.0000
30
0.0
0
VERTEX
8
RILLE
10
14.0000
20
20.0000
30
0.0
0
VERTEX
8
RILLE
10
12.0000
20
20.0000
30
0.0
0
VERTEX
8
RILLE
10
12.0000
20
22.0000
30
0.0
0
VERTEX
8
RILLE
10
14.0000
20
22.0000
30
0.0
0
VERTEX
8
RILLE
10
14.0000
20
24.0000
30
0.0
0
VERTEX
8
RILLE
10
12.0000
20
24.0000
30
0.0
0
VERTEX
8
RILLE
10
12.0000
20
28.0000
30
0.0
0
VERTEX
8
RILLE
10
20.0000
20
28.0000
30
0.0
0
VERTEX
8
RILLE
10
20.0000
20
26.0000
30
0.0
0
VERTEX
8
RILLE
10
16.0000
20
26.0000
30
0.0
0
VERTEX
8
RILLE
10
16.0000
20
22.0000
30
0.0
0
VERTEX
8
RILLE
10
46.0000
20
22.0000
30
0.0
0
VERTEX
8
RILLE
10
46.0000
20
20.0000
30
0.0
0
VERTEX
8
RILLE
10
48.0000
20
20.0000
30
0.0
0
VERTEX
8
RILLE
10
48.0000
20
22.0000
30
0.0
0
VERTEX
8
RILLE
10
50.0000
20
22.0000
30
0.0
0
VERTEX
8
RILLE
10
50.0000
20
20.0000
30
0.0
0
VERTEX
8
RILLE
10
52.0000
20
20.0000
30
0.0
0
VERTEX
8
RILLE
10
52.0000
20
22.0000
30
0.0
0
VERTEX
8
RILLE
10
56.0000
20
22.0000
30
0.0
0
VERTEX
8
RILLE
10
56.0000
20
24.0000
30
0.0
0
VERTEX
8
RILLE
10
62.0000
20
24.0000
30
0.0
0
VERTEX
8
RILLE
10
62.0000
20
26.0000
30
0.0
0
VERTEX
8
RILLE
10
58.0000
20
26.0000
30
0.0
0
VERTEX
8
RILLE
10
58.0000
20
34.0000
30
0.0
0
VERTEX
8
RILLE
10
60.0000
20
34.0000
30
0.0
0
VERTEX
8
RILLE
10
60.0000
20
36.0000
30
0.0
0
VERTEX
8
RILLE
10
56.0000
20
36.0000
30
0.0
0
VERTEX
8
RILLE
10
56.0000
20
38.0000
30
0.0
0
VERTEX
8
RILLE
10
58.0000
20
38.0000
30
0.0
0
VERTEX
8
RILLE
10
58.0000
20
46.0000
30
0.0
0
VERTEX
8
RILLE
10
56.0000
20
46.0000
30
0.0
0
VERTEX
8
RILLE
10
56.0000
20
48.0000
30
0.0
0
VERTEX
8
RILLE
10
58.0000
20
48.0000
30
0.0
0
VERTEX
8
RILLE
10
58.0000
20
54.0000
30
0.0
0
VERTEX
8
RILLE
10
62.0000
20
54.0000
30
0.0
0
VERTEX
8
RILLE
10
62.0000
20
56.0000
30
0.0
0
VERTEX
8
RILLE
10
56.0000
20
56.0000
30
0.0
0
VERTEX
8
RILLE
10
56.0000
20
58.0000
30
0.0
0
VERTEX
8
RILLE
10
54.0000
20
58.0000
30
0.0
0
VERTEX
8
RILLE
10
54.0000
20
24.0000
30
0.0
0
SEQEND
0
POLYLINE
8
RILLE
66
1
70
1
0
VERTEX
8
RILLE
10
40.0000
20
118.0000
30
0.0
0
VERTEX
8
RILLE
10
42.0000
20
118.0000
30
0.0
0
VERTEX
8
RILLE
10
42.0000
20
110.0000
30
0.0
0
VERTEX
8
RILLE
10
64.0000
20
110.0000
30
0.0
0
VERTEX
8
RILLE
10
64.0000
20
112.0000
30
0.0
0
VERTEX
8
RILLE
10
66.0000
20
112.0000
30
0.0
0
VERTEX
8
RILLE
10
66.0000
20
108.0000
30
0.0
0
VERTEX
8
RILLE
10
40.0000
20
108.0000
30
0.0
0
SEQEND
0
POLYLINE
8
RILLE
66
1
70
1
0
VERTEX
8
RILLE
10
114.0000
20
58.0000
30
0.0
0
VERTEX
8
RILLE
10
130.0000
20
58.0000
30
0.0
0
VERTEX
8
RILLE
10
130.0000
20
54.0000
30
0.0
0
VERTEX
8
RILLE
10
118.0000
20
54.0000
30
0.0
0
VERTEX
8
RILLE
10
118.0000
20
34.0000
30
0.0
0
VERTEX
8
RILLE
10
104.0000
20
34.0000
30
0.0
0
VERTEX
8
RILLE
10
104.0000
20
36.0000
30
0.0
0
VERTEX
8
RILLE
10
114.0000
20
36.0000
30
0.0
0
SEQEND
0
POLYLINE
8
RILLE
66
1
70
1
0
VERTEX
8
RILLE
10
64.0000
20
92.0000
30
0.0
0
VERTEX
8
RILLE
10
64.0000
20
94.0000
30
0.0
0
VERTEX
8
RILLE
10
66.0000
20
94.0000
30
0.0
0
VERTEX
8
RILLE
10
66.0000
20
90.0000
30
0.0
0
VERTEX
8
RILLE
10
48.0000
20
90.0000
30
0.0
0
VERTEX
8
RILLE
10
48.0000
20
92.0000
30
0.0
0
VERTEX
8
RILLE
10
50.0000
20
92.0000
30
0.0
0
VERTEX
8
RILLE
10
50.0000
20
94.0000
30
0.0
0
VERTEX
8
RILLE
10
52.0000
20
94.0000
30
0.0
0
VERTEX
8
RILLE
10
52.0000
20
92.0000
30
0.0
0
VERTEX
8
RILLE
10
54.0000
20
92.0000
30
0.0
0
VERTEX
8
RILLE
10
54.0000
20
94.0000
30
0.0
0
VERTEX
8
RILLE
10
56.0000
20
94.0000
30
0.0
0
VERTEX
8
RILLE
10
56.0000
20
92.0000
30
0.0
0
VERTEX
8
RILLE
10
60.0000
20
92.0000
30
0.0
0
VERTEX
8
RILLE
10
60.0000
20
94.0000
30
0.0
0
VERTEX
8
RILLE
10
62.0000
20
94.0000
30
0.0
0
VERTEX
8
RILLE
10
62.0000
20
92.0000
30
0.0
0
SEQEND
0
POLYLINE
8
RILLE
66
1
70
1
0
VERTEX
8
RILLE
10
108.0000
20
194.0000
30
0.0
0
VERTEX
8
RILLE
10
108.0000
20
202.0000
30
0.0
0
VERTEX
8
RILLE
10
122.0000
20
202.0000
30
0.0
0
VERTEX
8
RILLE
10
122.0000
20
204.0000
30
0.0
0
VERTEX
8
RILLE
10
116.0000
20
204.0000
30
0.0
0
VERTEX
8
RILLE
10
116.0000
20
206.0000
30
0.0
0
VERTEX
8
RILLE
10
114.0000
20
206.0000
30
0.0
0
VERTEX
8
RILLE
10
114.0000
20
204.0000
30
0.0
0
VERTEX
8
RILLE
10
106.0000
20
204.0000
30
0.0
0
VERTEX
8
RILLE
10
106.0000
20
194.0000
30
0.0
0
VERTEX
8
RILLE
10
104.0000
20
194.0000
30
0.0
0
VERTEX
8
RILLE
10
104.0000
20
192.0000
30
0.0
0
VERTEX
8
RILLE
10
130.0000
20
192.0000
30
0.0
0
VERTEX
8
RILLE
10
130.0000
20
206.0000
30
0.0
0
VERTEX
8
RILLE
10
128.0000
20
206.0000
30
0.0
0
VERTEX
8
RILLE
10
128.0000
20
204.0000
30
0.0
0
VERTEX
8
RILLE
10
126.0000
20
204.0000
30
0.0
0
VERTEX
8
RILLE
10
126.0000
20
196.0000
30
0.0
0
VERTEX
8
RILLE
10
128.0000
20
196.0000
30
0.0
0
VERTEX
8
RILLE
10
128.0000
20
194.0000
30
0.0
0
SEQEND
0
POLYLINE
8
RILLE
66
1
70
1
0
VERTEX
8
RILLE
10
20.0000
20
92.0000
30
0.0
0
VERTEX
8
RILLE
10
20.0000
20
94.0000
30
0.0
0
VERTEX
8
RILLE
10
18.0000
20
94.0000
30
0.0
0
VERTEX
8
RILLE
10
18.0000
20
96.0000
30
0.0
0
VERTEX
8
RILLE
10
22.0000
20
96.0000
30
0.0
0
VERTEX
8
RILLE
10
22.0000
20
100.0000
30
0.0
0
VERTEX
8
RILLE
10
18.0000
20
100.0000
30
0.0
0
VERTEX
8
RILLE
10
18.0000
20
98.0000
30
0.0
0
VERTEX
8
RILLE
10
14.0000
20
98.0000
30
0.0
0
VERTEX
8
RILLE
10
14.0000
20
94.0000
30
0.0
0
VERTEX
8
RILLE
10
12.0000
20
94.0000
30
0.0
0
VERTEX
8
RILLE
10
12.0000
20
92.0000
30
0.0
0
SEQEND
0
POLYLINE
8
RILLE
66
1
70
1
0
VERTEX
8
RILLE
10
64.0000
20
52.0000
30
0.0
0
VERTEX
8
RILLE
10
64.0000
20
28.0000
30
0.0
0
VERTEX
8
RILLE
10
60.0000
20
28.0000
30
0.0
0
VERTEX
8
RILLE
10
60.0000
20
32.0000
30
0.0
0
VERTEX
8
RILLE
10
62.0000
20
32.0000
30
0.0
0
VERTEX
8
RILLE
10
62.0000
20
38.0000
30
0.0
0
VERTEX
8
RILLE
10
60.0000
20
38.0000
30
0.0
0
VERTEX
8
RILLE
10
60.0000
20
44.0000
30
0.0
0
VERTEX
8
RILLE
10
62.0000
20
44.0000
30
0.0
0
VERTEX
8
RILLE
10
62.0000
20
50.0000
30
0.0
0
VERTEX
8
RILLE
10
60.0000
20
50.0000
30
0.0
0
VERTEX
8
RILLE
10
60.0000
20
52.0000
30
0.0
0
SEQEND
0
POLYLINE
8
RILLE
66
1
70
1
0
VERTEX
8
RILLE
10
78.0000
20
14.0000
30
0.0
0
VERTEX
8
RILLE
10
78.0000
20
20.0000
30
0.0
0
VERTEX
8
RILLE
10
76.0000
20
20.0000
30
0.0
0
VERTEX
8
RILLE
10
76.0000
20
16.0000
30
0.0
0
VERTEX
8
RILLE
10
74.0000
20
16.0000
30
0.0
0
VERTEX
8
RILLE
10
74.0000
20
14.0000
30
0.0
0
SEQEND
0
POLYLINE
8
RILLE
66
1
70
1
0
VERTEX
8
RILLE
10
20.0000
20
4.0000
30
0.0
0
VERTEX
8
RILLE
10
20.0000
20
6.0000
30
0.0
0
VERTEX
8
RILLE
10
26.0000
20
6.0000
30
0.0
0
VERTEX
8
RILLE
10
26.0000
20
4.0000
30
0.0
0
SEQEND
0
POLYLINE
8
RILLE
66
1
70
1
0
VERTEX
8
RILLE
10
86.0000
20
54.0000
30
0.0
0
VERTEX
8
RILLE
10
86.0000
20
56.0000
30
0.0
0
VERTEX
8
RILLE
10
96.0000
20
56.0000
30
0.0
0
VERTEX
8
RILLE
10
96.0000
20
42.0000
30
0.0
0
VERTEX
8
RILLE
10
78.0000
20
42.0000
30
0.0
0
VERTEX
8
RILLE
10
78.0000
20
46.0000
30
0.0
0
VERTEX
8
RILLE
10
82.0000
20
46.0000
30
0.0
0
VERTEX
8
RILLE
10
82.0000
20
44.0000
30
0.0
0
VERTEX
8
RILLE
10
94.0000
20
44.0000
30
0.0
0
VERTEX
8
RILLE
10
94.0000
20
52.0000
30
0.0
0
VERTEX
8
RILLE
10
92.0000
20
52.0000
30
0.0
0
VERTEX
8
RILLE
10
92.0000
20
54.0000
30
0.0
0
VERTEX
8
RILLE
10
90.0000
20
54.0000
30
0.0
0
VERTEX
8
RILLE
10
90.0000
20
52.0000
30
0.0
0
VERTEX
8
RILLE
10
88.0000
20
52.0000
30
0.0
0
VERTEX
8
RILLE
10
88.0000
20
54.0000
30
0.0
0
SEQEND
0
POLYLINE
8
RILLE
66
1
70
1
0
VERTEX
8
RILLE
10
122.0000
20
18.0000
30
0.0
0
VERTEX
8
RILLE
10
122.0000
20
22.0000
30
0.0
0
VERTEX
8
RILLE
10
86.0000
20
22.0000
30
0.0
0
VERTEX
8
RILLE
10
86.0000
20
18.0000
30
0.0
0
VERTEX
8
RILLE
10
88.0000
20
18.0000
30
0.0
0
VERTEX
8
RILLE
10
88.0000
20
20.0000
30
0.0
0
VERTEX
8
RILLE
10
90.0000
20
20.0000
30
0.0
0
VERTEX
8
RILLE
10
90.0000
20
16.0000
30
0.0
0
VERTEX
8
RILLE
10
88.0000
20
16.0000
30
0.0
0
VERTEX
8
RILLE
10
88.0000
20
14.0000
30
0.0
0
VERTEX
8
RILLE
10
92.0000
20
14.0000
30
0.0
0
VERTEX
8
RILLE
10
92.0000
20
20.0000
30
0.0
0
VERTEX
8
RILLE
10
94.0000
20
20.0000
30
0.0
0
VERTEX
8
RILLE
10
94.0000
20
18.0000
30
0.0
0
VERTEX
8
RILLE
10
96.0000
20
18.0000
30
0.0
0
VERTEX
8
RILLE
10
96.0000
20
20.0000
30
0.0
0
VERTEX
8
RILLE
10
100.0000
20
20.0000
30
0.0
0
VERTEX
8
RILLE
10
100.0000
20
18.0000
30
0.0
0
VERTEX
8
RILLE
10
102.0000
20
18.0000
30
0.0
0
VERTEX
8
RILLE
10
102.0000
20
20.0000
30
0.0
0
VERTEX
8
RILLE
10
104.0000
20
20.0000
30
0.0
0
VERTEX
8
RILLE
10
104.0000
20
18.0000
30
0.0
0
VERTEX
8
RILLE
10
114.0000
20
18.0000
30
0.0
0
VERTEX
8
RILLE
10
114.0000
20
20.0000
30
0.0
0
VERTEX
8
RILLE
10
116.0000
20
20.0000
30
0.0
0
VERTEX
8
RILLE
10
116.0000
20
18.0000
30
0.0
0
SEQEND
0
POLYLINE
8
RILLE
66
1
70
1
0
VERTEX
8
RILLE
10
50.0000
20
68.0000
30
0.0
0
VERTEX
8
RILLE
10
50.0000
20
66.0000
30
0.0
0
VERTEX
8
RILLE
10
36.0000
20
66.0000
30
0.0
0
VERTEX
8
RILLE
10
36.0000
20
68.0000
30
0.0
0
VERTEX
8
RILLE
10
34.0000
20
68.0000
30
0.0
0
VERTEX
8
RILLE
10
34.0000
20
70.0000
30
0.0
0
VERTEX
8
RILLE
10
38.0000
20
70.0000
30
0.0
0
VERTEX
8
RILLE
10
38.0000
20
68.0000
30
0.0
0
SEQEND
0
POLYLINE
8
RILLE
66
1
70
1
0
VERTEX
8
RILLE
10
78.0000
20
180.0000
30
0.0
0
VERTEX
8
RILLE
10
80.0000
20
180.0000
30
0.0
0
VERTEX
8
RILLE
10
80.0000
20
182.0000
30
0.0
0
VERTEX
8
RILLE
10
78.0000
20
182.0000
30
0.0
0
VERTEX
8
RILLE
10
78.0000
20
184.0000
30
0.0
0
VERTEX
8
RILLE
10
80.0000
20
184.0000
30
0.0
0
VERTEX
8
RILLE
10
80.0000
20
204.0000
30
0.0
0
VERTEX
8
RILLE
10
82.0000
20
204.0000
30
0.0
0
VERTEX
8
RILLE
10
82.0000
20
178.0000
30
0.0
0
VERTEX
8
RILLE
10
78.0000
20
178.0000
30
0.0
0
SEQEND
0
POLYLINE
8
RILLE
66
1
70
1
0
VERTEX
8
RILLE
10
56.0000
20
72.0000
30
0.0
0
VERTEX
8
RILLE
10
56.0000
20
74.0000
30
0.0
0
VERTEX
8
RILLE
10
50.0000
20
74.0000
30
0.0
0
VERTEX
8
RILLE
10
50.0000
20
76.0000
30
0.0
0
VERTEX
8
RILLE
10
48.0000
20
76.0000
30
0.0
0
VERTEX
8
RILLE
10
48.0000
20
74.0000
30
0.0
0
VERTEX
8
RILLE
10
36.0000
20
74.0000
30
0.0
0
VERTEX
8
RILLE
10
36.0000
20
72.0000
30
0.0
0
SEQEND
0
POLYLINE
8
RILLE
66
1
70
1
0
VERTEX
8
RILLE
10
10.0000
20
4.0000
30
0.0
0
VERTEX
8
RILLE
10
10.0000
20
8.0000
30
0.0
0
VERTEX
8
RILLE
10
8.0000
20
8.0000
30
0.0
0
VERTEX
8
RILLE
10
8.0000
20
6.0000
30
0.0
0
VERTEX
8
RILLE
10
4.0000
20
6.0000
30
0.0
0
VERTEX
8
RILLE
10
4.0000
20
4.0000
30
0.0
0
SEQEND
0
POLYLINE
8
RILLE
66
1
70
1
0
VERTEX
8
RILLE
10
108.0000
20
68.0000
30
0.0
0
VERTEX
8
RILLE
10
108.0000
20
70.0000
30
0.0
0
VERTEX
8
RILLE
10
106.0000
20
70.0000
30
0.0
0
VERTEX
8
RILLE
10
106.0000
20
74.0000
30
0.0
0
VERTEX
8
RILLE
10
108.0000
20
74.0000
30
0.0
0
VERTEX
8
RILLE
10
108.0000
20
76.0000
30
0.0
0
VERTEX
8
RILLE
10
80.0000
20
76.0000
30
0.0
0
VERTEX
8
RILLE
10
80.0000
20
80.0000
30
0.0
0
VERTEX
8
RILLE
10
90.0000
20
80.0000
30
0.0
0
VERTEX
8
RILLE
10
90.0000
20
78.0000
30
0.0
0
VERTEX
8
RILLE
10
92.0000
20
78.0000
30
0.0
0
VERTEX
8
RILLE
10
92.0000
20
80.0000
30
0.0
0
VERTEX
8
RILLE
10
94.0000
20
80.0000
30
0.0
0
VERTEX
8
RILLE
10
94.0000
20
78.0000
30
0.0
0
VERTEX
8
RILLE
10
104.0000
20
78.0000
30
0.0
0
VERTEX
8
RILLE
10
104.0000
20
80.0000
30
0.0
0
VERTEX
8
RILLE
10
106.0000
20
80.0000
30
0.0
0
VERTEX
8
RILLE
10
106.0000
20
78.0000
30
0.0
0
VERTEX
8
RILLE
10
110.0000
20
78.0000
30
0.0
0
VERTEX
8
RILLE
10
110.0000
20
64.0000
30
0.0
0
VERTEX
8
RILLE
10
108.0000
20
64.0000
30
0.0
0
VERTEX
8
RILLE
10
108.0000
20
62.0000
30
0.0
0
VERTEX
8
RILLE
10
106.0000
20
62.0000
30
0.0
0
VERTEX
8
RILLE
10
106.0000
20
68.0000
30
0.0
0
SEQEND
0
POLYLINE
8
RILLE
66
1
70
1
0
VERTEX
8
RILLE
10
98.0000
20
140.0000
30
0.0
0
VERTEX
8
RILLE
10
98.0000
20
146.0000
30
0.0
0
VERTEX
8
RILLE
10
100.0000
20
146.0000
30
0.0
0
VERTEX
8
RILLE
10
100.0000
20
138.0000
30
0.0
0
VERTEX
8
RILLE
10
92.0000
20
138.0000
30
0.0
0
VERTEX
8
RILLE
10
92.0000
20
136.0000
30
0.0
0
VERTEX
8
RILLE
10
98.0000
20
136.0000
30
0.0
0
VERTEX
8
RILLE
10
98.0000
20
134.0000
30
0.0
0
VERTEX
8
RILLE
10
88.0000
20
134.0000
30
0.0
0
VERTEX
8
RILLE
10
88.0000
20
140.0000
30
0.0
0
SEQEND
0
POLYLINE
8
RILLE
66
1
70
1
0
VERTEX
8
RILLE
10
134.0000
20
10.0000
30
0.0
0
VERTEX
8
RILLE
10
136.0000
20
10.0000
30
0.0
0
VERTEX
8
RILLE
10
136.0000
20
14.0000
30
0.0
0
VERTEX
8
RILLE
10
134.0000
20
14.0000
30
0.0
0
SEQEND
0
POLYLINE
8
RILLE
66
1
70
1
0
VERTEX
8
RILLE
10
80.0000
20
98.0000
30
0.0
0
VERTEX
8
RILLE
10
84.0000
20
98.0000
30
0.0
0
VERTEX
8
RILLE
10
84.0000
20
94.0000
30
0.0
0
VERTEX
8
RILLE
10
80.0000
20
94.0000
30
0.0
0
SEQEND
0
POLYLINE
8
RILLE
66
1
70
1
0
VERTEX
8
RILLE
10
80.0000
20
110.0000
30
0.0
0
VERTEX
8
RILLE
10
80.0000
20
112.0000
30
0.0
0
VERTEX
8
RILLE
10
84.0000
20
112.0000
30
0.0
0
VERTEX
8
RILLE
10
84.0000
20
116.0000
30
0.0
0
VERTEX
8
RILLE
10
76.0000
20
116.0000
30
0.0
0
VERTEX
8
RILLE
10
76.0000
20
110.0000
30
0.0
0
VERTEX
8
RILLE
10
74.0000
20
110.0000
30
0.0
0
VERTEX
8
RILLE
10
74.0000
20
108.0000
30
0.0
0
VERTEX
8
RILLE
10
82.0000
20
108.0000
30
0.0
0
VERTEX
8
RILLE
10
82.0000
20
110.0000
30
0.0
0
SEQEND
0
POLYLINE
8
RILLE
66
1
70
1
0
VERTEX
8
RILLE
10
78.0000
20
102.0000
30
0.0
0
VERTEX
8
RILLE
10
88.0000
20
102.0000
30
0.0
0
VERTEX
8
RILLE
10
88.0000
20
96.0000
30
0.0
0
VERTEX
8
RILLE
10
86.0000
20
96.0000
30
0.0
0
VERTEX
8
RILLE
10
86.0000
20
94.0000
30
0.0
0
VERTEX
8
RILLE
10
88.0000
20
94.0000
30
0.0
0
VERTEX
8
RILLE
10
88.0000
20
92.0000
30
0.0
0
VERTEX
8
RILLE
10
78.0000
20
92.0000
30
0.0
0
SEQEND
0
POLYLINE
8
RILLE
66
1
70
1
0
VERTEX
8
RILLE
10
30.0000
20
34.0000
30
0.0
0
VERTEX
8
RILLE
10
30.0000
20
36.0000
30
0.0
0
VERTEX
8
RILLE
10
28.0000
20
36.0000
30
0.0
0
VERTEX
8
RILLE
10
28.0000
20
38.0000
30
0.0
0
VERTEX
8
RILLE
10
32.0000
20
38.0000
30
0.0
0
VERTEX
8
RILLE
10
32.0000
20
36.0000
30
0.0
0
VERTEX
8
RILLE
10
38.0000
20
36.0000
30
0.0
0
VERTEX
8
RILLE
10
38.0000
20
34.0000
30
0.0
0
SEQEND
0
POLYLINE
8
RILLE
66
1
70
1
0
VERTEX
8
RILLE
10
4.0000
20
110.0000
30
0.0
0
VERTEX
8
RILLE
10
6.0000
20
110.0000
30
0.0
0
VERTEX
8
RILLE
10
6.0000
20
108.0000
30
0.0
0
VERTEX
8
RILLE
10
4.0000
20
108.0000
30
0.0
0
SEQEND
0
POLYLINE
8
RILLE
66
1
70
1
0
VERTEX
8
RILLE
10
36.0000
20
50.0000
30
0.0
0
VERTEX
8
RILLE
10
36.0000
20
52.0000
30
0.0
0
VERTEX
8
RILLE
10
44.0000
20
52.0000
30
0.0
0
VERTEX
8
RILLE
10
44.0000
20
50.0000
30
0.0
0
SEQEND
0
POLYLINE
8
RILLE
66
1
70
1
0
VERTEX
8
RILLE
10
12.0000
20
4.0000
30
0.0
0
VERTEX
8
RILLE
10
18.0000
20
4.0000
30
0.0
0
VERTEX
8
RILLE
10
18.0000
20
6.0000
30
0.0
0
VERTEX
8
RILLE
10
12.0000
20
6.0000
30
0.0
0
SEQEND
0
POLYLINE
8
RILLE
66
1
70
1
0
VERTEX
8
RILLE
10
96.0000
20
202.0000
30
0.0
0
VERTEX
8
RILLE
10
96.0000
20
206.0000
30
0.0
0
VERTEX
8
RILLE
10
92.0000
20
206.0000
30
0.0
0
VERTEX
8
RILLE
10
92.0000
20
202.0000
30
0.0
0
SEQEND
0
POLYLINE
8
RILLE
66
1
70
1
0
VERTEX
8
RILLE
10
24.0000
20
16.0000
30
0.0
0
VERTEX
8
RILLE
10
24.0000
20
20.0000
30
0.0
0
VERTEX
8
RILLE
10
28.0000
20
20.0000
30
0.0
0
VERTEX
8
RILLE
10
28.0000
20
16.0000
30
0.0
0
SEQEND
0
POLYLINE
8
RILLE
66
1
70
1
0
VERTEX
8
RILLE
10
136.0000
20
4.0000
30
0.0
0
VERTEX
8
RILLE
10
136.0000
20
6.0000
30
0.0
0
VERTEX
8
RILLE
10
134.0000
20
6.0000
30
0.0
0
VERTEX
8
RILLE
10
134.0000
20
4.0000
30
0.0
0
SEQEND
0
POLYLINE
8
RILLE
66
1
70
1
0
VERTEX
8
RILLE
10
32.0000
20
4.0000
30
0.0
0
VERTEX
8
RILLE
10
32.0000
20
6.0000
30
0.0
0
VERTEX
8
RILLE
10
28.0000
20
6.0000
30
0.0
0
VERTEX
8
RILLE
10
28.0000
20
4.0000
30
0.0
0
SEQEND
0
POLYLINE
8
RILLE
66
1
70
1
0
VERTEX
8
RILLE
10
10.0000
20
26.0000
30
0.0
0
VERTEX
8
RILLE
10
8.0000
20
26.0000
30
0.0
0
VERTEX
8
RILLE
10
8.0000
20
16.0000
30
0.0
0
VERTEX
8
RILLE
10
12.0000
20
16.0000
30
0.0
0
VERTEX
8
RILLE
10
12.0000
20
18.0000
30
0.0
0
VERTEX
8
RILLE
10
10.0000
20
18.0000
30
0.0
0
SEQEND
0
POLYLINE
8
RILLE
66
1
70
1
0
VERTEX
8
RILLE
10
24.0000
20
54.0000
30
0.0
0
VERTEX
8
RILLE
10
22.0000
20
54.0000
30
0.0
0
VERTEX
8
RILLE
10
22.0000
20
44.0000
30
0.0
0
VERTEX
8
RILLE
10
24.0000
20
44.0000
30
0.0
0
SEQEND
0
POLYLINE
8
RILLE
66
1
70
1
0
VERTEX
8
RILLE
10
94.0000
20
198.0000
30
0.0
0
VERTEX
8
RILLE
10
96.0000
20
198.0000
30
0.0
0
VERTEX
8
RILLE
10
96.0000
20
200.0000
30
0.0
0
VERTEX
8
RILLE
10
92.0000
20
200.0000
30
0.0
0
VERTEX
8
RILLE
10
92.0000
20
196.0000
30
0.0
0
VERTEX
8
RILLE
10
94.0000
20
196.0000
30
0.0
0
SEQEND
0
POLYLINE
8
RILLE
66
1
70
1
0
VERTEX
8
RILLE
10
42.0000
20
4.0000
30
0.0
0
VERTEX
8
RILLE
10
42.0000
20
6.0000
30
0.0
0
VERTEX
8
RILLE
10
38.0000
20
6.0000
30
0.0
0
VERTEX
8
RILLE
10
38.0000
20
4.0000
30
0.0
0
SEQEND
0
POLYLINE
8
STOPP
66
1
70
1
0
VERTEX
8
STOPP
10
54.5000
20
208.5000
30
0.0
0
VERTEX
8
STOPP
10
55.5000
20
208.5000
30
0.0
0
VERTEX
8
STOPP
10
55.5000
20
209.5000
30
0.0
0
VERTEX
8
STOPP
10
54.5000
20
209.5000
30
0.0
0
VERTEX
8
STOPP
10
54.5000
20
208.5000
30
0.0
0
SEQEND
0
POLYLINE
8
STOPP
66
1
70
1
0
VERTEX
8
STOPP
10
84.5000
20
208.5000
30
0.0
0
VERTEX
8
STOPP
10
85.5000
20
208.5000
30
0.0
0
VERTEX
8
STOPP
10
85.5000
20
209.5000
30
0.0
0
VERTEX
8
STOPP
10
84.5000
20
209.5000
30
0.0
0
VERTEX
8
STOPP
10
84.5000
20
208.5000
30
0.0
0
SEQEND
0
POLYLINE
8
STOPP
66
1
70
1
0
VERTEX
8
STOPP
10
30.5000
20
206.5000
30
0.0
0
VERTEX
8
STOPP
10
31.5000
20
206.5000
30
0.0
0
VERTEX
8
STOPP
10
31.5000
20
207.5000
30
0.0
0
VERTEX
8
STOPP
10
30.5000
20
207.5000
30
0.0
0
VERTEX
8
STOPP
10
30.5000
20
206.5000
30
0.0
0
SEQEND
0
POLYLINE
8
STOPP
66
1
70
1
0
VERTEX
8
STOPP
10
98.5000
20
206.5000
30
0.0
0
VERTEX
8
STOPP
10
99.5000
20
206.5000
30
0.0
0
VERTEX
8
STOPP
10
99.5000
20
207.5000
30
0.0
0
VERTEX
8
STOPP
10
98.5000
20
207.5000
30
0.0
0
VERTEX
8
STOPP
10
98.5000
20
206.5000
30
0.0
0
SEQEND
0
POLYLINE
8
STOPP
66
1
70
1
0
VERTEX
8
STOPP
10
98.5000
20
202.5000
30
0.0
0
VERTEX
8
STOPP
10
99.5000
20
202.5000
30
0.0
0
VERTEX
8
STOPP
10
99.5000
20
203.5000
30
0.0
0
VERTEX
8
STOPP
10
98.5000
20
203.5000
30
0.0
0
VERTEX
8
STOPP
10
98.5000
20
202.5000
30
0.0
0
SEQEND
0
POLYLINE
8
STOPP
66
1
70
1
0
VERTEX
8
STOPP
10
40.5000
20
200.5000
30
0.0
0
VERTEX
8
STOPP
10
41.5000
20
200.5000
30
0.0
0
VERTEX
8
STOPP
10
41.5000
20
201.5000
30
0.0
0
VERTEX
8
STOPP
10
40.5000
20
201.5000
30
0.0
0
VERTEX
8
STOPP
10
40.5000
20
200.5000
30
0.0
0
SEQEND
0
POLYLINE
8
STOPP
66
1
70
1
0
VERTEX
8
STOPP
10
88.5000
20
200.5000
30
0.0
0
VERTEX
8
STOPP
10
89.5000
20
200.5000
30
0.0
0
VERTEX
8
STOPP
10
89.5000
20
201.5000
30
0.0
0
VERTEX
8
STOPP
10
88.5000
20
201.5000
30
0.0
0
VERTEX
8
STOPP
10
88.5000
20
200.5000
30
0.0
0
SEQEND
0
POLYLINE
8
STOPP
66
1
70
1
0
VERTEX
8
STOPP
10
120.5000
20
198.5000
30
0.0
0
VERTEX
8
STOPP
10
121.5000
20
198.5000
30
0.0
0
VERTEX
8
STOPP
10
121.5000
20
199.5000
30
0.0
0
VERTEX
8
STOPP
10
120.5000
20
199.5000
30
0.0
0
VERTEX
8
STOPP
10
120.5000
20
198.5000
30
0.0
0
SEQEND
0
POLYLINE
8
STOPP
66
1
70
1
0
VERTEX
8
STOPP
10
40.5000
20
196.5000
30
0.0
0
VERTEX
8
STOPP
10
41.5000
20
196.5000
30
0.0
0
VERTEX
8
STOPP
10
41.5000
20
197.5000
30
0.0
0
VERTEX
8
STOPP
10
40.5000
20
197.5000
30
0.0
0
VERTEX
8
STOPP
10
40.5000
20
196.5000
30
0.0
0
SEQEND
0
POLYLINE
8
STOPP
66
1
70
1
0
VERTEX
8
STOPP
10
126.5000
20
194.5000
30
0.0
0
VERTEX
8
STOPP
10
127.5000
20
194.5000
30
0.0
0
VERTEX
8
STOPP
10
127.5000
20
195.5000
30
0.0
0
VERTEX
8
STOPP
10
126.5000
20
195.5000
30
0.0
0
VERTEX
8
STOPP
10
126.5000
20
194.5000
30
0.0
0
SEQEND
0
POLYLINE
8
STOPP
66
1
70
1
0
VERTEX
8
STOPP
10
132.5000
20
194.5000
30
0.0
0
VERTEX
8
STOPP
10
133.5000
20
194.5000
30
0.0
0
VERTEX
8
STOPP
10
133.5000
20
195.5000
30
0.0
0
VERTEX
8
STOPP
10
132.5000
20
195.5000
30
0.0
0
VERTEX
8
STOPP
10
132.5000
20
194.5000
30
0.0
0
SEQEND
0
POLYLINE
8
STOPP
66
1
70
1
0
VERTEX
8
STOPP
10
118.5000
20
188.5000
30
0.0
0
VERTEX
8
STOPP
10
119.5000
20
188.5000
30
0.0
0
VERTEX
8
STOPP
10
119.5000
20
189.5000
30
0.0
0
VERTEX
8
STOPP
10
118.5000
20
189.5000
30
0.0
0
VERTEX
8
STOPP
10
118.5000
20
188.5000
30
0.0
0
SEQEND
0
POLYLINE
8
STOPP
66
1
70
1
0
VERTEX
8
STOPP
10
60.5000
20
186.5000
30
0.0
0
VERTEX
8
STOPP
10
61.5000
20
186.5000
30
0.0
0
VERTEX
8
STOPP
10
61.5000
20
187.5000
30
0.0
0
VERTEX
8
STOPP
10
60.5000
20
187.5000
30
0.0
0
VERTEX
8
STOPP
10
60.5000
20
186.5000
30
0.0
0
SEQEND
0
POLYLINE
8
STOPP
66
1
70
1
0
VERTEX
8
STOPP
10
66.5000
20
186.5000
30
0.0
0
VERTEX
8
STOPP
10
67.5000
20
186.5000
30
0.0
0
VERTEX
8
STOPP
10
67.5000
20
187.5000
30
0.0
0
VERTEX
8
STOPP
10
66.5000
20
187.5000
30
0.0
0
VERTEX
8
STOPP
10
66.5000
20
186.5000
30
0.0
0
SEQEND
0
POLYLINE
8
STOPP
66
1
70
1
0
VERTEX
8
STOPP
10
124.5000
20
182.5000
30
0.0
0
VERTEX
8
STOPP
10
125.5000
20
182.5000
30
0.0
0
VERTEX
8
STOPP
10
125.5000
20
183.5000
30
0.0
0
VERTEX
8
STOPP
10
124.5000
20
183.5000
30
0.0
0
VERTEX
8
STOPP
10
124.5000
20
182.5000
30
0.0
0
SEQEND
0
POLYLINE
8
STOPP
66
1
70
1
0
VERTEX
8
STOPP
10
78.5000
20
180.5000
30
0.0
0
VERTEX
8
STOPP
10
79.5000
20
180.5000
30
0.0
0
VERTEX
8
STOPP
10
79.5000
20
181.5000
30
0.0
0
VERTEX
8
STOPP
10
78.5000
20
181.5000
30
0.0
0
VERTEX
8
STOPP
10
78.5000
20
180.5000
30
0.0
0
SEQEND
0
POLYLINE
8
STOPP
66
1
70
1
0
VERTEX
8
STOPP
10
10.5000
20
172.5000
30
0.0
0
VERTEX
8
STOPP
10
11.5000
20
172.5000
30
0.0
0
VERTEX
8
STOPP
10
11.5000
20
173.5000
30
0.0
0
VERTEX
8
STOPP
10
10.5000
20
173.5000
30
0.0
0
VERTEX
8
STOPP
10
10.5000
20
172.5000
30
0.0
0
SEQEND
0
POLYLINE
8
STOPP
66
1
70
1
0
VERTEX
8
STOPP
10
86.5000
20
170.5000
30
0.0
0
VERTEX
8
STOPP
10
87.5000
20
170.5000
30
0.0
0
VERTEX
8
STOPP
10
87.5000
20
171.5000
30
0.0
0
VERTEX
8
STOPP
10
86.5000
20
171.5000
30
0.0
0
VERTEX
8
STOPP
10
86.5000
20
170.5000
30
0.0
0
SEQEND
0
POLYLINE
8
STOPP
66
1
70
1
0
VERTEX
8
STOPP
10
80.5000
20
164.5000
30
0.0
0
VERTEX
8
STOPP
10
81.5000
20
164.5000
30
0.0
0
VERTEX
8
STOPP
10
81.5000
20
165.5000
30
0.0
0
VERTEX
8
STOPP
10
80.5000
20
165.5000
30
0.0
0
VERTEX
8
STOPP
10
80.5000
20
164.5000
30
0.0
0
SEQEND
0
POLYLINE
8
STOPP
66
1
70
1
0
VERTEX
8
STOPP
10
114.5000
20
164.5000
30
0.0
0
VERTEX
8
STOPP
10
115.5000
20
164.5000
30
0.0
0
VERTEX
8
STOPP
10
115.5000
20
165.5000
30
0.0
0
VERTEX
8
STOPP
10
114.5000
20
165.5000
30
0.0
0
VERTEX
8
STOPP
10
114.5000
20
164.5000
30
0.0
0
SEQEND
0
POLYLINE
8
STOPP
66
1
70
1
0
VERTEX
8
STOPP
10
120.5000
20
164.5000
30
0.0
0
VERTEX
8
STOPP
10
121.5000
20
164.5000
30
0.0
0
VERTEX
8
STOPP
10
121.5000
20
165.5000
30
0.0
0
VERTEX
8
STOPP
10
120.5000
20
165.5000
30
0.0
0
VERTEX
8
STOPP
10
120.5000
20
164.5000
30
0.0
0
SEQEND
0
POLYLINE
8
STOPP
66
1
70
1
0
VERTEX
8
STOPP
10
18.5000
20
160.5000
30
0.0
0
VERTEX
8
STOPP
10
19.5000
20
160.5000
30
0.0
0
VERTEX
8
STOPP
10
19.5000
20
161.5000
30
0.0
0
VERTEX
8
STOPP
10
18.5000
20
161.5000
30
0.0
0
VERTEX
8
STOPP
10
18.5000
20
160.5000
30
0.0
0
SEQEND
0
POLYLINE
8
STOPP
66
1
70
1
0
VERTEX
8
STOPP
10
26.5000
20
156.5000
30
0.0
0
VERTEX
8
STOPP
10
27.5000
20
156.5000
30
0.0
0
VERTEX
8
STOPP
10
27.5000
20
157.5000
30
0.0
0
VERTEX
8
STOPP
10
26.5000
20
157.5000
30
0.0
0
VERTEX
8
STOPP
10
26.5000
20
156.5000
30
0.0
0
SEQEND
0
POLYLINE
8
STOPP
66
1
70
1
0
VERTEX
8
STOPP
10
70.5000
20
154.5000
30
0.0
0
VERTEX
8
STOPP
10
71.5000
20
154.5000
30
0.0
0
VERTEX
8
STOPP
10
71.5000
20
155.5000
30
0.0
0
VERTEX
8
STOPP
10
70.5000
20
155.5000
30
0.0
0
VERTEX
8
STOPP
10
70.5000
20
154.5000
30
0.0
0
SEQEND
0
POLYLINE
8
STOPP
66
1
70
1
0
VERTEX
8
STOPP
10
70.5000
20
150.5000
30
0.0
0
VERTEX
8
STOPP
10
71.5000
20
150.5000
30
0.0
0
VERTEX
8
STOPP
10
71.5000
20
151.5000
30
0.0
0
VERTEX
8
STOPP
10
70.5000
20
151.5000
30
0.0
0
VERTEX
8
STOPP
10
70.5000
20
150.5000
30
0.0
0
SEQEND
0
POLYLINE
8
STOPP
66
1
70
1
0
VERTEX
8
STOPP
10
130.5000
20
144.5000
30
0.0
0
VERTEX
8
STOPP
10
131.5000
20
144.5000
30
0.0
0
VERTEX
8
STOPP
10
131.5000
20
145.5000
30
0.0
0
VERTEX
8
STOPP
10
130.5000
20
145.5000
30
0.0
0
VERTEX
8
STOPP
10
130.5000
20
144.5000
30
0.0
0
SEQEND
0
POLYLINE
8
STOPP
66
1
70
1
0
VERTEX
8
STOPP
10
18.5000
20
142.5000
30
0.0
0
VERTEX
8
STOPP
10
19.5000
20
142.5000
30
0.0
0
VERTEX
8
STOPP
10
19.5000
20
143.5000
30
0.0
0
VERTEX
8
STOPP
10
18.5000
20
143.5000
30
0.0
0
VERTEX
8
STOPP
10
18.5000
20
142.5000
30
0.0
0
SEQEND
0
POLYLINE
8
STOPP
66
1
70
1
0
VERTEX
8
STOPP
10
76.5000
20
142.5000
30
0.0
0
VERTEX
8
STOPP
10
77.5000
20
142.5000
30
0.0
0
VERTEX
8
STOPP
10
77.5000
20
143.5000
30
0.0
0
VERTEX
8
STOPP
10
76.5000
20
143.5000
30
0.0
0
VERTEX
8
STOPP
10
76.5000
20
142.5000
30
0.0
0
SEQEND
0
POLYLINE
8
STOPP
66
1
70
1
0
VERTEX
8
STOPP
10
130.5000
20
140.5000
30
0.0
0
VERTEX
8
STOPP
10
131.5000
20
140.5000
30
0.0
0
VERTEX
8
STOPP
10
131.5000
20
141.5000
30
0.0
0
VERTEX
8
STOPP
10
130.5000
20
141.5000
30
0.0
0
VERTEX
8
STOPP
10
130.5000
20
140.5000
30
0.0
0
SEQEND
0
POLYLINE
8
STOPP
66
1
70
1
0
VERTEX
8
STOPP
10
54.5000
20
138.5000
30
0.0
0
VERTEX
8
STOPP
10
55.5000
20
138.5000
30
0.0
0
VERTEX
8
STOPP
10
55.5000
20
139.5000
30
0.0
0
VERTEX
8
STOPP
10
54.5000
20
139.5000
30
0.0
0
VERTEX
8
STOPP
10
54.5000
20
138.5000
30
0.0
0
SEQEND
0
POLYLINE
8
STOPP
66
1
70
1
0
VERTEX
8
STOPP
10
92.5000
20
136.5000
30
0.0
0
VERTEX
8
STOPP
10
93.5000
20
136.5000
30
0.0
0
VERTEX
8
STOPP
10
93.5000
20
137.5000
30
0.0
0
VERTEX
8
STOPP
10
92.5000
20
137.5000
30
0.0
0
VERTEX
8
STOPP
10
92.5000
20
136.5000
30
0.0
0
SEQEND
0
POLYLINE
8
STOPP
66
1
70
1
0
VERTEX
8
STOPP
10
8.5000
20
134.5000
30
0.0
0
VERTEX
8
STOPP
10
9.5000
20
134.5000
30
0.0
0
VERTEX
8
STOPP
10
9.5000
20
135.5000
30
0.0
0
VERTEX
8
STOPP
10
8.5000
20
135.5000
30
0.0
0
VERTEX
8
STOPP
10
8.5000
20
134.5000
30
0.0
0
SEQEND
0
POLYLINE
8
STOPP
66
1
70
1
0
VERTEX
8
STOPP
10
34.5000
20
134.5000
30
0.0
0
VERTEX
8
STOPP
10
35.5000
20
134.5000
30
0.0
0
VERTEX
8
STOPP
10
35.5000
20
135.5000
30
0.0
0
VERTEX
8
STOPP
10
34.5000
20
135.5000
30
0.0
0
VERTEX
8
STOPP
10
34.5000
20
134.5000
30
0.0
0
SEQEND
0
POLYLINE
8
STOPP
66
1
70
1
0
VERTEX
8
STOPP
10
130.5000
20
126.5000
30
0.0
0
VERTEX
8
STOPP
10
131.5000
20
126.5000
30
0.0
0
VERTEX
8
STOPP
10
131.5000
20
127.5000
30
0.0
0
VERTEX
8
STOPP
10
130.5000
20
127.5000
30
0.0
0
VERTEX
8
STOPP
10
130.5000
20
126.5000
30
0.0
0
SEQEND
0
POLYLINE
8
STOPP
66
1
70
1
0
VERTEX
8
STOPP
10
86.5000
20
120.5000
30
0.0
0
VERTEX
8
STOPP
10
87.5000
20
120.5000
30
0.0
0
VERTEX
8
STOPP
10
87.5000
20
121.5000
30
0.0
0
VERTEX
8
STOPP
10
86.5000
20
121.5000
30
0.0
0
VERTEX
8
STOPP
10
86.5000
20
120.5000
30
0.0
0
SEQEND
0
POLYLINE
8
STOPP
66
1
70
1
0
VERTEX
8
STOPP
10
124.5000
20
120.5000
30
0.0
0
VERTEX
8
STOPP
10
125.5000
20
120.5000
30
0.0
0
VERTEX
8
STOPP
10
125.5000
20
121.5000
30
0.0
0
VERTEX
8
STOPP
10
124.5000
20
121.5000
30
0.0
0
VERTEX
8
STOPP
10
124.5000
20
120.5000
30
0.0
0
SEQEND
0
POLYLINE
8
STOPP
66
1
70
1
0
VERTEX
8
STOPP
10
24.5000
20
118.5000
30
0.0
0
VERTEX
8
STOPP
10
25.5000
20
118.5000
30
0.0
0
VERTEX
8
STOPP
10
25.5000
20
119.5000
30
0.0
0
VERTEX
8
STOPP
10
24.5000
20
119.5000
30
0.0
0
VERTEX
8
STOPP
10
24.5000
20
118.5000
30
0.0
0
SEQEND
0
POLYLINE
8
STOPP
66
1
70
1
0
VERTEX
8
STOPP
10
40.5000
20
118.5000
30
0.0
0
VERTEX
8
STOPP
10
41.5000
20
118.5000
30
0.0
0
VERTEX
8
STOPP
10
41.5000
20
119.5000
30
0.0
0
VERTEX
8
STOPP
10
40.5000
20
119.5000
30
0.0
0
VERTEX
8
STOPP
10
40.5000
20
118.5000
30
0.0
0
SEQEND
0
POLYLINE
8
STOPP
66
1
70
1
0
VERTEX
8
STOPP
10
38.5000
20
116.5000
30
0.0
0
VERTEX
8
STOPP
10
39.5000
20
116.5000
30
0.0
0
VERTEX
8
STOPP
10
39.5000
20
117.5000
30
0.0
0
VERTEX
8
STOPP
10
38.5000
20
117.5000
30
0.0
0
VERTEX
8
STOPP
10
38.5000
20
116.5000
30
0.0
0
SEQEND
0
POLYLINE
8
STOPP
66
1
70
1
0
VERTEX
8
STOPP
10
130.5000
20
116.5000
30
0.0
0
VERTEX
8
STOPP
10
131.5000
20
116.5000
30
0.0
0
VERTEX
8
STOPP
10
131.5000
20
117.5000
30
0.0
0
VERTEX
8
STOPP
10
130.5000
20
117.5000
30
0.0
0
VERTEX
8
STOPP
10
130.5000
20
116.5000
30
0.0
0
SEQEND
0
POLYLINE
8
STOPP
66
1
70
1
0
VERTEX
8
STOPP
10
108.5000
20
114.5000
30
0.0
0
VERTEX
8
STOPP
10
109.5000
20
114.5000
30
0.0
0
VERTEX
8
STOPP
10
109.5000
20
115.5000
30
0.0
0
VERTEX
8
STOPP
10
108.5000
20
115.5000
30
0.0
0
VERTEX
8
STOPP
10
108.5000
20
114.5000
30
0.0
0
SEQEND
0
POLYLINE
8
STOPP
66
1
70
1
0
VERTEX
8
STOPP
10
24.5000
20
112.5000
30
0.0
0
VERTEX
8
STOPP
10
25.5000
20
112.5000
30
0.0
0
VERTEX
8
STOPP
10
25.5000
20
113.5000
30
0.0
0
VERTEX
8
STOPP
10
24.5000
20
113.5000
30
0.0
0
VERTEX
8
STOPP
10
24.5000
20
112.5000
30
0.0
0
SEQEND
0
POLYLINE
8
STOPP
66
1
70
1
0
VERTEX
8
STOPP
10
28.5000
20
112.5000
30
0.0
0
VERTEX
8
STOPP
10
29.5000
20
112.5000
30
0.0
0
VERTEX
8
STOPP
10
29.5000
20
113.5000
30
0.0
0
VERTEX
8
STOPP
10
28.5000
20
113.5000
30
0.0
0
VERTEX
8
STOPP
10
28.5000
20
112.5000
30
0.0
0
SEQEND
0
POLYLINE
8
STOPP
66
1
70
1
0
VERTEX
8
STOPP
10
34.5000
20
110.5000
30
0.0
0
VERTEX
8
STOPP
10
35.5000
20
110.5000
30
0.0
0
VERTEX
8
STOPP
10
35.5000
20
111.5000
30
0.0
0
VERTEX
8
STOPP
10
34.5000
20
111.5000
30
0.0
0
VERTEX
8
STOPP
10
34.5000
20
110.5000
30
0.0
0
SEQEND
0
POLYLINE
8
STOPP
66
1
70
1
0
VERTEX
8
STOPP
10
80.5000
20
110.5000
30
0.0
0
VERTEX
8
STOPP
10
81.5000
20
110.5000
30
0.0
0
VERTEX
8
STOPP
10
81.5000
20
111.5000
30
0.0
0
VERTEX
8
STOPP
10
80.5000
20
111.5000
30
0.0
0
VERTEX
8
STOPP
10
80.5000
20
110.5000
30
0.0
0
SEQEND
0
POLYLINE
8
STOPP
66
1
70
1
0
VERTEX
8
STOPP
10
36.5000
20
104.5000
30
0.0
0
VERTEX
8
STOPP
10
37.5000
20
104.5000
30
0.0
0
VERTEX
8
STOPP
10
37.5000
20
105.5000
30
0.0
0
VERTEX
8
STOPP
10
36.5000
20
105.5000
30
0.0
0
VERTEX
8
STOPP
10
36.5000
20
104.5000
30
0.0
0
SEQEND
0
POLYLINE
8
STOPP
66
1
70
1
0
VERTEX
8
STOPP
10
6.5000
20
102.5000
30
0.0
0
VERTEX
8
STOPP
10
7.5000
20
102.5000
30
0.0
0
VERTEX
8
STOPP
10
7.5000
20
103.5000
30
0.0
0
VERTEX
8
STOPP
10
6.5000
20
103.5000
30
0.0
0
VERTEX
8
STOPP
10
6.5000
20
102.5000
30
0.0
0
SEQEND
0
POLYLINE
8
STOPP
66
1
70
1
0
VERTEX
8
STOPP
10
12.5000
20
102.5000
30
0.0
0
VERTEX
8
STOPP
10
13.5000
20
102.5000
30
0.0
0
VERTEX
8
STOPP
10
13.5000
20
103.5000
30
0.0
0
VERTEX
8
STOPP
10
12.5000
20
103.5000
30
0.0
0
VERTEX
8
STOPP
10
12.5000
20
102.5000
30
0.0
0
SEQEND
0
POLYLINE
8
STOPP
66
1
70
1
0
VERTEX
8
STOPP
10
16.5000
20
102.5000
30
0.0
0
VERTEX
8
STOPP
10
17.5000
20
102.5000
30
0.0
0
VERTEX
8
STOPP
10
17.5000
20
103.5000
30
0.0
0
VERTEX
8
STOPP
10
16.5000
20
103.5000
30
0.0
0
VERTEX
8
STOPP
10
16.5000
20
102.5000
30
0.0
0
SEQEND
0
POLYLINE
8
STOPP
66
1
70
1
0
VERTEX
8
STOPP
10
68.5000
20
100.5000
30
0.0
0
VERTEX
8
STOPP
10
69.5000
20
100.5000
30
0.0
0
VERTEX
8
STOPP
10
69.5000
20
101.5000
30
0.0
0
VERTEX
8
STOPP
10
68.5000
20
101.5000
30
0.0
0
VERTEX
8
STOPP
10
68.5000
20
100.5000
30
0.0
0
SEQEND
0
POLYLINE
8
STOPP
66
1
70
1
0
VERTEX
8
STOPP
10
36.5000
20
98.5000
30
0.0
0
VERTEX
8
STOPP
10
37.5000
20
98.5000
30
0.0
0
VERTEX
8
STOPP
10
37.5000
20
99.5000
30
0.0
0
VERTEX
8
STOPP
10
36.5000
20
99.5000
30
0.0
0
VERTEX
8
STOPP
10
36.5000
20
98.5000
30
0.0
0
SEQEND
0
POLYLINE
8
STOPP
66
1
70
1
0
VERTEX
8
STOPP
10
106.5000
20
98.5000
30
0.0
0
VERTEX
8
STOPP
10
107.5000
20
98.5000
30
0.0
0
VERTEX
8
STOPP
10
107.5000
20
99.5000
30
0.0
0
VERTEX
8
STOPP
10
106.5000
20
99.5000
30
0.0
0
VERTEX
8
STOPP
10
106.5000
20
98.5000
30
0.0
0
SEQEND
0
POLYLINE
8
STOPP
66
1
70
1
0
VERTEX
8
STOPP
10
116.5000
20
96.5000
30
0.0
0
VERTEX
8
STOPP
10
117.5000
20
96.5000
30
0.0
0
VERTEX
8
STOPP
10
117.5000
20
97.5000
30
0.0
0
VERTEX
8
STOPP
10
116.5000
20
97.5000
30
0.0
0
VERTEX
8
STOPP
10
116.5000
20
96.5000
30
0.0
0
SEQEND
0
POLYLINE
8
STOPP
66
1
70
1
0
VERTEX
8
STOPP
10
18.5000
20
94.5000
30
0.0
0
VERTEX
8
STOPP
10
19.5000
20
94.5000
30
0.0
0
VERTEX
8
STOPP
10
19.5000
20
95.5000
30
0.0
0
VERTEX
8
STOPP
10
18.5000
20
95.5000
30
0.0
0
VERTEX
8
STOPP
10
18.5000
20
94.5000
30
0.0
0
SEQEND
0
POLYLINE
8
STOPP
66
1
70
1
0
VERTEX
8
STOPP
10
34.5000
20
94.5000
30
0.0
0
VERTEX
8
STOPP
10
35.5000
20
94.5000
30
0.0
0
VERTEX
8
STOPP
10
35.5000
20
95.5000
30
0.0
0
VERTEX
8
STOPP
10
34.5000
20
95.5000
30
0.0
0
VERTEX
8
STOPP
10
34.5000
20
94.5000
30
0.0
0
SEQEND
0
POLYLINE
8
STOPP
66
1
70
1
0
VERTEX
8
STOPP
10
42.5000
20
92.5000
30
0.0
0
VERTEX
8
STOPP
10
43.5000
20
92.5000
30
0.0
0
VERTEX
8
STOPP
10
43.5000
20
93.5000
30
0.0
0
VERTEX
8
STOPP
10
42.5000
20
93.5000
30
0.0
0
VERTEX
8
STOPP
10
42.5000
20
92.5000
30
0.0
0
SEQEND
0
POLYLINE
8
STOPP
66
1
70
1
0
VERTEX
8
STOPP
10
52.5000
20
92.5000
30
0.0
0
VERTEX
8
STOPP
10
53.5000
20
92.5000
30
0.0
0
VERTEX
8
STOPP
10
53.5000
20
93.5000
30
0.0
0
VERTEX
8
STOPP
10
52.5000
20
93.5000
30
0.0
0
VERTEX
8
STOPP
10
52.5000
20
92.5000
30
0.0
0
SEQEND
0
POLYLINE
8
STOPP
66
1
70
1
0
VERTEX
8
STOPP
10
62.5000
20
92.5000
30
0.0
0
VERTEX
8
STOPP
10
63.5000
20
92.5000
30
0.0
0
VERTEX
8
STOPP
10
63.5000
20
93.5000
30
0.0
0
VERTEX
8
STOPP
10
62.5000
20
93.5000
30
0.0
0
VERTEX
8
STOPP
10
62.5000
20
92.5000
30
0.0
0
SEQEND
0
POLYLINE
8
STOPP
66
1
70
1
0
VERTEX
8
STOPP
10
86.5000
20
92.5000
30
0.0
0
VERTEX
8
STOPP
10
87.5000
20
92.5000
30
0.0
0
VERTEX
8
STOPP
10
87.5000
20
93.5000
30
0.0
0
VERTEX
8
STOPP
10
86.5000
20
93.5000
30
0.0
0
VERTEX
8
STOPP
10
86.5000
20
92.5000
30
0.0
0
SEQEND
0
POLYLINE
8
STOPP
66
1
70
1
0
VERTEX
8
STOPP
10
118.5000
20
92.5000
30
0.0
0
VERTEX
8
STOPP
10
119.5000
20
92.5000
30
0.0
0
VERTEX
8
STOPP
10
119.5000
20
93.5000
30
0.0
0
VERTEX
8
STOPP
10
118.5000
20
93.5000
30
0.0
0
VERTEX
8
STOPP
10
118.5000
20
92.5000
30
0.0
0
SEQEND
0
POLYLINE
8
STOPP
66
1
70
1
0
VERTEX
8
STOPP
10
22.5000
20
86.5000
30
0.0
0
VERTEX
8
STOPP
10
23.5000
20
86.5000
30
0.0
0
VERTEX
8
STOPP
10
23.5000
20
87.5000
30
0.0
0
VERTEX
8
STOPP
10
22.5000
20
87.5000
30
0.0
0
VERTEX
8
STOPP
10
22.5000
20
86.5000
30
0.0
0
SEQEND
0
POLYLINE
8
STOPP
66
1
70
1
0
VERTEX
8
STOPP
10
36.5000
20
86.5000
30
0.0
0
VERTEX
8
STOPP
10
37.5000
20
86.5000
30
0.0
0
VERTEX
8
STOPP
10
37.5000
20
87.5000
30
0.0
0
VERTEX
8
STOPP
10
36.5000
20
87.5000
30
0.0
0
VERTEX
8
STOPP
10
36.5000
20
86.5000
30
0.0
0
SEQEND
0
POLYLINE
8
STOPP
66
1
70
1
0
VERTEX
8
STOPP
10
46.5000
20
86.5000
30
0.0
0
VERTEX
8
STOPP
10
47.5000
20
86.5000
30
0.0
0
VERTEX
8
STOPP
10
47.5000
20
87.5000
30
0.0
0
VERTEX
8
STOPP
10
46.5000
20
87.5000
30
0.0
0
VERTEX
8
STOPP
10
46.5000
20
86.5000
30
0.0
0
SEQEND
0
POLYLINE
8
STOPP
66
1
70
1
0
VERTEX
8
STOPP
10
122.5000
20
82.5000
30
0.0
0
VERTEX
8
STOPP
10
123.5000
20
82.5000
30
0.0
0
VERTEX
8
STOPP
10
123.5000
20
83.5000
30
0.0
0
VERTEX
8
STOPP
10
122.5000
20
83.5000
30
0.0
0
VERTEX
8
STOPP
10
122.5000
20
82.5000
30
0.0
0
SEQEND
0
POLYLINE
8
STOPP
66
1
70
1
0
VERTEX
8
STOPP
10
26.5000
20
80.5000
30
0.0
0
VERTEX
8
STOPP
10
27.5000
20
80.5000
30
0.0
0
VERTEX
8
STOPP
10
27.5000
20
81.5000
30
0.0
0
VERTEX
8
STOPP
10
26.5000
20
81.5000
30
0.0
0
VERTEX
8
STOPP
10
26.5000
20
80.5000
30
0.0
0
SEQEND
0
POLYLINE
8
STOPP
66
1
70
1
0
VERTEX
8
STOPP
10
48.5000
20
80.5000
30
0.0
0
VERTEX
8
STOPP
10
49.5000
20
80.5000
30
0.0
0
VERTEX
8
STOPP
10
49.5000
20
81.5000
30
0.0
0
VERTEX
8
STOPP
10
48.5000
20
81.5000
30
0.0
0
VERTEX
8
STOPP
10
48.5000
20
80.5000
30
0.0
0
SEQEND
0
POLYLINE
8
STOPP
66
1
70
1
0
VERTEX
8
STOPP
10
120.5000
20
80.5000
30
0.0
0
VERTEX
8
STOPP
10
121.5000
20
80.5000
30
0.0
0
VERTEX
8
STOPP
10
121.5000
20
81.5000
30
0.0
0
VERTEX
8
STOPP
10
120.5000
20
81.5000
30
0.0
0
VERTEX
8
STOPP
10
120.5000
20
80.5000
30
0.0
0
SEQEND
0
POLYLINE
8
STOPP
66
1
70
1
0
VERTEX
8
STOPP
10
90.5000
20
78.5000
30
0.0
0
VERTEX
8
STOPP
10
91.5000
20
78.5000
30
0.0
0
VERTEX
8
STOPP
10
91.5000
20
79.5000
30
0.0
0
VERTEX
8
STOPP
10
90.5000
20
79.5000
30
0.0
0
VERTEX
8
STOPP
10
90.5000
20
78.5000
30
0.0
0
SEQEND
0
POLYLINE
8
STOPP
66
1
70
1
0
VERTEX
8
STOPP
10
8.5000
20
76.5000
30
0.0
0
VERTEX
8
STOPP
10
9.5000
20
76.5000
30
0.0
0
VERTEX
8
STOPP
10
9.5000
20
77.5000
30
0.0
0
VERTEX
8
STOPP
10
8.5000
20
77.5000
30
0.0
0
VERTEX
8
STOPP
10
8.5000
20
76.5000
30
0.0
0
SEQEND
0
POLYLINE
8
STOPP
66
1
70
1
0
VERTEX
8
STOPP
10
70.5000
20
74.5000
30
0.0
0
VERTEX
8
STOPP
10
71.5000
20
74.5000
30
0.0
0
VERTEX
8
STOPP
10
71.5000
20
75.5000
30
0.0
0
VERTEX
8
STOPP
10
70.5000
20
75.5000
30
0.0
0
VERTEX
8
STOPP
10
70.5000
20
74.5000
30
0.0
0
SEQEND
0
POLYLINE
8
STOPP
66
1
70
1
0
VERTEX
8
STOPP
10
76.5000
20
74.5000
30
0.0
0
VERTEX
8
STOPP
10
77.5000
20
74.5000
30
0.0
0
VERTEX
8
STOPP
10
77.5000
20
75.5000
30
0.0
0
VERTEX
8
STOPP
10
76.5000
20
75.5000
30
0.0
0
VERTEX
8
STOPP
10
76.5000
20
74.5000
30
0.0
0
SEQEND
0
POLYLINE
8
STOPP
66
1
70
1
0
VERTEX
8
STOPP
10
106.5000
20
74.5000
30
0.0
0
VERTEX
8
STOPP
10
107.5000
20
74.5000
30
0.0
0
VERTEX
8
STOPP
10
107.5000
20
75.5000
30
0.0
0
VERTEX
8
STOPP
10
106.5000
20
75.5000
30
0.0
0
VERTEX
8
STOPP
10
106.5000
20
74.5000
30
0.0
0
SEQEND
0
POLYLINE
8
STOPP
66
1
70
1
0
VERTEX
8
STOPP
10
18.5000
20
72.5000
30
0.0
0
VERTEX
8
STOPP
10
19.5000
20
72.5000
30
0.0
0
VERTEX
8
STOPP
10
19.5000
20
73.5000
30
0.0
0
VERTEX
8
STOPP
10
18.5000
20
73.5000
30
0.0
0
VERTEX
8
STOPP
10
18.5000
20
72.5000
30
0.0
0
SEQEND
0
POLYLINE
8
STOPP
66
1
70
1
0
VERTEX
8
STOPP
10
78.5000
20
72.5000
30
0.0
0
VERTEX
8
STOPP
10
79.5000
20
72.5000
30
0.0
0
VERTEX
8
STOPP
10
79.5000
20
73.5000
30
0.0
0
VERTEX
8
STOPP
10
78.5000
20
73.5000
30
0.0
0
VERTEX
8
STOPP
10
78.5000
20
72.5000
30
0.0
0
SEQEND
0
POLYLINE
8
STOPP
66
1
70
1
0
VERTEX
8
STOPP
10
28.5000
20
70.5000
30
0.0
0
VERTEX
8
STOPP
10
29.5000
20
70.5000
30
0.0
0
VERTEX
8
STOPP
10
29.5000
20
71.5000
30
0.0
0
VERTEX
8
STOPP
10
28.5000
20
71.5000
30
0.0
0
VERTEX
8
STOPP
10
28.5000
20
70.5000
30
0.0
0
SEQEND
0
POLYLINE
8
STOPP
66
1
70
1
0
VERTEX
8
STOPP
10
106.5000
20
68.5000
30
0.0
0
VERTEX
8
STOPP
10
107.5000
20
68.5000
30
0.0
0
VERTEX
8
STOPP
10
107.5000
20
69.5000
30
0.0
0
VERTEX
8
STOPP
10
106.5000
20
69.5000
30
0.0
0
VERTEX
8
STOPP
10
106.5000
20
68.5000
30
0.0
0
SEQEND
0
POLYLINE
8
STOPP
66
1
70
1
0
VERTEX
8
STOPP
10
90.5000
20
66.5000
30
0.0
0
VERTEX
8
STOPP
10
91.5000
20
66.5000
30
0.0
0
VERTEX
8
STOPP
10
91.5000
20
67.5000
30
0.0
0
VERTEX
8
STOPP
10
90.5000
20
67.5000
30
0.0
0
VERTEX
8
STOPP
10
90.5000
20
66.5000
30
0.0
0
SEQEND
0
POLYLINE
8
STOPP
66
1
70
1
0
VERTEX
8
STOPP
10
14.5000
20
64.5000
30
0.0
0
VERTEX
8
STOPP
10
15.5000
20
64.5000
30
0.0
0
VERTEX
8
STOPP
10
15.5000
20
65.5000
30
0.0
0
VERTEX
8
STOPP
10
14.5000
20
65.5000
30
0.0
0
VERTEX
8
STOPP
10
14.5000
20
64.5000
30
0.0
0
SEQEND
0
POLYLINE
8
STOPP
66
1
70
1
0
VERTEX
8
STOPP
10
46.5000
20
62.5000
30
0.0
0
VERTEX
8
STOPP
10
47.5000
20
62.5000
30
0.0
0
VERTEX
8
STOPP
10
47.5000
20
63.5000
30
0.0
0
VERTEX
8
STOPP
10
46.5000
20
63.5000
30
0.0
0
VERTEX
8
STOPP
10
46.5000
20
62.5000
30
0.0
0
SEQEND
0
POLYLINE
8
STOPP
66
1
70
1
0
VERTEX
8
STOPP
10
14.5000
20
60.5000
30
0.0
0
VERTEX
8
STOPP
10
15.5000
20
60.5000
30
0.0
0
VERTEX
8
STOPP
10
15.5000
20
61.5000
30
0.0
0
VERTEX
8
STOPP
10
14.5000
20
61.5000
30
0.0
0
VERTEX
8
STOPP
10
14.5000
20
60.5000
30
0.0
0
SEQEND
0
POLYLINE
8
STOPP
66
1
70
1
0
VERTEX
8
STOPP
10
92.5000
20
60.5000
30
0.0
0
VERTEX
8
STOPP
10
93.5000
20
60.5000
30
0.0
0
VERTEX
8
STOPP
10
93.5000
20
61.5000
30
0.0
0
VERTEX
8
STOPP
10
92.5000
20
61.5000
30
0.0
0
VERTEX
8
STOPP
10
92.5000
20
60.5000
30
0.0
0
SEQEND
0
POLYLINE
8
STOPP
66
1
70
1
0
VERTEX
8
STOPP
10
98.5000
20
60.5000
30
0.0
0
VERTEX
8
STOPP
10
99.5000
20
60.5000
30
0.0
0
VERTEX
8
STOPP
10
99.5000
20
61.5000
30
0.0
0
VERTEX
8
STOPP
10
98.5000
20
61.5000
30
0.0
0
VERTEX
8
STOPP
10
98.5000
20
60.5000
30
0.0
0
SEQEND
0
POLYLINE
8
STOPP
66
1
70
1
0
VERTEX
8
STOPP
10
66.5000
20
58.5000
30
0.0
0
VERTEX
8
STOPP
10
67.5000
20
58.5000
30
0.0
0
VERTEX
8
STOPP
10
67.5000
20
59.5000
30
0.0
0
VERTEX
8
STOPP
10
66.5000
20
59.5000
30
0.0
0
VERTEX
8
STOPP
10
66.5000
20
58.5000
30
0.0
0
SEQEND
0
POLYLINE
8
STOPP
66
1
70
1
0
VERTEX
8
STOPP
10
14.5000
20
56.5000
30
0.0
0
VERTEX
8
STOPP
10
15.5000
20
56.5000
30
0.0
0
VERTEX
8
STOPP
10
15.5000
20
57.5000
30
0.0
0
VERTEX
8
STOPP
10
14.5000
20
57.5000
30
0.0
0
VERTEX
8
STOPP
10
14.5000
20
56.5000
30
0.0
0
SEQEND
0
POLYLINE
8
STOPP
66
1
70
1
0
VERTEX
8
STOPP
10
102.5000
20
56.5000
30
0.0
0
VERTEX
8
STOPP
10
103.5000
20
56.5000
30
0.0
0
VERTEX
8
STOPP
10
103.5000
20
57.5000
30
0.0
0
VERTEX
8
STOPP
10
102.5000
20
57.5000
30
0.0
0
VERTEX
8
STOPP
10
102.5000
20
56.5000
30
0.0
0
SEQEND
0
POLYLINE
8
STOPP
66
1
70
1
0
VERTEX
8
STOPP
10
108.5000
20
56.5000
30
0.0
0
VERTEX
8
STOPP
10
109.5000
20
56.5000
30
0.0
0
VERTEX
8
STOPP
10
109.5000
20
57.5000
30
0.0
0
VERTEX
8
STOPP
10
108.5000
20
57.5000
30
0.0
0
VERTEX
8
STOPP
10
108.5000
20
56.5000
30
0.0
0
SEQEND
0
POLYLINE
8
STOPP
66
1
70
1
0
VERTEX
8
STOPP
10
44.5000
20
54.5000
30
0.0
0
VERTEX
8
STOPP
10
45.5000
20
54.5000
30
0.0
0
VERTEX
8
STOPP
10
45.5000
20
55.5000
30
0.0
0
VERTEX
8
STOPP
10
44.5000
20
55.5000
30
0.0
0
VERTEX
8
STOPP
10
44.5000
20
54.5000
30
0.0
0
SEQEND
0
POLYLINE
8
STOPP
66
1
70
1
0
VERTEX
8
STOPP
10
8.5000
20
52.5000
30
0.0
0
VERTEX
8
STOPP
10
9.5000
20
52.5000
30
0.0
0
VERTEX
8
STOPP
10
9.5000
20
53.5000
30
0.0
0
VERTEX
8
STOPP
10
8.5000
20
53.5000
30
0.0
0
VERTEX
8
STOPP
10
8.5000
20
52.5000
30
0.0
0
SEQEND
0
POLYLINE
8
STOPP
66
1
70
1
0
VERTEX
8
STOPP
10
14.5000
20
52.5000
30
0.0
0
VERTEX
8
STOPP
10
15.5000
20
52.5000
30
0.0
0
VERTEX
8
STOPP
10
15.5000
20
53.5000
30
0.0
0
VERTEX
8
STOPP
10
14.5000
20
53.5000
30
0.0
0
VERTEX
8
STOPP
10
14.5000
20
52.5000
30
0.0
0
SEQEND
0
POLYLINE
8
STOPP
66
1
70
1
0
VERTEX
8
STOPP
10
22.5000
20
52.5000
30
0.0
0
VERTEX
8
STOPP
10
23.5000
20
52.5000
30
0.0
0
VERTEX
8
STOPP
10
23.5000
20
53.5000
30
0.0
0
VERTEX
8
STOPP
10
22.5000
20
53.5000
30
0.0
0
VERTEX
8
STOPP
10
22.5000
20
52.5000
30
0.0
0
SEQEND
0
POLYLINE
8
STOPP
66
1
70
1
0
VERTEX
8
STOPP
10
90.5000
20
52.5000
30
0.0
0
VERTEX
8
STOPP
10
91.5000
20
52.5000
30
0.0
0
VERTEX
8
STOPP
10
91.5000
20
53.5000
30
0.0
0
VERTEX
8
STOPP
10
90.5000
20
53.5000
30
0.0
0
VERTEX
8
STOPP
10
90.5000
20
52.5000
30
0.0
0
SEQEND
0
POLYLINE
8
STOPP
66
1
70
1
0
VERTEX
8
STOPP
10
14.5000
20
48.5000
30
0.0
0
VERTEX
8
STOPP
10
15.5000
20
48.5000
30
0.0
0
VERTEX
8
STOPP
10
15.5000
20
49.5000
30
0.0
0
VERTEX
8
STOPP
10
14.5000
20
49.5000
30
0.0
0
VERTEX
8
STOPP
10
14.5000
20
48.5000
30
0.0
0
SEQEND
0
POLYLINE
8
STOPP
66
1
70
1
0
VERTEX
8
STOPP
10
56.5000
20
46.5000
30
0.0
0
VERTEX
8
STOPP
10
57.5000
20
46.5000
30
0.0
0
VERTEX
8
STOPP
10
57.5000
20
47.5000
30
0.0
0
VERTEX
8
STOPP
10
56.5000
20
47.5000
30
0.0
0
VERTEX
8
STOPP
10
56.5000
20
46.5000
30
0.0
0
SEQEND
0
POLYLINE
8
STOPP
66
1
70
1
0
VERTEX
8
STOPP
10
22.5000
20
44.5000
30
0.0
0
VERTEX
8
STOPP
10
23.5000
20
44.5000
30
0.0
0
VERTEX
8
STOPP
10
23.5000
20
45.5000
30
0.0
0
VERTEX
8
STOPP
10
22.5000
20
45.5000
30
0.0
0
VERTEX
8
STOPP
10
22.5000
20
44.5000
30
0.0
0
SEQEND
0
POLYLINE
8
STOPP
66
1
70
1
0
VERTEX
8
STOPP
10
128.5000
20
44.5000
30
0.0
0
VERTEX
8
STOPP
10
129.5000
20
44.5000
30
0.0
0
VERTEX
8
STOPP
10
129.5000
20
45.5000
30
0.0
0
VERTEX
8
STOPP
10
128.5000
20
45.5000
30
0.0
0
VERTEX
8
STOPP
10
128.5000
20
44.5000
30
0.0
0
SEQEND
0
POLYLINE
8
STOPP
66
1
70
1
0
VERTEX
8
STOPP
10
14.5000
20
42.5000
30
0.0
0
VERTEX
8
STOPP
10
15.5000
20
42.5000
30
0.0
0
VERTEX
8
STOPP
10
15.5000
20
43.5000
30
0.0
0
VERTEX
8
STOPP
10
14.5000
20
43.5000
30
0.0
0
VERTEX
8
STOPP
10
14.5000
20
42.5000
30
0.0
0
SEQEND
0
POLYLINE
8
STOPP
66
1
70
1
0
VERTEX
8
STOPP
10
14.5000
20
38.5000
30
0.0
0
VERTEX
8
STOPP
10
15.5000
20
38.5000
30
0.0
0
VERTEX
8
STOPP
10
15.5000
20
39.5000
30
0.0
0
VERTEX
8
STOPP
10
14.5000
20
39.5000
30
0.0
0
VERTEX
8
STOPP
10
14.5000
20
38.5000
30
0.0
0
SEQEND
0
POLYLINE
8
STOPP
66
1
70
1
0
VERTEX
8
STOPP
10
70.5000
20
38.5000
30
0.0
0
VERTEX
8
STOPP
10
71.5000
20
38.5000
30
0.0
0
VERTEX
8
STOPP
10
71.5000
20
39.5000
30
0.0
0
VERTEX
8
STOPP
10
70.5000
20
39.5000
30
0.0
0
VERTEX
8
STOPP
10
70.5000
20
38.5000
30
0.0
0
SEQEND
0
POLYLINE
8
STOPP
66
1
70
1
0
VERTEX
8
STOPP
10
102.5000
20
38.5000
30
0.0
0
VERTEX
8
STOPP
10
103.5000
20
38.5000
30
0.0
0
VERTEX
8
STOPP
10
103.5000
20
39.5000
30
0.0
0
VERTEX
8
STOPP
10
102.5000
20
39.5000
30
0.0
0
VERTEX
8
STOPP
10
102.5000
20
38.5000
30
0.0
0
SEQEND
0
POLYLINE
8
STOPP
66
1
70
1
0
VERTEX
8
STOPP
10
56.5000
20
36.5000
30
0.0
0
VERTEX
8
STOPP
10
57.5000
20
36.5000
30
0.0
0
VERTEX
8
STOPP
10
57.5000
20
37.5000
30
0.0
0
VERTEX
8
STOPP
10
56.5000
20
37.5000
30
0.0
0
VERTEX
8
STOPP
10
56.5000
20
36.5000
30
0.0
0
SEQEND
0
POLYLINE
8
STOPP
66
1
70
1
0
VERTEX
8
STOPP
10
82.5000
20
36.5000
30
0.0
0
VERTEX
8
STOPP
10
83.5000
20
36.5000
30
0.0
0
VERTEX
8
STOPP
10
83.5000
20
37.5000
30
0.0
0
VERTEX
8
STOPP
10
82.5000
20
37.5000
30
0.0
0
VERTEX
8
STOPP
10
82.5000
20
36.5000
30
0.0
0
SEQEND
0
POLYLINE
8
STOPP
66
1
70
1
0
VERTEX
8
STOPP
10
88.5000
20
36.5000
30
0.0
0
VERTEX
8
STOPP
10
89.5000
20
36.5000
30
0.0
0
VERTEX
8
STOPP
10
89.5000
20
37.5000
30
0.0
0
VERTEX
8
STOPP
10
88.5000
20
37.5000
30
0.0
0
VERTEX
8
STOPP
10
88.5000
20
36.5000
30
0.0
0
SEQEND
0
POLYLINE
8
STOPP
66
1
70
1
0
VERTEX
8
STOPP
10
128.5000
20
36.5000
30
0.0
0
VERTEX
8
STOPP
10
129.5000
20
36.5000
30
0.0
0
VERTEX
8
STOPP
10
129.5000
20
37.5000
30
0.0
0
VERTEX
8
STOPP
10
128.5000
20
37.5000
30
0.0
0
VERTEX
8
STOPP
10
128.5000
20
36.5000
30
0.0
0
SEQEND
0
POLYLINE
8
STOPP
66
1
70
1
0
VERTEX
8
STOPP
10
94.5000
20
34.5000
30
0.0
0
VERTEX
8
STOPP
10
95.5000
20
34.5000
30
0.0
0
VERTEX
8
STOPP
10
95.5000
20
35.5000
30
0.0
0
VERTEX
8
STOPP
10
94.5000
20
35.5000
30
0.0
0
VERTEX
8
STOPP
10
94.5000
20
34.5000
30
0.0
0
SEQEND
0
POLYLINE
8
STOPP
66
1
70
1
0
VERTEX
8
STOPP
10
104.5000
20
34.5000
30
0.0
0
VERTEX
8
STOPP
10
105.5000
20
34.5000
30
0.0
0
VERTEX
8
STOPP
10
105.5000
20
35.5000
30
0.0
0
VERTEX
8
STOPP
10
104.5000
20
35.5000
30
0.0
0
VERTEX
8
STOPP
10
104.5000
20
34.5000
30
0.0
0
SEQEND
0
POLYLINE
8
STOPP
66
1
70
1
0
VERTEX
8
STOPP
10
20.5000
20
32.5000
30
0.0
0
VERTEX
8
STOPP
10
21.5000
20
32.5000
30
0.0
0
VERTEX
8
STOPP
10
21.5000
20
33.5000
30
0.0
0
VERTEX
8
STOPP
10
20.5000
20
33.5000
30
0.0
0
VERTEX
8
STOPP
10
20.5000
20
32.5000
30
0.0
0
SEQEND
0
POLYLINE
8
STOPP
66
1
70
1
0
VERTEX
8
STOPP
10
46.5000
20
32.5000
30
0.0
0
VERTEX
8
STOPP
10
47.5000
20
32.5000
30
0.0
0
VERTEX
8
STOPP
10
47.5000
20
33.5000
30
0.0
0
VERTEX
8
STOPP
10
46.5000
20
33.5000
30
0.0
0
VERTEX
8
STOPP
10
46.5000
20
32.5000
30
0.0
0
SEQEND
0
POLYLINE
8
STOPP
66
1
70
1
0
VERTEX
8
STOPP
10
72.5000
20
32.5000
30
0.0
0
VERTEX
8
STOPP
10
73.5000
20
32.5000
30
0.0
0
VERTEX
8
STOPP
10
73.5000
20
33.5000
30
0.0
0
VERTEX
8
STOPP
10
72.5000
20
33.5000
30
0.0
0
VERTEX
8
STOPP
10
72.5000
20
32.5000
30
0.0
0
SEQEND
0
POLYLINE
8
STOPP
66
1
70
1
0
VERTEX
8
STOPP
10
94.5000
20
30.5000
30
0.0
0
VERTEX
8
STOPP
10
95.5000
20
30.5000
30
0.0
0
VERTEX
8
STOPP
10
95.5000
20
31.5000
30
0.0
0
VERTEX
8
STOPP
10
94.5000
20
31.5000
30
0.0
0
VERTEX
8
STOPP
10
94.5000
20
30.5000
30
0.0
0
SEQEND
0
POLYLINE
8
STOPP
66
1
70
1
0
VERTEX
8
STOPP
10
128.5000
20
30.5000
30
0.0
0
VERTEX
8
STOPP
10
129.5000
20
30.5000
30
0.0
0
VERTEX
8
STOPP
10
129.5000
20
31.5000
30
0.0
0
VERTEX
8
STOPP
10
128.5000
20
31.5000
30
0.0
0
VERTEX
8
STOPP
10
128.5000
20
30.5000
30
0.0
0
SEQEND
0
POLYLINE
8
STOPP
66
1
70
1
0
VERTEX
8
STOPP
10
46.5000
20
28.5000
30
0.0
0
VERTEX
8
STOPP
10
47.5000
20
28.5000
30
0.0
0
VERTEX
8
STOPP
10
47.5000
20
29.5000
30
0.0
0
VERTEX
8
STOPP
10
46.5000
20
29.5000
30
0.0
0
VERTEX
8
STOPP
10
46.5000
20
28.5000
30
0.0
0
SEQEND
0
POLYLINE
8
STOPP
66
1
70
1
0
VERTEX
8
STOPP
10
126.5000
20
28.5000
30
0.0
0
VERTEX
8
STOPP
10
127.5000
20
28.5000
30
0.0
0
VERTEX
8
STOPP
10
127.5000
20
29.5000
30
0.0
0
VERTEX
8
STOPP
10
126.5000
20
29.5000
30
0.0
0
VERTEX
8
STOPP
10
126.5000
20
28.5000
30
0.0
0
SEQEND
0
POLYLINE
8
STOPP
66
1
70
1
0
VERTEX
8
STOPP
10
44.5000
20
26.5000
30
0.0
0
VERTEX
8
STOPP
10
45.5000
20
26.5000
30
0.0
0
VERTEX
8
STOPP
10
45.5000
20
27.5000
30
0.0
0
VERTEX
8
STOPP
10
44.5000
20
27.5000
30
0.0
0
VERTEX
8
STOPP
10
44.5000
20
26.5000
30
0.0
0
SEQEND
0
POLYLINE
8
STOPP
66
1
70
1
0
VERTEX
8
STOPP
10
76.5000
20
26.5000
30
0.0
0
VERTEX
8
STOPP
10
77.5000
20
26.5000
30
0.0
0
VERTEX
8
STOPP
10
77.5000
20
27.5000
30
0.0
0
VERTEX
8
STOPP
10
76.5000
20
27.5000
30
0.0
0
VERTEX
8
STOPP
10
76.5000
20
26.5000
30
0.0
0
SEQEND
0
POLYLINE
8
STOPP
66
1
70
1
0
VERTEX
8
STOPP
10
124.5000
20
26.5000
30
0.0
0
VERTEX
8
STOPP
10
125.5000
20
26.5000
30
0.0
0
VERTEX
8
STOPP
10
125.5000
20
27.5000
30
0.0
0
VERTEX
8
STOPP
10
124.5000
20
27.5000
30
0.0
0
VERTEX
8
STOPP
10
124.5000
20
26.5000
30
0.0
0
SEQEND
0
POLYLINE
8
STOPP
66
1
70
1
0
VERTEX
8
STOPP
10
126.5000
20
24.5000
30
0.0
0
VERTEX
8
STOPP
10
127.5000
20
24.5000
30
0.0
0
VERTEX
8
STOPP
10
127.5000
20
25.5000
30
0.0
0
VERTEX
8
STOPP
10
126.5000
20
25.5000
30
0.0
0
VERTEX
8
STOPP
10
126.5000
20
24.5000
30
0.0
0
SEQEND
0
POLYLINE
8
STOPP
66
1
70
1
0
VERTEX
8
STOPP
10
12.5000
20
22.5000
30
0.0
0
VERTEX
8
STOPP
10
13.5000
20
22.5000
30
0.0
0
VERTEX
8
STOPP
10
13.5000
20
23.5000
30
0.0
0
VERTEX
8
STOPP
10
12.5000
20
23.5000
30
0.0
0
VERTEX
8
STOPP
10
12.5000
20
22.5000
30
0.0
0
SEQEND
0
POLYLINE
8
STOPP
66
1
70
1
0
VERTEX
8
STOPP
10
46.5000
20
20.5000
30
0.0
0
VERTEX
8
STOPP
10
47.5000
20
20.5000
30
0.0
0
VERTEX
8
STOPP
10
47.5000
20
21.5000
30
0.0
0
VERTEX
8
STOPP
10
46.5000
20
21.5000
30
0.0
0
VERTEX
8
STOPP
10
46.5000
20
20.5000
30
0.0
0
SEQEND
0
POLYLINE
8
STOPP
66
1
70
1
0
VERTEX
8
STOPP
10
50.5000
20
20.5000
30
0.0
0
VERTEX
8
STOPP
10
51.5000
20
20.5000
30
0.0
0
VERTEX
8
STOPP
10
51.5000
20
21.5000
30
0.0
0
VERTEX
8
STOPP
10
50.5000
20
21.5000
30
0.0
0
VERTEX
8
STOPP
10
50.5000
20
20.5000
30
0.0
0
SEQEND
0
POLYLINE
8
STOPP
66
1
70
1
0
VERTEX
8
STOPP
10
54.5000
20
20.5000
30
0.0
0
VERTEX
8
STOPP
10
55.5000
20
20.5000
30
0.0
0
VERTEX
8
STOPP
10
55.5000
20
21.5000
30
0.0
0
VERTEX
8
STOPP
10
54.5000
20
21.5000
30
0.0
0
VERTEX
8
STOPP
10
54.5000
20
20.5000
30
0.0
0
SEQEND
0
POLYLINE
8
STOPP
66
1
70
1
0
VERTEX
8
STOPP
10
68.5000
20
18.5000
30
0.0
0
VERTEX
8
STOPP
10
69.5000
20
18.5000
30
0.0
0
VERTEX
8
STOPP
10
69.5000
20
19.5000
30
0.0
0
VERTEX
8
STOPP
10
68.5000
20
19.5000
30
0.0
0
VERTEX
8
STOPP
10
68.5000
20
18.5000
30
0.0
0
SEQEND
0
POLYLINE
8
STOPP
66
1
70
1
0
VERTEX
8
STOPP
10
76.5000
20
18.5000
30
0.0
0
VERTEX
8
STOPP
10
77.5000
20
18.5000
30
0.0
0
VERTEX
8
STOPP
10
77.5000
20
19.5000
30
0.0
0
VERTEX
8
STOPP
10
76.5000
20
19.5000
30
0.0
0
VERTEX
8
STOPP
10
76.5000
20
18.5000
30
0.0
0
SEQEND
0
POLYLINE
8
STOPP
66
1
70
1
0
VERTEX
8
STOPP
10
86.5000
20
18.5000
30
0.0
0
VERTEX
8
STOPP
10
87.5000
20
18.5000
30
0.0
0
VERTEX
8
STOPP
10
87.5000
20
19.5000
30
0.0
0
VERTEX
8
STOPP
10
86.5000
20
19.5000
30
0.0
0
VERTEX
8
STOPP
10
86.5000
20
18.5000
30
0.0
0
SEQEND
0
POLYLINE
8
STOPP
66
1
70
1
0
VERTEX
8
STOPP
10
94.5000
20
18.5000
30
0.0
0
VERTEX
8
STOPP
10
95.5000
20
18.5000
30
0.0
0
VERTEX
8
STOPP
10
95.5000
20
19.5000
30
0.0
0
VERTEX
8
STOPP
10
94.5000
20
19.5000
30
0.0
0
VERTEX
8
STOPP
10
94.5000
20
18.5000
30
0.0
0
SEQEND
0
POLYLINE
8
STOPP
66
1
70
1
0
VERTEX
8
STOPP
10
100.5000
20
18.5000
30
0.0
0
VERTEX
8
STOPP
10
101.5000
20
18.5000
30
0.0
0
VERTEX
8
STOPP
10
101.5000
20
19.5000
30
0.0
0
VERTEX
8
STOPP
10
100.5000
20
19.5000
30
0.0
0
VERTEX
8
STOPP
10
100.5000
20
18.5000
30
0.0
0
SEQEND
0
POLYLINE
8
STOPP
66
1
70
1
0
VERTEX
8
STOPP
10
58.5000
20
16.5000
30
0.0
0
VERTEX
8
STOPP
10
59.5000
20
16.5000
30
0.0
0
VERTEX
8
STOPP
10
59.5000
20
17.5000
30
0.0
0
VERTEX
8
STOPP
10
58.5000
20
17.5000
30
0.0
0
VERTEX
8
STOPP
10
58.5000
20
16.5000
30
0.0
0
SEQEND
0
POLYLINE
8
STOPP
66
1
70
1
0
VERTEX
8
STOPP
10
56.5000
20
14.5000
30
0.0
0
VERTEX
8
STOPP
10
57.5000
20
14.5000
30
0.0
0
VERTEX
8
STOPP
10
57.5000
20
15.5000
30
0.0
0
VERTEX
8
STOPP
10
56.5000
20
15.5000
30
0.0
0
VERTEX
8
STOPP
10
56.5000
20
14.5000
30
0.0
0
SEQEND
0
POLYLINE
8
STOPP
66
1
70
1
0
VERTEX
8
STOPP
10
74.5000
20
14.5000
30
0.0
0
VERTEX
8
STOPP
10
75.5000
20
14.5000
30
0.0
0
VERTEX
8
STOPP
10
75.5000
20
15.5000
30
0.0
0
VERTEX
8
STOPP
10
74.5000
20
15.5000
30
0.0
0
VERTEX
8
STOPP
10
74.5000
20
14.5000
30
0.0
0
SEQEND
0
POLYLINE
8
STOPP
66
1
70
1
0
VERTEX
8
STOPP
10
88.5000
20
14.5000
30
0.0
0
VERTEX
8
STOPP
10
89.5000
20
14.5000
30
0.0
0
VERTEX
8
STOPP
10
89.5000
20
15.5000
30
0.0
0
VERTEX
8
STOPP
10
88.5000
20
15.5000
30
0.0
0
VERTEX
8
STOPP
10
88.5000
20
14.5000
30
0.0
0
SEQEND
0
POLYLINE
8
STOPP
66
1
70
1
0
VERTEX
8
STOPP
10
118.5000
20
14.5000
30
0.0
0
VERTEX
8
STOPP
10
119.5000
20
14.5000
30
0.0
0
VERTEX
8
STOPP
10
119.5000
20
15.5000
30
0.0
0
VERTEX
8
STOPP
10
118.5000
20
15.5000
30
0.0
0
VERTEX
8
STOPP
10
118.5000
20
14.5000
30
0.0
0
SEQEND
0
POLYLINE
8
STOPP
66
1
70
1
0
VERTEX
8
STOPP
10
18.5000
20
10.5000
30
0.0
0
VERTEX
8
STOPP
10
19.5000
20
10.5000
30
0.0
0
VERTEX
8
STOPP
10
19.5000
20
11.5000
30
0.0
0
VERTEX
8
STOPP
10
18.5000
20
11.5000
30
0.0
0
VERTEX
8
STOPP
10
18.5000
20
10.5000
30
0.0
0
SEQEND
0
POLYLINE
8
STOPP
66
1
70
1
0
VERTEX
8
STOPP
10
22.5000
20
10.5000
30
0.0
0
VERTEX
8
STOPP
10
23.5000
20
10.5000
30
0.0
0
VERTEX
8
STOPP
10
23.5000
20
11.5000
30
0.0
0
VERTEX
8
STOPP
10
22.5000
20
11.5000
30
0.0
0
VERTEX
8
STOPP
10
22.5000
20
10.5000
30
0.0
0
SEQEND
0
POLYLINE
8
STOPP
66
1
70
1
0
VERTEX
8
STOPP
10
26.5000
20
10.5000
30
0.0
0
VERTEX
8
STOPP
10
27.5000
20
10.5000
30
0.0
0
VERTEX
8
STOPP
10
27.5000
20
11.5000
30
0.0
0
VERTEX
8
STOPP
10
26.5000
20
11.5000
30
0.0
0
VERTEX
8
STOPP
10
26.5000
20
10.5000
30
0.0
0
SEQEND
0
POLYLINE
8
STOPP
66
1
70
1
0
VERTEX
8
STOPP
10
30.5000
20
10.5000
30
0.0
0
VERTEX
8
STOPP
10
31.5000
20
10.5000
30
0.0
0
VERTEX
8
STOPP
10
31.5000
20
11.5000
30
0.0
0
VERTEX
8
STOPP
10
30.5000
20
11.5000
30
0.0
0
VERTEX
8
STOPP
10
30.5000
20
10.5000
30
0.0
0
SEQEND
0
POLYLINE
8
STOPP
66
1
70
1
0
VERTEX
8
STOPP
10
60.5000
20
8.5000
30
0.0
0
VERTEX
8
STOPP
10
61.5000
20
8.5000
30
0.0
0
VERTEX
8
STOPP
10
61.5000
20
9.5000
30
0.0
0
VERTEX
8
STOPP
10
60.5000
20
9.5000
30
0.0
0
VERTEX
8
STOPP
10
60.5000
20
8.5000
30
0.0
0
SEQEND
0
POLYLINE
8
STOPP
66
1
70
1
0
VERTEX
8
STOPP
10
64.5000
20
8.5000
30
0.0
0
VERTEX
8
STOPP
10
65.5000
20
8.5000
30
0.0
0
VERTEX
8
STOPP
10
65.5000
20
9.5000
30
0.0
0
VERTEX
8
STOPP
10
64.5000
20
9.5000
30
0.0
0
VERTEX
8
STOPP
10
64.5000
20
8.5000
30
0.0
0
SEQEND
0
POLYLINE
8
STOPP
66
1
70
1
0
VERTEX
8
STOPP
10
118.5000
20
6.5000
30
0.0
0
VERTEX
8
STOPP
10
119.5000
20
6.5000
30
0.0
0
VERTEX
8
STOPP
10
119.5000
20
7.5000
30
0.0
0
VERTEX
8
STOPP
10
118.5000
20
7.5000
30
0.0
0
VERTEX
8
STOPP
10
118.5000
20
6.5000
30
0.0
0
SEQEND
0
POLYLINE
8
STOPP
66
1
70
1
0
VERTEX
8
STOPP
10
126.5000
20
6.5000
30
0.0
0
VERTEX
8
STOPP
10
127.5000
20
6.5000
30
0.0
0
VERTEX
8
STOPP
10
127.5000
20
7.5000
30
0.0
0
VERTEX
8
STOPP
10
126.5000
20
7.5000
30
0.0
0
VERTEX
8
STOPP
10
126.5000
20
6.5000
30
0.0
0
SEQEND
0
POLYLINE
8
STOPP
66
1
70
1
0
VERTEX
8
STOPP
10
100.5000
20
4.5000
30
0.0
0
VERTEX
8
STOPP
10
101.5000
20
4.5000
30
0.0
0
VERTEX
8
STOPP
10
101.5000
20
5.5000
30
0.0
0
VERTEX
8
STOPP
10
100.5000
20
5.5000
30
0.0
0
VERTEX
8
STOPP
10
100.5000
20
4.5000
30
0.0
0
SEQEND
0
TEXT
8
INFO
10
4
20
214
30
0.0
40
2.5
1
Ahnenraster 140x220 mm - RILLE=fraesen WEISS=Steg
0
ENDSEC
0
EOF
