0
SECTION
2
HEADER
9
$INSUNITS
70
4
9
$MEASUREMENT
70
1
0
ENDSEC
0
SECTION
2
TABLES
0
TABLE
2
LAYER
70
4
0
LAYER
2
PLATTE
70
0
62
7
6
CONTINUOUS
0
LAYER
2
STEMPEL
70
0
62
1
6
CONTINUOUS
0
LAYER
2
FRAESEN
70
0
62
3
6
CONTINUOUS
0
LAYER
2
INFO
70
0
62
8
6
CONTINUOUS
0
ENDTAB
0
ENDSEC
0
SECTION
2
ENTITIES
0
POLYLINE
8
PLATTE
66
1
70
1
0
VERTEX
8
PLATTE
10
0.0000
20
0.0000
30
0.0
0
VERTEX
8
PLATTE
10
140.0000
20
0.0000
30
0.0
0
VERTEX
8
PLATTE
10
140.0000
20
220.0000
30
0.0
0
VERTEX
8
PLATTE
10
0.0000
20
220.0000
30
0.0
0
SEQEND
0
POLYLINE
8
STEMPEL
66
1
70
1
0
VERTEX
8
STEMPEL
10
0.2954
20
215.6262
30
0.0
0
VERTEX
8
STEMPEL
10
139.7046
20
215.6262
30
0.0
0
VERTEX
8
STEMPEL
10
139.7046
20
219.7813
30
0.0
0
VERTEX
8
STEMPEL
10
0.2954
20
219.7813
30
0.0
0
SEQEND
0
POLYLINE
8
STEMPEL
66
1
70
1
0
VERTEX
8
STEMPEL
10
0.2954
20
0.2187
30
0.0
0
VERTEX
8
STEMPEL
10
2.3629
20
0.2187
30
0.0
0
VERTEX
8
STEMPEL
10
2.3629
20
215.6262
30
0.0
0
VERTEX
8
STEMPEL
10
0.2954
20
215.6262
30
0.0
0
SEQEND
0
POLYLINE
8
STEMPEL
66
1
70
1
0
VERTEX
8
STEMPEL
10
55.5274
20
200.3181
30
0.0
0
VERTEX
8
STEMPEL
10
59.6624
20
200.3181
30
0.0
0
VERTEX
8
STEMPEL
10
59.6624
20
215.6262
30
0.0
0
VERTEX
8
STEMPEL
10
55.5274
20
215.6262
30
0.0
0
SEQEND
0
POLYLINE
8
STEMPEL
66
1
70
1
0
VERTEX
8
STEMPEL
10
88.6076
20
181.9483
30
0.0
0
VERTEX
8
STEMPEL
10
92.7426
20
181.9483
30
0.0
0
VERTEX
8
STEMPEL
10
92.7426
20
215.6262
30
0.0
0
VERTEX
8
STEMPEL
10
88.6076
20
215.6262
30
0.0
0
SEQEND
0
POLYLINE
8
STEMPEL
66
1
70
1
0
VERTEX
8
STEMPEL
10
96.8776
20
191.1332
30
0.0
0
VERTEX
8
STEMPEL
10
101.0127
20
191.1332
30
0.0
0
VERTEX
8
STEMPEL
10
101.0127
20
215.6262
30
0.0
0
VERTEX
8
STEMPEL
10
96.8776
20
215.6262
30
0.0
0
SEQEND
0
POLYLINE
8
STEMPEL
66
1
70
1
0
VERTEX
8
STEMPEL
10
117.5527
20
200.3181
30
0.0
0
VERTEX
8
STEMPEL
10
121.6878
20
200.3181
30
0.0
0
VERTEX
8
STEMPEL
10
121.6878
20
215.6262
30
0.0
0
VERTEX
8
STEMPEL
10
117.5527
20
215.6262
30
0.0
0
SEQEND
0
POLYLINE
8
STEMPEL
66
1
70
1
0
VERTEX
8
STEMPEL
10
137.6371
20
0.2187
30
0.0
0
VERTEX
8
STEMPEL
10
139.7046
20
0.2187
30
0.0
0
VERTEX
8
STEMPEL
10
139.7046
20
215.6262
30
0.0
0
VERTEX
8
STEMPEL
10
137.6371
20
215.6262
30
0.0
0
SEQEND
0
POLYLINE
8
STEMPEL
66
1
70
1
0
VERTEX
8
STEMPEL
10
2.3629
20
209.5030
30
0.0
0
VERTEX
8
STEMPEL
10
14.1772
20
209.5030
30
0.0
0
VERTEX
8
STEMPEL
10
14.1772
20
212.5646
30
0.0
0
VERTEX
8
STEMPEL
10
2.3629
20
212.5646
30
0.0
0
SEQEND
0
POLYLINE
8
STEMPEL
66
1
70
1
0
VERTEX
8
STEMPEL
10
125.8228
20
209.5030
30
0.0
0
VERTEX
8
STEMPEL
10
137.6371
20
209.5030
30
0.0
0
VERTEX
8
STEMPEL
10
137.6371
20
212.5646
30
0.0
0
VERTEX
8
STEMPEL
10
125.8228
20
212.5646
30
0.0
0
SEQEND
0
POLYLINE
8
STEMPEL
66
1
70
1
0
VERTEX
8
STEMPEL
10
125.8228
20
203.3797
30
0.0
0
VERTEX
8
STEMPEL
10
129.9578
20
203.3797
30
0.0
0
VERTEX
8
STEMPEL
10
129.9578
20
209.5030
30
0.0
0
VERTEX
8
STEMPEL
10
125.8228
20
209.5030
30
0.0
0
SEQEND
0
POLYLINE
8
STEMPEL
66
1
70
1
0
VERTEX
8
STEMPEL
10
2.3629
20
203.3797
30
0.0
0
VERTEX
8
STEMPEL
10
14.1772
20
203.3797
30
0.0
0
VERTEX
8
STEMPEL
10
14.1772
20
206.4414
30
0.0
0
VERTEX
8
STEMPEL
10
2.3629
20
206.4414
30
0.0
0
SEQEND
0
POLYLINE
8
STEMPEL
66
1
70
1
0
VERTEX
8
STEMPEL
10
129.9578
20
203.3797
30
0.0
0
VERTEX
8
STEMPEL
10
137.6371
20
203.3797
30
0.0
0
VERTEX
8
STEMPEL
10
137.6371
20
206.4414
30
0.0
0
VERTEX
8
STEMPEL
10
129.9578
20
206.4414
30
0.0
0
SEQEND
0
POLYLINE
8
STEMPEL
66
1
70
1
0
VERTEX
8
STEMPEL
10
125.8228
20
197.2565
30
0.0
0
VERTEX
8
STEMPEL
10
137.6371
20
197.2565
30
0.0
0
VERTEX
8
STEMPEL
10
137.6371
20
200.3181
30
0.0
0
VERTEX
8
STEMPEL
10
125.8228
20
200.3181
30
0.0
0
SEQEND
0
POLYLINE
8
STEMPEL
66
1
70
1
0
VERTEX
8
STEMPEL
10
2.3629
20
166.6402
30
0.0
0
VERTEX
8
STEMPEL
10
5.9072
20
166.6402
30
0.0
0
VERTEX
8
STEMPEL
10
5.9072
20
194.1948
30
0.0
0
VERTEX
8
STEMPEL
10
2.3629
20
194.1948
30
0.0
0
SEQEND
0
POLYLINE
8
STEMPEL
66
1
70
1
0
VERTEX
8
STEMPEL
10
101.0127
20
191.1332
30
0.0
0
VERTEX
8
STEMPEL
10
137.6371
20
191.1332
30
0.0
0
VERTEX
8
STEMPEL
10
137.6371
20
194.1948
30
0.0
0
VERTEX
8
STEMPEL
10
101.0127
20
194.1948
30
0.0
0
SEQEND
0
POLYLINE
8
STEMPEL
66
1
70
1
0
VERTEX
8
STEMPEL
10
96.8776
20
185.0099
30
0.0
0
VERTEX
8
STEMPEL
10
137.6371
20
185.0099
30
0.0
0
VERTEX
8
STEMPEL
10
137.6371
20
188.0716
30
0.0
0
VERTEX
8
STEMPEL
10
96.8776
20
188.0716
30
0.0
0
SEQEND
0
POLYLINE
8
STEMPEL
66
1
70
1
0
VERTEX
8
STEMPEL
10
96.8776
20
166.6402
30
0.0
0
VERTEX
8
STEMPEL
10
101.0127
20
166.6402
30
0.0
0
VERTEX
8
STEMPEL
10
101.0127
20
185.0099
30
0.0
0
VERTEX
8
STEMPEL
10
96.8776
20
185.0099
30
0.0
0
SEQEND
0
POLYLINE
8
STEMPEL
66
1
70
1
0
VERTEX
8
STEMPEL
10
129.9578
20
154.3936
30
0.0
0
VERTEX
8
STEMPEL
10
134.0928
20
154.3936
30
0.0
0
VERTEX
8
STEMPEL
10
134.0928
20
175.8250
30
0.0
0
VERTEX
8
STEMPEL
10
129.9578
20
175.8250
30
0.0
0
SEQEND
0
POLYLINE
8
STEMPEL
66
1
70
1
0
VERTEX
8
STEMPEL
10
101.0127
20
166.6402
30
0.0
0
VERTEX
8
STEMPEL
10
117.5527
20
166.6402
30
0.0
0
VERTEX
8
STEMPEL
10
117.5527
20
169.7018
30
0.0
0
VERTEX
8
STEMPEL
10
101.0127
20
169.7018
30
0.0
0
SEQEND
0
POLYLINE
8
STEMPEL
66
1
70
1
0
VERTEX
8
STEMPEL
10
2.3629
20
157.4553
30
0.0
0
VERTEX
8
STEMPEL
10
72.0675
20
157.4553
30
0.0
0
VERTEX
8
STEMPEL
10
72.0675
20
160.5169
30
0.0
0
VERTEX
8
STEMPEL
10
2.3629
20
160.5169
30
0.0
0
SEQEND
0
POLYLINE
8
STEMPEL
66
1
70
1
0
VERTEX
8
STEMPEL
10
14.1772
20
145.2087
30
0.0
0
VERTEX
8
STEMPEL
10
18.3122
20
145.2087
30
0.0
0
VERTEX
8
STEMPEL
10
18.3122
20
157.4553
30
0.0
0
VERTEX
8
STEMPEL
10
14.1772
20
157.4553
30
0.0
0
SEQEND
0
POLYLINE
8
STEMPEL
66
1
70
1
0
VERTEX
8
STEMPEL
10
67.9325
20
111.5308
30
0.0
0
VERTEX
8
STEMPEL
10
72.0675
20
111.5308
30
0.0
0
VERTEX
8
STEMPEL
10
72.0675
20
157.4553
30
0.0
0
VERTEX
8
STEMPEL
10
67.9325
20
157.4553
30
0.0
0
SEQEND
0
POLYLINE
8
STEMPEL
66
1
70
1
0
VERTEX
8
STEMPEL
10
76.2025
20
154.3936
30
0.0
0
VERTEX
8
STEMPEL
10
129.9578
20
154.3936
30
0.0
0
VERTEX
8
STEMPEL
10
129.9578
20
157.4553
30
0.0
0
VERTEX
8
STEMPEL
10
76.2025
20
157.4553
30
0.0
0
SEQEND
0
POLYLINE
8
STEMPEL
66
1
70
1
0
VERTEX
8
STEMPEL
10
134.0928
20
154.3936
30
0.0
0
VERTEX
8
STEMPEL
10
137.6371
20
154.3936
30
0.0
0
VERTEX
8
STEMPEL
10
137.6371
20
157.4553
30
0.0
0
VERTEX
8
STEMPEL
10
134.0928
20
157.4553
30
0.0
0
SEQEND
0
POLYLINE
8
STEMPEL
66
1
70
1
0
VERTEX
8
STEMPEL
10
76.2025
20
102.3459
30
0.0
0
VERTEX
8
STEMPEL
10
80.3376
20
102.3459
30
0.0
0
VERTEX
8
STEMPEL
10
80.3376
20
154.3936
30
0.0
0
VERTEX
8
STEMPEL
10
76.2025
20
154.3936
30
0.0
0
SEQEND
0
POLYLINE
8
STEMPEL
66
1
70
1
0
VERTEX
8
STEMPEL
10
121.6878
20
129.9006
30
0.0
0
VERTEX
8
STEMPEL
10
125.8228
20
129.9006
30
0.0
0
VERTEX
8
STEMPEL
10
125.8228
20
154.3936
30
0.0
0
VERTEX
8
STEMPEL
10
121.6878
20
154.3936
30
0.0
0
SEQEND
0
POLYLINE
8
STEMPEL
66
1
70
1
0
VERTEX
8
STEMPEL
10
129.9578
20
148.2704
30
0.0
0
VERTEX
8
STEMPEL
10
137.6371
20
148.2704
30
0.0
0
VERTEX
8
STEMPEL
10
137.6371
20
151.3320
30
0.0
0
VERTEX
8
STEMPEL
10
129.9578
20
151.3320
30
0.0
0
SEQEND
0
POLYLINE
8
STEMPEL
66
1
70
1
0
VERTEX
8
STEMPEL
10
129.9578
20
123.7773
30
0.0
0
VERTEX
8
STEMPEL
10
134.0928
20
123.7773
30
0.0
0
VERTEX
8
STEMPEL
10
134.0928
20
148.2704
30
0.0
0
VERTEX
8
STEMPEL
10
129.9578
20
148.2704
30
0.0
0
SEQEND
0
POLYLINE
8
STEMPEL
66
1
70
1
0
VERTEX
8
STEMPEL
10
92.7426
20
142.1471
30
0.0
0
VERTEX
8
STEMPEL
10
109.2827
20
142.1471
30
0.0
0
VERTEX
8
STEMPEL
10
109.2827
20
145.2087
30
0.0
0
VERTEX
8
STEMPEL
10
92.7426
20
145.2087
30
0.0
0
SEQEND
0
POLYLINE
8
STEMPEL
66
1
70
1
0
VERTEX
8
STEMPEL
10
113.4177
20
136.0239
30
0.0
0
VERTEX
8
STEMPEL
10
117.5527
20
136.0239
30
0.0
0
VERTEX
8
STEMPEL
10
117.5527
20
145.2087
30
0.0
0
VERTEX
8
STEMPEL
10
113.4177
20
145.2087
30
0.0
0
SEQEND
0
POLYLINE
8
STEMPEL
66
1
70
1
0
VERTEX
8
STEMPEL
10
92.7426
20
123.7773
30
0.0
0
VERTEX
8
STEMPEL
10
96.8776
20
123.7773
30
0.0
0
VERTEX
8
STEMPEL
10
96.8776
20
142.1471
30
0.0
0
VERTEX
8
STEMPEL
10
92.7426
20
142.1471
30
0.0
0
SEQEND
0
POLYLINE
8
STEMPEL
66
1
70
1
0
VERTEX
8
STEMPEL
10
101.0127
20
136.0239
30
0.0
0
VERTEX
8
STEMPEL
10
113.4177
20
136.0239
30
0.0
0
VERTEX
8
STEMPEL
10
113.4177
20
139.0855
30
0.0
0
VERTEX
8
STEMPEL
10
101.0127
20
139.0855
30
0.0
0
SEQEND
0
POLYLINE
8
STEMPEL
66
1
70
1
0
VERTEX
8
STEMPEL
10
101.0127
20
129.9006
30
0.0
0
VERTEX
8
STEMPEL
10
105.1477
20
129.9006
30
0.0
0
VERTEX
8
STEMPEL
10
105.1477
20
136.0239
30
0.0
0
VERTEX
8
STEMPEL
10
101.0127
20
136.0239
30
0.0
0
SEQEND
0
POLYLINE
8
STEMPEL
66
1
70
1
0
VERTEX
8
STEMPEL
10
105.1477
20
129.9006
30
0.0
0
VERTEX
8
STEMPEL
10
121.6878
20
129.9006
30
0.0
0
VERTEX
8
STEMPEL
10
121.6878
20
132.9622
30
0.0
0
VERTEX
8
STEMPEL
10
105.1477
20
132.9622
30
0.0
0
SEQEND
0
POLYLINE
8
STEMPEL
66
1
70
1
0
VERTEX
8
STEMPEL
10
96.8776
20
123.7773
30
0.0
0
VERTEX
8
STEMPEL
10
129.9578
20
123.7773
30
0.0
0
VERTEX
8
STEMPEL
10
129.9578
20
126.8390
30
0.0
0
VERTEX
8
STEMPEL
10
96.8776
20
126.8390
30
0.0
0
SEQEND
0
POLYLINE
8
STEMPEL
66
1
70
1
0
VERTEX
8
STEMPEL
10
92.7426
20
117.6541
30
0.0
0
VERTEX
8
STEMPEL
10
137.6371
20
117.6541
30
0.0
0
VERTEX
8
STEMPEL
10
137.6371
20
120.7157
30
0.0
0
VERTEX
8
STEMPEL
10
92.7426
20
120.7157
30
0.0
0
SEQEND
0
POLYLINE
8
STEMPEL
66
1
70
1
0
VERTEX
8
STEMPEL
10
2.3629
20
114.5924
30
0.0
0
VERTEX
8
STEMPEL
10
14.1772
20
114.5924
30
0.0
0
VERTEX
8
STEMPEL
10
14.1772
20
117.6541
30
0.0
0
VERTEX
8
STEMPEL
10
2.3629
20
117.6541
30
0.0
0
SEQEND
0
POLYLINE
8
STEMPEL
66
1
70
1
0
VERTEX
8
STEMPEL
10
5.9072
20
111.5308
30
0.0
0
VERTEX
8
STEMPEL
10
18.3122
20
111.5308
30
0.0
0
VERTEX
8
STEMPEL
10
18.3122
20
114.5924
30
0.0
0
VERTEX
8
STEMPEL
10
5.9072
20
114.5924
30
0.0
0
SEQEND
0
POLYLINE
8
STEMPEL
66
1
70
1
0
VERTEX
8
STEMPEL
10
80.3376
20
111.5308
30
0.0
0
VERTEX
8
STEMPEL
10
134.0928
20
111.5308
30
0.0
0
VERTEX
8
STEMPEL
10
134.0928
20
114.5924
30
0.0
0
VERTEX
8
STEMPEL
10
80.3376
20
114.5924
30
0.0
0
SEQEND
0
POLYLINE
8
STEMPEL
66
1
70
1
0
VERTEX
8
STEMPEL
10
2.3629
20
108.4692
30
0.0
0
VERTEX
8
STEMPEL
10
5.9072
20
108.4692
30
0.0
0
VERTEX
8
STEMPEL
10
5.9072
20
111.5308
30
0.0
0
VERTEX
8
STEMPEL
10
2.3629
20
111.5308
30
0.0
0
SEQEND
0
POLYLINE
8
STEMPEL
66
1
70
1
0
VERTEX
8
STEMPEL
10
10.0422
20
99.2843
30
0.0
0
VERTEX
8
STEMPEL
10
14.1772
20
99.2843
30
0.0
0
VERTEX
8
STEMPEL
10
14.1772
20
111.5308
30
0.0
0
VERTEX
8
STEMPEL
10
10.0422
20
111.5308
30
0.0
0
SEQEND
0
POLYLINE
8
STEMPEL
66
1
70
1
0
VERTEX
8
STEMPEL
10
109.2827
20
99.2843
30
0.0
0
VERTEX
8
STEMPEL
10
113.4177
20
99.2843
30
0.0
0
VERTEX
8
STEMPEL
10
113.4177
20
111.5308
30
0.0
0
VERTEX
8
STEMPEL
10
109.2827
20
111.5308
30
0.0
0
SEQEND
0
POLYLINE
8
STEMPEL
66
1
70
1
0
VERTEX
8
STEMPEL
10
117.5527
20
99.2843
30
0.0
0
VERTEX
8
STEMPEL
10
121.6878
20
99.2843
30
0.0
0
VERTEX
8
STEMPEL
10
121.6878
20
111.5308
30
0.0
0
VERTEX
8
STEMPEL
10
117.5527
20
111.5308
30
0.0
0
SEQEND
0
POLYLINE
8
STEMPEL
66
1
70
1
0
VERTEX
8
STEMPEL
10
72.0675
20
99.2843
30
0.0
0
VERTEX
8
STEMPEL
10
76.2025
20
99.2843
30
0.0
0
VERTEX
8
STEMPEL
10
76.2025
20
108.4692
30
0.0
0
VERTEX
8
STEMPEL
10
72.0675
20
108.4692
30
0.0
0
SEQEND
0
POLYLINE
8
STEMPEL
66
1
70
1
0
VERTEX
8
STEMPEL
10
84.4726
20
105.4076
30
0.0
0
VERTEX
8
STEMPEL
10
96.8776
20
105.4076
30
0.0
0
VERTEX
8
STEMPEL
10
96.8776
20
108.4692
30
0.0
0
VERTEX
8
STEMPEL
10
84.4726
20
108.4692
30
0.0
0
SEQEND
0
POLYLINE
8
STEMPEL
66
1
70
1
0
VERTEX
8
STEMPEL
10
101.0127
20
99.2843
30
0.0
0
VERTEX
8
STEMPEL
10
105.1477
20
99.2843
30
0.0
0
VERTEX
8
STEMPEL
10
105.1477
20
108.4692
30
0.0
0
VERTEX
8
STEMPEL
10
101.0127
20
108.4692
30
0.0
0
SEQEND
0
POLYLINE
8
STEMPEL
66
1
70
1
0
VERTEX
8
STEMPEL
10
80.3376
20
99.2843
30
0.0
0
VERTEX
8
STEMPEL
10
88.6076
20
99.2843
30
0.0
0
VERTEX
8
STEMPEL
10
88.6076
20
105.4076
30
0.0
0
VERTEX
8
STEMPEL
10
80.3376
20
105.4076
30
0.0
0
SEQEND
0
POLYLINE
8
STEMPEL
66
1
70
1
0
VERTEX
8
STEMPEL
10
2.3629
20
99.2843
30
0.0
0
VERTEX
8
STEMPEL
10
10.0422
20
99.2843
30
0.0
0
VERTEX
8
STEMPEL
10
10.0422
20
102.3459
30
0.0
0
VERTEX
8
STEMPEL
10
2.3629
20
102.3459
30
0.0
0
SEQEND
0
POLYLINE
8
STEMPEL
66
1
70
1
0
VERTEX
8
STEMPEL
10
88.6076
20
99.2843
30
0.0
0
VERTEX
8
STEMPEL
10
101.0127
20
99.2843
30
0.0
0
VERTEX
8
STEMPEL
10
101.0127
20
102.3459
30
0.0
0
VERTEX
8
STEMPEL
10
88.6076
20
102.3459
30
0.0
0
SEQEND
0
POLYLINE
8
STEMPEL
66
1
70
1
0
VERTEX
8
STEMPEL
10
105.1477
20
99.2843
30
0.0
0
VERTEX
8
STEMPEL
10
109.2827
20
99.2843
30
0.0
0
VERTEX
8
STEMPEL
10
109.2827
20
102.3459
30
0.0
0
VERTEX
8
STEMPEL
10
105.1477
20
102.3459
30
0.0
0
SEQEND
0
POLYLINE
8
STEMPEL
66
1
70
1
0
VERTEX
8
STEMPEL
10
121.6878
20
99.2843
30
0.0
0
VERTEX
8
STEMPEL
10
137.6371
20
99.2843
30
0.0
0
VERTEX
8
STEMPEL
10
137.6371
20
102.3459
30
0.0
0
VERTEX
8
STEMPEL
10
121.6878
20
102.3459
30
0.0
0
SEQEND
0
POLYLINE
8
STEMPEL
66
1
70
1
0
VERTEX
8
STEMPEL
10
2.3629
20
93.1610
30
0.0
0
VERTEX
8
STEMPEL
10
76.2025
20
93.1610
30
0.0
0
VERTEX
8
STEMPEL
10
76.2025
20
96.2227
30
0.0
0
VERTEX
8
STEMPEL
10
2.3629
20
96.2227
30
0.0
0
SEQEND
0
POLYLINE
8
STEMPEL
66
1
70
1
0
VERTEX
8
STEMPEL
10
80.3376
20
93.1610
30
0.0
0
VERTEX
8
STEMPEL
10
137.6371
20
93.1610
30
0.0
0
VERTEX
8
STEMPEL
10
137.6371
20
96.2227
30
0.0
0
VERTEX
8
STEMPEL
10
80.3376
20
96.2227
30
0.0
0
SEQEND
0
POLYLINE
8
STEMPEL
66
1
70
1
0
VERTEX
8
STEMPEL
10
10.0422
20
80.9145
30
0.0
0
VERTEX
8
STEMPEL
10
14.1772
20
80.9145
30
0.0
0
VERTEX
8
STEMPEL
10
14.1772
20
93.1610
30
0.0
0
VERTEX
8
STEMPEL
10
10.0422
20
93.1610
30
0.0
0
SEQEND
0
POLYLINE
8
STEMPEL
66
1
70
1
0
VERTEX
8
STEMPEL
10
38.9873
20
80.9145
30
0.0
0
VERTEX
8
STEMPEL
10
43.1224
20
80.9145
30
0.0
0
VERTEX
8
STEMPEL
10
43.1224
20
93.1610
30
0.0
0
VERTEX
8
STEMPEL
10
38.9873
20
93.1610
30
0.0
0
SEQEND
0
POLYLINE
8
STEMPEL
66
1
70
1
0
VERTEX
8
STEMPEL
10
72.0675
20
50.2982
30
0.0
0
VERTEX
8
STEMPEL
10
76.2025
20
50.2982
30
0.0
0
VERTEX
8
STEMPEL
10
76.2025
20
93.1610
30
0.0
0
VERTEX
8
STEMPEL
10
72.0675
20
93.1610
30
0.0
0
SEQEND
0
POLYLINE
8
STEMPEL
66
1
70
1
0
VERTEX
8
STEMPEL
10
80.3376
20
80.9145
30
0.0
0
VERTEX
8
STEMPEL
10
84.4726
20
80.9145
30
0.0
0
VERTEX
8
STEMPEL
10
84.4726
20
93.1610
30
0.0
0
VERTEX
8
STEMPEL
10
80.3376
20
93.1610
30
0.0
0
SEQEND
0
POLYLINE
8
STEMPEL
66
1
70
1
0
VERTEX
8
STEMPEL
10
96.8776
20
80.9145
30
0.0
0
VERTEX
8
STEMPEL
10
105.1477
20
80.9145
30
0.0
0
VERTEX
8
STEMPEL
10
105.1477
20
93.1610
30
0.0
0
VERTEX
8
STEMPEL
10
96.8776
20
93.1610
30
0.0
0
SEQEND
0
POLYLINE
8
STEMPEL
66
1
70
1
0
VERTEX
8
STEMPEL
10
121.6878
20
90.0994
30
0.0
0
VERTEX
8
STEMPEL
10
129.9578
20
90.0994
30
0.0
0
VERTEX
8
STEMPEL
10
129.9578
20
93.1610
30
0.0
0
VERTEX
8
STEMPEL
10
121.6878
20
93.1610
30
0.0
0
SEQEND
0
POLYLINE
8
STEMPEL
66
1
70
1
0
VERTEX
8
STEMPEL
10
134.0928
20
90.0994
30
0.0
0
VERTEX
8
STEMPEL
10
137.6371
20
90.0994
30
0.0
0
VERTEX
8
STEMPEL
10
137.6371
20
93.1610
30
0.0
0
VERTEX
8
STEMPEL
10
134.0928
20
93.1610
30
0.0
0
SEQEND
0
POLYLINE
8
STEMPEL
66
1
70
1
0
VERTEX
8
STEMPEL
10
2.3629
20
87.0378
30
0.0
0
VERTEX
8
STEMPEL
10
5.9072
20
87.0378
30
0.0
0
VERTEX
8
STEMPEL
10
5.9072
20
90.0994
30
0.0
0
VERTEX
8
STEMPEL
10
2.3629
20
90.0994
30
0.0
0
SEQEND
0
POLYLINE
8
STEMPEL
66
1
70
1
0
VERTEX
8
STEMPEL
10
109.2827
20
87.0378
30
0.0
0
VERTEX
8
STEMPEL
10
125.8228
20
87.0378
30
0.0
0
VERTEX
8
STEMPEL
10
125.8228
20
90.0994
30
0.0
0
VERTEX
8
STEMPEL
10
109.2827
20
90.0994
30
0.0
0
SEQEND
0
POLYLINE
8
STEMPEL
66
1
70
1
0
VERTEX
8
STEMPEL
10
109.2827
20
77.8529
30
0.0
0
VERTEX
8
STEMPEL
10
113.4177
20
77.8529
30
0.0
0
VERTEX
8
STEMPEL
10
113.4177
20
87.0378
30
0.0
0
VERTEX
8
STEMPEL
10
109.2827
20
87.0378
30
0.0
0
SEQEND
0
POLYLINE
8
STEMPEL
66
1
70
1
0
VERTEX
8
STEMPEL
10
117.5527
20
83.9761
30
0.0
0
VERTEX
8
STEMPEL
10
129.9578
20
83.9761
30
0.0
0
VERTEX
8
STEMPEL
10
129.9578
20
87.0378
30
0.0
0
VERTEX
8
STEMPEL
10
117.5527
20
87.0378
30
0.0
0
SEQEND
0
POLYLINE
8
STEMPEL
66
1
70
1
0
VERTEX
8
STEMPEL
10
2.3629
20
80.9145
30
0.0
0
VERTEX
8
STEMPEL
10
10.0422
20
80.9145
30
0.0
0
VERTEX
8
STEMPEL
10
10.0422
20
83.9761
30
0.0
0
VERTEX
8
STEMPEL
10
2.3629
20
83.9761
30
0.0
0
SEQEND
0
POLYLINE
8
STEMPEL
66
1
70
1
0
VERTEX
8
STEMPEL
10
14.1772
20
80.9145
30
0.0
0
VERTEX
8
STEMPEL
10
38.9873
20
80.9145
30
0.0
0
VERTEX
8
STEMPEL
10
38.9873
20
83.9761
30
0.0
0
VERTEX
8
STEMPEL
10
14.1772
20
83.9761
30
0.0
0
SEQEND
0
POLYLINE
8
STEMPEL
66
1
70
1
0
VERTEX
8
STEMPEL
10
43.1224
20
80.9145
30
0.0
0
VERTEX
8
STEMPEL
10
67.9325
20
80.9145
30
0.0
0
VERTEX
8
STEMPEL
10
67.9325
20
83.9761
30
0.0
0
VERTEX
8
STEMPEL
10
43.1224
20
83.9761
30
0.0
0
SEQEND
0
POLYLINE
8
STEMPEL
66
1
70
1
0
VERTEX
8
STEMPEL
10
121.6878
20
77.8529
30
0.0
0
VERTEX
8
STEMPEL
10
125.8228
20
77.8529
30
0.0
0
VERTEX
8
STEMPEL
10
125.8228
20
83.9761
30
0.0
0
VERTEX
8
STEMPEL
10
121.6878
20
83.9761
30
0.0
0
SEQEND
0
POLYLINE
8
STEMPEL
66
1
70
1
0
VERTEX
8
STEMPEL
10
63.7975
20
56.4215
30
0.0
0
VERTEX
8
STEMPEL
10
67.9325
20
56.4215
30
0.0
0
VERTEX
8
STEMPEL
10
67.9325
20
80.9145
30
0.0
0
VERTEX
8
STEMPEL
10
63.7975
20
80.9145
30
0.0
0
SEQEND
0
POLYLINE
8
STEMPEL
66
1
70
1
0
VERTEX
8
STEMPEL
10
92.7426
20
77.8529
30
0.0
0
VERTEX
8
STEMPEL
10
101.0127
20
77.8529
30
0.0
0
VERTEX
8
STEMPEL
10
101.0127
20
80.9145
30
0.0
0
VERTEX
8
STEMPEL
10
92.7426
20
80.9145
30
0.0
0
SEQEND
0
POLYLINE
8
STEMPEL
66
1
70
1
0
VERTEX
8
STEMPEL
10
113.4177
20
77.8529
30
0.0
0
VERTEX
8
STEMPEL
10
121.6878
20
77.8529
30
0.0
0
VERTEX
8
STEMPEL
10
121.6878
20
80.9145
30
0.0
0
VERTEX
8
STEMPEL
10
113.4177
20
80.9145
30
0.0
0
SEQEND
0
POLYLINE
8
STEMPEL
66
1
70
1
0
VERTEX
8
STEMPEL
10
125.8228
20
77.8529
30
0.0
0
VERTEX
8
STEMPEL
10
137.6371
20
77.8529
30
0.0
0
VERTEX
8
STEMPEL
10
137.6371
20
80.9145
30
0.0
0
VERTEX
8
STEMPEL
10
125.8228
20
80.9145
30
0.0
0
SEQEND
0
POLYLINE
8
STEMPEL
66
1
70
1
0
VERTEX
8
STEMPEL
10
2.3629
20
74.7913
30
0.0
0
VERTEX
8
STEMPEL
10
5.9072
20
74.7913
30
0.0
0
VERTEX
8
STEMPEL
10
5.9072
20
77.8529
30
0.0
0
VERTEX
8
STEMPEL
10
2.3629
20
77.8529
30
0.0
0
SEQEND
0
POLYLINE
8
STEMPEL
66
1
70
1
0
VERTEX
8
STEMPEL
10
10.0422
20
71.7296
30
0.0
0
VERTEX
8
STEMPEL
10
14.1772
20
71.7296
30
0.0
0
VERTEX
8
STEMPEL
10
14.1772
20
77.8529
30
0.0
0
VERTEX
8
STEMPEL
10
10.0422
20
77.8529
30
0.0
0
SEQEND
0
POLYLINE
8
STEMPEL
66
1
70
1
0
VERTEX
8
STEMPEL
10
38.9873
20
65.6064
30
0.0
0
VERTEX
8
STEMPEL
10
43.1224
20
65.6064
30
0.0
0
VERTEX
8
STEMPEL
10
43.1224
20
77.8529
30
0.0
0
VERTEX
8
STEMPEL
10
38.9873
20
77.8529
30
0.0
0
SEQEND
0
POLYLINE
8
STEMPEL
66
1
70
1
0
VERTEX
8
STEMPEL
10
5.9072
20
71.7296
30
0.0
0
VERTEX
8
STEMPEL
10
10.0422
20
71.7296
30
0.0
0
VERTEX
8
STEMPEL
10
10.0422
20
74.7913
30
0.0
0
VERTEX
8
STEMPEL
10
5.9072
20
74.7913
30
0.0
0
SEQEND
0
POLYLINE
8
STEMPEL
66
1
70
1
0
VERTEX
8
STEMPEL
10
14.1772
20
71.7296
30
0.0
0
VERTEX
8
STEMPEL
10
38.9873
20
71.7296
30
0.0
0
VERTEX
8
STEMPEL
10
38.9873
20
74.7913
30
0.0
0
VERTEX
8
STEMPEL
10
14.1772
20
74.7913
30
0.0
0
SEQEND
0
POLYLINE
8
STEMPEL
66
1
70
1
0
VERTEX
8
STEMPEL
10
43.1224
20
71.7296
30
0.0
0
VERTEX
8
STEMPEL
10
59.6624
20
71.7296
30
0.0
0
VERTEX
8
STEMPEL
10
59.6624
20
74.7913
30
0.0
0
VERTEX
8
STEMPEL
10
43.1224
20
74.7913
30
0.0
0
SEQEND
0
POLYLINE
8
STEMPEL
66
1
70
1
0
VERTEX
8
STEMPEL
10
80.3376
20
71.7296
30
0.0
0
VERTEX
8
STEMPEL
10
137.6371
20
71.7296
30
0.0
0
VERTEX
8
STEMPEL
10
137.6371
20
74.7913
30
0.0
0
VERTEX
8
STEMPEL
10
80.3376
20
74.7913
30
0.0
0
SEQEND
0
POLYLINE
8
STEMPEL
66
1
70
1
0
VERTEX
8
STEMPEL
10
55.5274
20
65.6064
30
0.0
0
VERTEX
8
STEMPEL
10
59.6624
20
65.6064
30
0.0
0
VERTEX
8
STEMPEL
10
59.6624
20
71.7296
30
0.0
0
VERTEX
8
STEMPEL
10
55.5274
20
71.7296
30
0.0
0
SEQEND
0
POLYLINE
8
STEMPEL
66
1
70
1
0
VERTEX
8
STEMPEL
10
80.3376
20
62.5447
30
0.0
0
VERTEX
8
STEMPEL
10
84.4726
20
62.5447
30
0.0
0
VERTEX
8
STEMPEL
10
84.4726
20
71.7296
30
0.0
0
VERTEX
8
STEMPEL
10
80.3376
20
71.7296
30
0.0
0
SEQEND
0
POLYLINE
8
STEMPEL
66
1
70
1
0
VERTEX
8
STEMPEL
10
2.3629
20
65.6064
30
0.0
0
VERTEX
8
STEMPEL
10
38.9873
20
65.6064
30
0.0
0
VERTEX
8
STEMPEL
10
38.9873
20
68.6680
30
0.0
0
VERTEX
8
STEMPEL
10
2.3629
20
68.6680
30
0.0
0
SEQEND
0
POLYLINE
8
STEMPEL
66
1
70
1
0
VERTEX
8
STEMPEL
10
43.1224
20
65.6064
30
0.0
0
VERTEX
8
STEMPEL
10
51.3924
20
65.6064
30
0.0
0
VERTEX
8
STEMPEL
10
51.3924
20
68.6680
30
0.0
0
VERTEX
8
STEMPEL
10
43.1224
20
68.6680
30
0.0
0
SEQEND
0
POLYLINE
8
STEMPEL
66
1
70
1
0
VERTEX
8
STEMPEL
10
88.6076
20
62.5447
30
0.0
0
VERTEX
8
STEMPEL
10
96.8776
20
62.5447
30
0.0
0
VERTEX
8
STEMPEL
10
96.8776
20
68.6680
30
0.0
0
VERTEX
8
STEMPEL
10
88.6076
20
68.6680
30
0.0
0
SEQEND
0
POLYLINE
8
STEMPEL
66
1
70
1
0
VERTEX
8
STEMPEL
10
105.1477
20
62.5447
30
0.0
0
VERTEX
8
STEMPEL
10
109.2827
20
62.5447
30
0.0
0
VERTEX
8
STEMPEL
10
109.2827
20
68.6680
30
0.0
0
VERTEX
8
STEMPEL
10
105.1477
20
68.6680
30
0.0
0
SEQEND
0
POLYLINE
8
STEMPEL
66
1
70
1
0
VERTEX
8
STEMPEL
10
134.0928
20
50.2982
30
0.0
0
VERTEX
8
STEMPEL
10
137.6371
20
50.2982
30
0.0
0
VERTEX
8
STEMPEL
10
137.6371
20
68.6680
30
0.0
0
VERTEX
8
STEMPEL
10
134.0928
20
68.6680
30
0.0
0
SEQEND
0
POLYLINE
8
STEMPEL
66
1
70
1
0
VERTEX
8
STEMPEL
10
2.3629
20
53.3598
30
0.0
0
VERTEX
8
STEMPEL
10
5.9072
20
53.3598
30
0.0
0
VERTEX
8
STEMPEL
10
5.9072
20
65.6064
30
0.0
0
VERTEX
8
STEMPEL
10
2.3629
20
65.6064
30
0.0
0
SEQEND
0
POLYLINE
8
STEMPEL
66
1
70
1
0
VERTEX
8
STEMPEL
10
10.0422
20
59.4831
30
0.0
0
VERTEX
8
STEMPEL
10
14.1772
20
59.4831
30
0.0
0
VERTEX
8
STEMPEL
10
14.1772
20
65.6064
30
0.0
0
VERTEX
8
STEMPEL
10
10.0422
20
65.6064
30
0.0
0
SEQEND
0
POLYLINE
8
STEMPEL
66
1
70
1
0
VERTEX
8
STEMPEL
10
18.3122
20
53.3598
30
0.0
0
VERTEX
8
STEMPEL
10
22.4473
20
53.3598
30
0.0
0
VERTEX
8
STEMPEL
10
22.4473
20
65.6064
30
0.0
0
VERTEX
8
STEMPEL
10
18.3122
20
65.6064
30
0.0
0
SEQEND
0
POLYLINE
8
STEMPEL
66
1
70
1
0
VERTEX
8
STEMPEL
10
96.8776
20
62.5447
30
0.0
0
VERTEX
8
STEMPEL
10
105.1477
20
62.5447
30
0.0
0
VERTEX
8
STEMPEL
10
105.1477
20
65.6064
30
0.0
0
VERTEX
8
STEMPEL
10
96.8776
20
65.6064
30
0.0
0
SEQEND
0
POLYLINE
8
STEMPEL
66
1
70
1
0
VERTEX
8
STEMPEL
10
109.2827
20
62.5447
30
0.0
0
VERTEX
8
STEMPEL
10
129.9578
20
62.5447
30
0.0
0
VERTEX
8
STEMPEL
10
129.9578
20
65.6064
30
0.0
0
VERTEX
8
STEMPEL
10
109.2827
20
65.6064
30
0.0
0
SEQEND
0
POLYLINE
8
STEMPEL
66
1
70
1
0
VERTEX
8
STEMPEL
10
14.1772
20
59.4831
30
0.0
0
VERTEX
8
STEMPEL
10
18.3122
20
59.4831
30
0.0
0
VERTEX
8
STEMPEL
10
18.3122
20
62.5447
30
0.0
0
VERTEX
8
STEMPEL
10
14.1772
20
62.5447
30
0.0
0
SEQEND
0
POLYLINE
8
STEMPEL
66
1
70
1
0
VERTEX
8
STEMPEL
10
26.5823
20
59.4831
30
0.0
0
VERTEX
8
STEMPEL
10
59.6624
20
59.4831
30
0.0
0
VERTEX
8
STEMPEL
10
59.6624
20
62.5447
30
0.0
0
VERTEX
8
STEMPEL
10
26.5823
20
62.5447
30
0.0
0
SEQEND
0
POLYLINE
8
STEMPEL
66
1
70
1
0
VERTEX
8
STEMPEL
10
125.8228
20
22.7435
30
0.0
0
VERTEX
8
STEMPEL
10
129.9578
20
22.7435
30
0.0
0
VERTEX
8
STEMPEL
10
129.9578
20
62.5447
30
0.0
0
VERTEX
8
STEMPEL
10
125.8228
20
62.5447
30
0.0
0
SEQEND
0
POLYLINE
8
STEMPEL
66
1
70
1
0
VERTEX
8
STEMPEL
10
51.3924
20
44.1750
30
0.0
0
VERTEX
8
STEMPEL
10
55.5274
20
44.1750
30
0.0
0
VERTEX
8
STEMPEL
10
55.5274
20
59.4831
30
0.0
0
VERTEX
8
STEMPEL
10
51.3924
20
59.4831
30
0.0
0
SEQEND
0
POLYLINE
8
STEMPEL
66
1
70
1
0
VERTEX
8
STEMPEL
10
76.2025
20
56.4215
30
0.0
0
VERTEX
8
STEMPEL
10
121.6878
20
56.4215
30
0.0
0
VERTEX
8
STEMPEL
10
121.6878
20
59.4831
30
0.0
0
VERTEX
8
STEMPEL
10
76.2025
20
59.4831
30
0.0
0
SEQEND
0
POLYLINE
8
STEMPEL
66
1
70
1
0
VERTEX
8
STEMPEL
10
5.9072
20
53.3598
30
0.0
0
VERTEX
8
STEMPEL
10
18.3122
20
53.3598
30
0.0
0
VERTEX
8
STEMPEL
10
18.3122
20
56.4215
30
0.0
0
VERTEX
8
STEMPEL
10
5.9072
20
56.4215
30
0.0
0
SEQEND
0
POLYLINE
8
STEMPEL
66
1
70
1
0
VERTEX
8
STEMPEL
10
22.4473
20
53.3598
30
0.0
0
VERTEX
8
STEMPEL
10
47.2574
20
53.3598
30
0.0
0
VERTEX
8
STEMPEL
10
47.2574
20
56.4215
30
0.0
0
VERTEX
8
STEMPEL
10
22.4473
20
56.4215
30
0.0
0
SEQEND
0
POLYLINE
8
STEMPEL
66
1
70
1
0
VERTEX
8
STEMPEL
10
43.1224
20
38.0517
30
0.0
0
VERTEX
8
STEMPEL
10
47.2574
20
38.0517
30
0.0
0
VERTEX
8
STEMPEL
10
47.2574
20
53.3598
30
0.0
0
VERTEX
8
STEMPEL
10
43.1224
20
53.3598
30
0.0
0
SEQEND
0
POLYLINE
8
STEMPEL
66
1
70
1
0
VERTEX
8
STEMPEL
10
55.5274
20
50.2982
30
0.0
0
VERTEX
8
STEMPEL
10
72.0675
20
50.2982
30
0.0
0
VERTEX
8
STEMPEL
10
72.0675
20
53.3598
30
0.0
0
VERTEX
8
STEMPEL
10
55.5274
20
53.3598
30
0.0
0
SEQEND
0
POLYLINE
8
STEMPEL
66
1
70
1
0
VERTEX
8
STEMPEL
10
76.2025
20
50.2982
30
0.0
0
VERTEX
8
STEMPEL
10
121.6878
20
50.2982
30
0.0
0
VERTEX
8
STEMPEL
10
121.6878
20
53.3598
30
0.0
0
VERTEX
8
STEMPEL
10
76.2025
20
53.3598
30
0.0
0
SEQEND
0
POLYLINE
8
STEMPEL
66
1
70
1
0
VERTEX
8
STEMPEL
10
2.3629
20
47.2366
30
0.0
0
VERTEX
8
STEMPEL
10
34.8523
20
47.2366
30
0.0
0
VERTEX
8
STEMPEL
10
34.8523
20
50.2982
30
0.0
0
VERTEX
8
STEMPEL
10
2.3629
20
50.2982
30
0.0
0
SEQEND
0
POLYLINE
8
STEMPEL
66
1
70
1
0
VERTEX
8
STEMPEL
10
117.5527
20
7.4354
30
0.0
0
VERTEX
8
STEMPEL
10
121.6878
20
7.4354
30
0.0
0
VERTEX
8
STEMPEL
10
121.6878
20
50.2982
30
0.0
0
VERTEX
8
STEMPEL
10
117.5527
20
50.2982
30
0.0
0
SEQEND
0
POLYLINE
8
STEMPEL
66
1
70
1
0
VERTEX
8
STEMPEL
10
34.8523
20
44.1750
30
0.0
0
VERTEX
8
STEMPEL
10
43.1224
20
44.1750
30
0.0
0
VERTEX
8
STEMPEL
10
43.1224
20
47.2366
30
0.0
0
VERTEX
8
STEMPEL
10
34.8523
20
47.2366
30
0.0
0
SEQEND
0
POLYLINE
8
STEMPEL
66
1
70
1
0
VERTEX
8
STEMPEL
10
55.5274
20
44.1750
30
0.0
0
VERTEX
8
STEMPEL
10
84.4726
20
44.1750
30
0.0
0
VERTEX
8
STEMPEL
10
84.4726
20
47.2366
30
0.0
0
VERTEX
8
STEMPEL
10
55.5274
20
47.2366
30
0.0
0
SEQEND
0
POLYLINE
8
STEMPEL
66
1
70
1
0
VERTEX
8
STEMPEL
10
88.6076
20
44.1750
30
0.0
0
VERTEX
8
STEMPEL
10
117.5527
20
44.1750
30
0.0
0
VERTEX
8
STEMPEL
10
117.5527
20
47.2366
30
0.0
0
VERTEX
8
STEMPEL
10
88.6076
20
47.2366
30
0.0
0
SEQEND
0
POLYLINE
8
STEMPEL
66
1
70
1
0
VERTEX
8
STEMPEL
10
18.3122
20
25.8052
30
0.0
0
VERTEX
8
STEMPEL
10
22.4473
20
25.8052
30
0.0
0
VERTEX
8
STEMPEL
10
22.4473
20
44.1750
30
0.0
0
VERTEX
8
STEMPEL
10
18.3122
20
44.1750
30
0.0
0
SEQEND
0
POLYLINE
8
STEMPEL
66
1
70
1
0
VERTEX
8
STEMPEL
10
80.3376
20
38.0517
30
0.0
0
VERTEX
8
STEMPEL
10
84.4726
20
38.0517
30
0.0
0
VERTEX
8
STEMPEL
10
84.4726
20
44.1750
30
0.0
0
VERTEX
8
STEMPEL
10
80.3376
20
44.1750
30
0.0
0
SEQEND
0
POLYLINE
8
STEMPEL
66
1
70
1
0
VERTEX
8
STEMPEL
10
88.6076
20
38.0517
30
0.0
0
VERTEX
8
STEMPEL
10
92.7426
20
38.0517
30
0.0
0
VERTEX
8
STEMPEL
10
92.7426
20
44.1750
30
0.0
0
VERTEX
8
STEMPEL
10
88.6076
20
44.1750
30
0.0
0
SEQEND
0
POLYLINE
8
STEMPEL
66
1
70
1
0
VERTEX
8
STEMPEL
10
134.0928
20
16.6203
30
0.0
0
VERTEX
8
STEMPEL
10
137.6371
20
16.6203
30
0.0
0
VERTEX
8
STEMPEL
10
137.6371
20
44.1750
30
0.0
0
VERTEX
8
STEMPEL
10
134.0928
20
44.1750
30
0.0
0
SEQEND
0
POLYLINE
8
STEMPEL
66
1
70
1
0
VERTEX
8
STEMPEL
10
2.3629
20
34.9901
30
0.0
0
VERTEX
8
STEMPEL
10
5.9072
20
34.9901
30
0.0
0
VERTEX
8
STEMPEL
10
5.9072
20
41.1133
30
0.0
0
VERTEX
8
STEMPEL
10
2.3629
20
41.1133
30
0.0
0
SEQEND
0
POLYLINE
8
STEMPEL
66
1
70
1
0
VERTEX
8
STEMPEL
10
22.4473
20
38.0517
30
0.0
0
VERTEX
8
STEMPEL
10
43.1224
20
38.0517
30
0.0
0
VERTEX
8
STEMPEL
10
43.1224
20
41.1133
30
0.0
0
VERTEX
8
STEMPEL
10
22.4473
20
41.1133
30
0.0
0
SEQEND
0
POLYLINE
8
STEMPEL
66
1
70
1
0
VERTEX
8
STEMPEL
10
51.3924
20
38.0517
30
0.0
0
VERTEX
8
STEMPEL
10
80.3376
20
38.0517
30
0.0
0
VERTEX
8
STEMPEL
10
80.3376
20
41.1133
30
0.0
0
VERTEX
8
STEMPEL
10
51.3924
20
41.1133
30
0.0
0
SEQEND
0
POLYLINE
8
STEMPEL
66
1
70
1
0
VERTEX
8
STEMPEL
10
96.8776
20
34.9901
30
0.0
0
VERTEX
8
STEMPEL
10
101.0127
20
34.9901
30
0.0
0
VERTEX
8
STEMPEL
10
101.0127
20
41.1133
30
0.0
0
VERTEX
8
STEMPEL
10
96.8776
20
41.1133
30
0.0
0
SEQEND
0
POLYLINE
8
STEMPEL
66
1
70
1
0
VERTEX
8
STEMPEL
10
51.3924
20
0.2187
30
0.0
0
VERTEX
8
STEMPEL
10
55.5274
20
0.2187
30
0.0
0
VERTEX
8
STEMPEL
10
55.5274
20
38.0517
30
0.0
0
VERTEX
8
STEMPEL
10
51.3924
20
38.0517
30
0.0
0
SEQEND
0
POLYLINE
8
STEMPEL
66
1
70
1
0
VERTEX
8
STEMPEL
10
67.9325
20
31.9284
30
0.0
0
VERTEX
8
STEMPEL
10
76.2025
20
31.9284
30
0.0
0
VERTEX
8
STEMPEL
10
76.2025
20
38.0517
30
0.0
0
VERTEX
8
STEMPEL
10
67.9325
20
38.0517
30
0.0
0
SEQEND
0
POLYLINE
8
STEMPEL
66
1
70
1
0
VERTEX
8
STEMPEL
10
101.0127
20
34.9901
30
0.0
0
VERTEX
8
STEMPEL
10
113.4177
20
34.9901
30
0.0
0
VERTEX
8
STEMPEL
10
113.4177
20
38.0517
30
0.0
0
VERTEX
8
STEMPEL
10
101.0127
20
38.0517
30
0.0
0
SEQEND
0
POLYLINE
8
STEMPEL
66
1
70
1
0
VERTEX
8
STEMPEL
10
43.1224
20
0.2187
30
0.0
0
VERTEX
8
STEMPEL
10
47.2574
20
0.2187
30
0.0
0
VERTEX
8
STEMPEL
10
47.2574
20
34.9901
30
0.0
0
VERTEX
8
STEMPEL
10
43.1224
20
34.9901
30
0.0
0
SEQEND
0
POLYLINE
8
STEMPEL
66
1
70
1
0
VERTEX
8
STEMPEL
10
63.7975
20
7.4354
30
0.0
0
VERTEX
8
STEMPEL
10
67.9325
20
7.4354
30
0.0
0
VERTEX
8
STEMPEL
10
67.9325
20
34.9901
30
0.0
0
VERTEX
8
STEMPEL
10
63.7975
20
34.9901
30
0.0
0
SEQEND
0
POLYLINE
8
STEMPEL
66
1
70
1
0
VERTEX
8
STEMPEL
10
80.3376
20
31.9284
30
0.0
0
VERTEX
8
STEMPEL
10
92.7426
20
31.9284
30
0.0
0
VERTEX
8
STEMPEL
10
92.7426
20
34.9901
30
0.0
0
VERTEX
8
STEMPEL
10
80.3376
20
34.9901
30
0.0
0
SEQEND
0
POLYLINE
8
STEMPEL
66
1
70
1
0
VERTEX
8
STEMPEL
10
101.0127
20
28.8668
30
0.0
0
VERTEX
8
STEMPEL
10
105.1477
20
28.8668
30
0.0
0
VERTEX
8
STEMPEL
10
105.1477
20
34.9901
30
0.0
0
VERTEX
8
STEMPEL
10
101.0127
20
34.9901
30
0.0
0
SEQEND
0
POLYLINE
8
STEMPEL
66
1
70
1
0
VERTEX
8
STEMPEL
10
109.2827
20
22.7435
30
0.0
0
VERTEX
8
STEMPEL
10
113.4177
20
22.7435
30
0.0
0
VERTEX
8
STEMPEL
10
113.4177
20
34.9901
30
0.0
0
VERTEX
8
STEMPEL
10
109.2827
20
34.9901
30
0.0
0
SEQEND
0
POLYLINE
8
STEMPEL
66
1
70
1
0
VERTEX
8
STEMPEL
10
2.3629
20
28.8668
30
0.0
0
VERTEX
8
STEMPEL
10
5.9072
20
28.8668
30
0.0
0
VERTEX
8
STEMPEL
10
5.9072
20
31.9284
30
0.0
0
VERTEX
8
STEMPEL
10
2.3629
20
31.9284
30
0.0
0
SEQEND
0
POLYLINE
8
STEMPEL
66
1
70
1
0
VERTEX
8
STEMPEL
10
72.0675
20
0.2187
30
0.0
0
VERTEX
8
STEMPEL
10
76.2025
20
0.2187
30
0.0
0
VERTEX
8
STEMPEL
10
76.2025
20
31.9284
30
0.0
0
VERTEX
8
STEMPEL
10
72.0675
20
31.9284
30
0.0
0
SEQEND
0
POLYLINE
8
STEMPEL
66
1
70
1
0
VERTEX
8
STEMPEL
10
80.3376
20
19.6819
30
0.0
0
VERTEX
8
STEMPEL
10
84.4726
20
19.6819
30
0.0
0
VERTEX
8
STEMPEL
10
84.4726
20
31.9284
30
0.0
0
VERTEX
8
STEMPEL
10
80.3376
20
31.9284
30
0.0
0
SEQEND
0
POLYLINE
8
STEMPEL
66
1
70
1
0
VERTEX
8
STEMPEL
10
88.6076
20
28.8668
30
0.0
0
VERTEX
8
STEMPEL
10
101.0127
20
28.8668
30
0.0
0
VERTEX
8
STEMPEL
10
101.0127
20
31.9284
30
0.0
0
VERTEX
8
STEMPEL
10
88.6076
20
31.9284
30
0.0
0
SEQEND
0
POLYLINE
8
STEMPEL
66
1
70
1
0
VERTEX
8
STEMPEL
10
22.4473
20
25.8052
30
0.0
0
VERTEX
8
STEMPEL
10
38.9873
20
25.8052
30
0.0
0
VERTEX
8
STEMPEL
10
38.9873
20
28.8668
30
0.0
0
VERTEX
8
STEMPEL
10
22.4473
20
28.8668
30
0.0
0
SEQEND
0
POLYLINE
8
STEMPEL
66
1
70
1
0
VERTEX
8
STEMPEL
10
76.2025
20
19.6819
30
0.0
0
VERTEX
8
STEMPEL
10
80.3376
20
19.6819
30
0.0
0
VERTEX
8
STEMPEL
10
80.3376
20
28.8668
30
0.0
0
VERTEX
8
STEMPEL
10
76.2025
20
28.8668
30
0.0
0
SEQEND
0
POLYLINE
8
STEMPEL
66
1
70
1
0
VERTEX
8
STEMPEL
10
88.6076
20
22.7435
30
0.0
0
VERTEX
8
STEMPEL
10
92.7426
20
22.7435
30
0.0
0
VERTEX
8
STEMPEL
10
92.7426
20
28.8668
30
0.0
0
VERTEX
8
STEMPEL
10
88.6076
20
28.8668
30
0.0
0
SEQEND
0
POLYLINE
8
STEMPEL
66
1
70
1
0
VERTEX
8
STEMPEL
10
59.6624
20
19.6819
30
0.0
0
VERTEX
8
STEMPEL
10
63.7975
20
19.6819
30
0.0
0
VERTEX
8
STEMPEL
10
63.7975
20
25.8052
30
0.0
0
VERTEX
8
STEMPEL
10
59.6624
20
25.8052
30
0.0
0
SEQEND
0
POLYLINE
8
STEMPEL
66
1
70
1
0
VERTEX
8
STEMPEL
10
92.7426
20
22.7435
30
0.0
0
VERTEX
8
STEMPEL
10
109.2827
20
22.7435
30
0.0
0
VERTEX
8
STEMPEL
10
109.2827
20
25.8052
30
0.0
0
VERTEX
8
STEMPEL
10
92.7426
20
25.8052
30
0.0
0
SEQEND
0
POLYLINE
8
STEMPEL
66
1
70
1
0
VERTEX
8
STEMPEL
10
121.6878
20
22.7435
30
0.0
0
VERTEX
8
STEMPEL
10
125.8228
20
22.7435
30
0.0
0
VERTEX
8
STEMPEL
10
125.8228
20
25.8052
30
0.0
0
VERTEX
8
STEMPEL
10
121.6878
20
25.8052
30
0.0
0
SEQEND
0
POLYLINE
8
STEMPEL
66
1
70
1
0
VERTEX
8
STEMPEL
10
18.3122
20
19.6819
30
0.0
0
VERTEX
8
STEMPEL
10
38.9873
20
19.6819
30
0.0
0
VERTEX
8
STEMPEL
10
38.9873
20
22.7435
30
0.0
0
VERTEX
8
STEMPEL
10
18.3122
20
22.7435
30
0.0
0
SEQEND
0
POLYLINE
8
STEMPEL
66
1
70
1
0
VERTEX
8
STEMPEL
10
2.3629
20
16.6203
30
0.0
0
VERTEX
8
STEMPEL
10
18.3122
20
16.6203
30
0.0
0
VERTEX
8
STEMPEL
10
18.3122
20
19.6819
30
0.0
0
VERTEX
8
STEMPEL
10
2.3629
20
19.6819
30
0.0
0
SEQEND
0
POLYLINE
8
STEMPEL
66
1
70
1
0
VERTEX
8
STEMPEL
10
34.8523
20
10.4970
30
0.0
0
VERTEX
8
STEMPEL
10
38.9873
20
10.4970
30
0.0
0
VERTEX
8
STEMPEL
10
38.9873
20
19.6819
30
0.0
0
VERTEX
8
STEMPEL
10
34.8523
20
19.6819
30
0.0
0
SEQEND
0
POLYLINE
8
STEMPEL
66
1
70
1
0
VERTEX
8
STEMPEL
10
84.4726
20
16.6203
30
0.0
0
VERTEX
8
STEMPEL
10
113.4177
20
16.6203
30
0.0
0
VERTEX
8
STEMPEL
10
113.4177
20
19.6819
30
0.0
0
VERTEX
8
STEMPEL
10
84.4726
20
19.6819
30
0.0
0
SEQEND
0
POLYLINE
8
STEMPEL
66
1
70
1
0
VERTEX
8
STEMPEL
10
121.6878
20
16.6203
30
0.0
0
VERTEX
8
STEMPEL
10
134.0928
20
16.6203
30
0.0
0
VERTEX
8
STEMPEL
10
134.0928
20
19.6819
30
0.0
0
VERTEX
8
STEMPEL
10
121.6878
20
19.6819
30
0.0
0
SEQEND
0
POLYLINE
8
STEMPEL
66
1
70
1
0
VERTEX
8
STEMPEL
10
22.4473
20
10.4970
30
0.0
0
VERTEX
8
STEMPEL
10
30.7173
20
10.4970
30
0.0
0
VERTEX
8
STEMPEL
10
30.7173
20
16.6203
30
0.0
0
VERTEX
8
STEMPEL
10
22.4473
20
16.6203
30
0.0
0
SEQEND
0
POLYLINE
8
STEMPEL
66
1
70
1
0
VERTEX
8
STEMPEL
10
55.5274
20
13.5586
30
0.0
0
VERTEX
8
STEMPEL
10
63.7975
20
13.5586
30
0.0
0
VERTEX
8
STEMPEL
10
63.7975
20
16.6203
30
0.0
0
VERTEX
8
STEMPEL
10
55.5274
20
16.6203
30
0.0
0
SEQEND
0
POLYLINE
8
STEMPEL
66
1
70
1
0
VERTEX
8
STEMPEL
10
80.3376
20
7.4354
30
0.0
0
VERTEX
8
STEMPEL
10
88.6076
20
7.4354
30
0.0
0
VERTEX
8
STEMPEL
10
88.6076
20
16.6203
30
0.0
0
VERTEX
8
STEMPEL
10
80.3376
20
16.6203
30
0.0
0
SEQEND
0
POLYLINE
8
STEMPEL
66
1
70
1
0
VERTEX
8
STEMPEL
10
92.7426
20
0.2187
30
0.0
0
VERTEX
8
STEMPEL
10
96.8776
20
0.2187
30
0.0
0
VERTEX
8
STEMPEL
10
96.8776
20
16.6203
30
0.0
0
VERTEX
8
STEMPEL
10
92.7426
20
16.6203
30
0.0
0
SEQEND
0
POLYLINE
8
STEMPEL
66
1
70
1
0
VERTEX
8
STEMPEL
10
105.1477
20
7.4354
30
0.0
0
VERTEX
8
STEMPEL
10
109.2827
20
7.4354
30
0.0
0
VERTEX
8
STEMPEL
10
109.2827
20
16.6203
30
0.0
0
VERTEX
8
STEMPEL
10
105.1477
20
16.6203
30
0.0
0
SEQEND
0
POLYLINE
8
STEMPEL
66
1
70
1
0
VERTEX
8
STEMPEL
10
2.3629
20
10.4970
30
0.0
0
VERTEX
8
STEMPEL
10
22.4473
20
10.4970
30
0.0
0
VERTEX
8
STEMPEL
10
22.4473
20
13.5586
30
0.0
0
VERTEX
8
STEMPEL
10
2.3629
20
13.5586
30
0.0
0
SEQEND
0
POLYLINE
8
STEMPEL
66
1
70
1
0
VERTEX
8
STEMPEL
10
30.7173
20
10.4970
30
0.0
0
VERTEX
8
STEMPEL
10
34.8523
20
10.4970
30
0.0
0
VERTEX
8
STEMPEL
10
34.8523
20
13.5586
30
0.0
0
VERTEX
8
STEMPEL
10
30.7173
20
13.5586
30
0.0
0
SEQEND
0
POLYLINE
8
STEMPEL
66
1
70
1
0
VERTEX
8
STEMPEL
10
67.9325
20
7.4354
30
0.0
0
VERTEX
8
STEMPEL
10
72.0675
20
7.4354
30
0.0
0
VERTEX
8
STEMPEL
10
72.0675
20
13.5586
30
0.0
0
VERTEX
8
STEMPEL
10
67.9325
20
13.5586
30
0.0
0
SEQEND
0
POLYLINE
8
STEMPEL
66
1
70
1
0
VERTEX
8
STEMPEL
10
113.4177
20
7.4354
30
0.0
0
VERTEX
8
STEMPEL
10
117.5527
20
7.4354
30
0.0
0
VERTEX
8
STEMPEL
10
117.5527
20
13.5586
30
0.0
0
VERTEX
8
STEMPEL
10
113.4177
20
13.5586
30
0.0
0
SEQEND
0
POLYLINE
8
STEMPEL
66
1
70
1
0
VERTEX
8
STEMPEL
10
121.6878
20
7.4354
30
0.0
0
VERTEX
8
STEMPEL
10
137.6371
20
7.4354
30
0.0
0
VERTEX
8
STEMPEL
10
137.6371
20
13.5586
30
0.0
0
VERTEX
8
STEMPEL
10
121.6878
20
13.5586
30
0.0
0
SEQEND
0
POLYLINE
8
STEMPEL
66
1
70
1
0
VERTEX
8
STEMPEL
10
59.6624
20
7.4354
30
0.0
0
VERTEX
8
STEMPEL
10
63.7975
20
7.4354
30
0.0
0
VERTEX
8
STEMPEL
10
63.7975
20
10.4970
30
0.0
0
VERTEX
8
STEMPEL
10
59.6624
20
10.4970
30
0.0
0
SEQEND
0
POLYLINE
8
STEMPEL
66
1
70
1
0
VERTEX
8
STEMPEL
10
76.2025
20
0.2187
30
0.0
0
VERTEX
8
STEMPEL
10
80.3376
20
0.2187
30
0.0
0
VERTEX
8
STEMPEL
10
80.3376
20
10.4970
30
0.0
0
VERTEX
8
STEMPEL
10
76.2025
20
10.4970
30
0.0
0
SEQEND
0
POLYLINE
8
STEMPEL
66
1
70
1
0
VERTEX
8
STEMPEL
10
88.6076
20
0.2187
30
0.0
0
VERTEX
8
STEMPEL
10
92.7426
20
0.2187
30
0.0
0
VERTEX
8
STEMPEL
10
92.7426
20
10.4970
30
0.0
0
VERTEX
8
STEMPEL
10
88.6076
20
10.4970
30
0.0
0
SEQEND
0
POLYLINE
8
STEMPEL
66
1
70
1
0
VERTEX
8
STEMPEL
10
101.0127
20
7.4354
30
0.0
0
VERTEX
8
STEMPEL
10
105.1477
20
7.4354
30
0.0
0
VERTEX
8
STEMPEL
10
105.1477
20
10.4970
30
0.0
0
VERTEX
8
STEMPEL
10
101.0127
20
10.4970
30
0.0
0
SEQEND
0
POLYLINE
8
STEMPEL
66
1
70
1
0
VERTEX
8
STEMPEL
10
109.2827
20
7.4354
30
0.0
0
VERTEX
8
STEMPEL
10
113.4177
20
7.4354
30
0.0
0
VERTEX
8
STEMPEL
10
113.4177
20
10.4970
30
0.0
0
VERTEX
8
STEMPEL
10
109.2827
20
10.4970
30
0.0
0
SEQEND
0
POLYLINE
8
STEMPEL
66
1
70
1
0
VERTEX
8
STEMPEL
10
2.3629
20
4.3738
30
0.0
0
VERTEX
8
STEMPEL
10
38.9873
20
4.3738
30
0.0
0
VERTEX
8
STEMPEL
10
38.9873
20
7.4354
30
0.0
0
VERTEX
8
STEMPEL
10
2.3629
20
7.4354
30
0.0
0
SEQEND
0
POLYLINE
8
STEMPEL
66
1
70
1
0
VERTEX
8
STEMPEL
10
80.3376
20
0.2187
30
0.0
0
VERTEX
8
STEMPEL
10
84.4726
20
0.2187
30
0.0
0
VERTEX
8
STEMPEL
10
84.4726
20
7.4354
30
0.0
0
VERTEX
8
STEMPEL
10
80.3376
20
7.4354
30
0.0
0
SEQEND
0
POLYLINE
8
STEMPEL
66
1
70
1
0
VERTEX
8
STEMPEL
10
38.9873
20
0.2187
30
0.0
0
VERTEX
8
STEMPEL
10
43.1224
20
0.2187
30
0.0
0
VERTEX
8
STEMPEL
10
43.1224
20
4.3738
30
0.0
0
VERTEX
8
STEMPEL
10
38.9873
20
4.3738
30
0.0
0
SEQEND
0
POLYLINE
8
STEMPEL
66
1
70
1
0
VERTEX
8
STEMPEL
10
55.5274
20
0.2187
30
0.0
0
VERTEX
8
STEMPEL
10
72.0675
20
0.2187
30
0.0
0
VERTEX
8
STEMPEL
10
72.0675
20
4.3738
30
0.0
0
VERTEX
8
STEMPEL
10
55.5274
20
4.3738
30
0.0
0
SEQEND
0
POLYLINE
8
STEMPEL
66
1
70
1
0
VERTEX
8
STEMPEL
10
84.4726
20
0.2187
30
0.0
0
VERTEX
8
STEMPEL
10
88.6076
20
0.2187
30
0.0
0
VERTEX
8
STEMPEL
10
88.6076
20
4.3738
30
0.0
0
VERTEX
8
STEMPEL
10
84.4726
20
4.3738
30
0.0
0
SEQEND
0
POLYLINE
8
STEMPEL
66
1
70
1
0
VERTEX
8
STEMPEL
10
96.8776
20
0.2187
30
0.0
0
VERTEX
8
STEMPEL
10
137.6371
20
0.2187
30
0.0
0
VERTEX
8
STEMPEL
10
137.6371
20
4.3738
30
0.0
0
VERTEX
8
STEMPEL
10
96.8776
20
4.3738
30
0.0
0
SEQEND
0
POLYLINE
8
STEMPEL
66
1
70
1
0
VERTEX
8
STEMPEL
10
2.3629
20
0.2187
30
0.0
0
VERTEX
8
STEMPEL
10
38.9873
20
0.2187
30
0.0
0
VERTEX
8
STEMPEL
10
38.9873
20
1.7495
30
0.0
0
VERTEX
8
STEMPEL
10
2.3629
20
1.7495
30
0.0
0
SEQEND
0
POLYLINE
8
STEMPEL
66
1
70
1
0
VERTEX
8
STEMPEL
10
47.2574
20
0.2187
30
0.0
0
VERTEX
8
STEMPEL
10
51.3924
20
0.2187
30
0.0
0
VERTEX
8
STEMPEL
10
51.3924
20
1.7495
30
0.0
0
VERTEX
8
STEMPEL
10
47.2574
20
1.7495
30
0.0
0
SEQEND
0
POLYLINE
8
STEMPEL
66
1
70
1
0
VERTEX
8
STEMPEL
10
18.3122
20
200.3181
30
0.0
0
VERTEX
8
STEMPEL
10
22.4473
20
200.3181
30
0.0
0
VERTEX
8
STEMPEL
10
22.4473
20
212.5646
30
0.0
0
VERTEX
8
STEMPEL
10
18.3122
20
212.5646
30
0.0
0
SEQEND
0
POLYLINE
8
STEMPEL
66
1
70
1
0
VERTEX
8
STEMPEL
10
26.5823
20
209.5030
30
0.0
0
VERTEX
8
STEMPEL
10
51.3924
20
209.5030
30
0.0
0
VERTEX
8
STEMPEL
10
51.3924
20
212.5646
30
0.0
0
VERTEX
8
STEMPEL
10
26.5823
20
212.5646
30
0.0
0
SEQEND
0
POLYLINE
8
STEMPEL
66
1
70
1
0
VERTEX
8
STEMPEL
10
26.5823
20
200.3181
30
0.0
0
VERTEX
8
STEMPEL
10
30.7173
20
200.3181
30
0.0
0
VERTEX
8
STEMPEL
10
30.7173
20
209.5030
30
0.0
0
VERTEX
8
STEMPEL
10
26.5823
20
209.5030
30
0.0
0
SEQEND
0
POLYLINE
8
STEMPEL
66
1
70
1
0
VERTEX
8
STEMPEL
10
30.7173
20
203.3797
30
0.0
0
VERTEX
8
STEMPEL
10
47.2574
20
203.3797
30
0.0
0
VERTEX
8
STEMPEL
10
47.2574
20
206.4414
30
0.0
0
VERTEX
8
STEMPEL
10
30.7173
20
206.4414
30
0.0
0
SEQEND
0
POLYLINE
8
STEMPEL
66
1
70
1
0
VERTEX
8
STEMPEL
10
63.7975
20
209.5030
30
0.0
0
VERTEX
8
STEMPEL
10
84.4726
20
209.5030
30
0.0
0
VERTEX
8
STEMPEL
10
84.4726
20
212.5646
30
0.0
0
VERTEX
8
STEMPEL
10
63.7975
20
212.5646
30
0.0
0
SEQEND
0
POLYLINE
8
STEMPEL
66
1
70
1
0
VERTEX
8
STEMPEL
10
63.7975
20
191.1332
30
0.0
0
VERTEX
8
STEMPEL
10
67.9325
20
191.1332
30
0.0
0
VERTEX
8
STEMPEL
10
67.9325
20
209.5030
30
0.0
0
VERTEX
8
STEMPEL
10
63.7975
20
209.5030
30
0.0
0
SEQEND
0
POLYLINE
8
STEMPEL
66
1
70
1
0
VERTEX
8
STEMPEL
10
72.0675
20
188.0716
30
0.0
0
VERTEX
8
STEMPEL
10
76.2025
20
188.0716
30
0.0
0
VERTEX
8
STEMPEL
10
76.2025
20
209.5030
30
0.0
0
VERTEX
8
STEMPEL
10
72.0675
20
209.5030
30
0.0
0
SEQEND
0
POLYLINE
8
STEMPEL
66
1
70
1
0
VERTEX
8
STEMPEL
10
80.3376
20
181.9483
30
0.0
0
VERTEX
8
STEMPEL
10
84.4726
20
181.9483
30
0.0
0
VERTEX
8
STEMPEL
10
84.4726
20
209.5030
30
0.0
0
VERTEX
8
STEMPEL
10
80.3376
20
209.5030
30
0.0
0
SEQEND
0
POLYLINE
8
STEMPEL
66
1
70
1
0
VERTEX
8
STEMPEL
10
5.9072
20
194.1948
30
0.0
0
VERTEX
8
STEMPEL
10
14.1772
20
194.1948
30
0.0
0
VERTEX
8
STEMPEL
10
14.1772
20
197.2565
30
0.0
0
VERTEX
8
STEMPEL
10
5.9072
20
197.2565
30
0.0
0
SEQEND
0
POLYLINE
8
STEMPEL
66
1
70
1
0
VERTEX
8
STEMPEL
10
30.7173
20
181.9483
30
0.0
0
VERTEX
8
STEMPEL
10
34.8523
20
181.9483
30
0.0
0
VERTEX
8
STEMPEL
10
34.8523
20
197.2565
30
0.0
0
VERTEX
8
STEMPEL
10
30.7173
20
197.2565
30
0.0
0
SEQEND
0
POLYLINE
8
STEMPEL
66
1
70
1
0
VERTEX
8
STEMPEL
10
10.0422
20
191.1332
30
0.0
0
VERTEX
8
STEMPEL
10
30.7173
20
191.1332
30
0.0
0
VERTEX
8
STEMPEL
10
30.7173
20
194.1948
30
0.0
0
VERTEX
8
STEMPEL
10
10.0422
20
194.1948
30
0.0
0
SEQEND
0
POLYLINE
8
STEMPEL
66
1
70
1
0
VERTEX
8
STEMPEL
10
34.8523
20
191.1332
30
0.0
0
VERTEX
8
STEMPEL
10
63.7975
20
191.1332
30
0.0
0
VERTEX
8
STEMPEL
10
63.7975
20
194.1948
30
0.0
0
VERTEX
8
STEMPEL
10
34.8523
20
194.1948
30
0.0
0
SEQEND
0
POLYLINE
8
STEMPEL
66
1
70
1
0
VERTEX
8
STEMPEL
10
10.0422
20
181.9483
30
0.0
0
VERTEX
8
STEMPEL
10
30.7173
20
181.9483
30
0.0
0
VERTEX
8
STEMPEL
10
30.7173
20
185.0099
30
0.0
0
VERTEX
8
STEMPEL
10
10.0422
20
185.0099
30
0.0
0
SEQEND
0
POLYLINE
8
STEMPEL
66
1
70
1
0
VERTEX
8
STEMPEL
10
34.8523
20
181.9483
30
0.0
0
VERTEX
8
STEMPEL
10
43.1224
20
181.9483
30
0.0
0
VERTEX
8
STEMPEL
10
43.1224
20
185.0099
30
0.0
0
VERTEX
8
STEMPEL
10
34.8523
20
185.0099
30
0.0
0
SEQEND
0
POLYLINE
8
STEMPEL
66
1
70
1
0
VERTEX
8
STEMPEL
10
105.1477
20
209.5030
30
0.0
0
VERTEX
8
STEMPEL
10
113.4177
20
209.5030
30
0.0
0
VERTEX
8
STEMPEL
10
113.4177
20
212.5646
30
0.0
0
VERTEX
8
STEMPEL
10
105.1477
20
212.5646
30
0.0
0
SEQEND
0
POLYLINE
8
STEMPEL
66
1
70
1
0
VERTEX
8
STEMPEL
10
105.1477
20
203.3797
30
0.0
0
VERTEX
8
STEMPEL
10
113.4177
20
203.3797
30
0.0
0
VERTEX
8
STEMPEL
10
113.4177
20
206.4414
30
0.0
0
VERTEX
8
STEMPEL
10
105.1477
20
206.4414
30
0.0
0
SEQEND
0
POLYLINE
8
STEMPEL
66
1
70
1
0
VERTEX
8
STEMPEL
10
105.1477
20
200.3181
30
0.0
0
VERTEX
8
STEMPEL
10
109.2827
20
200.3181
30
0.0
0
VERTEX
8
STEMPEL
10
109.2827
20
203.3797
30
0.0
0
VERTEX
8
STEMPEL
10
105.1477
20
203.3797
30
0.0
0
SEQEND
0
POLYLINE
8
STEMPEL
66
1
70
1
0
VERTEX
8
STEMPEL
10
113.4177
20
197.2565
30
0.0
0
VERTEX
8
STEMPEL
10
117.5527
20
197.2565
30
0.0
0
VERTEX
8
STEMPEL
10
117.5527
20
200.3181
30
0.0
0
VERTEX
8
STEMPEL
10
113.4177
20
200.3181
30
0.0
0
SEQEND
0
POLYLINE
8
STEMPEL
66
1
70
1
0
VERTEX
8
STEMPEL
10
51.3924
20
175.8250
30
0.0
0
VERTEX
8
STEMPEL
10
55.5274
20
175.8250
30
0.0
0
VERTEX
8
STEMPEL
10
55.5274
20
188.0716
30
0.0
0
VERTEX
8
STEMPEL
10
51.3924
20
188.0716
30
0.0
0
SEQEND
0
POLYLINE
8
STEMPEL
66
1
70
1
0
VERTEX
8
STEMPEL
10
18.3122
20
175.8250
30
0.0
0
VERTEX
8
STEMPEL
10
51.3924
20
175.8250
30
0.0
0
VERTEX
8
STEMPEL
10
51.3924
20
178.8867
30
0.0
0
VERTEX
8
STEMPEL
10
18.3122
20
178.8867
30
0.0
0
SEQEND
0
POLYLINE
8
STEMPEL
66
1
70
1
0
VERTEX
8
STEMPEL
10
67.9325
20
178.8867
30
0.0
0
VERTEX
8
STEMPEL
10
72.0675
20
178.8867
30
0.0
0
VERTEX
8
STEMPEL
10
72.0675
20
181.9483
30
0.0
0
VERTEX
8
STEMPEL
10
67.9325
20
181.9483
30
0.0
0
SEQEND
0
POLYLINE
8
STEMPEL
66
1
70
1
0
VERTEX
8
STEMPEL
10
105.1477
20
178.8867
30
0.0
0
VERTEX
8
STEMPEL
10
134.0928
20
178.8867
30
0.0
0
VERTEX
8
STEMPEL
10
134.0928
20
181.9483
30
0.0
0
VERTEX
8
STEMPEL
10
105.1477
20
181.9483
30
0.0
0
SEQEND
0
POLYLINE
8
STEMPEL
66
1
70
1
0
VERTEX
8
STEMPEL
10
105.1477
20
172.7634
30
0.0
0
VERTEX
8
STEMPEL
10
109.2827
20
172.7634
30
0.0
0
VERTEX
8
STEMPEL
10
109.2827
20
178.8867
30
0.0
0
VERTEX
8
STEMPEL
10
105.1477
20
178.8867
30
0.0
0
SEQEND
0
POLYLINE
8
STEMPEL
66
1
70
1
0
VERTEX
8
STEMPEL
10
10.0422
20
163.5785
30
0.0
0
VERTEX
8
STEMPEL
10
14.1772
20
163.5785
30
0.0
0
VERTEX
8
STEMPEL
10
14.1772
20
178.8867
30
0.0
0
VERTEX
8
STEMPEL
10
10.0422
20
178.8867
30
0.0
0
SEQEND
0
POLYLINE
8
STEMPEL
66
1
70
1
0
VERTEX
8
STEMPEL
10
67.9325
20
163.5785
30
0.0
0
VERTEX
8
STEMPEL
10
72.0675
20
163.5785
30
0.0
0
VERTEX
8
STEMPEL
10
72.0675
20
175.8250
30
0.0
0
VERTEX
8
STEMPEL
10
67.9325
20
175.8250
30
0.0
0
SEQEND
0
POLYLINE
8
STEMPEL
66
1
70
1
0
VERTEX
8
STEMPEL
10
14.1772
20
163.5785
30
0.0
0
VERTEX
8
STEMPEL
10
67.9325
20
163.5785
30
0.0
0
VERTEX
8
STEMPEL
10
67.9325
20
166.6402
30
0.0
0
VERTEX
8
STEMPEL
10
14.1772
20
166.6402
30
0.0
0
SEQEND
0
POLYLINE
8
STEMPEL
66
1
70
1
0
VERTEX
8
STEMPEL
10
59.6624
20
169.7018
30
0.0
0
VERTEX
8
STEMPEL
10
63.7975
20
169.7018
30
0.0
0
VERTEX
8
STEMPEL
10
63.7975
20
178.8867
30
0.0
0
VERTEX
8
STEMPEL
10
59.6624
20
178.8867
30
0.0
0
SEQEND
0
POLYLINE
8
STEMPEL
66
1
70
1
0
VERTEX
8
STEMPEL
10
18.3122
20
169.7018
30
0.0
0
VERTEX
8
STEMPEL
10
59.6624
20
169.7018
30
0.0
0
VERTEX
8
STEMPEL
10
59.6624
20
172.7634
30
0.0
0
VERTEX
8
STEMPEL
10
18.3122
20
172.7634
30
0.0
0
SEQEND
0
POLYLINE
8
STEMPEL
66
1
70
1
0
VERTEX
8
STEMPEL
10
76.2025
20
163.5785
30
0.0
0
VERTEX
8
STEMPEL
10
80.3376
20
163.5785
30
0.0
0
VERTEX
8
STEMPEL
10
80.3376
20
175.8250
30
0.0
0
VERTEX
8
STEMPEL
10
76.2025
20
175.8250
30
0.0
0
SEQEND
0
POLYLINE
8
STEMPEL
66
1
70
1
0
VERTEX
8
STEMPEL
10
84.4726
20
163.5785
30
0.0
0
VERTEX
8
STEMPEL
10
92.7426
20
163.5785
30
0.0
0
VERTEX
8
STEMPEL
10
92.7426
20
175.8250
30
0.0
0
VERTEX
8
STEMPEL
10
84.4726
20
175.8250
30
0.0
0
SEQEND
0
POLYLINE
8
STEMPEL
66
1
70
1
0
VERTEX
8
STEMPEL
10
113.4177
20
172.7634
30
0.0
0
VERTEX
8
STEMPEL
10
125.8228
20
172.7634
30
0.0
0
VERTEX
8
STEMPEL
10
125.8228
20
175.8250
30
0.0
0
VERTEX
8
STEMPEL
10
113.4177
20
175.8250
30
0.0
0
SEQEND
0
POLYLINE
8
STEMPEL
66
1
70
1
0
VERTEX
8
STEMPEL
10
117.5527
20
169.7018
30
0.0
0
VERTEX
8
STEMPEL
10
121.6878
20
169.7018
30
0.0
0
VERTEX
8
STEMPEL
10
121.6878
20
172.7634
30
0.0
0
VERTEX
8
STEMPEL
10
117.5527
20
172.7634
30
0.0
0
SEQEND
0
POLYLINE
8
STEMPEL
66
1
70
1
0
VERTEX
8
STEMPEL
10
121.6878
20
160.5169
30
0.0
0
VERTEX
8
STEMPEL
10
125.8228
20
160.5169
30
0.0
0
VERTEX
8
STEMPEL
10
125.8228
20
166.6402
30
0.0
0
VERTEX
8
STEMPEL
10
121.6878
20
166.6402
30
0.0
0
SEQEND
0
POLYLINE
8
STEMPEL
66
1
70
1
0
VERTEX
8
STEMPEL
10
101.0127
20
160.5169
30
0.0
0
VERTEX
8
STEMPEL
10
121.6878
20
160.5169
30
0.0
0
VERTEX
8
STEMPEL
10
121.6878
20
163.5785
30
0.0
0
VERTEX
8
STEMPEL
10
101.0127
20
163.5785
30
0.0
0
SEQEND
0
POLYLINE
8
STEMPEL
66
1
70
1
0
VERTEX
8
STEMPEL
10
5.9072
20
145.2087
30
0.0
0
VERTEX
8
STEMPEL
10
10.0422
20
145.2087
30
0.0
0
VERTEX
8
STEMPEL
10
10.0422
20
154.3936
30
0.0
0
VERTEX
8
STEMPEL
10
5.9072
20
154.3936
30
0.0
0
SEQEND
0
POLYLINE
8
STEMPEL
66
1
70
1
0
VERTEX
8
STEMPEL
10
22.4473
20
151.3320
30
0.0
0
VERTEX
8
STEMPEL
10
59.6624
20
151.3320
30
0.0
0
VERTEX
8
STEMPEL
10
59.6624
20
154.3936
30
0.0
0
VERTEX
8
STEMPEL
10
22.4473
20
154.3936
30
0.0
0
SEQEND
0
POLYLINE
8
STEMPEL
66
1
70
1
0
VERTEX
8
STEMPEL
10
59.6624
20
145.2087
30
0.0
0
VERTEX
8
STEMPEL
10
63.7975
20
145.2087
30
0.0
0
VERTEX
8
STEMPEL
10
63.7975
20
151.3320
30
0.0
0
VERTEX
8
STEMPEL
10
59.6624
20
151.3320
30
0.0
0
SEQEND
0
POLYLINE
8
STEMPEL
66
1
70
1
0
VERTEX
8
STEMPEL
10
84.4726
20
148.2704
30
0.0
0
VERTEX
8
STEMPEL
10
117.5527
20
148.2704
30
0.0
0
VERTEX
8
STEMPEL
10
117.5527
20
151.3320
30
0.0
0
VERTEX
8
STEMPEL
10
84.4726
20
151.3320
30
0.0
0
SEQEND
0
POLYLINE
8
STEMPEL
66
1
70
1
0
VERTEX
8
STEMPEL
10
84.4726
20
120.7157
30
0.0
0
VERTEX
8
STEMPEL
10
88.6076
20
120.7157
30
0.0
0
VERTEX
8
STEMPEL
10
88.6076
20
148.2704
30
0.0
0
VERTEX
8
STEMPEL
10
84.4726
20
148.2704
30
0.0
0
SEQEND
0
POLYLINE
8
STEMPEL
66
1
70
1
0
VERTEX
8
STEMPEL
10
22.4473
20
145.2087
30
0.0
0
VERTEX
8
STEMPEL
10
30.7173
20
145.2087
30
0.0
0
VERTEX
8
STEMPEL
10
30.7173
20
148.2704
30
0.0
0
VERTEX
8
STEMPEL
10
22.4473
20
148.2704
30
0.0
0
SEQEND
0
POLYLINE
8
STEMPEL
66
1
70
1
0
VERTEX
8
STEMPEL
10
22.4473
20
129.9006
30
0.0
0
VERTEX
8
STEMPEL
10
26.5823
20
129.9006
30
0.0
0
VERTEX
8
STEMPEL
10
26.5823
20
145.2087
30
0.0
0
VERTEX
8
STEMPEL
10
22.4473
20
145.2087
30
0.0
0
SEQEND
0
POLYLINE
8
STEMPEL
66
1
70
1
0
VERTEX
8
STEMPEL
10
30.7173
20
136.0239
30
0.0
0
VERTEX
8
STEMPEL
10
63.7975
20
136.0239
30
0.0
0
VERTEX
8
STEMPEL
10
63.7975
20
139.0855
30
0.0
0
VERTEX
8
STEMPEL
10
30.7173
20
139.0855
30
0.0
0
SEQEND
0
POLYLINE
8
STEMPEL
66
1
70
1
0
VERTEX
8
STEMPEL
10
51.3924
20
120.7157
30
0.0
0
VERTEX
8
STEMPEL
10
55.5274
20
120.7157
30
0.0
0
VERTEX
8
STEMPEL
10
55.5274
20
136.0239
30
0.0
0
VERTEX
8
STEMPEL
10
51.3924
20
136.0239
30
0.0
0
SEQEND
0
POLYLINE
8
STEMPEL
66
1
70
1
0
VERTEX
8
STEMPEL
10
59.6624
20
114.5924
30
0.0
0
VERTEX
8
STEMPEL
10
63.7975
20
114.5924
30
0.0
0
VERTEX
8
STEMPEL
10
63.7975
20
136.0239
30
0.0
0
VERTEX
8
STEMPEL
10
59.6624
20
136.0239
30
0.0
0
SEQEND
0
POLYLINE
8
STEMPEL
66
1
70
1
0
VERTEX
8
STEMPEL
10
26.5823
20
129.9006
30
0.0
0
VERTEX
8
STEMPEL
10
51.3924
20
129.9006
30
0.0
0
VERTEX
8
STEMPEL
10
51.3924
20
132.9622
30
0.0
0
VERTEX
8
STEMPEL
10
26.5823
20
132.9622
30
0.0
0
SEQEND
0
POLYLINE
8
STEMPEL
66
1
70
1
0
VERTEX
8
STEMPEL
10
47.2574
20
117.6541
30
0.0
0
VERTEX
8
STEMPEL
10
51.3924
20
117.6541
30
0.0
0
VERTEX
8
STEMPEL
10
51.3924
20
123.7773
30
0.0
0
VERTEX
8
STEMPEL
10
47.2574
20
123.7773
30
0.0
0
SEQEND
0
POLYLINE
8
STEMPEL
66
1
70
1
0
VERTEX
8
STEMPEL
10
55.5274
20
111.5308
30
0.0
0
VERTEX
8
STEMPEL
10
59.6624
20
111.5308
30
0.0
0
VERTEX
8
STEMPEL
10
59.6624
20
117.6541
30
0.0
0
VERTEX
8
STEMPEL
10
55.5274
20
117.6541
30
0.0
0
SEQEND
0
POLYLINE
8
STEMPEL
66
1
70
1
0
VERTEX
8
STEMPEL
10
47.2574
20
111.5308
30
0.0
0
VERTEX
8
STEMPEL
10
55.5274
20
111.5308
30
0.0
0
VERTEX
8
STEMPEL
10
55.5274
20
114.5924
30
0.0
0
VERTEX
8
STEMPEL
10
47.2574
20
114.5924
30
0.0
0
SEQEND
0
POLYLINE
8
STEMPEL
66
1
70
1
0
VERTEX
8
STEMPEL
10
43.1224
20
142.1471
30
0.0
0
VERTEX
8
STEMPEL
10
59.6624
20
142.1471
30
0.0
0
VERTEX
8
STEMPEL
10
59.6624
20
145.2087
30
0.0
0
VERTEX
8
STEMPEL
10
43.1224
20
145.2087
30
0.0
0
SEQEND
0
POLYLINE
8
STEMPEL
66
1
70
1
0
VERTEX
8
STEMPEL
10
10.0422
20
136.0239
30
0.0
0
VERTEX
8
STEMPEL
10
18.3122
20
136.0239
30
0.0
0
VERTEX
8
STEMPEL
10
18.3122
20
139.0855
30
0.0
0
VERTEX
8
STEMPEL
10
10.0422
20
139.0855
30
0.0
0
SEQEND
0
POLYLINE
8
STEMPEL
66
1
70
1
0
VERTEX
8
STEMPEL
10
14.1772
20
123.7773
30
0.0
0
VERTEX
8
STEMPEL
10
18.3122
20
123.7773
30
0.0
0
VERTEX
8
STEMPEL
10
18.3122
20
136.0239
30
0.0
0
VERTEX
8
STEMPEL
10
14.1772
20
136.0239
30
0.0
0
SEQEND
0
POLYLINE
8
STEMPEL
66
1
70
1
0
VERTEX
8
STEMPEL
10
18.3122
20
123.7773
30
0.0
0
VERTEX
8
STEMPEL
10
47.2574
20
123.7773
30
0.0
0
VERTEX
8
STEMPEL
10
47.2574
20
126.8390
30
0.0
0
VERTEX
8
STEMPEL
10
18.3122
20
126.8390
30
0.0
0
SEQEND
0
POLYLINE
8
STEMPEL
66
1
70
1
0
VERTEX
8
STEMPEL
10
5.9072
20
126.8390
30
0.0
0
VERTEX
8
STEMPEL
10
10.0422
20
126.8390
30
0.0
0
VERTEX
8
STEMPEL
10
10.0422
20
132.9622
30
0.0
0
VERTEX
8
STEMPEL
10
5.9072
20
132.9622
30
0.0
0
SEQEND
0
POLYLINE
8
STEMPEL
66
1
70
1
0
VERTEX
8
STEMPEL
10
5.9072
20
120.7157
30
0.0
0
VERTEX
8
STEMPEL
10
14.1772
20
120.7157
30
0.0
0
VERTEX
8
STEMPEL
10
14.1772
20
123.7773
30
0.0
0
VERTEX
8
STEMPEL
10
5.9072
20
123.7773
30
0.0
0
SEQEND
0
POLYLINE
8
STEMPEL
66
1
70
1
0
VERTEX
8
STEMPEL
10
26.5823
20
111.5308
30
0.0
0
VERTEX
8
STEMPEL
10
43.1224
20
111.5308
30
0.0
0
VERTEX
8
STEMPEL
10
43.1224
20
114.5924
30
0.0
0
VERTEX
8
STEMPEL
10
26.5823
20
114.5924
30
0.0
0
SEQEND
0
POLYLINE
8
STEMPEL
66
1
70
1
0
VERTEX
8
STEMPEL
10
26.5823
20
99.2843
30
0.0
0
VERTEX
8
STEMPEL
10
30.7173
20
99.2843
30
0.0
0
VERTEX
8
STEMPEL
10
30.7173
20
111.5308
30
0.0
0
VERTEX
8
STEMPEL
10
26.5823
20
111.5308
30
0.0
0
SEQEND
0
POLYLINE
8
STEMPEL
66
1
70
1
0
VERTEX
8
STEMPEL
10
38.9873
20
105.4076
30
0.0
0
VERTEX
8
STEMPEL
10
43.1224
20
105.4076
30
0.0
0
VERTEX
8
STEMPEL
10
43.1224
20
111.5308
30
0.0
0
VERTEX
8
STEMPEL
10
38.9873
20
111.5308
30
0.0
0
SEQEND
0
POLYLINE
8
STEMPEL
66
1
70
1
0
VERTEX
8
STEMPEL
10
63.7975
20
105.4076
30
0.0
0
VERTEX
8
STEMPEL
10
67.9325
20
105.4076
30
0.0
0
VERTEX
8
STEMPEL
10
67.9325
20
111.5308
30
0.0
0
VERTEX
8
STEMPEL
10
63.7975
20
111.5308
30
0.0
0
SEQEND
0
POLYLINE
8
STEMPEL
66
1
70
1
0
VERTEX
8
STEMPEL
10
43.1224
20
105.4076
30
0.0
0
VERTEX
8
STEMPEL
10
63.7975
20
105.4076
30
0.0
0
VERTEX
8
STEMPEL
10
63.7975
20
108.4692
30
0.0
0
VERTEX
8
STEMPEL
10
43.1224
20
108.4692
30
0.0
0
SEQEND
0
POLYLINE
8
STEMPEL
66
1
70
1
0
VERTEX
8
STEMPEL
10
18.3122
20
102.3459
30
0.0
0
VERTEX
8
STEMPEL
10
22.4473
20
102.3459
30
0.0
0
VERTEX
8
STEMPEL
10
22.4473
20
108.4692
30
0.0
0
VERTEX
8
STEMPEL
10
18.3122
20
108.4692
30
0.0
0
SEQEND
0
POLYLINE
8
STEMPEL
66
1
70
1
0
VERTEX
8
STEMPEL
10
125.8228
20
105.4076
30
0.0
0
VERTEX
8
STEMPEL
10
134.0928
20
105.4076
30
0.0
0
VERTEX
8
STEMPEL
10
134.0928
20
108.4692
30
0.0
0
VERTEX
8
STEMPEL
10
125.8228
20
108.4692
30
0.0
0
SEQEND
0
POLYLINE
8
STEMPEL
66
1
70
1
0
VERTEX
8
STEMPEL
10
34.8523
20
99.2843
30
0.0
0
VERTEX
8
STEMPEL
10
67.9325
20
99.2843
30
0.0
0
VERTEX
8
STEMPEL
10
67.9325
20
102.3459
30
0.0
0
VERTEX
8
STEMPEL
10
34.8523
20
102.3459
30
0.0
0
SEQEND
0
POLYLINE
8
STEMPEL
66
1
70
1
0
VERTEX
8
STEMPEL
10
18.3122
20
87.0378
30
0.0
0
VERTEX
8
STEMPEL
10
34.8523
20
87.0378
30
0.0
0
VERTEX
8
STEMPEL
10
34.8523
20
90.0994
30
0.0
0
VERTEX
8
STEMPEL
10
18.3122
20
90.0994
30
0.0
0
SEQEND
0
POLYLINE
8
STEMPEL
66
1
70
1
0
VERTEX
8
STEMPEL
10
47.2574
20
87.0378
30
0.0
0
VERTEX
8
STEMPEL
10
67.9325
20
87.0378
30
0.0
0
VERTEX
8
STEMPEL
10
67.9325
20
90.0994
30
0.0
0
VERTEX
8
STEMPEL
10
47.2574
20
90.0994
30
0.0
0
SEQEND
0
POLYLINE
8
STEMPEL
66
1
70
1
0
VERTEX
8
STEMPEL
10
88.6076
20
83.9761
30
0.0
0
VERTEX
8
STEMPEL
10
92.7426
20
83.9761
30
0.0
0
VERTEX
8
STEMPEL
10
92.7426
20
87.0378
30
0.0
0
VERTEX
8
STEMPEL
10
88.6076
20
87.0378
30
0.0
0
SEQEND
0
POLYLINE
8
STEMPEL
66
1
70
1
0
VERTEX
8
STEMPEL
10
5.9072
20
41.1133
30
0.0
0
VERTEX
8
STEMPEL
10
14.1772
20
41.1133
30
0.0
0
VERTEX
8
STEMPEL
10
14.1772
20
44.1750
30
0.0
0
VERTEX
8
STEMPEL
10
5.9072
20
44.1750
30
0.0
0
SEQEND
0
POLYLINE
8
STEMPEL
66
1
70
1
0
VERTEX
8
STEMPEL
10
10.0422
20
22.7435
30
0.0
0
VERTEX
8
STEMPEL
10
14.1772
20
22.7435
30
0.0
0
VERTEX
8
STEMPEL
10
14.1772
20
41.1133
30
0.0
0
VERTEX
8
STEMPEL
10
10.0422
20
41.1133
30
0.0
0
SEQEND
0
POLYLINE
8
STEMPEL
66
1
70
1
0
VERTEX
8
STEMPEL
10
5.9072
20
22.7435
30
0.0
0
VERTEX
8
STEMPEL
10
10.0422
20
22.7435
30
0.0
0
VERTEX
8
STEMPEL
10
10.0422
20
25.8052
30
0.0
0
VERTEX
8
STEMPEL
10
5.9072
20
25.8052
30
0.0
0
SEQEND
0
POLYLINE
8
STEMPEL
66
1
70
1
0
VERTEX
8
STEMPEL
10
26.5823
20
31.9284
30
0.0
0
VERTEX
8
STEMPEL
10
38.9873
20
31.9284
30
0.0
0
VERTEX
8
STEMPEL
10
38.9873
20
34.9901
30
0.0
0
VERTEX
8
STEMPEL
10
26.5823
20
34.9901
30
0.0
0
SEQEND
0
POLYLINE
8
FRAESEN
66
1
70
1
0
VERTEX
8
FRAESEN
10
0.0000
20
219.7813
30
0.0
0
VERTEX
8
FRAESEN
10
140.0000
20
219.7813
30
0.0
0
VERTEX
8
FRAESEN
10
140.0000
20
220.0000
30
0.0
0
VERTEX
8
FRAESEN
10
0.0000
20
220.0000
30
0.0
0
SEQEND
0
POLYLINE
8
FRAESEN
66
1
70
1
0
VERTEX
8
FRAESEN
10
0.0000
20
0.0000
30
0.0
0
VERTEX
8
FRAESEN
10
0.2954
20
0.0000
30
0.0
0
VERTEX
8
FRAESEN
10
0.2954
20
219.7813
30
0.0
0
VERTEX
8
FRAESEN
10
0.0000
20
219.7813
30
0.0
0
SEQEND
0
POLYLINE
8
FRAESEN
66
1
70
1
0
VERTEX
8
FRAESEN
10
139.7046
20
0.0000
30
0.0
0
VERTEX
8
FRAESEN
10
140.0000
20
0.0000
30
0.0
0
VERTEX
8
FRAESEN
10
140.0000
20
219.7813
30
0.0
0
VERTEX
8
FRAESEN
10
139.7046
20
219.7813
30
0.0
0
SEQEND
0
POLYLINE
8
FRAESEN
66
1
70
1
0
VERTEX
8
FRAESEN
10
0.2954
20
0.0000
30
0.0
0
VERTEX
8
FRAESEN
10
139.7046
20
0.0000
30
0.0
0
VERTEX
8
FRAESEN
10
139.7046
20
0.2187
30
0.0
0
VERTEX
8
FRAESEN
10
0.2954
20
0.2187
30
0.0
0
SEQEND
0
POLYLINE
8
FRAESEN
66
1
70
1
0
VERTEX
8
FRAESEN
10
2.3629
20
212.5646
30
0.0
0
VERTEX
8
FRAESEN
10
55.5274
20
212.5646
30
0.0
0
VERTEX
8
FRAESEN
10
55.5274
20
215.6262
30
0.0
0
VERTEX
8
FRAESEN
10
2.3629
20
215.6262
30
0.0
0
SEQEND
0
POLYLINE
8
FRAESEN
66
1
70
1
0
VERTEX
8
FRAESEN
10
59.6624
20
212.5646
30
0.0
0
VERTEX
8
FRAESEN
10
88.6076
20
212.5646
30
0.0
0
VERTEX
8
FRAESEN
10
88.6076
20
215.6262
30
0.0
0
VERTEX
8
FRAESEN
10
59.6624
20
215.6262
30
0.0
0
SEQEND
0
POLYLINE
8
FRAESEN
66
1
70
1
0
VERTEX
8
FRAESEN
10
92.7426
20
157.4553
30
0.0
0
VERTEX
8
FRAESEN
10
96.8776
20
157.4553
30
0.0
0
VERTEX
8
FRAESEN
10
96.8776
20
215.6262
30
0.0
0
VERTEX
8
FRAESEN
10
92.7426
20
215.6262
30
0.0
0
SEQEND
0
POLYLINE
8
FRAESEN
66
1
70
1
0
VERTEX
8
FRAESEN
10
14.1772
20
194.1948
30
0.0
0
VERTEX
8
FRAESEN
10
18.3122
20
194.1948
30
0.0
0
VERTEX
8
FRAESEN
10
18.3122
20
212.5646
30
0.0
0
VERTEX
8
FRAESEN
10
14.1772
20
212.5646
30
0.0
0
SEQEND
0
POLYLINE
8
FRAESEN
66
1
70
1
0
VERTEX
8
FRAESEN
10
22.4473
20
194.1948
30
0.0
0
VERTEX
8
FRAESEN
10
26.5823
20
194.1948
30
0.0
0
VERTEX
8
FRAESEN
10
26.5823
20
212.5646
30
0.0
0
VERTEX
8
FRAESEN
10
22.4473
20
212.5646
30
0.0
0
SEQEND
0
POLYLINE
8
FRAESEN
66
1
70
1
0
VERTEX
8
FRAESEN
10
51.3924
20
194.1948
30
0.0
0
VERTEX
8
FRAESEN
10
55.5274
20
194.1948
30
0.0
0
VERTEX
8
FRAESEN
10
55.5274
20
212.5646
30
0.0
0
VERTEX
8
FRAESEN
10
51.3924
20
212.5646
30
0.0
0
SEQEND
0
POLYLINE
8
FRAESEN
66
1
70
1
0
VERTEX
8
FRAESEN
10
59.6624
20
194.1948
30
0.0
0
VERTEX
8
FRAESEN
10
63.7975
20
194.1948
30
0.0
0
VERTEX
8
FRAESEN
10
63.7975
20
212.5646
30
0.0
0
VERTEX
8
FRAESEN
10
59.6624
20
212.5646
30
0.0
0
SEQEND
0
POLYLINE
8
FRAESEN
66
1
70
1
0
VERTEX
8
FRAESEN
10
84.4726
20
175.8250
30
0.0
0
VERTEX
8
FRAESEN
10
88.6076
20
175.8250
30
0.0
0
VERTEX
8
FRAESEN
10
88.6076
20
212.5646
30
0.0
0
VERTEX
8
FRAESEN
10
84.4726
20
212.5646
30
0.0
0
SEQEND
0
POLYLINE
8
FRAESEN
66
1
70
1
0
VERTEX
8
FRAESEN
10
2.3629
20
206.4414
30
0.0
0
VERTEX
8
FRAESEN
10
14.1772
20
206.4414
30
0.0
0
VERTEX
8
FRAESEN
10
14.1772
20
209.5030
30
0.0
0
VERTEX
8
FRAESEN
10
2.3629
20
209.5030
30
0.0
0
SEQEND
0
POLYLINE
8
FRAESEN
66
1
70
1
0
VERTEX
8
FRAESEN
10
30.7173
20
206.4414
30
0.0
0
VERTEX
8
FRAESEN
10
51.3924
20
206.4414
30
0.0
0
VERTEX
8
FRAESEN
10
51.3924
20
209.5030
30
0.0
0
VERTEX
8
FRAESEN
10
30.7173
20
209.5030
30
0.0
0
SEQEND
0
POLYLINE
8
FRAESEN
66
1
70
1
0
VERTEX
8
FRAESEN
10
67.9325
20
181.9483
30
0.0
0
VERTEX
8
FRAESEN
10
72.0675
20
181.9483
30
0.0
0
VERTEX
8
FRAESEN
10
72.0675
20
209.5030
30
0.0
0
VERTEX
8
FRAESEN
10
67.9325
20
209.5030
30
0.0
0
SEQEND
0
POLYLINE
8
FRAESEN
66
1
70
1
0
VERTEX
8
FRAESEN
10
76.2025
20
175.8250
30
0.0
0
VERTEX
8
FRAESEN
10
80.3376
20
175.8250
30
0.0
0
VERTEX
8
FRAESEN
10
80.3376
20
209.5030
30
0.0
0
VERTEX
8
FRAESEN
10
76.2025
20
209.5030
30
0.0
0
SEQEND
0
POLYLINE
8
FRAESEN
66
1
70
1
0
VERTEX
8
FRAESEN
10
47.2574
20
194.1948
30
0.0
0
VERTEX
8
FRAESEN
10
51.3924
20
194.1948
30
0.0
0
VERTEX
8
FRAESEN
10
51.3924
20
206.4414
30
0.0
0
VERTEX
8
FRAESEN
10
47.2574
20
206.4414
30
0.0
0
SEQEND
0
POLYLINE
8
FRAESEN
66
1
70
1
0
VERTEX
8
FRAESEN
10
2.3629
20
197.2565
30
0.0
0
VERTEX
8
FRAESEN
10
14.1772
20
197.2565
30
0.0
0
VERTEX
8
FRAESEN
10
14.1772
20
203.3797
30
0.0
0
VERTEX
8
FRAESEN
10
2.3629
20
203.3797
30
0.0
0
SEQEND
0
POLYLINE
8
FRAESEN
66
1
70
1
0
VERTEX
8
FRAESEN
10
30.7173
20
197.2565
30
0.0
0
VERTEX
8
FRAESEN
10
47.2574
20
197.2565
30
0.0
0
VERTEX
8
FRAESEN
10
47.2574
20
203.3797
30
0.0
0
VERTEX
8
FRAESEN
10
30.7173
20
203.3797
30
0.0
0
SEQEND
0
POLYLINE
8
FRAESEN
66
1
70
1
0
VERTEX
8
FRAESEN
10
18.3122
20
194.1948
30
0.0
0
VERTEX
8
FRAESEN
10
22.4473
20
194.1948
30
0.0
0
VERTEX
8
FRAESEN
10
22.4473
20
200.3181
30
0.0
0
VERTEX
8
FRAESEN
10
18.3122
20
200.3181
30
0.0
0
SEQEND
0
POLYLINE
8
FRAESEN
66
1
70
1
0
VERTEX
8
FRAESEN
10
26.5823
20
194.1948
30
0.0
0
VERTEX
8
FRAESEN
10
30.7173
20
194.1948
30
0.0
0
VERTEX
8
FRAESEN
10
30.7173
20
200.3181
30
0.0
0
VERTEX
8
FRAESEN
10
26.5823
20
200.3181
30
0.0
0
SEQEND
0
POLYLINE
8
FRAESEN
66
1
70
1
0
VERTEX
8
FRAESEN
10
55.5274
20
194.1948
30
0.0
0
VERTEX
8
FRAESEN
10
59.6624
20
194.1948
30
0.0
0
VERTEX
8
FRAESEN
10
59.6624
20
200.3181
30
0.0
0
VERTEX
8
FRAESEN
10
55.5274
20
200.3181
30
0.0
0
SEQEND
0
POLYLINE
8
FRAESEN
66
1
70
1
0
VERTEX
8
FRAESEN
10
2.3629
20
194.1948
30
0.0
0
VERTEX
8
FRAESEN
10
5.9072
20
194.1948
30
0.0
0
VERTEX
8
FRAESEN
10
5.9072
20
197.2565
30
0.0
0
VERTEX
8
FRAESEN
10
2.3629
20
197.2565
30
0.0
0
SEQEND
0
POLYLINE
8
FRAESEN
66
1
70
1
0
VERTEX
8
FRAESEN
10
34.8523
20
194.1948
30
0.0
0
VERTEX
8
FRAESEN
10
47.2574
20
194.1948
30
0.0
0
VERTEX
8
FRAESEN
10
47.2574
20
197.2565
30
0.0
0
VERTEX
8
FRAESEN
10
34.8523
20
197.2565
30
0.0
0
SEQEND
0
POLYLINE
8
FRAESEN
66
1
70
1
0
VERTEX
8
FRAESEN
10
5.9072
20
160.5169
30
0.0
0
VERTEX
8
FRAESEN
10
10.0422
20
160.5169
30
0.0
0
VERTEX
8
FRAESEN
10
10.0422
20
194.1948
30
0.0
0
VERTEX
8
FRAESEN
10
5.9072
20
194.1948
30
0.0
0
SEQEND
0
POLYLINE
8
FRAESEN
66
1
70
1
0
VERTEX
8
FRAESEN
10
10.0422
20
185.0099
30
0.0
0
VERTEX
8
FRAESEN
10
30.7173
20
185.0099
30
0.0
0
VERTEX
8
FRAESEN
10
30.7173
20
191.1332
30
0.0
0
VERTEX
8
FRAESEN
10
10.0422
20
191.1332
30
0.0
0
SEQEND
0
POLYLINE
8
FRAESEN
66
1
70
1
0
VERTEX
8
FRAESEN
10
34.8523
20
188.0716
30
0.0
0
VERTEX
8
FRAESEN
10
67.9325
20
188.0716
30
0.0
0
VERTEX
8
FRAESEN
10
67.9325
20
191.1332
30
0.0
0
VERTEX
8
FRAESEN
10
34.8523
20
191.1332
30
0.0
0
SEQEND
0
POLYLINE
8
FRAESEN
66
1
70
1
0
VERTEX
8
FRAESEN
10
96.8776
20
188.0716
30
0.0
0
VERTEX
8
FRAESEN
10
137.6371
20
188.0716
30
0.0
0
VERTEX
8
FRAESEN
10
137.6371
20
191.1332
30
0.0
0
VERTEX
8
FRAESEN
10
96.8776
20
191.1332
30
0.0
0
SEQEND
0
POLYLINE
8
FRAESEN
66
1
70
1
0
VERTEX
8
FRAESEN
10
34.8523
20
185.0099
30
0.0
0
VERTEX
8
FRAESEN
10
51.3924
20
185.0099
30
0.0
0
VERTEX
8
FRAESEN
10
51.3924
20
188.0716
30
0.0
0
VERTEX
8
FRAESEN
10
34.8523
20
188.0716
30
0.0
0
SEQEND
0
POLYLINE
8
FRAESEN
66
1
70
1
0
VERTEX
8
FRAESEN
10
55.5274
20
178.8867
30
0.0
0
VERTEX
8
FRAESEN
10
67.9325
20
178.8867
30
0.0
0
VERTEX
8
FRAESEN
10
67.9325
20
188.0716
30
0.0
0
VERTEX
8
FRAESEN
10
55.5274
20
188.0716
30
0.0
0
SEQEND
0
POLYLINE
8
FRAESEN
66
1
70
1
0
VERTEX
8
FRAESEN
10
72.0675
20
108.4692
30
0.0
0
VERTEX
8
FRAESEN
10
76.2025
20
108.4692
30
0.0
0
VERTEX
8
FRAESEN
10
76.2025
20
188.0716
30
0.0
0
VERTEX
8
FRAESEN
10
72.0675
20
188.0716
30
0.0
0
SEQEND
0
POLYLINE
8
FRAESEN
66
1
70
1
0
VERTEX
8
FRAESEN
10
43.1224
20
178.8867
30
0.0
0
VERTEX
8
FRAESEN
10
51.3924
20
178.8867
30
0.0
0
VERTEX
8
FRAESEN
10
51.3924
20
185.0099
30
0.0
0
VERTEX
8
FRAESEN
10
43.1224
20
185.0099
30
0.0
0
SEQEND
0
POLYLINE
8
FRAESEN
66
1
70
1
0
VERTEX
8
FRAESEN
10
101.0127
20
181.9483
30
0.0
0
VERTEX
8
FRAESEN
10
137.6371
20
181.9483
30
0.0
0
VERTEX
8
FRAESEN
10
137.6371
20
185.0099
30
0.0
0
VERTEX
8
FRAESEN
10
101.0127
20
185.0099
30
0.0
0
SEQEND
0
POLYLINE
8
FRAESEN
66
1
70
1
0
VERTEX
8
FRAESEN
10
10.0422
20
178.8867
30
0.0
0
VERTEX
8
FRAESEN
10
43.1224
20
178.8867
30
0.0
0
VERTEX
8
FRAESEN
10
43.1224
20
181.9483
30
0.0
0
VERTEX
8
FRAESEN
10
10.0422
20
181.9483
30
0.0
0
SEQEND
0
POLYLINE
8
FRAESEN
66
1
70
1
0
VERTEX
8
FRAESEN
10
80.3376
20
157.4553
30
0.0
0
VERTEX
8
FRAESEN
10
84.4726
20
157.4553
30
0.0
0
VERTEX
8
FRAESEN
10
84.4726
20
181.9483
30
0.0
0
VERTEX
8
FRAESEN
10
80.3376
20
181.9483
30
0.0
0
SEQEND
0
POLYLINE
8
FRAESEN
66
1
70
1
0
VERTEX
8
FRAESEN
10
88.6076
20
175.8250
30
0.0
0
VERTEX
8
FRAESEN
10
92.7426
20
175.8250
30
0.0
0
VERTEX
8
FRAESEN
10
92.7426
20
181.9483
30
0.0
0
VERTEX
8
FRAESEN
10
88.6076
20
181.9483
30
0.0
0
SEQEND
0
POLYLINE
8
FRAESEN
66
1
70
1
0
VERTEX
8
FRAESEN
10
101.0127
20
169.7018
30
0.0
0
VERTEX
8
FRAESEN
10
105.1477
20
169.7018
30
0.0
0
VERTEX
8
FRAESEN
10
105.1477
20
181.9483
30
0.0
0
VERTEX
8
FRAESEN
10
101.0127
20
181.9483
30
0.0
0
SEQEND
0
POLYLINE
8
FRAESEN
66
1
70
1
0
VERTEX
8
FRAESEN
10
134.0928
20
157.4553
30
0.0
0
VERTEX
8
FRAESEN
10
137.6371
20
157.4553
30
0.0
0
VERTEX
8
FRAESEN
10
137.6371
20
181.9483
30
0.0
0
VERTEX
8
FRAESEN
10
134.0928
20
181.9483
30
0.0
0
SEQEND
0
POLYLINE
8
FRAESEN
66
1
70
1
0
VERTEX
8
FRAESEN
10
14.1772
20
166.6402
30
0.0
0
VERTEX
8
FRAESEN
10
18.3122
20
166.6402
30
0.0
0
VERTEX
8
FRAESEN
10
18.3122
20
178.8867
30
0.0
0
VERTEX
8
FRAESEN
10
14.1772
20
178.8867
30
0.0
0
SEQEND
0
POLYLINE
8
FRAESEN
66
1
70
1
0
VERTEX
8
FRAESEN
10
55.5274
20
172.7634
30
0.0
0
VERTEX
8
FRAESEN
10
59.6624
20
172.7634
30
0.0
0
VERTEX
8
FRAESEN
10
59.6624
20
178.8867
30
0.0
0
VERTEX
8
FRAESEN
10
55.5274
20
178.8867
30
0.0
0
SEQEND
0
POLYLINE
8
FRAESEN
66
1
70
1
0
VERTEX
8
FRAESEN
10
63.7975
20
175.8250
30
0.0
0
VERTEX
8
FRAESEN
10
72.0675
20
175.8250
30
0.0
0
VERTEX
8
FRAESEN
10
72.0675
20
178.8867
30
0.0
0
VERTEX
8
FRAESEN
10
63.7975
20
178.8867
30
0.0
0
SEQEND
0
POLYLINE
8
FRAESEN
66
1
70
1
0
VERTEX
8
FRAESEN
10
109.2827
20
175.8250
30
0.0
0
VERTEX
8
FRAESEN
10
134.0928
20
175.8250
30
0.0
0
VERTEX
8
FRAESEN
10
134.0928
20
178.8867
30
0.0
0
VERTEX
8
FRAESEN
10
109.2827
20
178.8867
30
0.0
0
SEQEND
0
POLYLINE
8
FRAESEN
66
1
70
1
0
VERTEX
8
FRAESEN
10
18.3122
20
172.7634
30
0.0
0
VERTEX
8
FRAESEN
10
55.5274
20
172.7634
30
0.0
0
VERTEX
8
FRAESEN
10
55.5274
20
175.8250
30
0.0
0
VERTEX
8
FRAESEN
10
18.3122
20
175.8250
30
0.0
0
SEQEND
0
POLYLINE
8
FRAESEN
66
1
70
1
0
VERTEX
8
FRAESEN
10
63.7975
20
166.6402
30
0.0
0
VERTEX
8
FRAESEN
10
67.9325
20
166.6402
30
0.0
0
VERTEX
8
FRAESEN
10
67.9325
20
175.8250
30
0.0
0
VERTEX
8
FRAESEN
10
63.7975
20
175.8250
30
0.0
0
SEQEND
0
POLYLINE
8
FRAESEN
66
1
70
1
0
VERTEX
8
FRAESEN
10
109.2827
20
169.7018
30
0.0
0
VERTEX
8
FRAESEN
10
113.4177
20
169.7018
30
0.0
0
VERTEX
8
FRAESEN
10
113.4177
20
175.8250
30
0.0
0
VERTEX
8
FRAESEN
10
109.2827
20
175.8250
30
0.0
0
SEQEND
0
POLYLINE
8
FRAESEN
66
1
70
1
0
VERTEX
8
FRAESEN
10
125.8228
20
157.4553
30
0.0
0
VERTEX
8
FRAESEN
10
129.9578
20
157.4553
30
0.0
0
VERTEX
8
FRAESEN
10
129.9578
20
175.8250
30
0.0
0
VERTEX
8
FRAESEN
10
125.8228
20
175.8250
30
0.0
0
SEQEND
0
POLYLINE
8
FRAESEN
66
1
70
1
0
VERTEX
8
FRAESEN
10
105.1477
20
169.7018
30
0.0
0
VERTEX
8
FRAESEN
10
109.2827
20
169.7018
30
0.0
0
VERTEX
8
FRAESEN
10
109.2827
20
172.7634
30
0.0
0
VERTEX
8
FRAESEN
10
105.1477
20
172.7634
30
0.0
0
SEQEND
0
POLYLINE
8
FRAESEN
66
1
70
1
0
VERTEX
8
FRAESEN
10
113.4177
20
169.7018
30
0.0
0
VERTEX
8
FRAESEN
10
117.5527
20
169.7018
30
0.0
0
VERTEX
8
FRAESEN
10
117.5527
20
172.7634
30
0.0
0
VERTEX
8
FRAESEN
10
113.4177
20
172.7634
30
0.0
0
SEQEND
0
POLYLINE
8
FRAESEN
66
1
70
1
0
VERTEX
8
FRAESEN
10
121.6878
20
166.6402
30
0.0
0
VERTEX
8
FRAESEN
10
125.8228
20
166.6402
30
0.0
0
VERTEX
8
FRAESEN
10
125.8228
20
172.7634
30
0.0
0
VERTEX
8
FRAESEN
10
121.6878
20
172.7634
30
0.0
0
SEQEND
0
POLYLINE
8
FRAESEN
66
1
70
1
0
VERTEX
8
FRAESEN
10
18.3122
20
166.6402
30
0.0
0
VERTEX
8
FRAESEN
10
63.7975
20
166.6402
30
0.0
0
VERTEX
8
FRAESEN
10
63.7975
20
169.7018
30
0.0
0
VERTEX
8
FRAESEN
10
18.3122
20
169.7018
30
0.0
0
SEQEND
0
POLYLINE
8
FRAESEN
66
1
70
1
0
VERTEX
8
FRAESEN
10
117.5527
20
163.5785
30
0.0
0
VERTEX
8
FRAESEN
10
121.6878
20
163.5785
30
0.0
0
VERTEX
8
FRAESEN
10
121.6878
20
169.7018
30
0.0
0
VERTEX
8
FRAESEN
10
117.5527
20
169.7018
30
0.0
0
SEQEND
0
POLYLINE
8
FRAESEN
66
1
70
1
0
VERTEX
8
FRAESEN
10
2.3629
20
160.5169
30
0.0
0
VERTEX
8
FRAESEN
10
5.9072
20
160.5169
30
0.0
0
VERTEX
8
FRAESEN
10
5.9072
20
166.6402
30
0.0
0
VERTEX
8
FRAESEN
10
2.3629
20
166.6402
30
0.0
0
SEQEND
0
POLYLINE
8
FRAESEN
66
1
70
1
0
VERTEX
8
FRAESEN
10
96.8776
20
163.5785
30
0.0
0
VERTEX
8
FRAESEN
10
117.5527
20
163.5785
30
0.0
0
VERTEX
8
FRAESEN
10
117.5527
20
166.6402
30
0.0
0
VERTEX
8
FRAESEN
10
96.8776
20
166.6402
30
0.0
0
SEQEND
0
POLYLINE
8
FRAESEN
66
1
70
1
0
VERTEX
8
FRAESEN
10
10.0422
20
160.5169
30
0.0
0
VERTEX
8
FRAESEN
10
72.0675
20
160.5169
30
0.0
0
VERTEX
8
FRAESEN
10
72.0675
20
163.5785
30
0.0
0
VERTEX
8
FRAESEN
10
10.0422
20
163.5785
30
0.0
0
SEQEND
0
POLYLINE
8
FRAESEN
66
1
70
1
0
VERTEX
8
FRAESEN
10
76.2025
20
157.4553
30
0.0
0
VERTEX
8
FRAESEN
10
80.3376
20
157.4553
30
0.0
0
VERTEX
8
FRAESEN
10
80.3376
20
163.5785
30
0.0
0
VERTEX
8
FRAESEN
10
76.2025
20
163.5785
30
0.0
0
SEQEND
0
POLYLINE
8
FRAESEN
66
1
70
1
0
VERTEX
8
FRAESEN
10
84.4726
20
157.4553
30
0.0
0
VERTEX
8
FRAESEN
10
92.7426
20
157.4553
30
0.0
0
VERTEX
8
FRAESEN
10
92.7426
20
163.5785
30
0.0
0
VERTEX
8
FRAESEN
10
84.4726
20
163.5785
30
0.0
0
SEQEND
0
POLYLINE
8
FRAESEN
66
1
70
1
0
VERTEX
8
FRAESEN
10
96.8776
20
157.4553
30
0.0
0
VERTEX
8
FRAESEN
10
101.0127
20
157.4553
30
0.0
0
VERTEX
8
FRAESEN
10
101.0127
20
163.5785
30
0.0
0
VERTEX
8
FRAESEN
10
96.8776
20
163.5785
30
0.0
0
SEQEND
0
POLYLINE
8
FRAESEN
66
1
70
1
0
VERTEX
8
FRAESEN
10
101.0127
20
157.4553
30
0.0
0
VERTEX
8
FRAESEN
10
125.8228
20
157.4553
30
0.0
0
VERTEX
8
FRAESEN
10
125.8228
20
160.5169
30
0.0
0
VERTEX
8
FRAESEN
10
101.0127
20
160.5169
30
0.0
0
SEQEND
0
POLYLINE
8
FRAESEN
66
1
70
1
0
VERTEX
8
FRAESEN
10
2.3629
20
154.3936
30
0.0
0
VERTEX
8
FRAESEN
10
14.1772
20
154.3936
30
0.0
0
VERTEX
8
FRAESEN
10
14.1772
20
157.4553
30
0.0
0
VERTEX
8
FRAESEN
10
2.3629
20
157.4553
30
0.0
0
SEQEND
0
POLYLINE
8
FRAESEN
66
1
70
1
0
VERTEX
8
FRAESEN
10
18.3122
20
154.3936
30
0.0
0
VERTEX
8
FRAESEN
10
67.9325
20
154.3936
30
0.0
0
VERTEX
8
FRAESEN
10
67.9325
20
157.4553
30
0.0
0
VERTEX
8
FRAESEN
10
18.3122
20
157.4553
30
0.0
0
SEQEND
0
POLYLINE
8
FRAESEN
66
1
70
1
0
VERTEX
8
FRAESEN
10
2.3629
20
117.6541
30
0.0
0
VERTEX
8
FRAESEN
10
5.9072
20
117.6541
30
0.0
0
VERTEX
8
FRAESEN
10
5.9072
20
154.3936
30
0.0
0
VERTEX
8
FRAESEN
10
2.3629
20
154.3936
30
0.0
0
SEQEND
0
POLYLINE
8
FRAESEN
66
1
70
1
0
VERTEX
8
FRAESEN
10
10.0422
20
139.0855
30
0.0
0
VERTEX
8
FRAESEN
10
14.1772
20
139.0855
30
0.0
0
VERTEX
8
FRAESEN
10
14.1772
20
154.3936
30
0.0
0
VERTEX
8
FRAESEN
10
10.0422
20
154.3936
30
0.0
0
SEQEND
0
POLYLINE
8
FRAESEN
66
1
70
1
0
VERTEX
8
FRAESEN
10
18.3122
20
126.8390
30
0.0
0
VERTEX
8
FRAESEN
10
22.4473
20
126.8390
30
0.0
0
VERTEX
8
FRAESEN
10
22.4473
20
154.3936
30
0.0
0
VERTEX
8
FRAESEN
10
18.3122
20
154.3936
30
0.0
0
SEQEND
0
POLYLINE
8
FRAESEN
66
1
70
1
0
VERTEX
8
FRAESEN
10
59.6624
20
151.3320
30
0.0
0
VERTEX
8
FRAESEN
10
67.9325
20
151.3320
30
0.0
0
VERTEX
8
FRAESEN
10
67.9325
20
154.3936
30
0.0
0
VERTEX
8
FRAESEN
10
59.6624
20
154.3936
30
0.0
0
SEQEND
0
POLYLINE
8
FRAESEN
66
1
70
1
0
VERTEX
8
FRAESEN
10
22.4473
20
148.2704
30
0.0
0
VERTEX
8
FRAESEN
10
59.6624
20
148.2704
30
0.0
0
VERTEX
8
FRAESEN
10
59.6624
20
151.3320
30
0.0
0
VERTEX
8
FRAESEN
10
22.4473
20
151.3320
30
0.0
0
SEQEND
0
POLYLINE
8
FRAESEN
66
1
70
1
0
VERTEX
8
FRAESEN
10
63.7975
20
111.5308
30
0.0
0
VERTEX
8
FRAESEN
10
67.9325
20
111.5308
30
0.0
0
VERTEX
8
FRAESEN
10
67.9325
20
151.3320
30
0.0
0
VERTEX
8
FRAESEN
10
63.7975
20
151.3320
30
0.0
0
SEQEND
0
POLYLINE
8
FRAESEN
66
1
70
1
0
VERTEX
8
FRAESEN
10
30.7173
20
145.2087
30
0.0
0
VERTEX
8
FRAESEN
10
59.6624
20
145.2087
30
0.0
0
VERTEX
8
FRAESEN
10
59.6624
20
148.2704
30
0.0
0
VERTEX
8
FRAESEN
10
30.7173
20
148.2704
30
0.0
0
SEQEND
0
POLYLINE
8
FRAESEN
66
1
70
1
0
VERTEX
8
FRAESEN
10
5.9072
20
132.9622
30
0.0
0
VERTEX
8
FRAESEN
10
10.0422
20
132.9622
30
0.0
0
VERTEX
8
FRAESEN
10
10.0422
20
145.2087
30
0.0
0
VERTEX
8
FRAESEN
10
5.9072
20
145.2087
30
0.0
0
SEQEND
0
POLYLINE
8
FRAESEN
66
1
70
1
0
VERTEX
8
FRAESEN
10
14.1772
20
139.0855
30
0.0
0
VERTEX
8
FRAESEN
10
18.3122
20
139.0855
30
0.0
0
VERTEX
8
FRAESEN
10
18.3122
20
145.2087
30
0.0
0
VERTEX
8
FRAESEN
10
14.1772
20
145.2087
30
0.0
0
SEQEND
0
POLYLINE
8
FRAESEN
66
1
70
1
0
VERTEX
8
FRAESEN
10
26.5823
20
139.0855
30
0.0
0
VERTEX
8
FRAESEN
10
43.1224
20
139.0855
30
0.0
0
VERTEX
8
FRAESEN
10
43.1224
20
145.2087
30
0.0
0
VERTEX
8
FRAESEN
10
26.5823
20
145.2087
30
0.0
0
SEQEND
0
POLYLINE
8
FRAESEN
66
1
70
1
0
VERTEX
8
FRAESEN
10
59.6624
20
139.0855
30
0.0
0
VERTEX
8
FRAESEN
10
63.7975
20
139.0855
30
0.0
0
VERTEX
8
FRAESEN
10
63.7975
20
145.2087
30
0.0
0
VERTEX
8
FRAESEN
10
59.6624
20
145.2087
30
0.0
0
SEQEND
0
POLYLINE
8
FRAESEN
66
1
70
1
0
VERTEX
8
FRAESEN
10
43.1224
20
139.0855
30
0.0
0
VERTEX
8
FRAESEN
10
59.6624
20
139.0855
30
0.0
0
VERTEX
8
FRAESEN
10
59.6624
20
142.1471
30
0.0
0
VERTEX
8
FRAESEN
10
43.1224
20
142.1471
30
0.0
0
SEQEND
0
POLYLINE
8
FRAESEN
66
1
70
1
0
VERTEX
8
FRAESEN
10
26.5823
20
132.9622
30
0.0
0
VERTEX
8
FRAESEN
10
30.7173
20
132.9622
30
0.0
0
VERTEX
8
FRAESEN
10
30.7173
20
139.0855
30
0.0
0
VERTEX
8
FRAESEN
10
26.5823
20
139.0855
30
0.0
0
SEQEND
0
POLYLINE
8
FRAESEN
66
1
70
1
0
VERTEX
8
FRAESEN
10
10.0422
20
123.7773
30
0.0
0
VERTEX
8
FRAESEN
10
14.1772
20
123.7773
30
0.0
0
VERTEX
8
FRAESEN
10
14.1772
20
136.0239
30
0.0
0
VERTEX
8
FRAESEN
10
10.0422
20
136.0239
30
0.0
0
SEQEND
0
POLYLINE
8
FRAESEN
66
1
70
1
0
VERTEX
8
FRAESEN
10
30.7173
20
132.9622
30
0.0
0
VERTEX
8
FRAESEN
10
51.3924
20
132.9622
30
0.0
0
VERTEX
8
FRAESEN
10
51.3924
20
136.0239
30
0.0
0
VERTEX
8
FRAESEN
10
30.7173
20
136.0239
30
0.0
0
SEQEND
0
POLYLINE
8
FRAESEN
66
1
70
1
0
VERTEX
8
FRAESEN
10
55.5274
20
117.6541
30
0.0
0
VERTEX
8
FRAESEN
10
59.6624
20
117.6541
30
0.0
0
VERTEX
8
FRAESEN
10
59.6624
20
136.0239
30
0.0
0
VERTEX
8
FRAESEN
10
55.5274
20
136.0239
30
0.0
0
SEQEND
0
POLYLINE
8
FRAESEN
66
1
70
1
0
VERTEX
8
FRAESEN
10
22.4473
20
126.8390
30
0.0
0
VERTEX
8
FRAESEN
10
51.3924
20
126.8390
30
0.0
0
VERTEX
8
FRAESEN
10
51.3924
20
129.9006
30
0.0
0
VERTEX
8
FRAESEN
10
22.4473
20
129.9006
30
0.0
0
SEQEND
0
POLYLINE
8
FRAESEN
66
1
70
1
0
VERTEX
8
FRAESEN
10
5.9072
20
123.7773
30
0.0
0
VERTEX
8
FRAESEN
10
10.0422
20
123.7773
30
0.0
0
VERTEX
8
FRAESEN
10
10.0422
20
126.8390
30
0.0
0
VERTEX
8
FRAESEN
10
5.9072
20
126.8390
30
0.0
0
SEQEND
0
POLYLINE
8
FRAESEN
66
1
70
1
0
VERTEX
8
FRAESEN
10
47.2574
20
123.7773
30
0.0
0
VERTEX
8
FRAESEN
10
51.3924
20
123.7773
30
0.0
0
VERTEX
8
FRAESEN
10
51.3924
20
126.8390
30
0.0
0
VERTEX
8
FRAESEN
10
47.2574
20
126.8390
30
0.0
0
SEQEND
0
POLYLINE
8
FRAESEN
66
1
70
1
0
VERTEX
8
FRAESEN
10
14.1772
20
114.5924
30
0.0
0
VERTEX
8
FRAESEN
10
47.2574
20
114.5924
30
0.0
0
VERTEX
8
FRAESEN
10
47.2574
20
123.7773
30
0.0
0
VERTEX
8
FRAESEN
10
14.1772
20
123.7773
30
0.0
0
SEQEND
0
POLYLINE
8
FRAESEN
66
1
70
1
0
VERTEX
8
FRAESEN
10
5.9072
20
117.6541
30
0.0
0
VERTEX
8
FRAESEN
10
14.1772
20
117.6541
30
0.0
0
VERTEX
8
FRAESEN
10
14.1772
20
120.7157
30
0.0
0
VERTEX
8
FRAESEN
10
5.9072
20
120.7157
30
0.0
0
SEQEND
0
POLYLINE
8
FRAESEN
66
1
70
1
0
VERTEX
8
FRAESEN
10
51.3924
20
114.5924
30
0.0
0
VERTEX
8
FRAESEN
10
55.5274
20
114.5924
30
0.0
0
VERTEX
8
FRAESEN
10
55.5274
20
120.7157
30
0.0
0
VERTEX
8
FRAESEN
10
51.3924
20
120.7157
30
0.0
0
SEQEND
0
POLYLINE
8
FRAESEN
66
1
70
1
0
VERTEX
8
FRAESEN
10
47.2574
20
114.5924
30
0.0
0
VERTEX
8
FRAESEN
10
51.3924
20
114.5924
30
0.0
0
VERTEX
8
FRAESEN
10
51.3924
20
117.6541
30
0.0
0
VERTEX
8
FRAESEN
10
47.2574
20
117.6541
30
0.0
0
SEQEND
0
POLYLINE
8
FRAESEN
66
1
70
1
0
VERTEX
8
FRAESEN
10
18.3122
20
108.4692
30
0.0
0
VERTEX
8
FRAESEN
10
26.5823
20
108.4692
30
0.0
0
VERTEX
8
FRAESEN
10
26.5823
20
114.5924
30
0.0
0
VERTEX
8
FRAESEN
10
18.3122
20
114.5924
30
0.0
0
SEQEND
0
POLYLINE
8
FRAESEN
66
1
70
1
0
VERTEX
8
FRAESEN
10
43.1224
20
108.4692
30
0.0
0
VERTEX
8
FRAESEN
10
47.2574
20
108.4692
30
0.0
0
VERTEX
8
FRAESEN
10
47.2574
20
114.5924
30
0.0
0
VERTEX
8
FRAESEN
10
43.1224
20
114.5924
30
0.0
0
SEQEND
0
POLYLINE
8
FRAESEN
66
1
70
1
0
VERTEX
8
FRAESEN
10
59.6624
20
108.4692
30
0.0
0
VERTEX
8
FRAESEN
10
63.7975
20
108.4692
30
0.0
0
VERTEX
8
FRAESEN
10
63.7975
20
114.5924
30
0.0
0
VERTEX
8
FRAESEN
10
59.6624
20
114.5924
30
0.0
0
SEQEND
0
POLYLINE
8
FRAESEN
66
1
70
1
0
VERTEX
8
FRAESEN
10
14.1772
20
96.2227
30
0.0
0
VERTEX
8
FRAESEN
10
18.3122
20
96.2227
30
0.0
0
VERTEX
8
FRAESEN
10
18.3122
20
111.5308
30
0.0
0
VERTEX
8
FRAESEN
10
14.1772
20
111.5308
30
0.0
0
SEQEND
0
POLYLINE
8
FRAESEN
66
1
70
1
0
VERTEX
8
FRAESEN
10
30.7173
20
102.3459
30
0.0
0
VERTEX
8
FRAESEN
10
38.9873
20
102.3459
30
0.0
0
VERTEX
8
FRAESEN
10
38.9873
20
111.5308
30
0.0
0
VERTEX
8
FRAESEN
10
30.7173
20
111.5308
30
0.0
0
SEQEND
0
POLYLINE
8
FRAESEN
66
1
70
1
0
VERTEX
8
FRAESEN
10
47.2574
20
108.4692
30
0.0
0
VERTEX
8
FRAESEN
10
59.6624
20
108.4692
30
0.0
0
VERTEX
8
FRAESEN
10
59.6624
20
111.5308
30
0.0
0
VERTEX
8
FRAESEN
10
47.2574
20
111.5308
30
0.0
0
SEQEND
0
POLYLINE
8
FRAESEN
66
1
70
1
0
VERTEX
8
FRAESEN
10
67.9325
20
96.2227
30
0.0
0
VERTEX
8
FRAESEN
10
72.0675
20
96.2227
30
0.0
0
VERTEX
8
FRAESEN
10
72.0675
20
111.5308
30
0.0
0
VERTEX
8
FRAESEN
10
67.9325
20
111.5308
30
0.0
0
SEQEND
0
POLYLINE
8
FRAESEN
66
1
70
1
0
VERTEX
8
FRAESEN
10
113.4177
20
96.2227
30
0.0
0
VERTEX
8
FRAESEN
10
117.5527
20
96.2227
30
0.0
0
VERTEX
8
FRAESEN
10
117.5527
20
111.5308
30
0.0
0
VERTEX
8
FRAESEN
10
113.4177
20
111.5308
30
0.0
0
SEQEND
0
POLYLINE
8
FRAESEN
66
1
70
1
0
VERTEX
8
FRAESEN
10
22.4473
20
96.2227
30
0.0
0
VERTEX
8
FRAESEN
10
26.5823
20
96.2227
30
0.0
0
VERTEX
8
FRAESEN
10
26.5823
20
108.4692
30
0.0
0
VERTEX
8
FRAESEN
10
22.4473
20
108.4692
30
0.0
0
SEQEND
0
POLYLINE
8
FRAESEN
66
1
70
1
0
VERTEX
8
FRAESEN
10
38.9873
20
102.3459
30
0.0
0
VERTEX
8
FRAESEN
10
67.9325
20
102.3459
30
0.0
0
VERTEX
8
FRAESEN
10
67.9325
20
105.4076
30
0.0
0
VERTEX
8
FRAESEN
10
38.9873
20
105.4076
30
0.0
0
SEQEND
0
POLYLINE
8
FRAESEN
66
1
70
1
0
VERTEX
8
FRAESEN
10
18.3122
20
96.2227
30
0.0
0
VERTEX
8
FRAESEN
10
22.4473
20
96.2227
30
0.0
0
VERTEX
8
FRAESEN
10
22.4473
20
102.3459
30
0.0
0
VERTEX
8
FRAESEN
10
18.3122
20
102.3459
30
0.0
0
SEQEND
0
POLYLINE
8
FRAESEN
66
1
70
1
0
VERTEX
8
FRAESEN
10
30.7173
20
96.2227
30
0.0
0
VERTEX
8
FRAESEN
10
34.8523
20
96.2227
30
0.0
0
VERTEX
8
FRAESEN
10
34.8523
20
102.3459
30
0.0
0
VERTEX
8
FRAESEN
10
30.7173
20
102.3459
30
0.0
0
SEQEND
0
POLYLINE
8
FRAESEN
66
1
70
1
0
VERTEX
8
FRAESEN
10
76.2025
20
59.4831
30
0.0
0
VERTEX
8
FRAESEN
10
80.3376
20
59.4831
30
0.0
0
VERTEX
8
FRAESEN
10
80.3376
20
102.3459
30
0.0
0
VERTEX
8
FRAESEN
10
76.2025
20
102.3459
30
0.0
0
SEQEND
0
POLYLINE
8
FRAESEN
66
1
70
1
0
VERTEX
8
FRAESEN
10
2.3629
20
96.2227
30
0.0
0
VERTEX
8
FRAESEN
10
14.1772
20
96.2227
30
0.0
0
VERTEX
8
FRAESEN
10
14.1772
20
99.2843
30
0.0
0
VERTEX
8
FRAESEN
10
2.3629
20
99.2843
30
0.0
0
SEQEND
0
POLYLINE
8
FRAESEN
66
1
70
1
0
VERTEX
8
FRAESEN
10
26.5823
20
96.2227
30
0.0
0
VERTEX
8
FRAESEN
10
30.7173
20
96.2227
30
0.0
0
VERTEX
8
FRAESEN
10
30.7173
20
99.2843
30
0.0
0
VERTEX
8
FRAESEN
10
26.5823
20
99.2843
30
0.0
0
SEQEND
0
POLYLINE
8
FRAESEN
66
1
70
1
0
VERTEX
8
FRAESEN
10
34.8523
20
96.2227
30
0.0
0
VERTEX
8
FRAESEN
10
67.9325
20
96.2227
30
0.0
0
VERTEX
8
FRAESEN
10
67.9325
20
99.2843
30
0.0
0
VERTEX
8
FRAESEN
10
34.8523
20
99.2843
30
0.0
0
SEQEND
0
POLYLINE
8
FRAESEN
66
1
70
1
0
VERTEX
8
FRAESEN
10
72.0675
20
96.2227
30
0.0
0
VERTEX
8
FRAESEN
10
76.2025
20
96.2227
30
0.0
0
VERTEX
8
FRAESEN
10
76.2025
20
99.2843
30
0.0
0
VERTEX
8
FRAESEN
10
72.0675
20
99.2843
30
0.0
0
SEQEND
0
POLYLINE
8
FRAESEN
66
1
70
1
0
VERTEX
8
FRAESEN
10
80.3376
20
96.2227
30
0.0
0
VERTEX
8
FRAESEN
10
113.4177
20
96.2227
30
0.0
0
VERTEX
8
FRAESEN
10
113.4177
20
99.2843
30
0.0
0
VERTEX
8
FRAESEN
10
80.3376
20
99.2843
30
0.0
0
SEQEND
0
POLYLINE
8
FRAESEN
66
1
70
1
0
VERTEX
8
FRAESEN
10
117.5527
20
96.2227
30
0.0
0
VERTEX
8
FRAESEN
10
137.6371
20
96.2227
30
0.0
0
VERTEX
8
FRAESEN
10
137.6371
20
99.2843
30
0.0
0
VERTEX
8
FRAESEN
10
117.5527
20
99.2843
30
0.0
0
SEQEND
0
POLYLINE
8
FRAESEN
66
1
70
1
0
VERTEX
8
FRAESEN
10
84.4726
20
87.0378
30
0.0
0
VERTEX
8
FRAESEN
10
96.8776
20
87.0378
30
0.0
0
VERTEX
8
FRAESEN
10
96.8776
20
93.1610
30
0.0
0
VERTEX
8
FRAESEN
10
84.4726
20
93.1610
30
0.0
0
SEQEND
0
POLYLINE
8
FRAESEN
66
1
70
1
0
VERTEX
8
FRAESEN
10
105.1477
20
90.0994
30
0.0
0
VERTEX
8
FRAESEN
10
121.6878
20
90.0994
30
0.0
0
VERTEX
8
FRAESEN
10
121.6878
20
93.1610
30
0.0
0
VERTEX
8
FRAESEN
10
105.1477
20
93.1610
30
0.0
0
SEQEND
0
POLYLINE
8
FRAESEN
66
1
70
1
0
VERTEX
8
FRAESEN
10
105.1477
20
74.7913
30
0.0
0
VERTEX
8
FRAESEN
10
109.2827
20
74.7913
30
0.0
0
VERTEX
8
FRAESEN
10
109.2827
20
90.0994
30
0.0
0
VERTEX
8
FRAESEN
10
105.1477
20
90.0994
30
0.0
0
SEQEND
0
POLYLINE
8
FRAESEN
66
1
70
1
0
VERTEX
8
FRAESEN
10
84.4726
20
74.7913
30
0.0
0
VERTEX
8
FRAESEN
10
88.6076
20
74.7913
30
0.0
0
VERTEX
8
FRAESEN
10
88.6076
20
87.0378
30
0.0
0
VERTEX
8
FRAESEN
10
84.4726
20
87.0378
30
0.0
0
SEQEND
0
POLYLINE
8
FRAESEN
66
1
70
1
0
VERTEX
8
FRAESEN
10
92.7426
20
80.9145
30
0.0
0
VERTEX
8
FRAESEN
10
96.8776
20
80.9145
30
0.0
0
VERTEX
8
FRAESEN
10
96.8776
20
87.0378
30
0.0
0
VERTEX
8
FRAESEN
10
92.7426
20
87.0378
30
0.0
0
SEQEND
0
POLYLINE
8
FRAESEN
66
1
70
1
0
VERTEX
8
FRAESEN
10
88.6076
20
74.7913
30
0.0
0
VERTEX
8
FRAESEN
10
92.7426
20
74.7913
30
0.0
0
VERTEX
8
FRAESEN
10
92.7426
20
83.9761
30
0.0
0
VERTEX
8
FRAESEN
10
88.6076
20
83.9761
30
0.0
0
SEQEND
0
POLYLINE
8
FRAESEN
66
1
70
1
0
VERTEX
8
FRAESEN
10
80.3376
20
74.7913
30
0.0
0
VERTEX
8
FRAESEN
10
84.4726
20
74.7913
30
0.0
0
VERTEX
8
FRAESEN
10
84.4726
20
80.9145
30
0.0
0
VERTEX
8
FRAESEN
10
80.3376
20
80.9145
30
0.0
0
SEQEND
0
POLYLINE
8
FRAESEN
66
1
70
1
0
VERTEX
8
FRAESEN
10
101.0127
20
74.7913
30
0.0
0
VERTEX
8
FRAESEN
10
105.1477
20
74.7913
30
0.0
0
VERTEX
8
FRAESEN
10
105.1477
20
80.9145
30
0.0
0
VERTEX
8
FRAESEN
10
101.0127
20
80.9145
30
0.0
0
SEQEND
0
POLYLINE
8
FRAESEN
66
1
70
1
0
VERTEX
8
FRAESEN
10
92.7426
20
74.7913
30
0.0
0
VERTEX
8
FRAESEN
10
101.0127
20
74.7913
30
0.0
0
VERTEX
8
FRAESEN
10
101.0127
20
77.8529
30
0.0
0
VERTEX
8
FRAESEN
10
92.7426
20
77.8529
30
0.0
0
SEQEND
0
POLYLINE
8
FRAESEN
66
1
70
1
0
VERTEX
8
FRAESEN
10
109.2827
20
74.7913
30
0.0
0
VERTEX
8
FRAESEN
10
137.6371
20
74.7913
30
0.0
0
VERTEX
8
FRAESEN
10
137.6371
20
77.8529
30
0.0
0
VERTEX
8
FRAESEN
10
109.2827
20
77.8529
30
0.0
0
SEQEND
0
POLYLINE
8
FRAESEN
66
1
70
1
0
VERTEX
8
FRAESEN
10
84.4726
20
68.6680
30
0.0
0
VERTEX
8
FRAESEN
10
137.6371
20
68.6680
30
0.0
0
VERTEX
8
FRAESEN
10
137.6371
20
71.7296
30
0.0
0
VERTEX
8
FRAESEN
10
84.4726
20
71.7296
30
0.0
0
SEQEND
0
POLYLINE
8
FRAESEN
66
1
70
1
0
VERTEX
8
FRAESEN
10
84.4726
20
59.4831
30
0.0
0
VERTEX
8
FRAESEN
10
88.6076
20
59.4831
30
0.0
0
VERTEX
8
FRAESEN
10
88.6076
20
68.6680
30
0.0
0
VERTEX
8
FRAESEN
10
84.4726
20
68.6680
30
0.0
0
SEQEND
0
POLYLINE
8
FRAESEN
66
1
70
1
0
VERTEX
8
FRAESEN
10
96.8776
20
65.6064
30
0.0
0
VERTEX
8
FRAESEN
10
105.1477
20
65.6064
30
0.0
0
VERTEX
8
FRAESEN
10
105.1477
20
68.6680
30
0.0
0
VERTEX
8
FRAESEN
10
96.8776
20
68.6680
30
0.0
0
SEQEND
0
POLYLINE
8
FRAESEN
66
1
70
1
0
VERTEX
8
FRAESEN
10
109.2827
20
65.6064
30
0.0
0
VERTEX
8
FRAESEN
10
134.0928
20
65.6064
30
0.0
0
VERTEX
8
FRAESEN
10
134.0928
20
68.6680
30
0.0
0
VERTEX
8
FRAESEN
10
109.2827
20
68.6680
30
0.0
0
SEQEND
0
POLYLINE
8
FRAESEN
66
1
70
1
0
VERTEX
8
FRAESEN
10
129.9578
20
19.6819
30
0.0
0
VERTEX
8
FRAESEN
10
134.0928
20
19.6819
30
0.0
0
VERTEX
8
FRAESEN
10
134.0928
20
65.6064
30
0.0
0
VERTEX
8
FRAESEN
10
129.9578
20
65.6064
30
0.0
0
SEQEND
0
POLYLINE
8
FRAESEN
66
1
70
1
0
VERTEX
8
FRAESEN
10
80.3376
20
59.4831
30
0.0
0
VERTEX
8
FRAESEN
10
84.4726
20
59.4831
30
0.0
0
VERTEX
8
FRAESEN
10
84.4726
20
62.5447
30
0.0
0
VERTEX
8
FRAESEN
10
80.3376
20
62.5447
30
0.0
0
SEQEND
0
POLYLINE
8
FRAESEN
66
1
70
1
0
VERTEX
8
FRAESEN
10
88.6076
20
59.4831
30
0.0
0
VERTEX
8
FRAESEN
10
125.8228
20
59.4831
30
0.0
0
VERTEX
8
FRAESEN
10
125.8228
20
62.5447
30
0.0
0
VERTEX
8
FRAESEN
10
88.6076
20
62.5447
30
0.0
0
SEQEND
0
POLYLINE
8
FRAESEN
66
1
70
1
0
VERTEX
8
FRAESEN
10
121.6878
20
25.8052
30
0.0
0
VERTEX
8
FRAESEN
10
125.8228
20
25.8052
30
0.0
0
VERTEX
8
FRAESEN
10
125.8228
20
59.4831
30
0.0
0
VERTEX
8
FRAESEN
10
121.6878
20
59.4831
30
0.0
0
SEQEND
0
POLYLINE
8
FRAESEN
66
1
70
1
0
VERTEX
8
FRAESEN
10
76.2025
20
53.3598
30
0.0
0
VERTEX
8
FRAESEN
10
121.6878
20
53.3598
30
0.0
0
VERTEX
8
FRAESEN
10
121.6878
20
56.4215
30
0.0
0
VERTEX
8
FRAESEN
10
76.2025
20
56.4215
30
0.0
0
SEQEND
0
POLYLINE
8
FRAESEN
66
1
70
1
0
VERTEX
8
FRAESEN
10
134.0928
20
44.1750
30
0.0
0
VERTEX
8
FRAESEN
10
137.6371
20
44.1750
30
0.0
0
VERTEX
8
FRAESEN
10
137.6371
20
50.2982
30
0.0
0
VERTEX
8
FRAESEN
10
134.0928
20
50.2982
30
0.0
0
SEQEND
0
POLYLINE
8
FRAESEN
66
1
70
1
0
VERTEX
8
FRAESEN
10
121.6878
20
19.6819
30
0.0
0
VERTEX
8
FRAESEN
10
129.9578
20
19.6819
30
0.0
0
VERTEX
8
FRAESEN
10
129.9578
20
22.7435
30
0.0
0
VERTEX
8
FRAESEN
10
121.6878
20
22.7435
30
0.0
0
SEQEND
0
POLYLINE
8
FRAESEN
66
1
70
1
0
VERTEX
8
FRAESEN
10
101.0127
20
212.5646
30
0.0
0
VERTEX
8
FRAESEN
10
117.5527
20
212.5646
30
0.0
0
VERTEX
8
FRAESEN
10
117.5527
20
215.6262
30
0.0
0
VERTEX
8
FRAESEN
10
101.0127
20
215.6262
30
0.0
0
SEQEND
0
POLYLINE
8
FRAESEN
66
1
70
1
0
VERTEX
8
FRAESEN
10
121.6878
20
212.5646
30
0.0
0
VERTEX
8
FRAESEN
10
137.6371
20
212.5646
30
0.0
0
VERTEX
8
FRAESEN
10
137.6371
20
215.6262
30
0.0
0
VERTEX
8
FRAESEN
10
121.6878
20
215.6262
30
0.0
0
SEQEND
0
POLYLINE
8
FRAESEN
66
1
70
1
0
VERTEX
8
FRAESEN
10
101.0127
20
194.1948
30
0.0
0
VERTEX
8
FRAESEN
10
105.1477
20
194.1948
30
0.0
0
VERTEX
8
FRAESEN
10
105.1477
20
212.5646
30
0.0
0
VERTEX
8
FRAESEN
10
101.0127
20
212.5646
30
0.0
0
SEQEND
0
POLYLINE
8
FRAESEN
66
1
70
1
0
VERTEX
8
FRAESEN
10
113.4177
20
200.3181
30
0.0
0
VERTEX
8
FRAESEN
10
117.5527
20
200.3181
30
0.0
0
VERTEX
8
FRAESEN
10
117.5527
20
212.5646
30
0.0
0
VERTEX
8
FRAESEN
10
113.4177
20
212.5646
30
0.0
0
SEQEND
0
POLYLINE
8
FRAESEN
66
1
70
1
0
VERTEX
8
FRAESEN
10
121.6878
20
194.1948
30
0.0
0
VERTEX
8
FRAESEN
10
125.8228
20
194.1948
30
0.0
0
VERTEX
8
FRAESEN
10
125.8228
20
212.5646
30
0.0
0
VERTEX
8
FRAESEN
10
121.6878
20
212.5646
30
0.0
0
SEQEND
0
POLYLINE
8
FRAESEN
66
1
70
1
0
VERTEX
8
FRAESEN
10
105.1477
20
206.4414
30
0.0
0
VERTEX
8
FRAESEN
10
113.4177
20
206.4414
30
0.0
0
VERTEX
8
FRAESEN
10
113.4177
20
209.5030
30
0.0
0
VERTEX
8
FRAESEN
10
105.1477
20
209.5030
30
0.0
0
SEQEND
0
POLYLINE
8
FRAESEN
66
1
70
1
0
VERTEX
8
FRAESEN
10
109.2827
20
194.1948
30
0.0
0
VERTEX
8
FRAESEN
10
113.4177
20
194.1948
30
0.0
0
VERTEX
8
FRAESEN
10
113.4177
20
203.3797
30
0.0
0
VERTEX
8
FRAESEN
10
109.2827
20
203.3797
30
0.0
0
SEQEND
0
POLYLINE
8
FRAESEN
66
1
70
1
0
VERTEX
8
FRAESEN
10
125.8228
20
200.3181
30
0.0
0
VERTEX
8
FRAESEN
10
137.6371
20
200.3181
30
0.0
0
VERTEX
8
FRAESEN
10
137.6371
20
203.3797
30
0.0
0
VERTEX
8
FRAESEN
10
125.8228
20
203.3797
30
0.0
0
SEQEND
0
POLYLINE
8
FRAESEN
66
1
70
1
0
VERTEX
8
FRAESEN
10
105.1477
20
194.1948
30
0.0
0
VERTEX
8
FRAESEN
10
109.2827
20
194.1948
30
0.0
0
VERTEX
8
FRAESEN
10
109.2827
20
200.3181
30
0.0
0
VERTEX
8
FRAESEN
10
105.1477
20
200.3181
30
0.0
0
SEQEND
0
POLYLINE
8
FRAESEN
66
1
70
1
0
VERTEX
8
FRAESEN
10
117.5527
20
194.1948
30
0.0
0
VERTEX
8
FRAESEN
10
121.6878
20
194.1948
30
0.0
0
VERTEX
8
FRAESEN
10
121.6878
20
200.3181
30
0.0
0
VERTEX
8
FRAESEN
10
117.5527
20
200.3181
30
0.0
0
SEQEND
0
POLYLINE
8
FRAESEN
66
1
70
1
0
VERTEX
8
FRAESEN
10
113.4177
20
194.1948
30
0.0
0
VERTEX
8
FRAESEN
10
117.5527
20
194.1948
30
0.0
0
VERTEX
8
FRAESEN
10
117.5527
20
197.2565
30
0.0
0
VERTEX
8
FRAESEN
10
113.4177
20
197.2565
30
0.0
0
SEQEND
0
POLYLINE
8
FRAESEN
66
1
70
1
0
VERTEX
8
FRAESEN
10
125.8228
20
194.1948
30
0.0
0
VERTEX
8
FRAESEN
10
137.6371
20
194.1948
30
0.0
0
VERTEX
8
FRAESEN
10
137.6371
20
197.2565
30
0.0
0
VERTEX
8
FRAESEN
10
125.8228
20
197.2565
30
0.0
0
SEQEND
0
POLYLINE
8
FRAESEN
66
1
70
1
0
VERTEX
8
FRAESEN
10
129.9578
20
206.4414
30
0.0
0
VERTEX
8
FRAESEN
10
137.6371
20
206.4414
30
0.0
0
VERTEX
8
FRAESEN
10
137.6371
20
209.5030
30
0.0
0
VERTEX
8
FRAESEN
10
129.9578
20
209.5030
30
0.0
0
SEQEND
0
POLYLINE
8
FRAESEN
66
1
70
1
0
VERTEX
8
FRAESEN
10
80.3376
20
151.3320
30
0.0
0
VERTEX
8
FRAESEN
10
121.6878
20
151.3320
30
0.0
0
VERTEX
8
FRAESEN
10
121.6878
20
154.3936
30
0.0
0
VERTEX
8
FRAESEN
10
80.3376
20
154.3936
30
0.0
0
SEQEND
0
POLYLINE
8
FRAESEN
66
1
70
1
0
VERTEX
8
FRAESEN
10
125.8228
20
151.3320
30
0.0
0
VERTEX
8
FRAESEN
10
137.6371
20
151.3320
30
0.0
0
VERTEX
8
FRAESEN
10
137.6371
20
154.3936
30
0.0
0
VERTEX
8
FRAESEN
10
125.8228
20
154.3936
30
0.0
0
SEQEND
0
POLYLINE
8
FRAESEN
66
1
70
1
0
VERTEX
8
FRAESEN
10
80.3376
20
114.5924
30
0.0
0
VERTEX
8
FRAESEN
10
84.4726
20
114.5924
30
0.0
0
VERTEX
8
FRAESEN
10
84.4726
20
151.3320
30
0.0
0
VERTEX
8
FRAESEN
10
80.3376
20
151.3320
30
0.0
0
SEQEND
0
POLYLINE
8
FRAESEN
66
1
70
1
0
VERTEX
8
FRAESEN
10
117.5527
20
132.9622
30
0.0
0
VERTEX
8
FRAESEN
10
121.6878
20
132.9622
30
0.0
0
VERTEX
8
FRAESEN
10
121.6878
20
151.3320
30
0.0
0
VERTEX
8
FRAESEN
10
117.5527
20
151.3320
30
0.0
0
SEQEND
0
POLYLINE
8
FRAESEN
66
1
70
1
0
VERTEX
8
FRAESEN
10
125.8228
20
126.8390
30
0.0
0
VERTEX
8
FRAESEN
10
129.9578
20
126.8390
30
0.0
0
VERTEX
8
FRAESEN
10
129.9578
20
151.3320
30
0.0
0
VERTEX
8
FRAESEN
10
125.8228
20
151.3320
30
0.0
0
SEQEND
0
POLYLINE
8
FRAESEN
66
1
70
1
0
VERTEX
8
FRAESEN
10
88.6076
20
145.2087
30
0.0
0
VERTEX
8
FRAESEN
10
117.5527
20
145.2087
30
0.0
0
VERTEX
8
FRAESEN
10
117.5527
20
148.2704
30
0.0
0
VERTEX
8
FRAESEN
10
88.6076
20
148.2704
30
0.0
0
SEQEND
0
POLYLINE
8
FRAESEN
66
1
70
1
0
VERTEX
8
FRAESEN
10
134.0928
20
120.7157
30
0.0
0
VERTEX
8
FRAESEN
10
137.6371
20
120.7157
30
0.0
0
VERTEX
8
FRAESEN
10
137.6371
20
148.2704
30
0.0
0
VERTEX
8
FRAESEN
10
134.0928
20
148.2704
30
0.0
0
SEQEND
0
POLYLINE
8
FRAESEN
66
1
70
1
0
VERTEX
8
FRAESEN
10
88.6076
20
114.5924
30
0.0
0
VERTEX
8
FRAESEN
10
92.7426
20
114.5924
30
0.0
0
VERTEX
8
FRAESEN
10
92.7426
20
145.2087
30
0.0
0
VERTEX
8
FRAESEN
10
88.6076
20
145.2087
30
0.0
0
SEQEND
0
POLYLINE
8
FRAESEN
66
1
70
1
0
VERTEX
8
FRAESEN
10
109.2827
20
139.0855
30
0.0
0
VERTEX
8
FRAESEN
10
113.4177
20
139.0855
30
0.0
0
VERTEX
8
FRAESEN
10
113.4177
20
145.2087
30
0.0
0
VERTEX
8
FRAESEN
10
109.2827
20
145.2087
30
0.0
0
SEQEND
0
POLYLINE
8
FRAESEN
66
1
70
1
0
VERTEX
8
FRAESEN
10
96.8776
20
139.0855
30
0.0
0
VERTEX
8
FRAESEN
10
109.2827
20
139.0855
30
0.0
0
VERTEX
8
FRAESEN
10
109.2827
20
142.1471
30
0.0
0
VERTEX
8
FRAESEN
10
96.8776
20
142.1471
30
0.0
0
SEQEND
0
POLYLINE
8
FRAESEN
66
1
70
1
0
VERTEX
8
FRAESEN
10
96.8776
20
126.8390
30
0.0
0
VERTEX
8
FRAESEN
10
101.0127
20
126.8390
30
0.0
0
VERTEX
8
FRAESEN
10
101.0127
20
139.0855
30
0.0
0
VERTEX
8
FRAESEN
10
96.8776
20
139.0855
30
0.0
0
SEQEND
0
POLYLINE
8
FRAESEN
66
1
70
1
0
VERTEX
8
FRAESEN
10
105.1477
20
132.9622
30
0.0
0
VERTEX
8
FRAESEN
10
117.5527
20
132.9622
30
0.0
0
VERTEX
8
FRAESEN
10
117.5527
20
136.0239
30
0.0
0
VERTEX
8
FRAESEN
10
105.1477
20
136.0239
30
0.0
0
SEQEND
0
POLYLINE
8
FRAESEN
66
1
70
1
0
VERTEX
8
FRAESEN
10
101.0127
20
126.8390
30
0.0
0
VERTEX
8
FRAESEN
10
125.8228
20
126.8390
30
0.0
0
VERTEX
8
FRAESEN
10
125.8228
20
129.9006
30
0.0
0
VERTEX
8
FRAESEN
10
101.0127
20
129.9006
30
0.0
0
SEQEND
0
POLYLINE
8
FRAESEN
66
1
70
1
0
VERTEX
8
FRAESEN
10
92.7426
20
120.7157
30
0.0
0
VERTEX
8
FRAESEN
10
134.0928
20
120.7157
30
0.0
0
VERTEX
8
FRAESEN
10
134.0928
20
123.7773
30
0.0
0
VERTEX
8
FRAESEN
10
92.7426
20
123.7773
30
0.0
0
SEQEND
0
POLYLINE
8
FRAESEN
66
1
70
1
0
VERTEX
8
FRAESEN
10
84.4726
20
114.5924
30
0.0
0
VERTEX
8
FRAESEN
10
88.6076
20
114.5924
30
0.0
0
VERTEX
8
FRAESEN
10
88.6076
20
120.7157
30
0.0
0
VERTEX
8
FRAESEN
10
84.4726
20
120.7157
30
0.0
0
SEQEND
0
POLYLINE
8
FRAESEN
66
1
70
1
0
VERTEX
8
FRAESEN
10
92.7426
20
114.5924
30
0.0
0
VERTEX
8
FRAESEN
10
137.6371
20
114.5924
30
0.0
0
VERTEX
8
FRAESEN
10
137.6371
20
117.6541
30
0.0
0
VERTEX
8
FRAESEN
10
92.7426
20
117.6541
30
0.0
0
SEQEND
0
POLYLINE
8
FRAESEN
66
1
70
1
0
VERTEX
8
FRAESEN
10
134.0928
20
102.3459
30
0.0
0
VERTEX
8
FRAESEN
10
137.6371
20
102.3459
30
0.0
0
VERTEX
8
FRAESEN
10
137.6371
20
114.5924
30
0.0
0
VERTEX
8
FRAESEN
10
134.0928
20
114.5924
30
0.0
0
SEQEND
0
POLYLINE
8
FRAESEN
66
1
70
1
0
VERTEX
8
FRAESEN
10
121.6878
20
108.4692
30
0.0
0
VERTEX
8
FRAESEN
10
134.0928
20
108.4692
30
0.0
0
VERTEX
8
FRAESEN
10
134.0928
20
111.5308
30
0.0
0
VERTEX
8
FRAESEN
10
121.6878
20
111.5308
30
0.0
0
SEQEND
0
POLYLINE
8
FRAESEN
66
1
70
1
0
VERTEX
8
FRAESEN
10
121.6878
20
102.3459
30
0.0
0
VERTEX
8
FRAESEN
10
125.8228
20
102.3459
30
0.0
0
VERTEX
8
FRAESEN
10
125.8228
20
108.4692
30
0.0
0
VERTEX
8
FRAESEN
10
121.6878
20
108.4692
30
0.0
0
SEQEND
0
POLYLINE
8
FRAESEN
66
1
70
1
0
VERTEX
8
FRAESEN
10
125.8228
20
102.3459
30
0.0
0
VERTEX
8
FRAESEN
10
134.0928
20
102.3459
30
0.0
0
VERTEX
8
FRAESEN
10
134.0928
20
105.4076
30
0.0
0
VERTEX
8
FRAESEN
10
125.8228
20
105.4076
30
0.0
0
SEQEND
0
POLYLINE
8
FRAESEN
66
1
70
1
0
VERTEX
8
FRAESEN
10
2.3629
20
111.5308
30
0.0
0
VERTEX
8
FRAESEN
10
5.9072
20
111.5308
30
0.0
0
VERTEX
8
FRAESEN
10
5.9072
20
114.5924
30
0.0
0
VERTEX
8
FRAESEN
10
2.3629
20
114.5924
30
0.0
0
SEQEND
0
POLYLINE
8
FRAESEN
66
1
70
1
0
VERTEX
8
FRAESEN
10
5.9072
20
102.3459
30
0.0
0
VERTEX
8
FRAESEN
10
10.0422
20
102.3459
30
0.0
0
VERTEX
8
FRAESEN
10
10.0422
20
111.5308
30
0.0
0
VERTEX
8
FRAESEN
10
5.9072
20
111.5308
30
0.0
0
SEQEND
0
POLYLINE
8
FRAESEN
66
1
70
1
0
VERTEX
8
FRAESEN
10
2.3629
20
102.3459
30
0.0
0
VERTEX
8
FRAESEN
10
5.9072
20
102.3459
30
0.0
0
VERTEX
8
FRAESEN
10
5.9072
20
108.4692
30
0.0
0
VERTEX
8
FRAESEN
10
2.3629
20
108.4692
30
0.0
0
SEQEND
0
POLYLINE
8
FRAESEN
66
1
70
1
0
VERTEX
8
FRAESEN
10
80.3376
20
108.4692
30
0.0
0
VERTEX
8
FRAESEN
10
109.2827
20
108.4692
30
0.0
0
VERTEX
8
FRAESEN
10
109.2827
20
111.5308
30
0.0
0
VERTEX
8
FRAESEN
10
80.3376
20
111.5308
30
0.0
0
SEQEND
0
POLYLINE
8
FRAESEN
66
1
70
1
0
VERTEX
8
FRAESEN
10
80.3376
20
105.4076
30
0.0
0
VERTEX
8
FRAESEN
10
84.4726
20
105.4076
30
0.0
0
VERTEX
8
FRAESEN
10
84.4726
20
108.4692
30
0.0
0
VERTEX
8
FRAESEN
10
80.3376
20
108.4692
30
0.0
0
SEQEND
0
POLYLINE
8
FRAESEN
66
1
70
1
0
VERTEX
8
FRAESEN
10
96.8776
20
102.3459
30
0.0
0
VERTEX
8
FRAESEN
10
101.0127
20
102.3459
30
0.0
0
VERTEX
8
FRAESEN
10
101.0127
20
108.4692
30
0.0
0
VERTEX
8
FRAESEN
10
96.8776
20
108.4692
30
0.0
0
SEQEND
0
POLYLINE
8
FRAESEN
66
1
70
1
0
VERTEX
8
FRAESEN
10
105.1477
20
102.3459
30
0.0
0
VERTEX
8
FRAESEN
10
109.2827
20
102.3459
30
0.0
0
VERTEX
8
FRAESEN
10
109.2827
20
108.4692
30
0.0
0
VERTEX
8
FRAESEN
10
105.1477
20
108.4692
30
0.0
0
SEQEND
0
POLYLINE
8
FRAESEN
66
1
70
1
0
VERTEX
8
FRAESEN
10
88.6076
20
102.3459
30
0.0
0
VERTEX
8
FRAESEN
10
96.8776
20
102.3459
30
0.0
0
VERTEX
8
FRAESEN
10
96.8776
20
105.4076
30
0.0
0
VERTEX
8
FRAESEN
10
88.6076
20
105.4076
30
0.0
0
SEQEND
0
POLYLINE
8
FRAESEN
66
1
70
1
0
VERTEX
8
FRAESEN
10
2.3629
20
90.0994
30
0.0
0
VERTEX
8
FRAESEN
10
10.0422
20
90.0994
30
0.0
0
VERTEX
8
FRAESEN
10
10.0422
20
93.1610
30
0.0
0
VERTEX
8
FRAESEN
10
2.3629
20
93.1610
30
0.0
0
SEQEND
0
POLYLINE
8
FRAESEN
66
1
70
1
0
VERTEX
8
FRAESEN
10
5.9072
20
83.9761
30
0.0
0
VERTEX
8
FRAESEN
10
10.0422
20
83.9761
30
0.0
0
VERTEX
8
FRAESEN
10
10.0422
20
90.0994
30
0.0
0
VERTEX
8
FRAESEN
10
5.9072
20
90.0994
30
0.0
0
SEQEND
0
POLYLINE
8
FRAESEN
66
1
70
1
0
VERTEX
8
FRAESEN
10
2.3629
20
83.9761
30
0.0
0
VERTEX
8
FRAESEN
10
5.9072
20
83.9761
30
0.0
0
VERTEX
8
FRAESEN
10
5.9072
20
87.0378
30
0.0
0
VERTEX
8
FRAESEN
10
2.3629
20
87.0378
30
0.0
0
SEQEND
0
POLYLINE
8
FRAESEN
66
1
70
1
0
VERTEX
8
FRAESEN
10
14.1772
20
90.0994
30
0.0
0
VERTEX
8
FRAESEN
10
38.9873
20
90.0994
30
0.0
0
VERTEX
8
FRAESEN
10
38.9873
20
93.1610
30
0.0
0
VERTEX
8
FRAESEN
10
14.1772
20
93.1610
30
0.0
0
SEQEND
0
POLYLINE
8
FRAESEN
66
1
70
1
0
VERTEX
8
FRAESEN
10
14.1772
20
83.9761
30
0.0
0
VERTEX
8
FRAESEN
10
18.3122
20
83.9761
30
0.0
0
VERTEX
8
FRAESEN
10
18.3122
20
90.0994
30
0.0
0
VERTEX
8
FRAESEN
10
14.1772
20
90.0994
30
0.0
0
SEQEND
0
POLYLINE
8
FRAESEN
66
1
70
1
0
VERTEX
8
FRAESEN
10
34.8523
20
83.9761
30
0.0
0
VERTEX
8
FRAESEN
10
38.9873
20
83.9761
30
0.0
0
VERTEX
8
FRAESEN
10
38.9873
20
90.0994
30
0.0
0
VERTEX
8
FRAESEN
10
34.8523
20
90.0994
30
0.0
0
SEQEND
0
POLYLINE
8
FRAESEN
66
1
70
1
0
VERTEX
8
FRAESEN
10
18.3122
20
83.9761
30
0.0
0
VERTEX
8
FRAESEN
10
34.8523
20
83.9761
30
0.0
0
VERTEX
8
FRAESEN
10
34.8523
20
87.0378
30
0.0
0
VERTEX
8
FRAESEN
10
18.3122
20
87.0378
30
0.0
0
SEQEND
0
POLYLINE
8
FRAESEN
66
1
70
1
0
VERTEX
8
FRAESEN
10
43.1224
20
90.0994
30
0.0
0
VERTEX
8
FRAESEN
10
72.0675
20
90.0994
30
0.0
0
VERTEX
8
FRAESEN
10
72.0675
20
93.1610
30
0.0
0
VERTEX
8
FRAESEN
10
43.1224
20
93.1610
30
0.0
0
SEQEND
0
POLYLINE
8
FRAESEN
66
1
70
1
0
VERTEX
8
FRAESEN
10
43.1224
20
83.9761
30
0.0
0
VERTEX
8
FRAESEN
10
47.2574
20
83.9761
30
0.0
0
VERTEX
8
FRAESEN
10
47.2574
20
90.0994
30
0.0
0
VERTEX
8
FRAESEN
10
43.1224
20
90.0994
30
0.0
0
SEQEND
0
POLYLINE
8
FRAESEN
66
1
70
1
0
VERTEX
8
FRAESEN
10
67.9325
20
53.3598
30
0.0
0
VERTEX
8
FRAESEN
10
72.0675
20
53.3598
30
0.0
0
VERTEX
8
FRAESEN
10
72.0675
20
90.0994
30
0.0
0
VERTEX
8
FRAESEN
10
67.9325
20
90.0994
30
0.0
0
SEQEND
0
POLYLINE
8
FRAESEN
66
1
70
1
0
VERTEX
8
FRAESEN
10
47.2574
20
83.9761
30
0.0
0
VERTEX
8
FRAESEN
10
67.9325
20
83.9761
30
0.0
0
VERTEX
8
FRAESEN
10
67.9325
20
87.0378
30
0.0
0
VERTEX
8
FRAESEN
10
47.2574
20
87.0378
30
0.0
0
SEQEND
0
POLYLINE
8
FRAESEN
66
1
70
1
0
VERTEX
8
FRAESEN
10
2.3629
20
77.8529
30
0.0
0
VERTEX
8
FRAESEN
10
63.7975
20
77.8529
30
0.0
0
VERTEX
8
FRAESEN
10
63.7975
20
80.9145
30
0.0
0
VERTEX
8
FRAESEN
10
2.3629
20
80.9145
30
0.0
0
SEQEND
0
POLYLINE
8
FRAESEN
66
1
70
1
0
VERTEX
8
FRAESEN
10
5.9072
20
74.7913
30
0.0
0
VERTEX
8
FRAESEN
10
10.0422
20
74.7913
30
0.0
0
VERTEX
8
FRAESEN
10
10.0422
20
77.8529
30
0.0
0
VERTEX
8
FRAESEN
10
5.9072
20
77.8529
30
0.0
0
SEQEND
0
POLYLINE
8
FRAESEN
66
1
70
1
0
VERTEX
8
FRAESEN
10
14.1772
20
74.7913
30
0.0
0
VERTEX
8
FRAESEN
10
38.9873
20
74.7913
30
0.0
0
VERTEX
8
FRAESEN
10
38.9873
20
77.8529
30
0.0
0
VERTEX
8
FRAESEN
10
14.1772
20
77.8529
30
0.0
0
SEQEND
0
POLYLINE
8
FRAESEN
66
1
70
1
0
VERTEX
8
FRAESEN
10
43.1224
20
74.7913
30
0.0
0
VERTEX
8
FRAESEN
10
63.7975
20
74.7913
30
0.0
0
VERTEX
8
FRAESEN
10
63.7975
20
77.8529
30
0.0
0
VERTEX
8
FRAESEN
10
43.1224
20
77.8529
30
0.0
0
SEQEND
0
POLYLINE
8
FRAESEN
66
1
70
1
0
VERTEX
8
FRAESEN
10
59.6624
20
53.3598
30
0.0
0
VERTEX
8
FRAESEN
10
63.7975
20
53.3598
30
0.0
0
VERTEX
8
FRAESEN
10
63.7975
20
74.7913
30
0.0
0
VERTEX
8
FRAESEN
10
59.6624
20
74.7913
30
0.0
0
SEQEND
0
POLYLINE
8
FRAESEN
66
1
70
1
0
VERTEX
8
FRAESEN
10
43.1224
20
68.6680
30
0.0
0
VERTEX
8
FRAESEN
10
55.5274
20
68.6680
30
0.0
0
VERTEX
8
FRAESEN
10
55.5274
20
71.7296
30
0.0
0
VERTEX
8
FRAESEN
10
43.1224
20
71.7296
30
0.0
0
SEQEND
0
POLYLINE
8
FRAESEN
66
1
70
1
0
VERTEX
8
FRAESEN
10
51.3924
20
62.5447
30
0.0
0
VERTEX
8
FRAESEN
10
55.5274
20
62.5447
30
0.0
0
VERTEX
8
FRAESEN
10
55.5274
20
68.6680
30
0.0
0
VERTEX
8
FRAESEN
10
51.3924
20
68.6680
30
0.0
0
SEQEND
0
POLYLINE
8
FRAESEN
66
1
70
1
0
VERTEX
8
FRAESEN
10
22.4473
20
62.5447
30
0.0
0
VERTEX
8
FRAESEN
10
51.3924
20
62.5447
30
0.0
0
VERTEX
8
FRAESEN
10
51.3924
20
65.6064
30
0.0
0
VERTEX
8
FRAESEN
10
22.4473
20
65.6064
30
0.0
0
SEQEND
0
POLYLINE
8
FRAESEN
66
1
70
1
0
VERTEX
8
FRAESEN
10
55.5274
20
62.5447
30
0.0
0
VERTEX
8
FRAESEN
10
59.6624
20
62.5447
30
0.0
0
VERTEX
8
FRAESEN
10
59.6624
20
65.6064
30
0.0
0
VERTEX
8
FRAESEN
10
55.5274
20
65.6064
30
0.0
0
SEQEND
0
POLYLINE
8
FRAESEN
66
1
70
1
0
VERTEX
8
FRAESEN
10
22.4473
20
56.4215
30
0.0
0
VERTEX
8
FRAESEN
10
26.5823
20
56.4215
30
0.0
0
VERTEX
8
FRAESEN
10
26.5823
20
62.5447
30
0.0
0
VERTEX
8
FRAESEN
10
22.4473
20
62.5447
30
0.0
0
SEQEND
0
POLYLINE
8
FRAESEN
66
1
70
1
0
VERTEX
8
FRAESEN
10
26.5823
20
56.4215
30
0.0
0
VERTEX
8
FRAESEN
10
51.3924
20
56.4215
30
0.0
0
VERTEX
8
FRAESEN
10
51.3924
20
59.4831
30
0.0
0
VERTEX
8
FRAESEN
10
26.5823
20
59.4831
30
0.0
0
SEQEND
0
POLYLINE
8
FRAESEN
66
1
70
1
0
VERTEX
8
FRAESEN
10
55.5274
20
53.3598
30
0.0
0
VERTEX
8
FRAESEN
10
59.6624
20
53.3598
30
0.0
0
VERTEX
8
FRAESEN
10
59.6624
20
59.4831
30
0.0
0
VERTEX
8
FRAESEN
10
55.5274
20
59.4831
30
0.0
0
SEQEND
0
POLYLINE
8
FRAESEN
66
1
70
1
0
VERTEX
8
FRAESEN
10
47.2574
20
1.7495
30
0.0
0
VERTEX
8
FRAESEN
10
51.3924
20
1.7495
30
0.0
0
VERTEX
8
FRAESEN
10
51.3924
20
56.4215
30
0.0
0
VERTEX
8
FRAESEN
10
47.2574
20
56.4215
30
0.0
0
SEQEND
0
POLYLINE
8
FRAESEN
66
1
70
1
0
VERTEX
8
FRAESEN
10
63.7975
20
53.3598
30
0.0
0
VERTEX
8
FRAESEN
10
67.9325
20
53.3598
30
0.0
0
VERTEX
8
FRAESEN
10
67.9325
20
56.4215
30
0.0
0
VERTEX
8
FRAESEN
10
63.7975
20
56.4215
30
0.0
0
SEQEND
0
POLYLINE
8
FRAESEN
66
1
70
1
0
VERTEX
8
FRAESEN
10
2.3629
20
44.1750
30
0.0
0
VERTEX
8
FRAESEN
10
34.8523
20
44.1750
30
0.0
0
VERTEX
8
FRAESEN
10
34.8523
20
47.2366
30
0.0
0
VERTEX
8
FRAESEN
10
2.3629
20
47.2366
30
0.0
0
SEQEND
0
POLYLINE
8
FRAESEN
66
1
70
1
0
VERTEX
8
FRAESEN
10
2.3629
20
41.1133
30
0.0
0
VERTEX
8
FRAESEN
10
5.9072
20
41.1133
30
0.0
0
VERTEX
8
FRAESEN
10
5.9072
20
44.1750
30
0.0
0
VERTEX
8
FRAESEN
10
2.3629
20
44.1750
30
0.0
0
SEQEND
0
POLYLINE
8
FRAESEN
66
1
70
1
0
VERTEX
8
FRAESEN
10
14.1772
20
19.6819
30
0.0
0
VERTEX
8
FRAESEN
10
18.3122
20
19.6819
30
0.0
0
VERTEX
8
FRAESEN
10
18.3122
20
44.1750
30
0.0
0
VERTEX
8
FRAESEN
10
14.1772
20
44.1750
30
0.0
0
SEQEND
0
POLYLINE
8
FRAESEN
66
1
70
1
0
VERTEX
8
FRAESEN
10
22.4473
20
41.1133
30
0.0
0
VERTEX
8
FRAESEN
10
43.1224
20
41.1133
30
0.0
0
VERTEX
8
FRAESEN
10
43.1224
20
44.1750
30
0.0
0
VERTEX
8
FRAESEN
10
22.4473
20
44.1750
30
0.0
0
SEQEND
0
POLYLINE
8
FRAESEN
66
1
70
1
0
VERTEX
8
FRAESEN
10
51.3924
20
41.1133
30
0.0
0
VERTEX
8
FRAESEN
10
80.3376
20
41.1133
30
0.0
0
VERTEX
8
FRAESEN
10
80.3376
20
44.1750
30
0.0
0
VERTEX
8
FRAESEN
10
51.3924
20
44.1750
30
0.0
0
SEQEND
0
POLYLINE
8
FRAESEN
66
1
70
1
0
VERTEX
8
FRAESEN
10
5.9072
20
25.8052
30
0.0
0
VERTEX
8
FRAESEN
10
10.0422
20
25.8052
30
0.0
0
VERTEX
8
FRAESEN
10
10.0422
20
41.1133
30
0.0
0
VERTEX
8
FRAESEN
10
5.9072
20
41.1133
30
0.0
0
SEQEND
0
POLYLINE
8
FRAESEN
66
1
70
1
0
VERTEX
8
FRAESEN
10
22.4473
20
34.9901
30
0.0
0
VERTEX
8
FRAESEN
10
47.2574
20
34.9901
30
0.0
0
VERTEX
8
FRAESEN
10
47.2574
20
38.0517
30
0.0
0
VERTEX
8
FRAESEN
10
22.4473
20
38.0517
30
0.0
0
SEQEND
0
POLYLINE
8
FRAESEN
66
1
70
1
0
VERTEX
8
FRAESEN
10
2.3629
20
31.9284
30
0.0
0
VERTEX
8
FRAESEN
10
5.9072
20
31.9284
30
0.0
0
VERTEX
8
FRAESEN
10
5.9072
20
34.9901
30
0.0
0
VERTEX
8
FRAESEN
10
2.3629
20
34.9901
30
0.0
0
SEQEND
0
POLYLINE
8
FRAESEN
66
1
70
1
0
VERTEX
8
FRAESEN
10
22.4473
20
28.8668
30
0.0
0
VERTEX
8
FRAESEN
10
26.5823
20
28.8668
30
0.0
0
VERTEX
8
FRAESEN
10
26.5823
20
34.9901
30
0.0
0
VERTEX
8
FRAESEN
10
22.4473
20
34.9901
30
0.0
0
SEQEND
0
POLYLINE
8
FRAESEN
66
1
70
1
0
VERTEX
8
FRAESEN
10
38.9873
20
4.3738
30
0.0
0
VERTEX
8
FRAESEN
10
43.1224
20
4.3738
30
0.0
0
VERTEX
8
FRAESEN
10
43.1224
20
34.9901
30
0.0
0
VERTEX
8
FRAESEN
10
38.9873
20
34.9901
30
0.0
0
SEQEND
0
POLYLINE
8
FRAESEN
66
1
70
1
0
VERTEX
8
FRAESEN
10
26.5823
20
28.8668
30
0.0
0
VERTEX
8
FRAESEN
10
38.9873
20
28.8668
30
0.0
0
VERTEX
8
FRAESEN
10
38.9873
20
31.9284
30
0.0
0
VERTEX
8
FRAESEN
10
26.5823
20
31.9284
30
0.0
0
SEQEND
0
POLYLINE
8
FRAESEN
66
1
70
1
0
VERTEX
8
FRAESEN
10
2.3629
20
19.6819
30
0.0
0
VERTEX
8
FRAESEN
10
5.9072
20
19.6819
30
0.0
0
VERTEX
8
FRAESEN
10
5.9072
20
28.8668
30
0.0
0
VERTEX
8
FRAESEN
10
2.3629
20
28.8668
30
0.0
0
SEQEND
0
POLYLINE
8
FRAESEN
66
1
70
1
0
VERTEX
8
FRAESEN
10
18.3122
20
22.7435
30
0.0
0
VERTEX
8
FRAESEN
10
38.9873
20
22.7435
30
0.0
0
VERTEX
8
FRAESEN
10
38.9873
20
25.8052
30
0.0
0
VERTEX
8
FRAESEN
10
18.3122
20
25.8052
30
0.0
0
SEQEND
0
POLYLINE
8
FRAESEN
66
1
70
1
0
VERTEX
8
FRAESEN
10
5.9072
20
19.6819
30
0.0
0
VERTEX
8
FRAESEN
10
14.1772
20
19.6819
30
0.0
0
VERTEX
8
FRAESEN
10
14.1772
20
22.7435
30
0.0
0
VERTEX
8
FRAESEN
10
5.9072
20
22.7435
30
0.0
0
SEQEND
0
POLYLINE
8
FRAESEN
66
1
70
1
0
VERTEX
8
FRAESEN
10
2.3629
20
7.4354
30
0.0
0
VERTEX
8
FRAESEN
10
38.9873
20
7.4354
30
0.0
0
VERTEX
8
FRAESEN
10
38.9873
20
10.4970
30
0.0
0
VERTEX
8
FRAESEN
10
2.3629
20
10.4970
30
0.0
0
SEQEND
0
POLYLINE
8
FRAESEN
66
1
70
1
0
VERTEX
8
FRAESEN
10
129.9578
20
80.9145
30
0.0
0
VERTEX
8
FRAESEN
10
134.0928
20
80.9145
30
0.0
0
VERTEX
8
FRAESEN
10
134.0928
20
93.1610
30
0.0
0
VERTEX
8
FRAESEN
10
129.9578
20
93.1610
30
0.0
0
SEQEND
0
POLYLINE
8
FRAESEN
66
1
70
1
0
VERTEX
8
FRAESEN
10
125.8228
20
87.0378
30
0.0
0
VERTEX
8
FRAESEN
10
129.9578
20
87.0378
30
0.0
0
VERTEX
8
FRAESEN
10
129.9578
20
90.0994
30
0.0
0
VERTEX
8
FRAESEN
10
125.8228
20
90.0994
30
0.0
0
SEQEND
0
POLYLINE
8
FRAESEN
66
1
70
1
0
VERTEX
8
FRAESEN
10
134.0928
20
80.9145
30
0.0
0
VERTEX
8
FRAESEN
10
137.6371
20
80.9145
30
0.0
0
VERTEX
8
FRAESEN
10
137.6371
20
90.0994
30
0.0
0
VERTEX
8
FRAESEN
10
134.0928
20
90.0994
30
0.0
0
SEQEND
0
POLYLINE
8
FRAESEN
66
1
70
1
0
VERTEX
8
FRAESEN
10
125.8228
20
80.9145
30
0.0
0
VERTEX
8
FRAESEN
10
129.9578
20
80.9145
30
0.0
0
VERTEX
8
FRAESEN
10
129.9578
20
83.9761
30
0.0
0
VERTEX
8
FRAESEN
10
125.8228
20
83.9761
30
0.0
0
SEQEND
0
POLYLINE
8
FRAESEN
66
1
70
1
0
VERTEX
8
FRAESEN
10
113.4177
20
80.9145
30
0.0
0
VERTEX
8
FRAESEN
10
117.5527
20
80.9145
30
0.0
0
VERTEX
8
FRAESEN
10
117.5527
20
87.0378
30
0.0
0
VERTEX
8
FRAESEN
10
113.4177
20
87.0378
30
0.0
0
SEQEND
0
POLYLINE
8
FRAESEN
66
1
70
1
0
VERTEX
8
FRAESEN
10
117.5527
20
80.9145
30
0.0
0
VERTEX
8
FRAESEN
10
121.6878
20
80.9145
30
0.0
0
VERTEX
8
FRAESEN
10
121.6878
20
83.9761
30
0.0
0
VERTEX
8
FRAESEN
10
117.5527
20
83.9761
30
0.0
0
SEQEND
0
POLYLINE
8
FRAESEN
66
1
70
1
0
VERTEX
8
FRAESEN
10
2.3629
20
68.6680
30
0.0
0
VERTEX
8
FRAESEN
10
5.9072
20
68.6680
30
0.0
0
VERTEX
8
FRAESEN
10
5.9072
20
74.7913
30
0.0
0
VERTEX
8
FRAESEN
10
2.3629
20
74.7913
30
0.0
0
SEQEND
0
POLYLINE
8
FRAESEN
66
1
70
1
0
VERTEX
8
FRAESEN
10
5.9072
20
68.6680
30
0.0
0
VERTEX
8
FRAESEN
10
38.9873
20
68.6680
30
0.0
0
VERTEX
8
FRAESEN
10
38.9873
20
71.7296
30
0.0
0
VERTEX
8
FRAESEN
10
5.9072
20
71.7296
30
0.0
0
SEQEND
0
POLYLINE
8
FRAESEN
66
1
70
1
0
VERTEX
8
FRAESEN
10
5.9072
20
56.4215
30
0.0
0
VERTEX
8
FRAESEN
10
10.0422
20
56.4215
30
0.0
0
VERTEX
8
FRAESEN
10
10.0422
20
65.6064
30
0.0
0
VERTEX
8
FRAESEN
10
5.9072
20
65.6064
30
0.0
0
SEQEND
0
POLYLINE
8
FRAESEN
66
1
70
1
0
VERTEX
8
FRAESEN
10
10.0422
20
56.4215
30
0.0
0
VERTEX
8
FRAESEN
10
18.3122
20
56.4215
30
0.0
0
VERTEX
8
FRAESEN
10
18.3122
20
59.4831
30
0.0
0
VERTEX
8
FRAESEN
10
10.0422
20
59.4831
30
0.0
0
SEQEND
0
POLYLINE
8
FRAESEN
66
1
70
1
0
VERTEX
8
FRAESEN
10
14.1772
20
62.5447
30
0.0
0
VERTEX
8
FRAESEN
10
18.3122
20
62.5447
30
0.0
0
VERTEX
8
FRAESEN
10
18.3122
20
65.6064
30
0.0
0
VERTEX
8
FRAESEN
10
14.1772
20
65.6064
30
0.0
0
SEQEND
0
POLYLINE
8
FRAESEN
66
1
70
1
0
VERTEX
8
FRAESEN
10
2.3629
20
50.2982
30
0.0
0
VERTEX
8
FRAESEN
10
43.1224
20
50.2982
30
0.0
0
VERTEX
8
FRAESEN
10
43.1224
20
53.3598
30
0.0
0
VERTEX
8
FRAESEN
10
2.3629
20
53.3598
30
0.0
0
SEQEND
0
POLYLINE
8
FRAESEN
66
1
70
1
0
VERTEX
8
FRAESEN
10
34.8523
20
47.2366
30
0.0
0
VERTEX
8
FRAESEN
10
43.1224
20
47.2366
30
0.0
0
VERTEX
8
FRAESEN
10
43.1224
20
50.2982
30
0.0
0
VERTEX
8
FRAESEN
10
34.8523
20
50.2982
30
0.0
0
SEQEND
0
POLYLINE
8
FRAESEN
66
1
70
1
0
VERTEX
8
FRAESEN
10
55.5274
20
47.2366
30
0.0
0
VERTEX
8
FRAESEN
10
117.5527
20
47.2366
30
0.0
0
VERTEX
8
FRAESEN
10
117.5527
20
50.2982
30
0.0
0
VERTEX
8
FRAESEN
10
55.5274
20
50.2982
30
0.0
0
SEQEND
0
POLYLINE
8
FRAESEN
66
1
70
1
0
VERTEX
8
FRAESEN
10
84.4726
20
34.9901
30
0.0
0
VERTEX
8
FRAESEN
10
88.6076
20
34.9901
30
0.0
0
VERTEX
8
FRAESEN
10
88.6076
20
47.2366
30
0.0
0
VERTEX
8
FRAESEN
10
84.4726
20
47.2366
30
0.0
0
SEQEND
0
POLYLINE
8
FRAESEN
66
1
70
1
0
VERTEX
8
FRAESEN
10
92.7426
20
41.1133
30
0.0
0
VERTEX
8
FRAESEN
10
117.5527
20
41.1133
30
0.0
0
VERTEX
8
FRAESEN
10
117.5527
20
44.1750
30
0.0
0
VERTEX
8
FRAESEN
10
92.7426
20
44.1750
30
0.0
0
SEQEND
0
POLYLINE
8
FRAESEN
66
1
70
1
0
VERTEX
8
FRAESEN
10
92.7426
20
31.9284
30
0.0
0
VERTEX
8
FRAESEN
10
96.8776
20
31.9284
30
0.0
0
VERTEX
8
FRAESEN
10
96.8776
20
41.1133
30
0.0
0
VERTEX
8
FRAESEN
10
92.7426
20
41.1133
30
0.0
0
SEQEND
0
POLYLINE
8
FRAESEN
66
1
70
1
0
VERTEX
8
FRAESEN
10
101.0127
20
38.0517
30
0.0
0
VERTEX
8
FRAESEN
10
117.5527
20
38.0517
30
0.0
0
VERTEX
8
FRAESEN
10
117.5527
20
41.1133
30
0.0
0
VERTEX
8
FRAESEN
10
101.0127
20
41.1133
30
0.0
0
SEQEND
0
POLYLINE
8
FRAESEN
66
1
70
1
0
VERTEX
8
FRAESEN
10
76.2025
20
34.9901
30
0.0
0
VERTEX
8
FRAESEN
10
84.4726
20
34.9901
30
0.0
0
VERTEX
8
FRAESEN
10
84.4726
20
38.0517
30
0.0
0
VERTEX
8
FRAESEN
10
76.2025
20
38.0517
30
0.0
0
SEQEND
0
POLYLINE
8
FRAESEN
66
1
70
1
0
VERTEX
8
FRAESEN
10
88.6076
20
34.9901
30
0.0
0
VERTEX
8
FRAESEN
10
92.7426
20
34.9901
30
0.0
0
VERTEX
8
FRAESEN
10
92.7426
20
38.0517
30
0.0
0
VERTEX
8
FRAESEN
10
88.6076
20
38.0517
30
0.0
0
SEQEND
0
POLYLINE
8
FRAESEN
66
1
70
1
0
VERTEX
8
FRAESEN
10
113.4177
20
13.5586
30
0.0
0
VERTEX
8
FRAESEN
10
117.5527
20
13.5586
30
0.0
0
VERTEX
8
FRAESEN
10
117.5527
20
38.0517
30
0.0
0
VERTEX
8
FRAESEN
10
113.4177
20
38.0517
30
0.0
0
SEQEND
0
POLYLINE
8
FRAESEN
66
1
70
1
0
VERTEX
8
FRAESEN
10
76.2025
20
28.8668
30
0.0
0
VERTEX
8
FRAESEN
10
80.3376
20
28.8668
30
0.0
0
VERTEX
8
FRAESEN
10
80.3376
20
34.9901
30
0.0
0
VERTEX
8
FRAESEN
10
76.2025
20
34.9901
30
0.0
0
SEQEND
0
POLYLINE
8
FRAESEN
66
1
70
1
0
VERTEX
8
FRAESEN
10
96.8776
20
31.9284
30
0.0
0
VERTEX
8
FRAESEN
10
101.0127
20
31.9284
30
0.0
0
VERTEX
8
FRAESEN
10
101.0127
20
34.9901
30
0.0
0
VERTEX
8
FRAESEN
10
96.8776
20
34.9901
30
0.0
0
SEQEND
0
POLYLINE
8
FRAESEN
66
1
70
1
0
VERTEX
8
FRAESEN
10
84.4726
20
19.6819
30
0.0
0
VERTEX
8
FRAESEN
10
88.6076
20
19.6819
30
0.0
0
VERTEX
8
FRAESEN
10
88.6076
20
31.9284
30
0.0
0
VERTEX
8
FRAESEN
10
84.4726
20
31.9284
30
0.0
0
SEQEND
0
POLYLINE
8
FRAESEN
66
1
70
1
0
VERTEX
8
FRAESEN
10
88.6076
20
19.6819
30
0.0
0
VERTEX
8
FRAESEN
10
113.4177
20
19.6819
30
0.0
0
VERTEX
8
FRAESEN
10
113.4177
20
22.7435
30
0.0
0
VERTEX
8
FRAESEN
10
88.6076
20
22.7435
30
0.0
0
SEQEND
0
POLYLINE
8
FRAESEN
66
1
70
1
0
VERTEX
8
FRAESEN
10
109.2827
20
10.4970
30
0.0
0
VERTEX
8
FRAESEN
10
113.4177
20
10.4970
30
0.0
0
VERTEX
8
FRAESEN
10
113.4177
20
16.6203
30
0.0
0
VERTEX
8
FRAESEN
10
109.2827
20
16.6203
30
0.0
0
SEQEND
0
POLYLINE
8
FRAESEN
66
1
70
1
0
VERTEX
8
FRAESEN
10
55.5274
20
34.9901
30
0.0
0
VERTEX
8
FRAESEN
10
67.9325
20
34.9901
30
0.0
0
VERTEX
8
FRAESEN
10
67.9325
20
38.0517
30
0.0
0
VERTEX
8
FRAESEN
10
55.5274
20
38.0517
30
0.0
0
SEQEND
0
POLYLINE
8
FRAESEN
66
1
70
1
0
VERTEX
8
FRAESEN
10
55.5274
20
25.8052
30
0.0
0
VERTEX
8
FRAESEN
10
63.7975
20
25.8052
30
0.0
0
VERTEX
8
FRAESEN
10
63.7975
20
34.9901
30
0.0
0
VERTEX
8
FRAESEN
10
55.5274
20
34.9901
30
0.0
0
SEQEND
0
POLYLINE
8
FRAESEN
66
1
70
1
0
VERTEX
8
FRAESEN
10
55.5274
20
16.6203
30
0.0
0
VERTEX
8
FRAESEN
10
59.6624
20
16.6203
30
0.0
0
VERTEX
8
FRAESEN
10
59.6624
20
25.8052
30
0.0
0
VERTEX
8
FRAESEN
10
55.5274
20
25.8052
30
0.0
0
SEQEND
0
POLYLINE
8
FRAESEN
66
1
70
1
0
VERTEX
8
FRAESEN
10
59.6624
20
16.6203
30
0.0
0
VERTEX
8
FRAESEN
10
63.7975
20
16.6203
30
0.0
0
VERTEX
8
FRAESEN
10
63.7975
20
19.6819
30
0.0
0
VERTEX
8
FRAESEN
10
59.6624
20
19.6819
30
0.0
0
SEQEND
0
POLYLINE
8
FRAESEN
66
1
70
1
0
VERTEX
8
FRAESEN
10
105.1477
20
25.8052
30
0.0
0
VERTEX
8
FRAESEN
10
109.2827
20
25.8052
30
0.0
0
VERTEX
8
FRAESEN
10
109.2827
20
34.9901
30
0.0
0
VERTEX
8
FRAESEN
10
105.1477
20
34.9901
30
0.0
0
SEQEND
0
POLYLINE
8
FRAESEN
66
1
70
1
0
VERTEX
8
FRAESEN
10
92.7426
20
25.8052
30
0.0
0
VERTEX
8
FRAESEN
10
105.1477
20
25.8052
30
0.0
0
VERTEX
8
FRAESEN
10
105.1477
20
28.8668
30
0.0
0
VERTEX
8
FRAESEN
10
92.7426
20
28.8668
30
0.0
0
SEQEND
0
POLYLINE
8
FRAESEN
66
1
70
1
0
VERTEX
8
FRAESEN
10
67.9325
20
13.5586
30
0.0
0
VERTEX
8
FRAESEN
10
72.0675
20
13.5586
30
0.0
0
VERTEX
8
FRAESEN
10
72.0675
20
31.9284
30
0.0
0
VERTEX
8
FRAESEN
10
67.9325
20
31.9284
30
0.0
0
SEQEND
0
POLYLINE
8
FRAESEN
66
1
70
1
0
VERTEX
8
FRAESEN
10
18.3122
20
16.6203
30
0.0
0
VERTEX
8
FRAESEN
10
34.8523
20
16.6203
30
0.0
0
VERTEX
8
FRAESEN
10
34.8523
20
19.6819
30
0.0
0
VERTEX
8
FRAESEN
10
18.3122
20
19.6819
30
0.0
0
SEQEND
0
POLYLINE
8
FRAESEN
66
1
70
1
0
VERTEX
8
FRAESEN
10
2.3629
20
13.5586
30
0.0
0
VERTEX
8
FRAESEN
10
22.4473
20
13.5586
30
0.0
0
VERTEX
8
FRAESEN
10
22.4473
20
16.6203
30
0.0
0
VERTEX
8
FRAESEN
10
2.3629
20
16.6203
30
0.0
0
SEQEND
0
POLYLINE
8
FRAESEN
66
1
70
1
0
VERTEX
8
FRAESEN
10
30.7173
20
13.5586
30
0.0
0
VERTEX
8
FRAESEN
10
34.8523
20
13.5586
30
0.0
0
VERTEX
8
FRAESEN
10
34.8523
20
16.6203
30
0.0
0
VERTEX
8
FRAESEN
10
30.7173
20
16.6203
30
0.0
0
SEQEND
0
POLYLINE
8
FRAESEN
66
1
70
1
0
VERTEX
8
FRAESEN
10
76.2025
20
16.6203
30
0.0
0
VERTEX
8
FRAESEN
10
84.4726
20
16.6203
30
0.0
0
VERTEX
8
FRAESEN
10
84.4726
20
19.6819
30
0.0
0
VERTEX
8
FRAESEN
10
76.2025
20
19.6819
30
0.0
0
SEQEND
0
POLYLINE
8
FRAESEN
66
1
70
1
0
VERTEX
8
FRAESEN
10
76.2025
20
10.4970
30
0.0
0
VERTEX
8
FRAESEN
10
80.3376
20
10.4970
30
0.0
0
VERTEX
8
FRAESEN
10
80.3376
20
16.6203
30
0.0
0
VERTEX
8
FRAESEN
10
76.2025
20
16.6203
30
0.0
0
SEQEND
0
POLYLINE
8
FRAESEN
66
1
70
1
0
VERTEX
8
FRAESEN
10
88.6076
20
10.4970
30
0.0
0
VERTEX
8
FRAESEN
10
92.7426
20
10.4970
30
0.0
0
VERTEX
8
FRAESEN
10
92.7426
20
16.6203
30
0.0
0
VERTEX
8
FRAESEN
10
88.6076
20
16.6203
30
0.0
0
SEQEND
0
POLYLINE
8
FRAESEN
66
1
70
1
0
VERTEX
8
FRAESEN
10
96.8776
20
10.4970
30
0.0
0
VERTEX
8
FRAESEN
10
105.1477
20
10.4970
30
0.0
0
VERTEX
8
FRAESEN
10
105.1477
20
16.6203
30
0.0
0
VERTEX
8
FRAESEN
10
96.8776
20
16.6203
30
0.0
0
SEQEND
0
POLYLINE
8
FRAESEN
66
1
70
1
0
VERTEX
8
FRAESEN
10
96.8776
20
4.3738
30
0.0
0
VERTEX
8
FRAESEN
10
101.0127
20
4.3738
30
0.0
0
VERTEX
8
FRAESEN
10
101.0127
20
10.4970
30
0.0
0
VERTEX
8
FRAESEN
10
96.8776
20
10.4970
30
0.0
0
SEQEND
0
POLYLINE
8
FRAESEN
66
1
70
1
0
VERTEX
8
FRAESEN
10
101.0127
20
4.3738
30
0.0
0
VERTEX
8
FRAESEN
10
137.6371
20
4.3738
30
0.0
0
VERTEX
8
FRAESEN
10
137.6371
20
7.4354
30
0.0
0
VERTEX
8
FRAESEN
10
101.0127
20
7.4354
30
0.0
0
SEQEND
0
POLYLINE
8
FRAESEN
66
1
70
1
0
VERTEX
8
FRAESEN
10
121.6878
20
13.5586
30
0.0
0
VERTEX
8
FRAESEN
10
137.6371
20
13.5586
30
0.0
0
VERTEX
8
FRAESEN
10
137.6371
20
16.6203
30
0.0
0
VERTEX
8
FRAESEN
10
121.6878
20
16.6203
30
0.0
0
SEQEND
0
POLYLINE
8
FRAESEN
66
1
70
1
0
VERTEX
8
FRAESEN
10
55.5274
20
10.4970
30
0.0
0
VERTEX
8
FRAESEN
10
63.7975
20
10.4970
30
0.0
0
VERTEX
8
FRAESEN
10
63.7975
20
13.5586
30
0.0
0
VERTEX
8
FRAESEN
10
55.5274
20
13.5586
30
0.0
0
SEQEND
0
POLYLINE
8
FRAESEN
66
1
70
1
0
VERTEX
8
FRAESEN
10
55.5274
20
4.3738
30
0.0
0
VERTEX
8
FRAESEN
10
59.6624
20
4.3738
30
0.0
0
VERTEX
8
FRAESEN
10
59.6624
20
10.4970
30
0.0
0
VERTEX
8
FRAESEN
10
55.5274
20
10.4970
30
0.0
0
SEQEND
0
POLYLINE
8
FRAESEN
66
1
70
1
0
VERTEX
8
FRAESEN
10
59.6624
20
4.3738
30
0.0
0
VERTEX
8
FRAESEN
10
72.0675
20
4.3738
30
0.0
0
VERTEX
8
FRAESEN
10
72.0675
20
7.4354
30
0.0
0
VERTEX
8
FRAESEN
10
59.6624
20
7.4354
30
0.0
0
SEQEND
0
POLYLINE
8
FRAESEN
66
1
70
1
0
VERTEX
8
FRAESEN
10
84.4726
20
4.3738
30
0.0
0
VERTEX
8
FRAESEN
10
88.6076
20
4.3738
30
0.0
0
VERTEX
8
FRAESEN
10
88.6076
20
7.4354
30
0.0
0
VERTEX
8
FRAESEN
10
84.4726
20
7.4354
30
0.0
0
SEQEND
0
POLYLINE
8
FRAESEN
66
1
70
1
0
VERTEX
8
FRAESEN
10
2.3629
20
1.7495
30
0.0
0
VERTEX
8
FRAESEN
10
38.9873
20
1.7495
30
0.0
0
VERTEX
8
FRAESEN
10
38.9873
20
4.3738
30
0.0
0
VERTEX
8
FRAESEN
10
2.3629
20
4.3738
30
0.0
0
SEQEND
0
TEXT
8
INFO
10
2.0
20
226.0000
30
0.0
40
3.0
1
4M Ahnenraster Matrize 140x220mm | SCHWARZ=STEMPEL bleibt | WEISS=FRAESEN Tasche 2.0mm
0
ENDSEC
0
EOF
