0
SECTION
2
HEADER
9
$INSUNITS
70
4
9
$MEASUREMENT
70
1
0
ENDSEC
0
SECTION
2
TABLES
0
TABLE
2
LAYER
70
5
0
LAYER
2
PLATTE
70
0
62
7
6
CONTINUOUS
0
LAYER
2
STEMPEL
70
0
62
1
6
CONTINUOUS
0
LAYER
2
FRAESEN
70
0
62
3
6
CONTINUOUS
0
LAYER
2
RASTER
70
0
62
8
6
CONTINUOUS
0
LAYER
2
INFO
70
0
62
8
6
CONTINUOUS
0
ENDTAB
0
ENDSEC
0
SECTION
2
ENTITIES
0
POLYLINE
8
PLATTE
66
1
70
1
0
VERTEX
8
PLATTE
10
0
20
0
30
0.0
0
VERTEX
8
PLATTE
10
140
20
0
30
0.0
0
VERTEX
8
PLATTE
10
140
20
220
30
0.0
0
VERTEX
8
PLATTE
10
0
20
220
30
0.0
0
SEQEND
0
POLYLINE
8
RASTER
66
1
70
1
0
VERTEX
8
RASTER
10
0
20
0
30
0.0
0
VERTEX
8
RASTER
10
0
20
220
30
0.0
0
SEQEND
0
POLYLINE
8
RASTER
66
1
70
1
0
VERTEX
8
RASTER
10
10
20
0
30
0.0
0
VERTEX
8
RASTER
10
10
20
220
30
0.0
0
SEQEND
0
POLYLINE
8
RASTER
66
1
70
1
0
VERTEX
8
RASTER
10
20
20
0
30
0.0
0
VERTEX
8
RASTER
10
20
20
220
30
0.0
0
SEQEND
0
POLYLINE
8
RASTER
66
1
70
1
0
VERTEX
8
RASTER
10
30
20
0
30
0.0
0
VERTEX
8
RASTER
10
30
20
220
30
0.0
0
SEQEND
0
POLYLINE
8
RASTER
66
1
70
1
0
VERTEX
8
RASTER
10
40
20
0
30
0.0
0
VERTEX
8
RASTER
10
40
20
220
30
0.0
0
SEQEND
0
POLYLINE
8
RASTER
66
1
70
1
0
VERTEX
8
RASTER
10
50
20
0
30
0.0
0
VERTEX
8
RASTER
10
50
20
220
30
0.0
0
SEQEND
0
POLYLINE
8
RASTER
66
1
70
1
0
VERTEX
8
RASTER
10
60
20
0
30
0.0
0
VERTEX
8
RASTER
10
60
20
220
30
0.0
0
SEQEND
0
POLYLINE
8
RASTER
66
1
70
1
0
VERTEX
8
RASTER
10
70
20
0
30
0.0
0
VERTEX
8
RASTER
10
70
20
220
30
0.0
0
SEQEND
0
POLYLINE
8
RASTER
66
1
70
1
0
VERTEX
8
RASTER
10
80
20
0
30
0.0
0
VERTEX
8
RASTER
10
80
20
220
30
0.0
0
SEQEND
0
POLYLINE
8
RASTER
66
1
70
1
0
VERTEX
8
RASTER
10
90
20
0
30
0.0
0
VERTEX
8
RASTER
10
90
20
220
30
0.0
0
SEQEND
0
POLYLINE
8
RASTER
66
1
70
1
0
VERTEX
8
RASTER
10
100
20
0
30
0.0
0
VERTEX
8
RASTER
10
100
20
220
30
0.0
0
SEQEND
0
POLYLINE
8
RASTER
66
1
70
1
0
VERTEX
8
RASTER
10
110
20
0
30
0.0
0
VERTEX
8
RASTER
10
110
20
220
30
0.0
0
SEQEND
0
POLYLINE
8
RASTER
66
1
70
1
0
VERTEX
8
RASTER
10
120
20
0
30
0.0
0
VERTEX
8
RASTER
10
120
20
220
30
0.0
0
SEQEND
0
POLYLINE
8
RASTER
66
1
70
1
0
VERTEX
8
RASTER
10
130
20
0
30
0.0
0
VERTEX
8
RASTER
10
130
20
220
30
0.0
0
SEQEND
0
POLYLINE
8
RASTER
66
1
70
1
0
VERTEX
8
RASTER
10
140
20
0
30
0.0
0
VERTEX
8
RASTER
10
140
20
220
30
0.0
0
SEQEND
0
POLYLINE
8
RASTER
66
1
70
1
0
VERTEX
8
RASTER
10
0
20
0
30
0.0
0
VERTEX
8
RASTER
10
140
20
0
30
0.0
0
SEQEND
0
POLYLINE
8
RASTER
66
1
70
1
0
VERTEX
8
RASTER
10
0
20
10
30
0.0
0
VERTEX
8
RASTER
10
140
20
10
30
0.0
0
SEQEND
0
POLYLINE
8
RASTER
66
1
70
1
0
VERTEX
8
RASTER
10
0
20
20
30
0.0
0
VERTEX
8
RASTER
10
140
20
20
30
0.0
0
SEQEND
0
POLYLINE
8
RASTER
66
1
70
1
0
VERTEX
8
RASTER
10
0
20
30
30
0.0
0
VERTEX
8
RASTER
10
140
20
30
30
0.0
0
SEQEND
0
POLYLINE
8
RASTER
66
1
70
1
0
VERTEX
8
RASTER
10
0
20
40
30
0.0
0
VERTEX
8
RASTER
10
140
20
40
30
0.0
0
SEQEND
0
POLYLINE
8
RASTER
66
1
70
1
0
VERTEX
8
RASTER
10
0
20
50
30
0.0
0
VERTEX
8
RASTER
10
140
20
50
30
0.0
0
SEQEND
0
POLYLINE
8
RASTER
66
1
70
1
0
VERTEX
8
RASTER
10
0
20
60
30
0.0
0
VERTEX
8
RASTER
10
140
20
60
30
0.0
0
SEQEND
0
POLYLINE
8
RASTER
66
1
70
1
0
VERTEX
8
RASTER
10
0
20
70
30
0.0
0
VERTEX
8
RASTER
10
140
20
70
30
0.0
0
SEQEND
0
POLYLINE
8
RASTER
66
1
70
1
0
VERTEX
8
RASTER
10
0
20
80
30
0.0
0
VERTEX
8
RASTER
10
140
20
80
30
0.0
0
SEQEND
0
POLYLINE
8
RASTER
66
1
70
1
0
VERTEX
8
RASTER
10
0
20
90
30
0.0
0
VERTEX
8
RASTER
10
140
20
90
30
0.0
0
SEQEND
0
POLYLINE
8
RASTER
66
1
70
1
0
VERTEX
8
RASTER
10
0
20
100
30
0.0
0
VERTEX
8
RASTER
10
140
20
100
30
0.0
0
SEQEND
0
POLYLINE
8
RASTER
66
1
70
1
0
VERTEX
8
RASTER
10
0
20
110
30
0.0
0
VERTEX
8
RASTER
10
140
20
110
30
0.0
0
SEQEND
0
POLYLINE
8
RASTER
66
1
70
1
0
VERTEX
8
RASTER
10
0
20
120
30
0.0
0
VERTEX
8
RASTER
10
140
20
120
30
0.0
0
SEQEND
0
POLYLINE
8
RASTER
66
1
70
1
0
VERTEX
8
RASTER
10
0
20
130
30
0.0
0
VERTEX
8
RASTER
10
140
20
130
30
0.0
0
SEQEND
0
POLYLINE
8
RASTER
66
1
70
1
0
VERTEX
8
RASTER
10
0
20
140
30
0.0
0
VERTEX
8
RASTER
10
140
20
140
30
0.0
0
SEQEND
0
POLYLINE
8
RASTER
66
1
70
1
0
VERTEX
8
RASTER
10
0
20
150
30
0.0
0
VERTEX
8
RASTER
10
140
20
150
30
0.0
0
SEQEND
0
POLYLINE
8
RASTER
66
1
70
1
0
VERTEX
8
RASTER
10
0
20
160
30
0.0
0
VERTEX
8
RASTER
10
140
20
160
30
0.0
0
SEQEND
0
POLYLINE
8
RASTER
66
1
70
1
0
VERTEX
8
RASTER
10
0
20
170
30
0.0
0
VERTEX
8
RASTER
10
140
20
170
30
0.0
0
SEQEND
0
POLYLINE
8
RASTER
66
1
70
1
0
VERTEX
8
RASTER
10
0
20
180
30
0.0
0
VERTEX
8
RASTER
10
140
20
180
30
0.0
0
SEQEND
0
POLYLINE
8
RASTER
66
1
70
1
0
VERTEX
8
RASTER
10
0
20
190
30
0.0
0
VERTEX
8
RASTER
10
140
20
190
30
0.0
0
SEQEND
0
POLYLINE
8
RASTER
66
1
70
1
0
VERTEX
8
RASTER
10
0
20
200
30
0.0
0
VERTEX
8
RASTER
10
140
20
200
30
0.0
0
SEQEND
0
POLYLINE
8
RASTER
66
1
70
1
0
VERTEX
8
RASTER
10
0
20
210
30
0.0
0
VERTEX
8
RASTER
10
140
20
210
30
0.0
0
SEQEND
0
POLYLINE
8
RASTER
66
1
70
1
0
VERTEX
8
RASTER
10
0
20
220
30
0.0
0
VERTEX
8
RASTER
10
140
20
220
30
0.0
0
SEQEND
0
POLYLINE
8
STEMPEL
66
1
70
1
0
VERTEX
8
STEMPEL
10
0
20
218
30
0.0
0
VERTEX
8
STEMPEL
10
140
20
218
30
0.0
0
VERTEX
8
STEMPEL
10
140
20
220
30
0.0
0
VERTEX
8
STEMPEL
10
0
20
220
30
0.0
0
SEQEND
0
POLYLINE
8
STEMPEL
66
1
70
1
0
VERTEX
8
STEMPEL
10
0
20
0
30
0.0
0
VERTEX
8
STEMPEL
10
2
20
0
30
0.0
0
VERTEX
8
STEMPEL
10
2
20
218
30
0.0
0
VERTEX
8
STEMPEL
10
0
20
218
30
0.0
0
SEQEND
0
POLYLINE
8
STEMPEL
66
1
70
1
0
VERTEX
8
STEMPEL
10
138
20
0
30
0.0
0
VERTEX
8
STEMPEL
10
140
20
0
30
0.0
0
VERTEX
8
STEMPEL
10
140
20
218
30
0.0
0
VERTEX
8
STEMPEL
10
138
20
218
30
0.0
0
SEQEND
0
POLYLINE
8
STEMPEL
66
1
70
1
0
VERTEX
8
STEMPEL
10
86
20
210
30
0.0
0
VERTEX
8
STEMPEL
10
138
20
210
30
0.0
0
VERTEX
8
STEMPEL
10
138
20
212
30
0.0
0
VERTEX
8
STEMPEL
10
86
20
212
30
0.0
0
SEQEND
0
POLYLINE
8
STEMPEL
66
1
70
1
0
VERTEX
8
STEMPEL
10
88
20
188
30
0.0
0
VERTEX
8
STEMPEL
10
90
20
188
30
0.0
0
VERTEX
8
STEMPEL
10
90
20
210
30
0.0
0
VERTEX
8
STEMPEL
10
88
20
210
30
0.0
0
SEQEND
0
POLYLINE
8
STEMPEL
66
1
70
1
0
VERTEX
8
STEMPEL
10
100
20
208
30
0.0
0
VERTEX
8
STEMPEL
10
104
20
208
30
0.0
0
VERTEX
8
STEMPEL
10
104
20
210
30
0.0
0
VERTEX
8
STEMPEL
10
100
20
210
30
0.0
0
SEQEND
0
POLYLINE
8
STEMPEL
66
1
70
1
0
VERTEX
8
STEMPEL
10
128
20
208
30
0.0
0
VERTEX
8
STEMPEL
10
132
20
208
30
0.0
0
VERTEX
8
STEMPEL
10
132
20
210
30
0.0
0
VERTEX
8
STEMPEL
10
128
20
210
30
0.0
0
SEQEND
0
POLYLINE
8
STEMPEL
66
1
70
1
0
VERTEX
8
STEMPEL
10
134
20
208
30
0.0
0
VERTEX
8
STEMPEL
10
138
20
208
30
0.0
0
VERTEX
8
STEMPEL
10
138
20
210
30
0.0
0
VERTEX
8
STEMPEL
10
134
20
210
30
0.0
0
SEQEND
0
POLYLINE
8
STEMPEL
66
1
70
1
0
VERTEX
8
STEMPEL
10
100
20
194
30
0.0
0
VERTEX
8
STEMPEL
10
102
20
194
30
0.0
0
VERTEX
8
STEMPEL
10
102
20
208
30
0.0
0
VERTEX
8
STEMPEL
10
100
20
208
30
0.0
0
SEQEND
0
POLYLINE
8
STEMPEL
66
1
70
1
0
VERTEX
8
STEMPEL
10
130
20
194
30
0.0
0
VERTEX
8
STEMPEL
10
132
20
194
30
0.0
0
VERTEX
8
STEMPEL
10
132
20
208
30
0.0
0
VERTEX
8
STEMPEL
10
130
20
208
30
0.0
0
SEQEND
0
POLYLINE
8
STEMPEL
66
1
70
1
0
VERTEX
8
STEMPEL
10
136
20
194
30
0.0
0
VERTEX
8
STEMPEL
10
138
20
194
30
0.0
0
VERTEX
8
STEMPEL
10
138
20
208
30
0.0
0
VERTEX
8
STEMPEL
10
136
20
208
30
0.0
0
SEQEND
0
POLYLINE
8
STEMPEL
66
1
70
1
0
VERTEX
8
STEMPEL
10
106
20
204
30
0.0
0
VERTEX
8
STEMPEL
10
126
20
204
30
0.0
0
VERTEX
8
STEMPEL
10
126
20
206
30
0.0
0
VERTEX
8
STEMPEL
10
106
20
206
30
0.0
0
SEQEND
0
POLYLINE
8
STEMPEL
66
1
70
1
0
VERTEX
8
STEMPEL
10
128
20
194
30
0.0
0
VERTEX
8
STEMPEL
10
130
20
194
30
0.0
0
VERTEX
8
STEMPEL
10
130
20
206
30
0.0
0
VERTEX
8
STEMPEL
10
128
20
206
30
0.0
0
SEQEND
0
POLYLINE
8
STEMPEL
66
1
70
1
0
VERTEX
8
STEMPEL
10
106
20
194
30
0.0
0
VERTEX
8
STEMPEL
10
108
20
194
30
0.0
0
VERTEX
8
STEMPEL
10
108
20
204
30
0.0
0
VERTEX
8
STEMPEL
10
106
20
204
30
0.0
0
SEQEND
0
POLYLINE
8
STEMPEL
66
1
70
1
0
VERTEX
8
STEMPEL
10
86
20
188
30
0.0
0
VERTEX
8
STEMPEL
10
88
20
188
30
0.0
0
VERTEX
8
STEMPEL
10
88
20
202
30
0.0
0
VERTEX
8
STEMPEL
10
86
20
202
30
0.0
0
SEQEND
0
POLYLINE
8
STEMPEL
66
1
70
1
0
VERTEX
8
STEMPEL
10
134
20
122
30
0.0
0
VERTEX
8
STEMPEL
10
136
20
122
30
0.0
0
VERTEX
8
STEMPEL
10
136
20
198
30
0.0
0
VERTEX
8
STEMPEL
10
134
20
198
30
0.0
0
SEQEND
0
POLYLINE
8
STEMPEL
66
1
70
1
0
VERTEX
8
STEMPEL
10
96
20
194
30
0.0
0
VERTEX
8
STEMPEL
10
100
20
194
30
0.0
0
VERTEX
8
STEMPEL
10
100
20
196
30
0.0
0
VERTEX
8
STEMPEL
10
96
20
196
30
0.0
0
SEQEND
0
POLYLINE
8
STEMPEL
66
1
70
1
0
VERTEX
8
STEMPEL
10
108
20
194
30
0.0
0
VERTEX
8
STEMPEL
10
128
20
194
30
0.0
0
VERTEX
8
STEMPEL
10
128
20
196
30
0.0
0
VERTEX
8
STEMPEL
10
108
20
196
30
0.0
0
SEQEND
0
POLYLINE
8
STEMPEL
66
1
70
1
0
VERTEX
8
STEMPEL
10
92
20
188
30
0.0
0
VERTEX
8
STEMPEL
10
96
20
188
30
0.0
0
VERTEX
8
STEMPEL
10
96
20
192
30
0.0
0
VERTEX
8
STEMPEL
10
92
20
192
30
0.0
0
SEQEND
0
POLYLINE
8
STEMPEL
66
1
70
1
0
VERTEX
8
STEMPEL
10
90
20
188
30
0.0
0
VERTEX
8
STEMPEL
10
92
20
188
30
0.0
0
VERTEX
8
STEMPEL
10
92
20
190
30
0.0
0
VERTEX
8
STEMPEL
10
90
20
190
30
0.0
0
SEQEND
0
POLYLINE
8
STEMPEL
66
1
70
1
0
VERTEX
8
STEMPEL
10
96
20
188
30
0.0
0
VERTEX
8
STEMPEL
10
130
20
188
30
0.0
0
VERTEX
8
STEMPEL
10
130
20
190
30
0.0
0
VERTEX
8
STEMPEL
10
96
20
190
30
0.0
0
SEQEND
0
POLYLINE
8
STEMPEL
66
1
70
1
0
VERTEX
8
STEMPEL
10
128
20
162
30
0.0
0
VERTEX
8
STEMPEL
10
130
20
162
30
0.0
0
VERTEX
8
STEMPEL
10
130
20
188
30
0.0
0
VERTEX
8
STEMPEL
10
128
20
188
30
0.0
0
SEQEND
0
POLYLINE
8
STEMPEL
66
1
70
1
0
VERTEX
8
STEMPEL
10
130
20
180
30
0.0
0
VERTEX
8
STEMPEL
10
132
20
180
30
0.0
0
VERTEX
8
STEMPEL
10
132
20
186
30
0.0
0
VERTEX
8
STEMPEL
10
130
20
186
30
0.0
0
SEQEND
0
POLYLINE
8
STEMPEL
66
1
70
1
0
VERTEX
8
STEMPEL
10
112
20
156
30
0.0
0
VERTEX
8
STEMPEL
10
114
20
156
30
0.0
0
VERTEX
8
STEMPEL
10
114
20
176
30
0.0
0
VERTEX
8
STEMPEL
10
112
20
176
30
0.0
0
SEQEND
0
POLYLINE
8
STEMPEL
66
1
70
1
0
VERTEX
8
STEMPEL
10
72
20
156
30
0.0
0
VERTEX
8
STEMPEL
10
90
20
156
30
0.0
0
VERTEX
8
STEMPEL
10
90
20
160
30
0.0
0
VERTEX
8
STEMPEL
10
72
20
160
30
0.0
0
SEQEND
0
POLYLINE
8
STEMPEL
66
1
70
1
0
VERTEX
8
STEMPEL
10
110
20
156
30
0.0
0
VERTEX
8
STEMPEL
10
112
20
156
30
0.0
0
VERTEX
8
STEMPEL
10
112
20
160
30
0.0
0
VERTEX
8
STEMPEL
10
110
20
160
30
0.0
0
SEQEND
0
POLYLINE
8
STEMPEL
66
1
70
1
0
VERTEX
8
STEMPEL
10
90
20
156
30
0.0
0
VERTEX
8
STEMPEL
10
110
20
156
30
0.0
0
VERTEX
8
STEMPEL
10
110
20
158
30
0.0
0
VERTEX
8
STEMPEL
10
90
20
158
30
0.0
0
SEQEND
0
POLYLINE
8
STEMPEL
66
1
70
1
0
VERTEX
8
STEMPEL
10
114
20
156
30
0.0
0
VERTEX
8
STEMPEL
10
134
20
156
30
0.0
0
VERTEX
8
STEMPEL
10
134
20
158
30
0.0
0
VERTEX
8
STEMPEL
10
114
20
158
30
0.0
0
SEQEND
0
POLYLINE
8
STEMPEL
66
1
70
1
0
VERTEX
8
STEMPEL
10
70
20
134
30
0.0
0
VERTEX
8
STEMPEL
10
74
20
134
30
0.0
0
VERTEX
8
STEMPEL
10
74
20
156
30
0.0
0
VERTEX
8
STEMPEL
10
70
20
156
30
0.0
0
SEQEND
0
POLYLINE
8
STEMPEL
66
1
70
1
0
VERTEX
8
STEMPEL
10
106
20
134
30
0.0
0
VERTEX
8
STEMPEL
10
108
20
134
30
0.0
0
VERTEX
8
STEMPEL
10
108
20
156
30
0.0
0
VERTEX
8
STEMPEL
10
106
20
156
30
0.0
0
SEQEND
0
POLYLINE
8
STEMPEL
66
1
70
1
0
VERTEX
8
STEMPEL
10
2
20
108
30
0.0
0
VERTEX
8
STEMPEL
10
4
20
108
30
0.0
0
VERTEX
8
STEMPEL
10
4
20
154
30
0.0
0
VERTEX
8
STEMPEL
10
2
20
154
30
0.0
0
SEQEND
0
POLYLINE
8
STEMPEL
66
1
70
1
0
VERTEX
8
STEMPEL
10
78
20
150
30
0.0
0
VERTEX
8
STEMPEL
10
90
20
150
30
0.0
0
VERTEX
8
STEMPEL
10
90
20
154
30
0.0
0
VERTEX
8
STEMPEL
10
78
20
154
30
0.0
0
SEQEND
0
POLYLINE
8
STEMPEL
66
1
70
1
0
VERTEX
8
STEMPEL
10
90
20
150
30
0.0
0
VERTEX
8
STEMPEL
10
102
20
150
30
0.0
0
VERTEX
8
STEMPEL
10
102
20
152
30
0.0
0
VERTEX
8
STEMPEL
10
90
20
152
30
0.0
0
SEQEND
0
POLYLINE
8
STEMPEL
66
1
70
1
0
VERTEX
8
STEMPEL
10
78
20
124
30
0.0
0
VERTEX
8
STEMPEL
10
80
20
124
30
0.0
0
VERTEX
8
STEMPEL
10
80
20
150
30
0.0
0
VERTEX
8
STEMPEL
10
78
20
150
30
0.0
0
SEQEND
0
POLYLINE
8
STEMPEL
66
1
70
1
0
VERTEX
8
STEMPEL
10
100
20
138
30
0.0
0
VERTEX
8
STEMPEL
10
102
20
138
30
0.0
0
VERTEX
8
STEMPEL
10
102
20
150
30
0.0
0
VERTEX
8
STEMPEL
10
100
20
150
30
0.0
0
SEQEND
0
POLYLINE
8
STEMPEL
66
1
70
1
0
VERTEX
8
STEMPEL
10
116
20
144
30
0.0
0
VERTEX
8
STEMPEL
10
124
20
144
30
0.0
0
VERTEX
8
STEMPEL
10
124
20
146
30
0.0
0
VERTEX
8
STEMPEL
10
116
20
146
30
0.0
0
SEQEND
0
POLYLINE
8
STEMPEL
66
1
70
1
0
VERTEX
8
STEMPEL
10
116
20
138
30
0.0
0
VERTEX
8
STEMPEL
10
120
20
138
30
0.0
0
VERTEX
8
STEMPEL
10
120
20
144
30
0.0
0
VERTEX
8
STEMPEL
10
116
20
144
30
0.0
0
SEQEND
0
POLYLINE
8
STEMPEL
66
1
70
1
0
VERTEX
8
STEMPEL
10
76
20
124
30
0.0
0
VERTEX
8
STEMPEL
10
78
20
124
30
0.0
0
VERTEX
8
STEMPEL
10
78
20
142
30
0.0
0
VERTEX
8
STEMPEL
10
76
20
142
30
0.0
0
SEQEND
0
POLYLINE
8
STEMPEL
66
1
70
1
0
VERTEX
8
STEMPEL
10
88
20
138
30
0.0
0
VERTEX
8
STEMPEL
10
100
20
138
30
0.0
0
VERTEX
8
STEMPEL
10
100
20
142
30
0.0
0
VERTEX
8
STEMPEL
10
88
20
142
30
0.0
0
SEQEND
0
POLYLINE
8
STEMPEL
66
1
70
1
0
VERTEX
8
STEMPEL
10
104
20
134
30
0.0
0
VERTEX
8
STEMPEL
10
106
20
134
30
0.0
0
VERTEX
8
STEMPEL
10
106
20
142
30
0.0
0
VERTEX
8
STEMPEL
10
104
20
142
30
0.0
0
SEQEND
0
POLYLINE
8
STEMPEL
66
1
70
1
0
VERTEX
8
STEMPEL
10
88
20
134
30
0.0
0
VERTEX
8
STEMPEL
10
90
20
134
30
0.0
0
VERTEX
8
STEMPEL
10
90
20
138
30
0.0
0
VERTEX
8
STEMPEL
10
88
20
138
30
0.0
0
SEQEND
0
POLYLINE
8
STEMPEL
66
1
70
1
0
VERTEX
8
STEMPEL
10
116
20
106
30
0.0
0
VERTEX
8
STEMPEL
10
118
20
106
30
0.0
0
VERTEX
8
STEMPEL
10
118
20
138
30
0.0
0
VERTEX
8
STEMPEL
10
116
20
138
30
0.0
0
SEQEND
0
POLYLINE
8
STEMPEL
66
1
70
1
0
VERTEX
8
STEMPEL
10
128
20
118
30
0.0
0
VERTEX
8
STEMPEL
10
130
20
118
30
0.0
0
VERTEX
8
STEMPEL
10
130
20
138
30
0.0
0
VERTEX
8
STEMPEL
10
128
20
138
30
0.0
0
SEQEND
0
POLYLINE
8
STEMPEL
66
1
70
1
0
VERTEX
8
STEMPEL
10
90
20
134
30
0.0
0
VERTEX
8
STEMPEL
10
104
20
134
30
0.0
0
VERTEX
8
STEMPEL
10
104
20
136
30
0.0
0
VERTEX
8
STEMPEL
10
90
20
136
30
0.0
0
SEQEND
0
POLYLINE
8
STEMPEL
66
1
70
1
0
VERTEX
8
STEMPEL
10
122
20
134
30
0.0
0
VERTEX
8
STEMPEL
10
128
20
134
30
0.0
0
VERTEX
8
STEMPEL
10
128
20
136
30
0.0
0
VERTEX
8
STEMPEL
10
122
20
136
30
0.0
0
SEQEND
0
POLYLINE
8
STEMPEL
66
1
70
1
0
VERTEX
8
STEMPEL
10
70
20
76
30
0.0
0
VERTEX
8
STEMPEL
10
72
20
76
30
0.0
0
VERTEX
8
STEMPEL
10
72
20
134
30
0.0
0
VERTEX
8
STEMPEL
10
70
20
134
30
0.0
0
SEQEND
0
POLYLINE
8
STEMPEL
66
1
70
1
0
VERTEX
8
STEMPEL
10
122
20
124
30
0.0
0
VERTEX
8
STEMPEL
10
124
20
124
30
0.0
0
VERTEX
8
STEMPEL
10
124
20
134
30
0.0
0
VERTEX
8
STEMPEL
10
122
20
134
30
0.0
0
SEQEND
0
POLYLINE
8
STEMPEL
66
1
70
1
0
VERTEX
8
STEMPEL
10
132
20
118
30
0.0
0
VERTEX
8
STEMPEL
10
134
20
118
30
0.0
0
VERTEX
8
STEMPEL
10
134
20
132
30
0.0
0
VERTEX
8
STEMPEL
10
132
20
132
30
0.0
0
SEQEND
0
POLYLINE
8
STEMPEL
66
1
70
1
0
VERTEX
8
STEMPEL
10
126
20
122
30
0.0
0
VERTEX
8
STEMPEL
10
128
20
122
30
0.0
0
VERTEX
8
STEMPEL
10
128
20
128
30
0.0
0
VERTEX
8
STEMPEL
10
126
20
128
30
0.0
0
SEQEND
0
POLYLINE
8
STEMPEL
66
1
70
1
0
VERTEX
8
STEMPEL
10
80
20
124
30
0.0
0
VERTEX
8
STEMPEL
10
116
20
124
30
0.0
0
VERTEX
8
STEMPEL
10
116
20
126
30
0.0
0
VERTEX
8
STEMPEL
10
80
20
126
30
0.0
0
SEQEND
0
POLYLINE
8
STEMPEL
66
1
70
1
0
VERTEX
8
STEMPEL
10
120
20
118
30
0.0
0
VERTEX
8
STEMPEL
10
122
20
118
30
0.0
0
VERTEX
8
STEMPEL
10
122
20
122
30
0.0
0
VERTEX
8
STEMPEL
10
120
20
122
30
0.0
0
SEQEND
0
POLYLINE
8
STEMPEL
66
1
70
1
0
VERTEX
8
STEMPEL
10
118
20
118
30
0.0
0
VERTEX
8
STEMPEL
10
120
20
118
30
0.0
0
VERTEX
8
STEMPEL
10
120
20
120
30
0.0
0
VERTEX
8
STEMPEL
10
118
20
120
30
0.0
0
SEQEND
0
POLYLINE
8
STEMPEL
66
1
70
1
0
VERTEX
8
STEMPEL
10
122
20
118
30
0.0
0
VERTEX
8
STEMPEL
10
128
20
118
30
0.0
0
VERTEX
8
STEMPEL
10
128
20
120
30
0.0
0
VERTEX
8
STEMPEL
10
122
20
120
30
0.0
0
SEQEND
0
POLYLINE
8
STEMPEL
66
1
70
1
0
VERTEX
8
STEMPEL
10
132
20
0
30
0.0
0
VERTEX
8
STEMPEL
10
134
20
0
30
0.0
0
VERTEX
8
STEMPEL
10
134
20
116
30
0.0
0
VERTEX
8
STEMPEL
10
132
20
116
30
0.0
0
SEQEND
0
POLYLINE
8
STEMPEL
66
1
70
1
0
VERTEX
8
STEMPEL
10
118
20
112
30
0.0
0
VERTEX
8
STEMPEL
10
132
20
112
30
0.0
0
VERTEX
8
STEMPEL
10
132
20
114
30
0.0
0
VERTEX
8
STEMPEL
10
118
20
114
30
0.0
0
SEQEND
0
POLYLINE
8
STEMPEL
66
1
70
1
0
VERTEX
8
STEMPEL
10
108
20
106
30
0.0
0
VERTEX
8
STEMPEL
10
110
20
106
30
0.0
0
VERTEX
8
STEMPEL
10
110
20
110
30
0.0
0
VERTEX
8
STEMPEL
10
108
20
110
30
0.0
0
SEQEND
0
POLYLINE
8
STEMPEL
66
1
70
1
0
VERTEX
8
STEMPEL
10
114
20
106
30
0.0
0
VERTEX
8
STEMPEL
10
116
20
106
30
0.0
0
VERTEX
8
STEMPEL
10
116
20
110
30
0.0
0
VERTEX
8
STEMPEL
10
114
20
110
30
0.0
0
SEQEND
0
POLYLINE
8
STEMPEL
66
1
70
1
0
VERTEX
8
STEMPEL
10
106
20
106
30
0.0
0
VERTEX
8
STEMPEL
10
108
20
106
30
0.0
0
VERTEX
8
STEMPEL
10
108
20
108
30
0.0
0
VERTEX
8
STEMPEL
10
106
20
108
30
0.0
0
SEQEND
0
POLYLINE
8
STEMPEL
66
1
70
1
0
VERTEX
8
STEMPEL
10
110
20
106
30
0.0
0
VERTEX
8
STEMPEL
10
114
20
106
30
0.0
0
VERTEX
8
STEMPEL
10
114
20
108
30
0.0
0
VERTEX
8
STEMPEL
10
110
20
108
30
0.0
0
SEQEND
0
POLYLINE
8
STEMPEL
66
1
70
1
0
VERTEX
8
STEMPEL
10
118
20
106
30
0.0
0
VERTEX
8
STEMPEL
10
132
20
106
30
0.0
0
VERTEX
8
STEMPEL
10
132
20
108
30
0.0
0
VERTEX
8
STEMPEL
10
118
20
108
30
0.0
0
SEQEND
0
POLYLINE
8
STEMPEL
66
1
70
1
0
VERTEX
8
STEMPEL
10
6
20
102
30
0.0
0
VERTEX
8
STEMPEL
10
12
20
102
30
0.0
0
VERTEX
8
STEMPEL
10
12
20
106
30
0.0
0
VERTEX
8
STEMPEL
10
6
20
106
30
0.0
0
SEQEND
0
POLYLINE
8
STEMPEL
66
1
70
1
0
VERTEX
8
STEMPEL
10
2
20
102
30
0.0
0
VERTEX
8
STEMPEL
10
6
20
102
30
0.0
0
VERTEX
8
STEMPEL
10
6
20
104
30
0.0
0
VERTEX
8
STEMPEL
10
2
20
104
30
0.0
0
SEQEND
0
POLYLINE
8
STEMPEL
66
1
70
1
0
VERTEX
8
STEMPEL
10
12
20
102
30
0.0
0
VERTEX
8
STEMPEL
10
42
20
102
30
0.0
0
VERTEX
8
STEMPEL
10
42
20
104
30
0.0
0
VERTEX
8
STEMPEL
10
12
20
104
30
0.0
0
SEQEND
0
POLYLINE
8
STEMPEL
66
1
70
1
0
VERTEX
8
STEMPEL
10
44
20
102
30
0.0
0
VERTEX
8
STEMPEL
10
70
20
102
30
0.0
0
VERTEX
8
STEMPEL
10
70
20
104
30
0.0
0
VERTEX
8
STEMPEL
10
44
20
104
30
0.0
0
SEQEND
0
POLYLINE
8
STEMPEL
66
1
70
1
0
VERTEX
8
STEMPEL
10
76
20
102
30
0.0
0
VERTEX
8
STEMPEL
10
118
20
102
30
0.0
0
VERTEX
8
STEMPEL
10
118
20
104
30
0.0
0
VERTEX
8
STEMPEL
10
76
20
104
30
0.0
0
SEQEND
0
POLYLINE
8
STEMPEL
66
1
70
1
0
VERTEX
8
STEMPEL
10
2
20
96
30
0.0
0
VERTEX
8
STEMPEL
10
4
20
96
30
0.0
0
VERTEX
8
STEMPEL
10
4
20
102
30
0.0
0
VERTEX
8
STEMPEL
10
2
20
102
30
0.0
0
SEQEND
0
POLYLINE
8
STEMPEL
66
1
70
1
0
VERTEX
8
STEMPEL
10
24
20
90
30
0.0
0
VERTEX
8
STEMPEL
10
26
20
90
30
0.0
0
VERTEX
8
STEMPEL
10
26
20
102
30
0.0
0
VERTEX
8
STEMPEL
10
24
20
102
30
0.0
0
SEQEND
0
POLYLINE
8
STEMPEL
66
1
70
1
0
VERTEX
8
STEMPEL
10
44
20
90
30
0.0
0
VERTEX
8
STEMPEL
10
46
20
90
30
0.0
0
VERTEX
8
STEMPEL
10
46
20
102
30
0.0
0
VERTEX
8
STEMPEL
10
44
20
102
30
0.0
0
SEQEND
0
POLYLINE
8
STEMPEL
66
1
70
1
0
VERTEX
8
STEMPEL
10
50
20
96
30
0.0
0
VERTEX
8
STEMPEL
10
52
20
96
30
0.0
0
VERTEX
8
STEMPEL
10
52
20
102
30
0.0
0
VERTEX
8
STEMPEL
10
50
20
102
30
0.0
0
SEQEND
0
POLYLINE
8
STEMPEL
66
1
70
1
0
VERTEX
8
STEMPEL
10
76
20
90
30
0.0
0
VERTEX
8
STEMPEL
10
78
20
90
30
0.0
0
VERTEX
8
STEMPEL
10
78
20
102
30
0.0
0
VERTEX
8
STEMPEL
10
76
20
102
30
0.0
0
SEQEND
0
POLYLINE
8
STEMPEL
66
1
70
1
0
VERTEX
8
STEMPEL
10
88
20
100
30
0.0
0
VERTEX
8
STEMPEL
10
92
20
100
30
0.0
0
VERTEX
8
STEMPEL
10
92
20
102
30
0.0
0
VERTEX
8
STEMPEL
10
88
20
102
30
0.0
0
SEQEND
0
POLYLINE
8
STEMPEL
66
1
70
1
0
VERTEX
8
STEMPEL
10
94
20
100
30
0.0
0
VERTEX
8
STEMPEL
10
130
20
100
30
0.0
0
VERTEX
8
STEMPEL
10
130
20
102
30
0.0
0
VERTEX
8
STEMPEL
10
94
20
102
30
0.0
0
SEQEND
0
POLYLINE
8
STEMPEL
66
1
70
1
0
VERTEX
8
STEMPEL
10
68
20
64
30
0.0
0
VERTEX
8
STEMPEL
10
70
20
64
30
0.0
0
VERTEX
8
STEMPEL
10
70
20
100
30
0.0
0
VERTEX
8
STEMPEL
10
68
20
100
30
0.0
0
SEQEND
0
POLYLINE
8
STEMPEL
66
1
70
1
0
VERTEX
8
STEMPEL
10
88
20
90
30
0.0
0
VERTEX
8
STEMPEL
10
90
20
90
30
0.0
0
VERTEX
8
STEMPEL
10
90
20
100
30
0.0
0
VERTEX
8
STEMPEL
10
88
20
100
30
0.0
0
SEQEND
0
POLYLINE
8
STEMPEL
66
1
70
1
0
VERTEX
8
STEMPEL
10
106
20
90
30
0.0
0
VERTEX
8
STEMPEL
10
108
20
90
30
0.0
0
VERTEX
8
STEMPEL
10
108
20
100
30
0.0
0
VERTEX
8
STEMPEL
10
106
20
100
30
0.0
0
SEQEND
0
POLYLINE
8
STEMPEL
66
1
70
1
0
VERTEX
8
STEMPEL
10
116
20
88
30
0.0
0
VERTEX
8
STEMPEL
10
118
20
88
30
0.0
0
VERTEX
8
STEMPEL
10
118
20
100
30
0.0
0
VERTEX
8
STEMPEL
10
116
20
100
30
0.0
0
SEQEND
0
POLYLINE
8
STEMPEL
66
1
70
1
0
VERTEX
8
STEMPEL
10
94
20
96
30
0.0
0
VERTEX
8
STEMPEL
10
106
20
96
30
0.0
0
VERTEX
8
STEMPEL
10
106
20
98
30
0.0
0
VERTEX
8
STEMPEL
10
94
20
98
30
0.0
0
SEQEND
0
POLYLINE
8
STEMPEL
66
1
70
1
0
VERTEX
8
STEMPEL
10
108
20
94
30
0.0
0
VERTEX
8
STEMPEL
10
112
20
94
30
0.0
0
VERTEX
8
STEMPEL
10
112
20
98
30
0.0
0
VERTEX
8
STEMPEL
10
108
20
98
30
0.0
0
SEQEND
0
POLYLINE
8
STEMPEL
66
1
70
1
0
VERTEX
8
STEMPEL
10
94
20
94
30
0.0
0
VERTEX
8
STEMPEL
10
98
20
94
30
0.0
0
VERTEX
8
STEMPEL
10
98
20
96
30
0.0
0
VERTEX
8
STEMPEL
10
94
20
96
30
0.0
0
SEQEND
0
POLYLINE
8
STEMPEL
66
1
70
1
0
VERTEX
8
STEMPEL
10
100
20
94
30
0.0
0
VERTEX
8
STEMPEL
10
104
20
94
30
0.0
0
VERTEX
8
STEMPEL
10
104
20
96
30
0.0
0
VERTEX
8
STEMPEL
10
100
20
96
30
0.0
0
SEQEND
0
POLYLINE
8
STEMPEL
66
1
70
1
0
VERTEX
8
STEMPEL
10
22
20
90
30
0.0
0
VERTEX
8
STEMPEL
10
24
20
90
30
0.0
0
VERTEX
8
STEMPEL
10
24
20
94
30
0.0
0
VERTEX
8
STEMPEL
10
22
20
94
30
0.0
0
SEQEND
0
POLYLINE
8
STEMPEL
66
1
70
1
0
VERTEX
8
STEMPEL
10
30
20
90
30
0.0
0
VERTEX
8
STEMPEL
10
32
20
90
30
0.0
0
VERTEX
8
STEMPEL
10
32
20
94
30
0.0
0
VERTEX
8
STEMPEL
10
30
20
94
30
0.0
0
SEQEND
0
POLYLINE
8
STEMPEL
66
1
70
1
0
VERTEX
8
STEMPEL
10
94
20
90
30
0.0
0
VERTEX
8
STEMPEL
10
96
20
90
30
0.0
0
VERTEX
8
STEMPEL
10
96
20
94
30
0.0
0
VERTEX
8
STEMPEL
10
94
20
94
30
0.0
0
SEQEND
0
POLYLINE
8
STEMPEL
66
1
70
1
0
VERTEX
8
STEMPEL
10
18
20
90
30
0.0
0
VERTEX
8
STEMPEL
10
22
20
90
30
0.0
0
VERTEX
8
STEMPEL
10
22
20
92
30
0.0
0
VERTEX
8
STEMPEL
10
18
20
92
30
0.0
0
SEQEND
0
POLYLINE
8
STEMPEL
66
1
70
1
0
VERTEX
8
STEMPEL
10
26
20
90
30
0.0
0
VERTEX
8
STEMPEL
10
30
20
90
30
0.0
0
VERTEX
8
STEMPEL
10
30
20
92
30
0.0
0
VERTEX
8
STEMPEL
10
26
20
92
30
0.0
0
SEQEND
0
POLYLINE
8
STEMPEL
66
1
70
1
0
VERTEX
8
STEMPEL
10
32
20
90
30
0.0
0
VERTEX
8
STEMPEL
10
44
20
90
30
0.0
0
VERTEX
8
STEMPEL
10
44
20
92
30
0.0
0
VERTEX
8
STEMPEL
10
32
20
92
30
0.0
0
SEQEND
0
POLYLINE
8
STEMPEL
66
1
70
1
0
VERTEX
8
STEMPEL
10
46
20
90
30
0.0
0
VERTEX
8
STEMPEL
10
64
20
90
30
0.0
0
VERTEX
8
STEMPEL
10
64
20
92
30
0.0
0
VERTEX
8
STEMPEL
10
46
20
92
30
0.0
0
SEQEND
0
POLYLINE
8
STEMPEL
66
1
70
1
0
VERTEX
8
STEMPEL
10
78
20
90
30
0.0
0
VERTEX
8
STEMPEL
10
88
20
90
30
0.0
0
VERTEX
8
STEMPEL
10
88
20
92
30
0.0
0
VERTEX
8
STEMPEL
10
78
20
92
30
0.0
0
SEQEND
0
POLYLINE
8
STEMPEL
66
1
70
1
0
VERTEX
8
STEMPEL
10
96
20
90
30
0.0
0
VERTEX
8
STEMPEL
10
106
20
90
30
0.0
0
VERTEX
8
STEMPEL
10
106
20
92
30
0.0
0
VERTEX
8
STEMPEL
10
96
20
92
30
0.0
0
SEQEND
0
POLYLINE
8
STEMPEL
66
1
70
1
0
VERTEX
8
STEMPEL
10
108
20
90
30
0.0
0
VERTEX
8
STEMPEL
10
112
20
90
30
0.0
0
VERTEX
8
STEMPEL
10
112
20
92
30
0.0
0
VERTEX
8
STEMPEL
10
108
20
92
30
0.0
0
SEQEND
0
POLYLINE
8
STEMPEL
66
1
70
1
0
VERTEX
8
STEMPEL
10
114
20
88
30
0.0
0
VERTEX
8
STEMPEL
10
116
20
88
30
0.0
0
VERTEX
8
STEMPEL
10
116
20
92
30
0.0
0
VERTEX
8
STEMPEL
10
114
20
92
30
0.0
0
SEQEND
0
POLYLINE
8
STEMPEL
66
1
70
1
0
VERTEX
8
STEMPEL
10
128
20
88
30
0.0
0
VERTEX
8
STEMPEL
10
132
20
88
30
0.0
0
VERTEX
8
STEMPEL
10
132
20
92
30
0.0
0
VERTEX
8
STEMPEL
10
128
20
92
30
0.0
0
SEQEND
0
POLYLINE
8
STEMPEL
66
1
70
1
0
VERTEX
8
STEMPEL
10
118
20
88
30
0.0
0
VERTEX
8
STEMPEL
10
128
20
88
30
0.0
0
VERTEX
8
STEMPEL
10
128
20
90
30
0.0
0
VERTEX
8
STEMPEL
10
118
20
90
30
0.0
0
SEQEND
0
POLYLINE
8
STEMPEL
66
1
70
1
0
VERTEX
8
STEMPEL
10
76
20
84
30
0.0
0
VERTEX
8
STEMPEL
10
128
20
84
30
0.0
0
VERTEX
8
STEMPEL
10
128
20
86
30
0.0
0
VERTEX
8
STEMPEL
10
76
20
86
30
0.0
0
SEQEND
0
POLYLINE
8
STEMPEL
66
1
70
1
0
VERTEX
8
STEMPEL
10
76
20
76
30
0.0
0
VERTEX
8
STEMPEL
10
78
20
76
30
0.0
0
VERTEX
8
STEMPEL
10
78
20
84
30
0.0
0
VERTEX
8
STEMPEL
10
76
20
84
30
0.0
0
SEQEND
0
POLYLINE
8
STEMPEL
66
1
70
1
0
VERTEX
8
STEMPEL
10
98
20
82
30
0.0
0
VERTEX
8
STEMPEL
10
128
20
82
30
0.0
0
VERTEX
8
STEMPEL
10
128
20
84
30
0.0
0
VERTEX
8
STEMPEL
10
98
20
84
30
0.0
0
SEQEND
0
POLYLINE
8
STEMPEL
66
1
70
1
0
VERTEX
8
STEMPEL
10
120
20
68
30
0.0
0
VERTEX
8
STEMPEL
10
122
20
68
30
0.0
0
VERTEX
8
STEMPEL
10
122
20
82
30
0.0
0
VERTEX
8
STEMPEL
10
120
20
82
30
0.0
0
SEQEND
0
POLYLINE
8
STEMPEL
66
1
70
1
0
VERTEX
8
STEMPEL
10
126
20
68
30
0.0
0
VERTEX
8
STEMPEL
10
128
20
68
30
0.0
0
VERTEX
8
STEMPEL
10
128
20
82
30
0.0
0
VERTEX
8
STEMPEL
10
126
20
82
30
0.0
0
SEQEND
0
POLYLINE
8
STEMPEL
66
1
70
1
0
VERTEX
8
STEMPEL
10
14
20
34
30
0.0
0
VERTEX
8
STEMPEL
10
16
20
34
30
0.0
0
VERTEX
8
STEMPEL
10
16
20
80
30
0.0
0
VERTEX
8
STEMPEL
10
14
20
80
30
0.0
0
SEQEND
0
POLYLINE
8
STEMPEL
66
1
70
1
0
VERTEX
8
STEMPEL
10
74
20
76
30
0.0
0
VERTEX
8
STEMPEL
10
76
20
76
30
0.0
0
VERTEX
8
STEMPEL
10
76
20
80
30
0.0
0
VERTEX
8
STEMPEL
10
74
20
80
30
0.0
0
SEQEND
0
POLYLINE
8
STEMPEL
66
1
70
1
0
VERTEX
8
STEMPEL
10
114
20
64
30
0.0
0
VERTEX
8
STEMPEL
10
116
20
64
30
0.0
0
VERTEX
8
STEMPEL
10
116
20
80
30
0.0
0
VERTEX
8
STEMPEL
10
114
20
80
30
0.0
0
SEQEND
0
POLYLINE
8
STEMPEL
66
1
70
1
0
VERTEX
8
STEMPEL
10
80
20
76
30
0.0
0
VERTEX
8
STEMPEL
10
110
20
76
30
0.0
0
VERTEX
8
STEMPEL
10
110
20
78
30
0.0
0
VERTEX
8
STEMPEL
10
80
20
78
30
0.0
0
SEQEND
0
POLYLINE
8
STEMPEL
66
1
70
1
0
VERTEX
8
STEMPEL
10
116
20
76
30
0.0
0
VERTEX
8
STEMPEL
10
120
20
76
30
0.0
0
VERTEX
8
STEMPEL
10
120
20
78
30
0.0
0
VERTEX
8
STEMPEL
10
116
20
78
30
0.0
0
SEQEND
0
POLYLINE
8
STEMPEL
66
1
70
1
0
VERTEX
8
STEMPEL
10
100
20
74
30
0.0
0
VERTEX
8
STEMPEL
10
104
20
74
30
0.0
0
VERTEX
8
STEMPEL
10
104
20
76
30
0.0
0
VERTEX
8
STEMPEL
10
100
20
76
30
0.0
0
SEQEND
0
POLYLINE
8
STEMPEL
66
1
70
1
0
VERTEX
8
STEMPEL
10
108
20
40
30
0.0
0
VERTEX
8
STEMPEL
10
110
20
40
30
0.0
0
VERTEX
8
STEMPEL
10
110
20
76
30
0.0
0
VERTEX
8
STEMPEL
10
108
20
76
30
0.0
0
SEQEND
0
POLYLINE
8
STEMPEL
66
1
70
1
0
VERTEX
8
STEMPEL
10
34
20
72
30
0.0
0
VERTEX
8
STEMPEL
10
58
20
72
30
0.0
0
VERTEX
8
STEMPEL
10
58
20
74
30
0.0
0
VERTEX
8
STEMPEL
10
34
20
74
30
0.0
0
SEQEND
0
POLYLINE
8
STEMPEL
66
1
70
1
0
VERTEX
8
STEMPEL
10
70
20
70
30
0.0
0
VERTEX
8
STEMPEL
10
72
20
70
30
0.0
0
VERTEX
8
STEMPEL
10
72
20
74
30
0.0
0
VERTEX
8
STEMPEL
10
70
20
74
30
0.0
0
SEQEND
0
POLYLINE
8
STEMPEL
66
1
70
1
0
VERTEX
8
STEMPEL
10
52
20
70
30
0.0
0
VERTEX
8
STEMPEL
10
58
20
70
30
0.0
0
VERTEX
8
STEMPEL
10
58
20
72
30
0.0
0
VERTEX
8
STEMPEL
10
52
20
72
30
0.0
0
SEQEND
0
POLYLINE
8
STEMPEL
66
1
70
1
0
VERTEX
8
STEMPEL
10
72
20
70
30
0.0
0
VERTEX
8
STEMPEL
10
104
20
70
30
0.0
0
VERTEX
8
STEMPEL
10
104
20
72
30
0.0
0
VERTEX
8
STEMPEL
10
72
20
72
30
0.0
0
SEQEND
0
POLYLINE
8
STEMPEL
66
1
70
1
0
VERTEX
8
STEMPEL
10
124
20
68
30
0.0
0
VERTEX
8
STEMPEL
10
126
20
68
30
0.0
0
VERTEX
8
STEMPEL
10
126
20
72
30
0.0
0
VERTEX
8
STEMPEL
10
124
20
72
30
0.0
0
SEQEND
0
POLYLINE
8
STEMPEL
66
1
70
1
0
VERTEX
8
STEMPEL
10
54
20
60
30
0.0
0
VERTEX
8
STEMPEL
10
56
20
60
30
0.0
0
VERTEX
8
STEMPEL
10
56
20
70
30
0.0
0
VERTEX
8
STEMPEL
10
54
20
70
30
0.0
0
SEQEND
0
POLYLINE
8
STEMPEL
66
1
70
1
0
VERTEX
8
STEMPEL
10
102
20
34
30
0.0
0
VERTEX
8
STEMPEL
10
104
20
34
30
0.0
0
VERTEX
8
STEMPEL
10
104
20
70
30
0.0
0
VERTEX
8
STEMPEL
10
102
20
70
30
0.0
0
SEQEND
0
POLYLINE
8
STEMPEL
66
1
70
1
0
VERTEX
8
STEMPEL
10
122
20
68
30
0.0
0
VERTEX
8
STEMPEL
10
124
20
68
30
0.0
0
VERTEX
8
STEMPEL
10
124
20
70
30
0.0
0
VERTEX
8
STEMPEL
10
122
20
70
30
0.0
0
SEQEND
0
POLYLINE
8
STEMPEL
66
1
70
1
0
VERTEX
8
STEMPEL
10
60
20
64
30
0.0
0
VERTEX
8
STEMPEL
10
64
20
64
30
0.0
0
VERTEX
8
STEMPEL
10
64
20
68
30
0.0
0
VERTEX
8
STEMPEL
10
60
20
68
30
0.0
0
SEQEND
0
POLYLINE
8
STEMPEL
66
1
70
1
0
VERTEX
8
STEMPEL
10
56
20
64
30
0.0
0
VERTEX
8
STEMPEL
10
60
20
64
30
0.0
0
VERTEX
8
STEMPEL
10
60
20
66
30
0.0
0
VERTEX
8
STEMPEL
10
56
20
66
30
0.0
0
SEQEND
0
POLYLINE
8
STEMPEL
66
1
70
1
0
VERTEX
8
STEMPEL
10
64
20
64
30
0.0
0
VERTEX
8
STEMPEL
10
68
20
64
30
0.0
0
VERTEX
8
STEMPEL
10
68
20
66
30
0.0
0
VERTEX
8
STEMPEL
10
64
20
66
30
0.0
0
SEQEND
0
POLYLINE
8
STEMPEL
66
1
70
1
0
VERTEX
8
STEMPEL
10
70
20
64
30
0.0
0
VERTEX
8
STEMPEL
10
102
20
64
30
0.0
0
VERTEX
8
STEMPEL
10
102
20
66
30
0.0
0
VERTEX
8
STEMPEL
10
70
20
66
30
0.0
0
SEQEND
0
POLYLINE
8
STEMPEL
66
1
70
1
0
VERTEX
8
STEMPEL
10
116
20
64
30
0.0
0
VERTEX
8
STEMPEL
10
128
20
64
30
0.0
0
VERTEX
8
STEMPEL
10
128
20
66
30
0.0
0
VERTEX
8
STEMPEL
10
116
20
66
30
0.0
0
SEQEND
0
POLYLINE
8
STEMPEL
66
1
70
1
0
VERTEX
8
STEMPEL
10
16
20
62
30
0.0
0
VERTEX
8
STEMPEL
10
20
20
62
30
0.0
0
VERTEX
8
STEMPEL
10
20
20
64
30
0.0
0
VERTEX
8
STEMPEL
10
16
20
64
30
0.0
0
SEQEND
0
POLYLINE
8
STEMPEL
66
1
70
1
0
VERTEX
8
STEMPEL
10
100
20
62
30
0.0
0
VERTEX
8
STEMPEL
10
102
20
62
30
0.0
0
VERTEX
8
STEMPEL
10
102
20
64
30
0.0
0
VERTEX
8
STEMPEL
10
100
20
64
30
0.0
0
SEQEND
0
POLYLINE
8
STEMPEL
66
1
70
1
0
VERTEX
8
STEMPEL
10
118
20
62
30
0.0
0
VERTEX
8
STEMPEL
10
132
20
62
30
0.0
0
VERTEX
8
STEMPEL
10
132
20
64
30
0.0
0
VERTEX
8
STEMPEL
10
118
20
64
30
0.0
0
SEQEND
0
POLYLINE
8
STEMPEL
66
1
70
1
0
VERTEX
8
STEMPEL
10
18
20
60
30
0.0
0
VERTEX
8
STEMPEL
10
54
20
60
30
0.0
0
VERTEX
8
STEMPEL
10
54
20
62
30
0.0
0
VERTEX
8
STEMPEL
10
18
20
62
30
0.0
0
SEQEND
0
POLYLINE
8
STEMPEL
66
1
70
1
0
VERTEX
8
STEMPEL
10
56
20
60
30
0.0
0
VERTEX
8
STEMPEL
10
66
20
60
30
0.0
0
VERTEX
8
STEMPEL
10
66
20
62
30
0.0
0
VERTEX
8
STEMPEL
10
56
20
62
30
0.0
0
SEQEND
0
POLYLINE
8
STEMPEL
66
1
70
1
0
VERTEX
8
STEMPEL
10
60
20
58
30
0.0
0
VERTEX
8
STEMPEL
10
76
20
58
30
0.0
0
VERTEX
8
STEMPEL
10
76
20
60
30
0.0
0
VERTEX
8
STEMPEL
10
60
20
60
30
0.0
0
SEQEND
0
POLYLINE
8
STEMPEL
66
1
70
1
0
VERTEX
8
STEMPEL
10
80
20
58
30
0.0
0
VERTEX
8
STEMPEL
10
102
20
58
30
0.0
0
VERTEX
8
STEMPEL
10
102
20
60
30
0.0
0
VERTEX
8
STEMPEL
10
80
20
60
30
0.0
0
SEQEND
0
POLYLINE
8
STEMPEL
66
1
70
1
0
VERTEX
8
STEMPEL
10
114
20
56
30
0.0
0
VERTEX
8
STEMPEL
10
124
20
56
30
0.0
0
VERTEX
8
STEMPEL
10
124
20
60
30
0.0
0
VERTEX
8
STEMPEL
10
114
20
60
30
0.0
0
SEQEND
0
POLYLINE
8
STEMPEL
66
1
70
1
0
VERTEX
8
STEMPEL
10
74
20
52
30
0.0
0
VERTEX
8
STEMPEL
10
76
20
52
30
0.0
0
VERTEX
8
STEMPEL
10
76
20
58
30
0.0
0
VERTEX
8
STEMPEL
10
74
20
58
30
0.0
0
SEQEND
0
POLYLINE
8
STEMPEL
66
1
70
1
0
VERTEX
8
STEMPEL
10
80
20
52
30
0.0
0
VERTEX
8
STEMPEL
10
82
20
52
30
0.0
0
VERTEX
8
STEMPEL
10
82
20
58
30
0.0
0
VERTEX
8
STEMPEL
10
80
20
58
30
0.0
0
SEQEND
0
POLYLINE
8
STEMPEL
66
1
70
1
0
VERTEX
8
STEMPEL
10
124
20
56
30
0.0
0
VERTEX
8
STEMPEL
10
132
20
56
30
0.0
0
VERTEX
8
STEMPEL
10
132
20
58
30
0.0
0
VERTEX
8
STEMPEL
10
124
20
58
30
0.0
0
SEQEND
0
POLYLINE
8
STEMPEL
66
1
70
1
0
VERTEX
8
STEMPEL
10
66
20
48
30
0.0
0
VERTEX
8
STEMPEL
10
70
20
48
30
0.0
0
VERTEX
8
STEMPEL
10
70
20
56
30
0.0
0
VERTEX
8
STEMPEL
10
66
20
56
30
0.0
0
SEQEND
0
POLYLINE
8
STEMPEL
66
1
70
1
0
VERTEX
8
STEMPEL
10
100
20
46
30
0.0
0
VERTEX
8
STEMPEL
10
102
20
46
30
0.0
0
VERTEX
8
STEMPEL
10
102
20
56
30
0.0
0
VERTEX
8
STEMPEL
10
100
20
56
30
0.0
0
SEQEND
0
POLYLINE
8
STEMPEL
66
1
70
1
0
VERTEX
8
STEMPEL
10
114
20
36
30
0.0
0
VERTEX
8
STEMPEL
10
116
20
36
30
0.0
0
VERTEX
8
STEMPEL
10
116
20
56
30
0.0
0
VERTEX
8
STEMPEL
10
114
20
56
30
0.0
0
SEQEND
0
POLYLINE
8
STEMPEL
66
1
70
1
0
VERTEX
8
STEMPEL
10
70
20
52
30
0.0
0
VERTEX
8
STEMPEL
10
74
20
52
30
0.0
0
VERTEX
8
STEMPEL
10
74
20
54
30
0.0
0
VERTEX
8
STEMPEL
10
70
20
54
30
0.0
0
SEQEND
0
POLYLINE
8
STEMPEL
66
1
70
1
0
VERTEX
8
STEMPEL
10
82
20
52
30
0.0
0
VERTEX
8
STEMPEL
10
92
20
52
30
0.0
0
VERTEX
8
STEMPEL
10
92
20
54
30
0.0
0
VERTEX
8
STEMPEL
10
82
20
54
30
0.0
0
SEQEND
0
POLYLINE
8
STEMPEL
66
1
70
1
0
VERTEX
8
STEMPEL
10
120
20
50
30
0.0
0
VERTEX
8
STEMPEL
10
132
20
50
30
0.0
0
VERTEX
8
STEMPEL
10
132
20
52
30
0.0
0
VERTEX
8
STEMPEL
10
120
20
52
30
0.0
0
SEQEND
0
POLYLINE
8
STEMPEL
66
1
70
1
0
VERTEX
8
STEMPEL
10
120
20
30
30
0.0
0
VERTEX
8
STEMPEL
10
122
20
30
30
0.0
0
VERTEX
8
STEMPEL
10
122
20
50
30
0.0
0
VERTEX
8
STEMPEL
10
120
20
50
30
0.0
0
SEQEND
0
POLYLINE
8
STEMPEL
66
1
70
1
0
VERTEX
8
STEMPEL
10
68
20
10
30
0.0
0
VERTEX
8
STEMPEL
10
70
20
10
30
0.0
0
VERTEX
8
STEMPEL
10
70
20
48
30
0.0
0
VERTEX
8
STEMPEL
10
68
20
48
30
0.0
0
SEQEND
0
POLYLINE
8
STEMPEL
66
1
70
1
0
VERTEX
8
STEMPEL
10
126
20
26
30
0.0
0
VERTEX
8
STEMPEL
10
128
20
26
30
0.0
0
VERTEX
8
STEMPEL
10
128
20
48
30
0.0
0
VERTEX
8
STEMPEL
10
126
20
48
30
0.0
0
SEQEND
0
POLYLINE
8
STEMPEL
66
1
70
1
0
VERTEX
8
STEMPEL
10
130
20
44
30
0.0
0
VERTEX
8
STEMPEL
10
132
20
44
30
0.0
0
VERTEX
8
STEMPEL
10
132
20
46
30
0.0
0
VERTEX
8
STEMPEL
10
130
20
46
30
0.0
0
SEQEND
0
POLYLINE
8
STEMPEL
66
1
70
1
0
VERTEX
8
STEMPEL
10
104
20
40
30
0.0
0
VERTEX
8
STEMPEL
10
108
20
40
30
0.0
0
VERTEX
8
STEMPEL
10
108
20
44
30
0.0
0
VERTEX
8
STEMPEL
10
104
20
44
30
0.0
0
SEQEND
0
POLYLINE
8
STEMPEL
66
1
70
1
0
VERTEX
8
STEMPEL
10
66
20
10
30
0.0
0
VERTEX
8
STEMPEL
10
68
20
10
30
0.0
0
VERTEX
8
STEMPEL
10
68
20
42
30
0.0
0
VERTEX
8
STEMPEL
10
66
20
42
30
0.0
0
SEQEND
0
POLYLINE
8
STEMPEL
66
1
70
1
0
VERTEX
8
STEMPEL
10
100
20
30
30
0.0
0
VERTEX
8
STEMPEL
10
102
20
30
30
0.0
0
VERTEX
8
STEMPEL
10
102
20
42
30
0.0
0
VERTEX
8
STEMPEL
10
100
20
42
30
0.0
0
SEQEND
0
POLYLINE
8
STEMPEL
66
1
70
1
0
VERTEX
8
STEMPEL
10
130
20
38
30
0.0
0
VERTEX
8
STEMPEL
10
132
20
38
30
0.0
0
VERTEX
8
STEMPEL
10
132
20
42
30
0.0
0
VERTEX
8
STEMPEL
10
130
20
42
30
0.0
0
SEQEND
0
POLYLINE
8
STEMPEL
66
1
70
1
0
VERTEX
8
STEMPEL
10
2
20
8
30
0.0
0
VERTEX
8
STEMPEL
10
4
20
8
30
0.0
0
VERTEX
8
STEMPEL
10
4
20
40
30
0.0
0
VERTEX
8
STEMPEL
10
2
20
40
30
0.0
0
SEQEND
0
POLYLINE
8
STEMPEL
66
1
70
1
0
VERTEX
8
STEMPEL
10
78
20
36
30
0.0
0
VERTEX
8
STEMPEL
10
98
20
36
30
0.0
0
VERTEX
8
STEMPEL
10
98
20
38
30
0.0
0
VERTEX
8
STEMPEL
10
78
20
38
30
0.0
0
SEQEND
0
POLYLINE
8
STEMPEL
66
1
70
1
0
VERTEX
8
STEMPEL
10
104
20
36
30
0.0
0
VERTEX
8
STEMPEL
10
106
20
36
30
0.0
0
VERTEX
8
STEMPEL
10
106
20
38
30
0.0
0
VERTEX
8
STEMPEL
10
104
20
38
30
0.0
0
SEQEND
0
POLYLINE
8
STEMPEL
66
1
70
1
0
VERTEX
8
STEMPEL
10
6
20
34
30
0.0
0
VERTEX
8
STEMPEL
10
14
20
34
30
0.0
0
VERTEX
8
STEMPEL
10
14
20
36
30
0.0
0
VERTEX
8
STEMPEL
10
6
20
36
30
0.0
0
SEQEND
0
POLYLINE
8
STEMPEL
66
1
70
1
0
VERTEX
8
STEMPEL
10
16
20
34
30
0.0
0
VERTEX
8
STEMPEL
10
34
20
34
30
0.0
0
VERTEX
8
STEMPEL
10
34
20
36
30
0.0
0
VERTEX
8
STEMPEL
10
16
20
36
30
0.0
0
SEQEND
0
POLYLINE
8
STEMPEL
66
1
70
1
0
VERTEX
8
STEMPEL
10
36
20
32
30
0.0
0
VERTEX
8
STEMPEL
10
38
20
32
30
0.0
0
VERTEX
8
STEMPEL
10
38
20
36
30
0.0
0
VERTEX
8
STEMPEL
10
36
20
36
30
0.0
0
SEQEND
0
POLYLINE
8
STEMPEL
66
1
70
1
0
VERTEX
8
STEMPEL
10
80
20
20
30
0.0
0
VERTEX
8
STEMPEL
10
82
20
20
30
0.0
0
VERTEX
8
STEMPEL
10
82
20
36
30
0.0
0
VERTEX
8
STEMPEL
10
80
20
36
30
0.0
0
SEQEND
0
POLYLINE
8
STEMPEL
66
1
70
1
0
VERTEX
8
STEMPEL
10
84
20
20
30
0.0
0
VERTEX
8
STEMPEL
10
88
20
20
30
0.0
0
VERTEX
8
STEMPEL
10
88
20
36
30
0.0
0
VERTEX
8
STEMPEL
10
84
20
36
30
0.0
0
SEQEND
0
POLYLINE
8
STEMPEL
66
1
70
1
0
VERTEX
8
STEMPEL
10
90
20
32
30
0.0
0
VERTEX
8
STEMPEL
10
94
20
32
30
0.0
0
VERTEX
8
STEMPEL
10
94
20
36
30
0.0
0
VERTEX
8
STEMPEL
10
90
20
36
30
0.0
0
SEQEND
0
POLYLINE
8
STEMPEL
66
1
70
1
0
VERTEX
8
STEMPEL
10
124
20
24
30
0.0
0
VERTEX
8
STEMPEL
10
126
20
24
30
0.0
0
VERTEX
8
STEMPEL
10
126
20
36
30
0.0
0
VERTEX
8
STEMPEL
10
124
20
36
30
0.0
0
SEQEND
0
POLYLINE
8
STEMPEL
66
1
70
1
0
VERTEX
8
STEMPEL
10
32
20
32
30
0.0
0
VERTEX
8
STEMPEL
10
36
20
32
30
0.0
0
VERTEX
8
STEMPEL
10
36
20
34
30
0.0
0
VERTEX
8
STEMPEL
10
32
20
34
30
0.0
0
SEQEND
0
POLYLINE
8
STEMPEL
66
1
70
1
0
VERTEX
8
STEMPEL
10
78
20
30
30
0.0
0
VERTEX
8
STEMPEL
10
80
20
30
30
0.0
0
VERTEX
8
STEMPEL
10
80
20
34
30
0.0
0
VERTEX
8
STEMPEL
10
78
20
34
30
0.0
0
SEQEND
0
POLYLINE
8
STEMPEL
66
1
70
1
0
VERTEX
8
STEMPEL
10
74
20
30
30
0.0
0
VERTEX
8
STEMPEL
10
78
20
30
30
0.0
0
VERTEX
8
STEMPEL
10
78
20
32
30
0.0
0
VERTEX
8
STEMPEL
10
74
20
32
30
0.0
0
SEQEND
0
POLYLINE
8
STEMPEL
66
1
70
1
0
VERTEX
8
STEMPEL
10
92
20
30
30
0.0
0
VERTEX
8
STEMPEL
10
100
20
30
30
0.0
0
VERTEX
8
STEMPEL
10
100
20
32
30
0.0
0
VERTEX
8
STEMPEL
10
92
20
32
30
0.0
0
SEQEND
0
POLYLINE
8
STEMPEL
66
1
70
1
0
VERTEX
8
STEMPEL
10
102
20
30
30
0.0
0
VERTEX
8
STEMPEL
10
120
20
30
30
0.0
0
VERTEX
8
STEMPEL
10
120
20
32
30
0.0
0
VERTEX
8
STEMPEL
10
102
20
32
30
0.0
0
SEQEND
0
POLYLINE
8
STEMPEL
66
1
70
1
0
VERTEX
8
STEMPEL
10
72
20
10
30
0.0
0
VERTEX
8
STEMPEL
10
76
20
10
30
0.0
0
VERTEX
8
STEMPEL
10
76
20
30
30
0.0
0
VERTEX
8
STEMPEL
10
72
20
30
30
0.0
0
SEQEND
0
POLYLINE
8
STEMPEL
66
1
70
1
0
VERTEX
8
STEMPEL
10
90
20
26
30
0.0
0
VERTEX
8
STEMPEL
10
94
20
26
30
0.0
0
VERTEX
8
STEMPEL
10
94
20
30
30
0.0
0
VERTEX
8
STEMPEL
10
90
20
30
30
0.0
0
SEQEND
0
POLYLINE
8
STEMPEL
66
1
70
1
0
VERTEX
8
STEMPEL
10
130
20
20
30
0.0
0
VERTEX
8
STEMPEL
10
132
20
20
30
0.0
0
VERTEX
8
STEMPEL
10
132
20
30
30
0.0
0
VERTEX
8
STEMPEL
10
130
20
30
30
0.0
0
SEQEND
0
POLYLINE
8
STEMPEL
66
1
70
1
0
VERTEX
8
STEMPEL
10
94
20
26
30
0.0
0
VERTEX
8
STEMPEL
10
124
20
26
30
0.0
0
VERTEX
8
STEMPEL
10
124
20
28
30
0.0
0
VERTEX
8
STEMPEL
10
94
20
28
30
0.0
0
SEQEND
0
POLYLINE
8
STEMPEL
66
1
70
1
0
VERTEX
8
STEMPEL
10
118
20
24
30
0.0
0
VERTEX
8
STEMPEL
10
124
20
24
30
0.0
0
VERTEX
8
STEMPEL
10
124
20
26
30
0.0
0
VERTEX
8
STEMPEL
10
118
20
26
30
0.0
0
SEQEND
0
POLYLINE
8
STEMPEL
66
1
70
1
0
VERTEX
8
STEMPEL
10
78
20
10
30
0.0
0
VERTEX
8
STEMPEL
10
80
20
10
30
0.0
0
VERTEX
8
STEMPEL
10
80
20
24
30
0.0
0
VERTEX
8
STEMPEL
10
78
20
24
30
0.0
0
SEQEND
0
POLYLINE
8
STEMPEL
66
1
70
1
0
VERTEX
8
STEMPEL
10
88
20
20
30
0.0
0
VERTEX
8
STEMPEL
10
130
20
20
30
0.0
0
VERTEX
8
STEMPEL
10
130
20
22
30
0.0
0
VERTEX
8
STEMPEL
10
88
20
22
30
0.0
0
SEQEND
0
POLYLINE
8
STEMPEL
66
1
70
1
0
VERTEX
8
STEMPEL
10
84
20
10
30
0.0
0
VERTEX
8
STEMPEL
10
86
20
10
30
0.0
0
VERTEX
8
STEMPEL
10
86
20
20
30
0.0
0
VERTEX
8
STEMPEL
10
84
20
20
30
0.0
0
SEQEND
0
POLYLINE
8
STEMPEL
66
1
70
1
0
VERTEX
8
STEMPEL
10
124
20
8
30
0.0
0
VERTEX
8
STEMPEL
10
126
20
8
30
0.0
0
VERTEX
8
STEMPEL
10
126
20
20
30
0.0
0
VERTEX
8
STEMPEL
10
124
20
20
30
0.0
0
SEQEND
0
POLYLINE
8
STEMPEL
66
1
70
1
0
VERTEX
8
STEMPEL
10
86
20
16
30
0.0
0
VERTEX
8
STEMPEL
10
96
20
16
30
0.0
0
VERTEX
8
STEMPEL
10
96
20
18
30
0.0
0
VERTEX
8
STEMPEL
10
86
20
18
30
0.0
0
SEQEND
0
POLYLINE
8
STEMPEL
66
1
70
1
0
VERTEX
8
STEMPEL
10
98
20
14
30
0.0
0
VERTEX
8
STEMPEL
10
106
20
14
30
0.0
0
VERTEX
8
STEMPEL
10
106
20
18
30
0.0
0
VERTEX
8
STEMPEL
10
98
20
18
30
0.0
0
SEQEND
0
POLYLINE
8
STEMPEL
66
1
70
1
0
VERTEX
8
STEMPEL
10
130
20
14
30
0.0
0
VERTEX
8
STEMPEL
10
132
20
14
30
0.0
0
VERTEX
8
STEMPEL
10
132
20
18
30
0.0
0
VERTEX
8
STEMPEL
10
130
20
18
30
0.0
0
SEQEND
0
POLYLINE
8
STEMPEL
66
1
70
1
0
VERTEX
8
STEMPEL
10
86
20
10
30
0.0
0
VERTEX
8
STEMPEL
10
88
20
10
30
0.0
0
VERTEX
8
STEMPEL
10
88
20
16
30
0.0
0
VERTEX
8
STEMPEL
10
86
20
16
30
0.0
0
SEQEND
0
POLYLINE
8
STEMPEL
66
1
70
1
0
VERTEX
8
STEMPEL
10
92
20
14
30
0.0
0
VERTEX
8
STEMPEL
10
98
20
14
30
0.0
0
VERTEX
8
STEMPEL
10
98
20
16
30
0.0
0
VERTEX
8
STEMPEL
10
92
20
16
30
0.0
0
SEQEND
0
POLYLINE
8
STEMPEL
66
1
70
1
0
VERTEX
8
STEMPEL
10
106
20
14
30
0.0
0
VERTEX
8
STEMPEL
10
124
20
14
30
0.0
0
VERTEX
8
STEMPEL
10
124
20
16
30
0.0
0
VERTEX
8
STEMPEL
10
106
20
16
30
0.0
0
SEQEND
0
POLYLINE
8
STEMPEL
66
1
70
1
0
VERTEX
8
STEMPEL
10
92
20
10
30
0.0
0
VERTEX
8
STEMPEL
10
96
20
10
30
0.0
0
VERTEX
8
STEMPEL
10
96
20
14
30
0.0
0
VERTEX
8
STEMPEL
10
92
20
14
30
0.0
0
SEQEND
0
POLYLINE
8
STEMPEL
66
1
70
1
0
VERTEX
8
STEMPEL
10
104
20
10
30
0.0
0
VERTEX
8
STEMPEL
10
106
20
10
30
0.0
0
VERTEX
8
STEMPEL
10
106
20
14
30
0.0
0
VERTEX
8
STEMPEL
10
104
20
14
30
0.0
0
SEQEND
0
POLYLINE
8
STEMPEL
66
1
70
1
0
VERTEX
8
STEMPEL
10
76
20
10
30
0.0
0
VERTEX
8
STEMPEL
10
78
20
10
30
0.0
0
VERTEX
8
STEMPEL
10
78
20
12
30
0.0
0
VERTEX
8
STEMPEL
10
76
20
12
30
0.0
0
SEQEND
0
POLYLINE
8
STEMPEL
66
1
70
1
0
VERTEX
8
STEMPEL
10
80
20
10
30
0.0
0
VERTEX
8
STEMPEL
10
84
20
10
30
0.0
0
VERTEX
8
STEMPEL
10
84
20
12
30
0.0
0
VERTEX
8
STEMPEL
10
80
20
12
30
0.0
0
SEQEND
0
POLYLINE
8
STEMPEL
66
1
70
1
0
VERTEX
8
STEMPEL
10
90
20
10
30
0.0
0
VERTEX
8
STEMPEL
10
92
20
10
30
0.0
0
VERTEX
8
STEMPEL
10
92
20
12
30
0.0
0
VERTEX
8
STEMPEL
10
90
20
12
30
0.0
0
SEQEND
0
POLYLINE
8
STEMPEL
66
1
70
1
0
VERTEX
8
STEMPEL
10
98
20
10
30
0.0
0
VERTEX
8
STEMPEL
10
104
20
10
30
0.0
0
VERTEX
8
STEMPEL
10
104
20
12
30
0.0
0
VERTEX
8
STEMPEL
10
98
20
12
30
0.0
0
SEQEND
0
POLYLINE
8
STEMPEL
66
1
70
1
0
VERTEX
8
STEMPEL
10
108
20
8
30
0.0
0
VERTEX
8
STEMPEL
10
116
20
8
30
0.0
0
VERTEX
8
STEMPEL
10
116
20
12
30
0.0
0
VERTEX
8
STEMPEL
10
108
20
12
30
0.0
0
SEQEND
0
POLYLINE
8
STEMPEL
66
1
70
1
0
VERTEX
8
STEMPEL
10
122
20
8
30
0.0
0
VERTEX
8
STEMPEL
10
124
20
8
30
0.0
0
VERTEX
8
STEMPEL
10
124
20
12
30
0.0
0
VERTEX
8
STEMPEL
10
122
20
12
30
0.0
0
SEQEND
0
POLYLINE
8
STEMPEL
66
1
70
1
0
VERTEX
8
STEMPEL
10
130
20
0
30
0.0
0
VERTEX
8
STEMPEL
10
132
20
0
30
0.0
0
VERTEX
8
STEMPEL
10
132
20
12
30
0.0
0
VERTEX
8
STEMPEL
10
130
20
12
30
0.0
0
SEQEND
0
POLYLINE
8
STEMPEL
66
1
70
1
0
VERTEX
8
STEMPEL
10
4
20
8
30
0.0
0
VERTEX
8
STEMPEL
10
20
20
8
30
0.0
0
VERTEX
8
STEMPEL
10
20
20
10
30
0.0
0
VERTEX
8
STEMPEL
10
4
20
10
30
0.0
0
SEQEND
0
POLYLINE
8
STEMPEL
66
1
70
1
0
VERTEX
8
STEMPEL
10
116
20
8
30
0.0
0
VERTEX
8
STEMPEL
10
122
20
8
30
0.0
0
VERTEX
8
STEMPEL
10
122
20
10
30
0.0
0
VERTEX
8
STEMPEL
10
116
20
10
30
0.0
0
SEQEND
0
POLYLINE
8
STEMPEL
66
1
70
1
0
VERTEX
8
STEMPEL
10
10
20
6
30
0.0
0
VERTEX
8
STEMPEL
10
58
20
6
30
0.0
0
VERTEX
8
STEMPEL
10
58
20
8
30
0.0
0
VERTEX
8
STEMPEL
10
10
20
8
30
0.0
0
SEQEND
0
POLYLINE
8
STEMPEL
66
1
70
1
0
VERTEX
8
STEMPEL
10
44
20
4
30
0.0
0
VERTEX
8
STEMPEL
10
48
20
4
30
0.0
0
VERTEX
8
STEMPEL
10
48
20
6
30
0.0
0
VERTEX
8
STEMPEL
10
44
20
6
30
0.0
0
SEQEND
0
POLYLINE
8
STEMPEL
66
1
70
1
0
VERTEX
8
STEMPEL
10
50
20
4
30
0.0
0
VERTEX
8
STEMPEL
10
112
20
4
30
0.0
0
VERTEX
8
STEMPEL
10
112
20
6
30
0.0
0
VERTEX
8
STEMPEL
10
50
20
6
30
0.0
0
SEQEND
0
POLYLINE
8
STEMPEL
66
1
70
1
0
VERTEX
8
STEMPEL
10
96
20
0
30
0.0
0
VERTEX
8
STEMPEL
10
130
20
0
30
0.0
0
VERTEX
8
STEMPEL
10
130
20
4
30
0.0
0
VERTEX
8
STEMPEL
10
96
20
4
30
0.0
0
SEQEND
0
POLYLINE
8
STEMPEL
66
1
70
1
0
VERTEX
8
STEMPEL
10
2
20
0
30
0.0
0
VERTEX
8
STEMPEL
10
96
20
0
30
0.0
0
VERTEX
8
STEMPEL
10
96
20
2
30
0.0
0
VERTEX
8
STEMPEL
10
2
20
2
30
0.0
0
SEQEND
0
POLYLINE
8
STEMPEL
66
1
70
1
0
VERTEX
8
STEMPEL
10
134
20
0
30
0.0
0
VERTEX
8
STEMPEL
10
138
20
0
30
0.0
0
VERTEX
8
STEMPEL
10
138
20
2
30
0.0
0
VERTEX
8
STEMPEL
10
134
20
2
30
0.0
0
SEQEND
0
POLYLINE
8
STEMPEL
66
1
70
1
0
VERTEX
8
STEMPEL
10
8
20
210
30
0.0
0
VERTEX
8
STEMPEL
10
34
20
210
30
0.0
0
VERTEX
8
STEMPEL
10
34
20
214
30
0.0
0
VERTEX
8
STEMPEL
10
8
20
214
30
0.0
0
SEQEND
0
POLYLINE
8
STEMPEL
66
1
70
1
0
VERTEX
8
STEMPEL
10
36
20
210
30
0.0
0
VERTEX
8
STEMPEL
10
48
20
210
30
0.0
0
VERTEX
8
STEMPEL
10
48
20
214
30
0.0
0
VERTEX
8
STEMPEL
10
36
20
214
30
0.0
0
SEQEND
0
POLYLINE
8
STEMPEL
66
1
70
1
0
VERTEX
8
STEMPEL
10
50
20
210
30
0.0
0
VERTEX
8
STEMPEL
10
54
20
210
30
0.0
0
VERTEX
8
STEMPEL
10
54
20
214
30
0.0
0
VERTEX
8
STEMPEL
10
50
20
214
30
0.0
0
SEQEND
0
POLYLINE
8
STEMPEL
66
1
70
1
0
VERTEX
8
STEMPEL
10
58
20
210
30
0.0
0
VERTEX
8
STEMPEL
10
76
20
210
30
0.0
0
VERTEX
8
STEMPEL
10
76
20
214
30
0.0
0
VERTEX
8
STEMPEL
10
58
20
214
30
0.0
0
SEQEND
0
POLYLINE
8
STEMPEL
66
1
70
1
0
VERTEX
8
STEMPEL
10
80
20
210
30
0.0
0
VERTEX
8
STEMPEL
10
84
20
210
30
0.0
0
VERTEX
8
STEMPEL
10
84
20
214
30
0.0
0
VERTEX
8
STEMPEL
10
80
20
214
30
0.0
0
SEQEND
0
POLYLINE
8
STEMPEL
66
1
70
1
0
VERTEX
8
STEMPEL
10
6
20
182
30
0.0
0
VERTEX
8
STEMPEL
10
8
20
182
30
0.0
0
VERTEX
8
STEMPEL
10
8
20
212
30
0.0
0
VERTEX
8
STEMPEL
10
6
20
212
30
0.0
0
SEQEND
0
POLYLINE
8
STEMPEL
66
1
70
1
0
VERTEX
8
STEMPEL
10
34
20
210
30
0.0
0
VERTEX
8
STEMPEL
10
36
20
210
30
0.0
0
VERTEX
8
STEMPEL
10
36
20
212
30
0.0
0
VERTEX
8
STEMPEL
10
34
20
212
30
0.0
0
SEQEND
0
POLYLINE
8
STEMPEL
66
1
70
1
0
VERTEX
8
STEMPEL
10
48
20
210
30
0.0
0
VERTEX
8
STEMPEL
10
50
20
210
30
0.0
0
VERTEX
8
STEMPEL
10
50
20
212
30
0.0
0
VERTEX
8
STEMPEL
10
48
20
212
30
0.0
0
SEQEND
0
POLYLINE
8
STEMPEL
66
1
70
1
0
VERTEX
8
STEMPEL
10
54
20
210
30
0.0
0
VERTEX
8
STEMPEL
10
58
20
210
30
0.0
0
VERTEX
8
STEMPEL
10
58
20
212
30
0.0
0
VERTEX
8
STEMPEL
10
54
20
212
30
0.0
0
SEQEND
0
POLYLINE
8
STEMPEL
66
1
70
1
0
VERTEX
8
STEMPEL
10
76
20
210
30
0.0
0
VERTEX
8
STEMPEL
10
80
20
210
30
0.0
0
VERTEX
8
STEMPEL
10
80
20
212
30
0.0
0
VERTEX
8
STEMPEL
10
76
20
212
30
0.0
0
SEQEND
0
POLYLINE
8
STEMPEL
66
1
70
1
0
VERTEX
8
STEMPEL
10
30
20
196
30
0.0
0
VERTEX
8
STEMPEL
10
32
20
196
30
0.0
0
VERTEX
8
STEMPEL
10
32
20
210
30
0.0
0
VERTEX
8
STEMPEL
10
30
20
210
30
0.0
0
SEQEND
0
POLYLINE
8
STEMPEL
66
1
70
1
0
VERTEX
8
STEMPEL
10
56
20
196
30
0.0
0
VERTEX
8
STEMPEL
10
58
20
196
30
0.0
0
VERTEX
8
STEMPEL
10
58
20
210
30
0.0
0
VERTEX
8
STEMPEL
10
56
20
210
30
0.0
0
SEQEND
0
POLYLINE
8
STEMPEL
66
1
70
1
0
VERTEX
8
STEMPEL
10
82
20
196
30
0.0
0
VERTEX
8
STEMPEL
10
84
20
196
30
0.0
0
VERTEX
8
STEMPEL
10
84
20
210
30
0.0
0
VERTEX
8
STEMPEL
10
82
20
210
30
0.0
0
SEQEND
0
POLYLINE
8
STEMPEL
66
1
70
1
0
VERTEX
8
STEMPEL
10
80
20
178
30
0.0
0
VERTEX
8
STEMPEL
10
82
20
178
30
0.0
0
VERTEX
8
STEMPEL
10
82
20
208
30
0.0
0
VERTEX
8
STEMPEL
10
80
20
208
30
0.0
0
SEQEND
0
POLYLINE
8
STEMPEL
66
1
70
1
0
VERTEX
8
STEMPEL
10
54
20
196
30
0.0
0
VERTEX
8
STEMPEL
10
56
20
196
30
0.0
0
VERTEX
8
STEMPEL
10
56
20
198
30
0.0
0
VERTEX
8
STEMPEL
10
54
20
198
30
0.0
0
SEQEND
0
POLYLINE
8
STEMPEL
66
1
70
1
0
VERTEX
8
STEMPEL
10
4
20
158
30
0.0
0
VERTEX
8
STEMPEL
10
6
20
158
30
0.0
0
VERTEX
8
STEMPEL
10
6
20
184
30
0.0
0
VERTEX
8
STEMPEL
10
4
20
184
30
0.0
0
SEQEND
0
POLYLINE
8
STEMPEL
66
1
70
1
0
VERTEX
8
STEMPEL
10
78
20
178
30
0.0
0
VERTEX
8
STEMPEL
10
80
20
178
30
0.0
0
VERTEX
8
STEMPEL
10
80
20
182
30
0.0
0
VERTEX
8
STEMPEL
10
78
20
182
30
0.0
0
SEQEND
0
POLYLINE
8
STEMPEL
66
1
70
1
0
VERTEX
8
STEMPEL
10
14
20
206
30
0.0
0
VERTEX
8
STEMPEL
10
26
20
206
30
0.0
0
VERTEX
8
STEMPEL
10
26
20
208
30
0.0
0
VERTEX
8
STEMPEL
10
14
20
208
30
0.0
0
SEQEND
0
POLYLINE
8
STEMPEL
66
1
70
1
0
VERTEX
8
STEMPEL
10
12
20
204
30
0.0
0
VERTEX
8
STEMPEL
10
16
20
204
30
0.0
0
VERTEX
8
STEMPEL
10
16
20
206
30
0.0
0
VERTEX
8
STEMPEL
10
12
20
206
30
0.0
0
SEQEND
0
POLYLINE
8
STEMPEL
66
1
70
1
0
VERTEX
8
STEMPEL
10
12
20
196
30
0.0
0
VERTEX
8
STEMPEL
10
14
20
196
30
0.0
0
VERTEX
8
STEMPEL
10
14
20
204
30
0.0
0
VERTEX
8
STEMPEL
10
12
20
204
30
0.0
0
SEQEND
0
POLYLINE
8
STEMPEL
66
1
70
1
0
VERTEX
8
STEMPEL
10
38
20
204
30
0.0
0
VERTEX
8
STEMPEL
10
52
20
204
30
0.0
0
VERTEX
8
STEMPEL
10
52
20
208
30
0.0
0
VERTEX
8
STEMPEL
10
38
20
208
30
0.0
0
SEQEND
0
POLYLINE
8
STEMPEL
66
1
70
1
0
VERTEX
8
STEMPEL
10
36
20
196
30
0.0
0
VERTEX
8
STEMPEL
10
38
20
196
30
0.0
0
VERTEX
8
STEMPEL
10
38
20
206
30
0.0
0
VERTEX
8
STEMPEL
10
36
20
206
30
0.0
0
SEQEND
0
POLYLINE
8
STEMPEL
66
1
70
1
0
VERTEX
8
STEMPEL
10
40
20
200
30
0.0
0
VERTEX
8
STEMPEL
10
42
20
200
30
0.0
0
VERTEX
8
STEMPEL
10
42
20
204
30
0.0
0
VERTEX
8
STEMPEL
10
40
20
204
30
0.0
0
SEQEND
0
POLYLINE
8
STEMPEL
66
1
70
1
0
VERTEX
8
STEMPEL
10
50
20
200
30
0.0
0
VERTEX
8
STEMPEL
10
52
20
200
30
0.0
0
VERTEX
8
STEMPEL
10
52
20
204
30
0.0
0
VERTEX
8
STEMPEL
10
50
20
204
30
0.0
0
SEQEND
0
POLYLINE
8
STEMPEL
66
1
70
1
0
VERTEX
8
STEMPEL
10
38
20
200
30
0.0
0
VERTEX
8
STEMPEL
10
40
20
200
30
0.0
0
VERTEX
8
STEMPEL
10
40
20
202
30
0.0
0
VERTEX
8
STEMPEL
10
38
20
202
30
0.0
0
SEQEND
0
POLYLINE
8
STEMPEL
66
1
70
1
0
VERTEX
8
STEMPEL
10
42
20
200
30
0.0
0
VERTEX
8
STEMPEL
10
50
20
200
30
0.0
0
VERTEX
8
STEMPEL
10
50
20
202
30
0.0
0
VERTEX
8
STEMPEL
10
42
20
202
30
0.0
0
SEQEND
0
POLYLINE
8
STEMPEL
66
1
70
1
0
VERTEX
8
STEMPEL
10
38
20
196
30
0.0
0
VERTEX
8
STEMPEL
10
52
20
196
30
0.0
0
VERTEX
8
STEMPEL
10
52
20
198
30
0.0
0
VERTEX
8
STEMPEL
10
38
20
198
30
0.0
0
SEQEND
0
POLYLINE
8
STEMPEL
66
1
70
1
0
VERTEX
8
STEMPEL
10
62
20
180
30
0.0
0
VERTEX
8
STEMPEL
10
64
20
180
30
0.0
0
VERTEX
8
STEMPEL
10
64
20
208
30
0.0
0
VERTEX
8
STEMPEL
10
62
20
208
30
0.0
0
SEQEND
0
POLYLINE
8
STEMPEL
66
1
70
1
0
VERTEX
8
STEMPEL
10
10
20
190
30
0.0
0
VERTEX
8
STEMPEL
10
58
20
190
30
0.0
0
VERTEX
8
STEMPEL
10
58
20
192
30
0.0
0
VERTEX
8
STEMPEL
10
10
20
192
30
0.0
0
SEQEND
0
POLYLINE
8
STEMPEL
66
1
70
1
0
VERTEX
8
STEMPEL
10
60
20
188
30
0.0
0
VERTEX
8
STEMPEL
10
62
20
188
30
0.0
0
VERTEX
8
STEMPEL
10
62
20
192
30
0.0
0
VERTEX
8
STEMPEL
10
60
20
192
30
0.0
0
SEQEND
0
POLYLINE
8
STEMPEL
66
1
70
1
0
VERTEX
8
STEMPEL
10
10
20
180
30
0.0
0
VERTEX
8
STEMPEL
10
14
20
180
30
0.0
0
VERTEX
8
STEMPEL
10
14
20
190
30
0.0
0
VERTEX
8
STEMPEL
10
10
20
190
30
0.0
0
SEQEND
0
POLYLINE
8
STEMPEL
66
1
70
1
0
VERTEX
8
STEMPEL
10
18
20
174
30
0.0
0
VERTEX
8
STEMPEL
10
20
20
174
30
0.0
0
VERTEX
8
STEMPEL
10
20
20
190
30
0.0
0
VERTEX
8
STEMPEL
10
18
20
190
30
0.0
0
SEQEND
0
POLYLINE
8
STEMPEL
66
1
70
1
0
VERTEX
8
STEMPEL
10
38
20
180
30
0.0
0
VERTEX
8
STEMPEL
10
40
20
180
30
0.0
0
VERTEX
8
STEMPEL
10
40
20
190
30
0.0
0
VERTEX
8
STEMPEL
10
38
20
190
30
0.0
0
SEQEND
0
POLYLINE
8
STEMPEL
66
1
70
1
0
VERTEX
8
STEMPEL
10
44
20
188
30
0.0
0
VERTEX
8
STEMPEL
10
60
20
188
30
0.0
0
VERTEX
8
STEMPEL
10
60
20
190
30
0.0
0
VERTEX
8
STEMPEL
10
44
20
190
30
0.0
0
SEQEND
0
POLYLINE
8
STEMPEL
66
1
70
1
0
VERTEX
8
STEMPEL
10
54
20
174
30
0.0
0
VERTEX
8
STEMPEL
10
56
20
174
30
0.0
0
VERTEX
8
STEMPEL
10
56
20
188
30
0.0
0
VERTEX
8
STEMPEL
10
54
20
188
30
0.0
0
SEQEND
0
POLYLINE
8
STEMPEL
66
1
70
1
0
VERTEX
8
STEMPEL
10
20
20
184
30
0.0
0
VERTEX
8
STEMPEL
10
38
20
184
30
0.0
0
VERTEX
8
STEMPEL
10
38
20
186
30
0.0
0
VERTEX
8
STEMPEL
10
20
20
186
30
0.0
0
SEQEND
0
POLYLINE
8
STEMPEL
66
1
70
1
0
VERTEX
8
STEMPEL
10
40
20
184
30
0.0
0
VERTEX
8
STEMPEL
10
52
20
184
30
0.0
0
VERTEX
8
STEMPEL
10
52
20
186
30
0.0
0
VERTEX
8
STEMPEL
10
40
20
186
30
0.0
0
SEQEND
0
POLYLINE
8
STEMPEL
66
1
70
1
0
VERTEX
8
STEMPEL
10
60
20
170
30
0.0
0
VERTEX
8
STEMPEL
10
62
20
170
30
0.0
0
VERTEX
8
STEMPEL
10
62
20
186
30
0.0
0
VERTEX
8
STEMPEL
10
60
20
186
30
0.0
0
SEQEND
0
POLYLINE
8
STEMPEL
66
1
70
1
0
VERTEX
8
STEMPEL
10
20
20
180
30
0.0
0
VERTEX
8
STEMPEL
10
38
20
180
30
0.0
0
VERTEX
8
STEMPEL
10
38
20
182
30
0.0
0
VERTEX
8
STEMPEL
10
20
20
182
30
0.0
0
SEQEND
0
POLYLINE
8
STEMPEL
66
1
70
1
0
VERTEX
8
STEMPEL
10
40
20
180
30
0.0
0
VERTEX
8
STEMPEL
10
46
20
180
30
0.0
0
VERTEX
8
STEMPEL
10
46
20
182
30
0.0
0
VERTEX
8
STEMPEL
10
40
20
182
30
0.0
0
SEQEND
0
POLYLINE
8
STEMPEL
66
1
70
1
0
VERTEX
8
STEMPEL
10
10
20
168
30
0.0
0
VERTEX
8
STEMPEL
10
12
20
168
30
0.0
0
VERTEX
8
STEMPEL
10
12
20
180
30
0.0
0
VERTEX
8
STEMPEL
10
10
20
180
30
0.0
0
SEQEND
0
POLYLINE
8
STEMPEL
66
1
70
1
0
VERTEX
8
STEMPEL
10
16
20
150
30
0.0
0
VERTEX
8
STEMPEL
10
18
20
150
30
0.0
0
VERTEX
8
STEMPEL
10
18
20
180
30
0.0
0
VERTEX
8
STEMPEL
10
16
20
180
30
0.0
0
SEQEND
0
POLYLINE
8
STEMPEL
66
1
70
1
0
VERTEX
8
STEMPEL
10
28
20
174
30
0.0
0
VERTEX
8
STEMPEL
10
54
20
174
30
0.0
0
VERTEX
8
STEMPEL
10
54
20
176
30
0.0
0
VERTEX
8
STEMPEL
10
28
20
176
30
0.0
0
SEQEND
0
POLYLINE
8
STEMPEL
66
1
70
1
0
VERTEX
8
STEMPEL
10
28
20
170
30
0.0
0
VERTEX
8
STEMPEL
10
30
20
170
30
0.0
0
VERTEX
8
STEMPEL
10
30
20
174
30
0.0
0
VERTEX
8
STEMPEL
10
28
20
174
30
0.0
0
SEQEND
0
POLYLINE
8
STEMPEL
66
1
70
1
0
VERTEX
8
STEMPEL
10
30
20
170
30
0.0
0
VERTEX
8
STEMPEL
10
60
20
170
30
0.0
0
VERTEX
8
STEMPEL
10
60
20
172
30
0.0
0
VERTEX
8
STEMPEL
10
30
20
172
30
0.0
0
SEQEND
0
POLYLINE
8
STEMPEL
66
1
70
1
0
VERTEX
8
STEMPEL
10
14
20
158
30
0.0
0
VERTEX
8
STEMPEL
10
16
20
158
30
0.0
0
VERTEX
8
STEMPEL
10
16
20
162
30
0.0
0
VERTEX
8
STEMPEL
10
14
20
162
30
0.0
0
SEQEND
0
POLYLINE
8
STEMPEL
66
1
70
1
0
VERTEX
8
STEMPEL
10
18
20
158
30
0.0
0
VERTEX
8
STEMPEL
10
68
20
158
30
0.0
0
VERTEX
8
STEMPEL
10
68
20
160
30
0.0
0
VERTEX
8
STEMPEL
10
18
20
160
30
0.0
0
SEQEND
0
POLYLINE
8
STEMPEL
66
1
70
1
0
VERTEX
8
STEMPEL
10
26
20
146
30
0.0
0
VERTEX
8
STEMPEL
10
28
20
146
30
0.0
0
VERTEX
8
STEMPEL
10
28
20
158
30
0.0
0
VERTEX
8
STEMPEL
10
26
20
158
30
0.0
0
SEQEND
0
POLYLINE
8
STEMPEL
66
1
70
1
0
VERTEX
8
STEMPEL
10
66
20
140
30
0.0
0
VERTEX
8
STEMPEL
10
68
20
140
30
0.0
0
VERTEX
8
STEMPEL
10
68
20
158
30
0.0
0
VERTEX
8
STEMPEL
10
66
20
158
30
0.0
0
SEQEND
0
POLYLINE
8
STEMPEL
66
1
70
1
0
VERTEX
8
STEMPEL
10
14
20
120
30
0.0
0
VERTEX
8
STEMPEL
10
16
20
120
30
0.0
0
VERTEX
8
STEMPEL
10
16
20
154
30
0.0
0
VERTEX
8
STEMPEL
10
14
20
154
30
0.0
0
SEQEND
0
POLYLINE
8
STEMPEL
66
1
70
1
0
VERTEX
8
STEMPEL
10
64
20
114
30
0.0
0
VERTEX
8
STEMPEL
10
66
20
114
30
0.0
0
VERTEX
8
STEMPEL
10
66
20
154
30
0.0
0
VERTEX
8
STEMPEL
10
64
20
154
30
0.0
0
SEQEND
0
POLYLINE
8
STEMPEL
66
1
70
1
0
VERTEX
8
STEMPEL
10
12
20
114
30
0.0
0
VERTEX
8
STEMPEL
10
14
20
114
30
0.0
0
VERTEX
8
STEMPEL
10
14
20
128
30
0.0
0
VERTEX
8
STEMPEL
10
12
20
128
30
0.0
0
SEQEND
0
POLYLINE
8
STEMPEL
66
1
70
1
0
VERTEX
8
STEMPEL
10
6
20
120
30
0.0
0
VERTEX
8
STEMPEL
10
12
20
120
30
0.0
0
VERTEX
8
STEMPEL
10
12
20
122
30
0.0
0
VERTEX
8
STEMPEL
10
6
20
122
30
0.0
0
SEQEND
0
POLYLINE
8
STEMPEL
66
1
70
1
0
VERTEX
8
STEMPEL
10
6
20
114
30
0.0
0
VERTEX
8
STEMPEL
10
12
20
114
30
0.0
0
VERTEX
8
STEMPEL
10
12
20
116
30
0.0
0
VERTEX
8
STEMPEL
10
6
20
116
30
0.0
0
SEQEND
0
POLYLINE
8
STEMPEL
66
1
70
1
0
VERTEX
8
STEMPEL
10
14
20
114
30
0.0
0
VERTEX
8
STEMPEL
10
16
20
114
30
0.0
0
VERTEX
8
STEMPEL
10
16
20
116
30
0.0
0
VERTEX
8
STEMPEL
10
14
20
116
30
0.0
0
SEQEND
0
POLYLINE
8
STEMPEL
66
1
70
1
0
VERTEX
8
STEMPEL
10
44
20
114
30
0.0
0
VERTEX
8
STEMPEL
10
64
20
114
30
0.0
0
VERTEX
8
STEMPEL
10
64
20
116
30
0.0
0
VERTEX
8
STEMPEL
10
44
20
116
30
0.0
0
SEQEND
0
POLYLINE
8
STEMPEL
66
1
70
1
0
VERTEX
8
STEMPEL
10
94
20
204
30
0.0
0
VERTEX
8
STEMPEL
10
96
20
204
30
0.0
0
VERTEX
8
STEMPEL
10
96
20
208
30
0.0
0
VERTEX
8
STEMPEL
10
94
20
208
30
0.0
0
SEQEND
0
POLYLINE
8
STEMPEL
66
1
70
1
0
VERTEX
8
STEMPEL
10
68
20
174
30
0.0
0
VERTEX
8
STEMPEL
10
70
20
174
30
0.0
0
VERTEX
8
STEMPEL
10
70
20
206
30
0.0
0
VERTEX
8
STEMPEL
10
68
20
206
30
0.0
0
SEQEND
0
POLYLINE
8
STEMPEL
66
1
70
1
0
VERTEX
8
STEMPEL
10
66
20
164
30
0.0
0
VERTEX
8
STEMPEL
10
68
20
164
30
0.0
0
VERTEX
8
STEMPEL
10
68
20
186
30
0.0
0
VERTEX
8
STEMPEL
10
66
20
186
30
0.0
0
SEQEND
0
POLYLINE
8
STEMPEL
66
1
70
1
0
VERTEX
8
STEMPEL
10
22
20
164
30
0.0
0
VERTEX
8
STEMPEL
10
24
20
164
30
0.0
0
VERTEX
8
STEMPEL
10
24
20
174
30
0.0
0
VERTEX
8
STEMPEL
10
22
20
174
30
0.0
0
SEQEND
0
POLYLINE
8
STEMPEL
66
1
70
1
0
VERTEX
8
STEMPEL
10
24
20
164
30
0.0
0
VERTEX
8
STEMPEL
10
66
20
164
30
0.0
0
VERTEX
8
STEMPEL
10
66
20
166
30
0.0
0
VERTEX
8
STEMPEL
10
24
20
166
30
0.0
0
SEQEND
0
POLYLINE
8
STEMPEL
66
1
70
1
0
VERTEX
8
STEMPEL
10
74
20
170
30
0.0
0
VERTEX
8
STEMPEL
10
76
20
170
30
0.0
0
VERTEX
8
STEMPEL
10
76
20
206
30
0.0
0
VERTEX
8
STEMPEL
10
74
20
206
30
0.0
0
SEQEND
0
POLYLINE
8
STEMPEL
66
1
70
1
0
VERTEX
8
STEMPEL
10
72
20
162
30
0.0
0
VERTEX
8
STEMPEL
10
74
20
162
30
0.0
0
VERTEX
8
STEMPEL
10
74
20
182
30
0.0
0
VERTEX
8
STEMPEL
10
72
20
182
30
0.0
0
SEQEND
0
POLYLINE
8
STEMPEL
66
1
70
1
0
VERTEX
8
STEMPEL
10
18
20
200
30
0.0
0
VERTEX
8
STEMPEL
10
26
20
200
30
0.0
0
VERTEX
8
STEMPEL
10
26
20
202
30
0.0
0
VERTEX
8
STEMPEL
10
18
20
202
30
0.0
0
SEQEND
0
POLYLINE
8
STEMPEL
66
1
70
1
0
VERTEX
8
STEMPEL
10
94
20
200
30
0.0
0
VERTEX
8
STEMPEL
10
96
20
200
30
0.0
0
VERTEX
8
STEMPEL
10
96
20
202
30
0.0
0
VERTEX
8
STEMPEL
10
94
20
202
30
0.0
0
SEQEND
0
POLYLINE
8
STEMPEL
66
1
70
1
0
VERTEX
8
STEMPEL
10
124
20
198
30
0.0
0
VERTEX
8
STEMPEL
10
126
20
198
30
0.0
0
VERTEX
8
STEMPEL
10
126
20
202
30
0.0
0
VERTEX
8
STEMPEL
10
124
20
202
30
0.0
0
SEQEND
0
POLYLINE
8
STEMPEL
66
1
70
1
0
VERTEX
8
STEMPEL
10
110
20
198
30
0.0
0
VERTEX
8
STEMPEL
10
124
20
198
30
0.0
0
VERTEX
8
STEMPEL
10
124
20
200
30
0.0
0
VERTEX
8
STEMPEL
10
110
20
200
30
0.0
0
SEQEND
0
POLYLINE
8
STEMPEL
66
1
70
1
0
VERTEX
8
STEMPEL
10
24
20
196
30
0.0
0
VERTEX
8
STEMPEL
10
26
20
196
30
0.0
0
VERTEX
8
STEMPEL
10
26
20
198
30
0.0
0
VERTEX
8
STEMPEL
10
24
20
198
30
0.0
0
SEQEND
0
POLYLINE
8
STEMPEL
66
1
70
1
0
VERTEX
8
STEMPEL
10
86
20
184
30
0.0
0
VERTEX
8
STEMPEL
10
100
20
184
30
0.0
0
VERTEX
8
STEMPEL
10
100
20
186
30
0.0
0
VERTEX
8
STEMPEL
10
86
20
186
30
0.0
0
SEQEND
0
POLYLINE
8
STEMPEL
66
1
70
1
0
VERTEX
8
STEMPEL
10
86
20
172
30
0.0
0
VERTEX
8
STEMPEL
10
88
20
172
30
0.0
0
VERTEX
8
STEMPEL
10
88
20
184
30
0.0
0
VERTEX
8
STEMPEL
10
86
20
184
30
0.0
0
SEQEND
0
POLYLINE
8
STEMPEL
66
1
70
1
0
VERTEX
8
STEMPEL
10
124
20
162
30
0.0
0
VERTEX
8
STEMPEL
10
126
20
162
30
0.0
0
VERTEX
8
STEMPEL
10
126
20
186
30
0.0
0
VERTEX
8
STEMPEL
10
124
20
186
30
0.0
0
SEQEND
0
POLYLINE
8
STEMPEL
66
1
70
1
0
VERTEX
8
STEMPEL
10
122
20
162
30
0.0
0
VERTEX
8
STEMPEL
10
124
20
162
30
0.0
0
VERTEX
8
STEMPEL
10
124
20
172
30
0.0
0
VERTEX
8
STEMPEL
10
122
20
172
30
0.0
0
SEQEND
0
POLYLINE
8
STEMPEL
66
1
70
1
0
VERTEX
8
STEMPEL
10
118
20
162
30
0.0
0
VERTEX
8
STEMPEL
10
120
20
162
30
0.0
0
VERTEX
8
STEMPEL
10
120
20
184
30
0.0
0
VERTEX
8
STEMPEL
10
118
20
184
30
0.0
0
SEQEND
0
POLYLINE
8
STEMPEL
66
1
70
1
0
VERTEX
8
STEMPEL
10
116
20
162
30
0.0
0
VERTEX
8
STEMPEL
10
118
20
162
30
0.0
0
VERTEX
8
STEMPEL
10
118
20
170
30
0.0
0
VERTEX
8
STEMPEL
10
116
20
170
30
0.0
0
SEQEND
0
POLYLINE
8
STEMPEL
66
1
70
1
0
VERTEX
8
STEMPEL
10
92
20
178
30
0.0
0
VERTEX
8
STEMPEL
10
114
20
178
30
0.0
0
VERTEX
8
STEMPEL
10
114
20
180
30
0.0
0
VERTEX
8
STEMPEL
10
92
20
180
30
0.0
0
SEQEND
0
POLYLINE
8
STEMPEL
66
1
70
1
0
VERTEX
8
STEMPEL
10
92
20
176
30
0.0
0
VERTEX
8
STEMPEL
10
96
20
176
30
0.0
0
VERTEX
8
STEMPEL
10
96
20
178
30
0.0
0
VERTEX
8
STEMPEL
10
92
20
178
30
0.0
0
SEQEND
0
POLYLINE
8
STEMPEL
66
1
70
1
0
VERTEX
8
STEMPEL
10
92
20
174
30
0.0
0
VERTEX
8
STEMPEL
10
94
20
174
30
0.0
0
VERTEX
8
STEMPEL
10
94
20
176
30
0.0
0
VERTEX
8
STEMPEL
10
92
20
176
30
0.0
0
SEQEND
0
POLYLINE
8
STEMPEL
66
1
70
1
0
VERTEX
8
STEMPEL
10
78
20
162
30
0.0
0
VERTEX
8
STEMPEL
10
82
20
162
30
0.0
0
VERTEX
8
STEMPEL
10
82
20
176
30
0.0
0
VERTEX
8
STEMPEL
10
78
20
176
30
0.0
0
SEQEND
0
POLYLINE
8
STEMPEL
66
1
70
1
0
VERTEX
8
STEMPEL
10
98
20
172
30
0.0
0
VERTEX
8
STEMPEL
10
104
20
172
30
0.0
0
VERTEX
8
STEMPEL
10
104
20
176
30
0.0
0
VERTEX
8
STEMPEL
10
98
20
176
30
0.0
0
SEQEND
0
POLYLINE
8
STEMPEL
66
1
70
1
0
VERTEX
8
STEMPEL
10
106
20
162
30
0.0
0
VERTEX
8
STEMPEL
10
108
20
162
30
0.0
0
VERTEX
8
STEMPEL
10
108
20
174
30
0.0
0
VERTEX
8
STEMPEL
10
106
20
174
30
0.0
0
SEQEND
0
POLYLINE
8
STEMPEL
66
1
70
1
0
VERTEX
8
STEMPEL
10
84
20
162
30
0.0
0
VERTEX
8
STEMPEL
10
106
20
162
30
0.0
0
VERTEX
8
STEMPEL
10
106
20
164
30
0.0
0
VERTEX
8
STEMPEL
10
84
20
164
30
0.0
0
SEQEND
0
POLYLINE
8
STEMPEL
66
1
70
1
0
VERTEX
8
STEMPEL
10
86
20
168
30
0.0
0
VERTEX
8
STEMPEL
10
102
20
168
30
0.0
0
VERTEX
8
STEMPEL
10
102
20
170
30
0.0
0
VERTEX
8
STEMPEL
10
86
20
170
30
0.0
0
SEQEND
0
POLYLINE
8
STEMPEL
66
1
70
1
0
VERTEX
8
STEMPEL
10
10
20
150
30
0.0
0
VERTEX
8
STEMPEL
10
12
20
150
30
0.0
0
VERTEX
8
STEMPEL
10
12
20
166
30
0.0
0
VERTEX
8
STEMPEL
10
10
20
166
30
0.0
0
SEQEND
0
POLYLINE
8
STEMPEL
66
1
70
1
0
VERTEX
8
STEMPEL
10
8
20
158
30
0.0
0
VERTEX
8
STEMPEL
10
10
20
158
30
0.0
0
VERTEX
8
STEMPEL
10
10
20
160
30
0.0
0
VERTEX
8
STEMPEL
10
8
20
160
30
0.0
0
SEQEND
0
POLYLINE
8
STEMPEL
66
1
70
1
0
VERTEX
8
STEMPEL
10
8
20
124
30
0.0
0
VERTEX
8
STEMPEL
10
10
20
124
30
0.0
0
VERTEX
8
STEMPEL
10
10
20
156
30
0.0
0
VERTEX
8
STEMPEL
10
8
20
156
30
0.0
0
SEQEND
0
POLYLINE
8
STEMPEL
66
1
70
1
0
VERTEX
8
STEMPEL
10
6
20
126
30
0.0
0
VERTEX
8
STEMPEL
10
8
20
126
30
0.0
0
VERTEX
8
STEMPEL
10
8
20
128
30
0.0
0
VERTEX
8
STEMPEL
10
6
20
128
30
0.0
0
SEQEND
0
POLYLINE
8
STEMPEL
66
1
70
1
0
VERTEX
8
STEMPEL
10
20
20
152
30
0.0
0
VERTEX
8
STEMPEL
10
24
20
152
30
0.0
0
VERTEX
8
STEMPEL
10
24
20
154
30
0.0
0
VERTEX
8
STEMPEL
10
20
20
154
30
0.0
0
SEQEND
0
POLYLINE
8
STEMPEL
66
1
70
1
0
VERTEX
8
STEMPEL
10
20
20
146
30
0.0
0
VERTEX
8
STEMPEL
10
22
20
146
30
0.0
0
VERTEX
8
STEMPEL
10
22
20
152
30
0.0
0
VERTEX
8
STEMPEL
10
20
20
152
30
0.0
0
SEQEND
0
POLYLINE
8
STEMPEL
66
1
70
1
0
VERTEX
8
STEMPEL
10
32
20
152
30
0.0
0
VERTEX
8
STEMPEL
10
62
20
152
30
0.0
0
VERTEX
8
STEMPEL
10
62
20
154
30
0.0
0
VERTEX
8
STEMPEL
10
32
20
154
30
0.0
0
SEQEND
0
POLYLINE
8
STEMPEL
66
1
70
1
0
VERTEX
8
STEMPEL
10
60
20
146
30
0.0
0
VERTEX
8
STEMPEL
10
62
20
146
30
0.0
0
VERTEX
8
STEMPEL
10
62
20
152
30
0.0
0
VERTEX
8
STEMPEL
10
60
20
152
30
0.0
0
SEQEND
0
POLYLINE
8
STEMPEL
66
1
70
1
0
VERTEX
8
STEMPEL
10
32
20
146
30
0.0
0
VERTEX
8
STEMPEL
10
38
20
146
30
0.0
0
VERTEX
8
STEMPEL
10
38
20
150
30
0.0
0
VERTEX
8
STEMPEL
10
32
20
150
30
0.0
0
SEQEND
0
POLYLINE
8
STEMPEL
66
1
70
1
0
VERTEX
8
STEMPEL
10
58
20
146
30
0.0
0
VERTEX
8
STEMPEL
10
60
20
146
30
0.0
0
VERTEX
8
STEMPEL
10
60
20
150
30
0.0
0
VERTEX
8
STEMPEL
10
58
20
150
30
0.0
0
SEQEND
0
POLYLINE
8
STEMPEL
66
1
70
1
0
VERTEX
8
STEMPEL
10
38
20
146
30
0.0
0
VERTEX
8
STEMPEL
10
58
20
146
30
0.0
0
VERTEX
8
STEMPEL
10
58
20
148
30
0.0
0
VERTEX
8
STEMPEL
10
38
20
148
30
0.0
0
SEQEND
0
POLYLINE
8
STEMPEL
66
1
70
1
0
VERTEX
8
STEMPEL
10
32
20
140
30
0.0
0
VERTEX
8
STEMPEL
10
36
20
140
30
0.0
0
VERTEX
8
STEMPEL
10
36
20
146
30
0.0
0
VERTEX
8
STEMPEL
10
32
20
146
30
0.0
0
SEQEND
0
POLYLINE
8
STEMPEL
66
1
70
1
0
VERTEX
8
STEMPEL
10
36
20
140
30
0.0
0
VERTEX
8
STEMPEL
10
60
20
140
30
0.0
0
VERTEX
8
STEMPEL
10
60
20
142
30
0.0
0
VERTEX
8
STEMPEL
10
36
20
142
30
0.0
0
SEQEND
0
POLYLINE
8
STEMPEL
66
1
70
1
0
VERTEX
8
STEMPEL
10
32
20
136
30
0.0
0
VERTEX
8
STEMPEL
10
34
20
136
30
0.0
0
VERTEX
8
STEMPEL
10
34
20
140
30
0.0
0
VERTEX
8
STEMPEL
10
32
20
140
30
0.0
0
SEQEND
0
POLYLINE
8
STEMPEL
66
1
70
1
0
VERTEX
8
STEMPEL
10
52
20
124
30
0.0
0
VERTEX
8
STEMPEL
10
54
20
124
30
0.0
0
VERTEX
8
STEMPEL
10
54
20
140
30
0.0
0
VERTEX
8
STEMPEL
10
52
20
140
30
0.0
0
SEQEND
0
POLYLINE
8
STEMPEL
66
1
70
1
0
VERTEX
8
STEMPEL
10
58
20
120
30
0.0
0
VERTEX
8
STEMPEL
10
60
20
120
30
0.0
0
VERTEX
8
STEMPEL
10
60
20
140
30
0.0
0
VERTEX
8
STEMPEL
10
58
20
140
30
0.0
0
SEQEND
0
POLYLINE
8
STEMPEL
66
1
70
1
0
VERTEX
8
STEMPEL
10
40
20
134
30
0.0
0
VERTEX
8
STEMPEL
10
48
20
134
30
0.0
0
VERTEX
8
STEMPEL
10
48
20
138
30
0.0
0
VERTEX
8
STEMPEL
10
40
20
138
30
0.0
0
SEQEND
0
POLYLINE
8
STEMPEL
66
1
70
1
0
VERTEX
8
STEMPEL
10
38
20
134
30
0.0
0
VERTEX
8
STEMPEL
10
40
20
134
30
0.0
0
VERTEX
8
STEMPEL
10
40
20
136
30
0.0
0
VERTEX
8
STEMPEL
10
38
20
136
30
0.0
0
SEQEND
0
POLYLINE
8
STEMPEL
66
1
70
1
0
VERTEX
8
STEMPEL
10
48
20
134
30
0.0
0
VERTEX
8
STEMPEL
10
52
20
134
30
0.0
0
VERTEX
8
STEMPEL
10
52
20
136
30
0.0
0
VERTEX
8
STEMPEL
10
48
20
136
30
0.0
0
SEQEND
0
POLYLINE
8
STEMPEL
66
1
70
1
0
VERTEX
8
STEMPEL
10
18
20
120
30
0.0
0
VERTEX
8
STEMPEL
10
20
20
120
30
0.0
0
VERTEX
8
STEMPEL
10
20
20
124
30
0.0
0
VERTEX
8
STEMPEL
10
18
20
124
30
0.0
0
SEQEND
0
POLYLINE
8
STEMPEL
66
1
70
1
0
VERTEX
8
STEMPEL
10
20
20
120
30
0.0
0
VERTEX
8
STEMPEL
10
58
20
120
30
0.0
0
VERTEX
8
STEMPEL
10
58
20
122
30
0.0
0
VERTEX
8
STEMPEL
10
20
20
122
30
0.0
0
SEQEND
0
POLYLINE
8
STEMPEL
66
1
70
1
0
VERTEX
8
STEMPEL
10
24
20
108
30
0.0
0
VERTEX
8
STEMPEL
10
26
20
108
30
0.0
0
VERTEX
8
STEMPEL
10
26
20
120
30
0.0
0
VERTEX
8
STEMPEL
10
24
20
120
30
0.0
0
SEQEND
0
POLYLINE
8
STEMPEL
66
1
70
1
0
VERTEX
8
STEMPEL
10
34
20
112
30
0.0
0
VERTEX
8
STEMPEL
10
38
20
112
30
0.0
0
VERTEX
8
STEMPEL
10
38
20
120
30
0.0
0
VERTEX
8
STEMPEL
10
34
20
120
30
0.0
0
SEQEND
0
POLYLINE
8
STEMPEL
66
1
70
1
0
VERTEX
8
STEMPEL
10
30
20
108
30
0.0
0
VERTEX
8
STEMPEL
10
32
20
108
30
0.0
0
VERTEX
8
STEMPEL
10
32
20
116
30
0.0
0
VERTEX
8
STEMPEL
10
30
20
116
30
0.0
0
SEQEND
0
POLYLINE
8
STEMPEL
66
1
70
1
0
VERTEX
8
STEMPEL
10
34
20
108
30
0.0
0
VERTEX
8
STEMPEL
10
36
20
108
30
0.0
0
VERTEX
8
STEMPEL
10
36
20
112
30
0.0
0
VERTEX
8
STEMPEL
10
34
20
112
30
0.0
0
SEQEND
0
POLYLINE
8
STEMPEL
66
1
70
1
0
VERTEX
8
STEMPEL
10
6
20
108
30
0.0
0
VERTEX
8
STEMPEL
10
24
20
108
30
0.0
0
VERTEX
8
STEMPEL
10
24
20
110
30
0.0
0
VERTEX
8
STEMPEL
10
6
20
110
30
0.0
0
SEQEND
0
POLYLINE
8
STEMPEL
66
1
70
1
0
VERTEX
8
STEMPEL
10
26
20
108
30
0.0
0
VERTEX
8
STEMPEL
10
30
20
108
30
0.0
0
VERTEX
8
STEMPEL
10
30
20
110
30
0.0
0
VERTEX
8
STEMPEL
10
26
20
110
30
0.0
0
SEQEND
0
POLYLINE
8
STEMPEL
66
1
70
1
0
VERTEX
8
STEMPEL
10
110
20
150
30
0.0
0
VERTEX
8
STEMPEL
10
130
20
150
30
0.0
0
VERTEX
8
STEMPEL
10
130
20
152
30
0.0
0
VERTEX
8
STEMPEL
10
110
20
152
30
0.0
0
SEQEND
0
POLYLINE
8
STEMPEL
66
1
70
1
0
VERTEX
8
STEMPEL
10
110
20
146
30
0.0
0
VERTEX
8
STEMPEL
10
114
20
146
30
0.0
0
VERTEX
8
STEMPEL
10
114
20
150
30
0.0
0
VERTEX
8
STEMPEL
10
110
20
150
30
0.0
0
SEQEND
0
POLYLINE
8
STEMPEL
66
1
70
1
0
VERTEX
8
STEMPEL
10
128
20
140
30
0.0
0
VERTEX
8
STEMPEL
10
130
20
140
30
0.0
0
VERTEX
8
STEMPEL
10
130
20
150
30
0.0
0
VERTEX
8
STEMPEL
10
128
20
150
30
0.0
0
SEQEND
0
POLYLINE
8
STEMPEL
66
1
70
1
0
VERTEX
8
STEMPEL
10
84
20
144
30
0.0
0
VERTEX
8
STEMPEL
10
94
20
144
30
0.0
0
VERTEX
8
STEMPEL
10
94
20
148
30
0.0
0
VERTEX
8
STEMPEL
10
84
20
148
30
0.0
0
SEQEND
0
POLYLINE
8
STEMPEL
66
1
70
1
0
VERTEX
8
STEMPEL
10
94
20
144
30
0.0
0
VERTEX
8
STEMPEL
10
96
20
144
30
0.0
0
VERTEX
8
STEMPEL
10
96
20
146
30
0.0
0
VERTEX
8
STEMPEL
10
94
20
146
30
0.0
0
SEQEND
0
POLYLINE
8
STEMPEL
66
1
70
1
0
VERTEX
8
STEMPEL
10
110
20
128
30
0.0
0
VERTEX
8
STEMPEL
10
112
20
128
30
0.0
0
VERTEX
8
STEMPEL
10
112
20
146
30
0.0
0
VERTEX
8
STEMPEL
10
110
20
146
30
0.0
0
SEQEND
0
POLYLINE
8
STEMPEL
66
1
70
1
0
VERTEX
8
STEMPEL
10
84
20
128
30
0.0
0
VERTEX
8
STEMPEL
10
86
20
128
30
0.0
0
VERTEX
8
STEMPEL
10
86
20
144
30
0.0
0
VERTEX
8
STEMPEL
10
84
20
144
30
0.0
0
SEQEND
0
POLYLINE
8
STEMPEL
66
1
70
1
0
VERTEX
8
STEMPEL
10
82
20
128
30
0.0
0
VERTEX
8
STEMPEL
10
84
20
128
30
0.0
0
VERTEX
8
STEMPEL
10
84
20
138
30
0.0
0
VERTEX
8
STEMPEL
10
82
20
138
30
0.0
0
SEQEND
0
POLYLINE
8
STEMPEL
66
1
70
1
0
VERTEX
8
STEMPEL
10
86
20
128
30
0.0
0
VERTEX
8
STEMPEL
10
110
20
128
30
0.0
0
VERTEX
8
STEMPEL
10
110
20
130
30
0.0
0
VERTEX
8
STEMPEL
10
86
20
130
30
0.0
0
SEQEND
0
POLYLINE
8
STEMPEL
66
1
70
1
0
VERTEX
8
STEMPEL
10
24
20
128
30
0.0
0
VERTEX
8
STEMPEL
10
28
20
128
30
0.0
0
VERTEX
8
STEMPEL
10
28
20
142
30
0.0
0
VERTEX
8
STEMPEL
10
24
20
142
30
0.0
0
SEQEND
0
POLYLINE
8
STEMPEL
66
1
70
1
0
VERTEX
8
STEMPEL
10
28
20
130
30
0.0
0
VERTEX
8
STEMPEL
10
50
20
130
30
0.0
0
VERTEX
8
STEMPEL
10
50
20
132
30
0.0
0
VERTEX
8
STEMPEL
10
28
20
132
30
0.0
0
SEQEND
0
POLYLINE
8
STEMPEL
66
1
70
1
0
VERTEX
8
STEMPEL
10
24
20
126
30
0.0
0
VERTEX
8
STEMPEL
10
26
20
126
30
0.0
0
VERTEX
8
STEMPEL
10
26
20
128
30
0.0
0
VERTEX
8
STEMPEL
10
24
20
128
30
0.0
0
SEQEND
0
POLYLINE
8
STEMPEL
66
1
70
1
0
VERTEX
8
STEMPEL
10
122
20
140
30
0.0
0
VERTEX
8
STEMPEL
10
124
20
140
30
0.0
0
VERTEX
8
STEMPEL
10
124
20
142
30
0.0
0
VERTEX
8
STEMPEL
10
122
20
142
30
0.0
0
SEQEND
0
POLYLINE
8
STEMPEL
66
1
70
1
0
VERTEX
8
STEMPEL
10
20
20
134
30
0.0
0
VERTEX
8
STEMPEL
10
22
20
134
30
0.0
0
VERTEX
8
STEMPEL
10
22
20
138
30
0.0
0
VERTEX
8
STEMPEL
10
20
20
138
30
0.0
0
SEQEND
0
POLYLINE
8
STEMPEL
66
1
70
1
0
VERTEX
8
STEMPEL
10
20
20
124
30
0.0
0
VERTEX
8
STEMPEL
10
22
20
124
30
0.0
0
VERTEX
8
STEMPEL
10
22
20
126
30
0.0
0
VERTEX
8
STEMPEL
10
20
20
126
30
0.0
0
SEQEND
0
POLYLINE
8
STEMPEL
66
1
70
1
0
VERTEX
8
STEMPEL
10
76
20
118
30
0.0
0
VERTEX
8
STEMPEL
10
92
20
118
30
0.0
0
VERTEX
8
STEMPEL
10
92
20
122
30
0.0
0
VERTEX
8
STEMPEL
10
76
20
122
30
0.0
0
SEQEND
0
POLYLINE
8
STEMPEL
66
1
70
1
0
VERTEX
8
STEMPEL
10
94
20
118
30
0.0
0
VERTEX
8
STEMPEL
10
96
20
118
30
0.0
0
VERTEX
8
STEMPEL
10
96
20
122
30
0.0
0
VERTEX
8
STEMPEL
10
94
20
122
30
0.0
0
SEQEND
0
POLYLINE
8
STEMPEL
66
1
70
1
0
VERTEX
8
STEMPEL
10
92
20
118
30
0.0
0
VERTEX
8
STEMPEL
10
94
20
118
30
0.0
0
VERTEX
8
STEMPEL
10
94
20
120
30
0.0
0
VERTEX
8
STEMPEL
10
92
20
120
30
0.0
0
SEQEND
0
POLYLINE
8
STEMPEL
66
1
70
1
0
VERTEX
8
STEMPEL
10
96
20
118
30
0.0
0
VERTEX
8
STEMPEL
10
112
20
118
30
0.0
0
VERTEX
8
STEMPEL
10
112
20
120
30
0.0
0
VERTEX
8
STEMPEL
10
96
20
120
30
0.0
0
SEQEND
0
POLYLINE
8
STEMPEL
66
1
70
1
0
VERTEX
8
STEMPEL
10
96
20
108
30
0.0
0
VERTEX
8
STEMPEL
10
98
20
108
30
0.0
0
VERTEX
8
STEMPEL
10
98
20
118
30
0.0
0
VERTEX
8
STEMPEL
10
96
20
118
30
0.0
0
SEQEND
0
POLYLINE
8
STEMPEL
66
1
70
1
0
VERTEX
8
STEMPEL
10
102
20
108
30
0.0
0
VERTEX
8
STEMPEL
10
104
20
108
30
0.0
0
VERTEX
8
STEMPEL
10
104
20
118
30
0.0
0
VERTEX
8
STEMPEL
10
102
20
118
30
0.0
0
SEQEND
0
POLYLINE
8
STEMPEL
66
1
70
1
0
VERTEX
8
STEMPEL
10
94
20
108
30
0.0
0
VERTEX
8
STEMPEL
10
96
20
108
30
0.0
0
VERTEX
8
STEMPEL
10
96
20
116
30
0.0
0
VERTEX
8
STEMPEL
10
94
20
116
30
0.0
0
SEQEND
0
POLYLINE
8
STEMPEL
66
1
70
1
0
VERTEX
8
STEMPEL
10
40
20
108
30
0.0
0
VERTEX
8
STEMPEL
10
42
20
108
30
0.0
0
VERTEX
8
STEMPEL
10
42
20
118
30
0.0
0
VERTEX
8
STEMPEL
10
40
20
118
30
0.0
0
SEQEND
0
POLYLINE
8
STEMPEL
66
1
70
1
0
VERTEX
8
STEMPEL
10
42
20
108
30
0.0
0
VERTEX
8
STEMPEL
10
66
20
108
30
0.0
0
VERTEX
8
STEMPEL
10
66
20
110
30
0.0
0
VERTEX
8
STEMPEL
10
42
20
110
30
0.0
0
SEQEND
0
POLYLINE
8
STEMPEL
66
1
70
1
0
VERTEX
8
STEMPEL
10
18
20
114
30
0.0
0
VERTEX
8
STEMPEL
10
20
20
114
30
0.0
0
VERTEX
8
STEMPEL
10
20
20
116
30
0.0
0
VERTEX
8
STEMPEL
10
18
20
116
30
0.0
0
SEQEND
0
POLYLINE
8
STEMPEL
66
1
70
1
0
VERTEX
8
STEMPEL
10
76
20
112
30
0.0
0
VERTEX
8
STEMPEL
10
84
20
112
30
0.0
0
VERTEX
8
STEMPEL
10
84
20
116
30
0.0
0
VERTEX
8
STEMPEL
10
76
20
116
30
0.0
0
SEQEND
0
POLYLINE
8
STEMPEL
66
1
70
1
0
VERTEX
8
STEMPEL
10
76
20
108
30
0.0
0
VERTEX
8
STEMPEL
10
78
20
108
30
0.0
0
VERTEX
8
STEMPEL
10
78
20
112
30
0.0
0
VERTEX
8
STEMPEL
10
76
20
112
30
0.0
0
SEQEND
0
POLYLINE
8
STEMPEL
66
1
70
1
0
VERTEX
8
STEMPEL
10
78
20
108
30
0.0
0
VERTEX
8
STEMPEL
10
84
20
108
30
0.0
0
VERTEX
8
STEMPEL
10
84
20
110
30
0.0
0
VERTEX
8
STEMPEL
10
78
20
110
30
0.0
0
SEQEND
0
POLYLINE
8
STEMPEL
66
1
70
1
0
VERTEX
8
STEMPEL
10
88
20
106
30
0.0
0
VERTEX
8
STEMPEL
10
90
20
106
30
0.0
0
VERTEX
8
STEMPEL
10
90
20
116
30
0.0
0
VERTEX
8
STEMPEL
10
88
20
116
30
0.0
0
SEQEND
0
POLYLINE
8
STEMPEL
66
1
70
1
0
VERTEX
8
STEMPEL
10
108
20
112
30
0.0
0
VERTEX
8
STEMPEL
10
112
20
112
30
0.0
0
VERTEX
8
STEMPEL
10
112
20
114
30
0.0
0
VERTEX
8
STEMPEL
10
108
20
114
30
0.0
0
SEQEND
0
POLYLINE
8
STEMPEL
66
1
70
1
0
VERTEX
8
STEMPEL
10
18
20
96
30
0.0
0
VERTEX
8
STEMPEL
10
20
20
96
30
0.0
0
VERTEX
8
STEMPEL
10
20
20
100
30
0.0
0
VERTEX
8
STEMPEL
10
18
20
100
30
0.0
0
SEQEND
0
POLYLINE
8
STEMPEL
66
1
70
1
0
VERTEX
8
STEMPEL
10
12
20
96
30
0.0
0
VERTEX
8
STEMPEL
10
18
20
96
30
0.0
0
VERTEX
8
STEMPEL
10
18
20
98
30
0.0
0
VERTEX
8
STEMPEL
10
12
20
98
30
0.0
0
SEQEND
0
POLYLINE
8
STEMPEL
66
1
70
1
0
VERTEX
8
STEMPEL
10
12
20
92
30
0.0
0
VERTEX
8
STEMPEL
10
14
20
92
30
0.0
0
VERTEX
8
STEMPEL
10
14
20
96
30
0.0
0
VERTEX
8
STEMPEL
10
12
20
96
30
0.0
0
SEQEND
0
POLYLINE
8
STEMPEL
66
1
70
1
0
VERTEX
8
STEMPEL
10
6
20
84
30
0.0
0
VERTEX
8
STEMPEL
10
10
20
84
30
0.0
0
VERTEX
8
STEMPEL
10
10
20
98
30
0.0
0
VERTEX
8
STEMPEL
10
6
20
98
30
0.0
0
SEQEND
0
POLYLINE
8
STEMPEL
66
1
70
1
0
VERTEX
8
STEMPEL
10
10
20
84
30
0.0
0
VERTEX
8
STEMPEL
10
20
20
84
30
0.0
0
VERTEX
8
STEMPEL
10
20
20
88
30
0.0
0
VERTEX
8
STEMPEL
10
10
20
88
30
0.0
0
SEQEND
0
POLYLINE
8
STEMPEL
66
1
70
1
0
VERTEX
8
STEMPEL
10
20
20
84
30
0.0
0
VERTEX
8
STEMPEL
10
58
20
84
30
0.0
0
VERTEX
8
STEMPEL
10
58
20
86
30
0.0
0
VERTEX
8
STEMPEL
10
20
20
86
30
0.0
0
SEQEND
0
POLYLINE
8
STEMPEL
66
1
70
1
0
VERTEX
8
STEMPEL
10
56
20
78
30
0.0
0
VERTEX
8
STEMPEL
10
58
20
78
30
0.0
0
VERTEX
8
STEMPEL
10
58
20
84
30
0.0
0
VERTEX
8
STEMPEL
10
56
20
84
30
0.0
0
SEQEND
0
POLYLINE
8
STEMPEL
66
1
70
1
0
VERTEX
8
STEMPEL
10
30
20
96
30
0.0
0
VERTEX
8
STEMPEL
10
40
20
96
30
0.0
0
VERTEX
8
STEMPEL
10
40
20
98
30
0.0
0
VERTEX
8
STEMPEL
10
30
20
98
30
0.0
0
SEQEND
0
POLYLINE
8
STEMPEL
66
1
70
1
0
VERTEX
8
STEMPEL
10
54
20
96
30
0.0
0
VERTEX
8
STEMPEL
10
66
20
96
30
0.0
0
VERTEX
8
STEMPEL
10
66
20
98
30
0.0
0
VERTEX
8
STEMPEL
10
54
20
98
30
0.0
0
SEQEND
0
POLYLINE
8
STEMPEL
66
1
70
1
0
VERTEX
8
STEMPEL
10
82
20
94
30
0.0
0
VERTEX
8
STEMPEL
10
84
20
94
30
0.0
0
VERTEX
8
STEMPEL
10
84
20
98
30
0.0
0
VERTEX
8
STEMPEL
10
82
20
98
30
0.0
0
SEQEND
0
POLYLINE
8
STEMPEL
66
1
70
1
0
VERTEX
8
STEMPEL
10
126
20
94
30
0.0
0
VERTEX
8
STEMPEL
10
128
20
94
30
0.0
0
VERTEX
8
STEMPEL
10
128
20
98
30
0.0
0
VERTEX
8
STEMPEL
10
126
20
98
30
0.0
0
SEQEND
0
POLYLINE
8
STEMPEL
66
1
70
1
0
VERTEX
8
STEMPEL
10
120
20
94
30
0.0
0
VERTEX
8
STEMPEL
10
126
20
94
30
0.0
0
VERTEX
8
STEMPEL
10
126
20
96
30
0.0
0
VERTEX
8
STEMPEL
10
120
20
96
30
0.0
0
SEQEND
0
POLYLINE
8
STEMPEL
66
1
70
1
0
VERTEX
8
STEMPEL
10
62
20
70
30
0.0
0
VERTEX
8
STEMPEL
10
64
20
70
30
0.0
0
VERTEX
8
STEMPEL
10
64
20
88
30
0.0
0
VERTEX
8
STEMPEL
10
62
20
88
30
0.0
0
SEQEND
0
POLYLINE
8
STEMPEL
66
1
70
1
0
VERTEX
8
STEMPEL
10
6
20
78
30
0.0
0
VERTEX
8
STEMPEL
10
12
20
78
30
0.0
0
VERTEX
8
STEMPEL
10
12
20
80
30
0.0
0
VERTEX
8
STEMPEL
10
6
20
80
30
0.0
0
SEQEND
0
POLYLINE
8
STEMPEL
66
1
70
1
0
VERTEX
8
STEMPEL
10
18
20
66
30
0.0
0
VERTEX
8
STEMPEL
10
20
20
66
30
0.0
0
VERTEX
8
STEMPEL
10
20
20
80
30
0.0
0
VERTEX
8
STEMPEL
10
18
20
80
30
0.0
0
SEQEND
0
POLYLINE
8
STEMPEL
66
1
70
1
0
VERTEX
8
STEMPEL
10
22
20
78
30
0.0
0
VERTEX
8
STEMPEL
10
52
20
78
30
0.0
0
VERTEX
8
STEMPEL
10
52
20
80
30
0.0
0
VERTEX
8
STEMPEL
10
22
20
80
30
0.0
0
SEQEND
0
POLYLINE
8
STEMPEL
66
1
70
1
0
VERTEX
8
STEMPEL
10
30
20
72
30
0.0
0
VERTEX
8
STEMPEL
10
32
20
72
30
0.0
0
VERTEX
8
STEMPEL
10
32
20
78
30
0.0
0
VERTEX
8
STEMPEL
10
30
20
78
30
0.0
0
SEQEND
0
POLYLINE
8
STEMPEL
66
1
70
1
0
VERTEX
8
STEMPEL
10
42
20
76
30
0.0
0
VERTEX
8
STEMPEL
10
46
20
76
30
0.0
0
VERTEX
8
STEMPEL
10
46
20
78
30
0.0
0
VERTEX
8
STEMPEL
10
42
20
78
30
0.0
0
SEQEND
0
POLYLINE
8
STEMPEL
66
1
70
1
0
VERTEX
8
STEMPEL
10
48
20
76
30
0.0
0
VERTEX
8
STEMPEL
10
52
20
76
30
0.0
0
VERTEX
8
STEMPEL
10
52
20
78
30
0.0
0
VERTEX
8
STEMPEL
10
48
20
78
30
0.0
0
SEQEND
0
POLYLINE
8
STEMPEL
66
1
70
1
0
VERTEX
8
STEMPEL
10
24
20
72
30
0.0
0
VERTEX
8
STEMPEL
10
26
20
72
30
0.0
0
VERTEX
8
STEMPEL
10
26
20
76
30
0.0
0
VERTEX
8
STEMPEL
10
24
20
76
30
0.0
0
SEQEND
0
POLYLINE
8
STEMPEL
66
1
70
1
0
VERTEX
8
STEMPEL
10
22
20
72
30
0.0
0
VERTEX
8
STEMPEL
10
24
20
72
30
0.0
0
VERTEX
8
STEMPEL
10
24
20
74
30
0.0
0
VERTEX
8
STEMPEL
10
22
20
74
30
0.0
0
SEQEND
0
POLYLINE
8
STEMPEL
66
1
70
1
0
VERTEX
8
STEMPEL
10
26
20
72
30
0.0
0
VERTEX
8
STEMPEL
10
30
20
72
30
0.0
0
VERTEX
8
STEMPEL
10
30
20
74
30
0.0
0
VERTEX
8
STEMPEL
10
26
20
74
30
0.0
0
SEQEND
0
POLYLINE
8
STEMPEL
66
1
70
1
0
VERTEX
8
STEMPEL
10
22
20
66
30
0.0
0
VERTEX
8
STEMPEL
10
50
20
66
30
0.0
0
VERTEX
8
STEMPEL
10
50
20
68
30
0.0
0
VERTEX
8
STEMPEL
10
22
20
68
30
0.0
0
SEQEND
0
POLYLINE
8
STEMPEL
66
1
70
1
0
VERTEX
8
STEMPEL
10
4
20
60
30
0.0
0
VERTEX
8
STEMPEL
10
6
20
60
30
0.0
0
VERTEX
8
STEMPEL
10
6
20
62
30
0.0
0
VERTEX
8
STEMPEL
10
4
20
62
30
0.0
0
SEQEND
0
POLYLINE
8
STEMPEL
66
1
70
1
0
VERTEX
8
STEMPEL
10
8
20
60
30
0.0
0
VERTEX
8
STEMPEL
10
10
20
60
30
0.0
0
VERTEX
8
STEMPEL
10
10
20
62
30
0.0
0
VERTEX
8
STEMPEL
10
8
20
62
30
0.0
0
SEQEND
0
POLYLINE
8
STEMPEL
66
1
70
1
0
VERTEX
8
STEMPEL
10
18
20
40
30
0.0
0
VERTEX
8
STEMPEL
10
20
20
40
30
0.0
0
VERTEX
8
STEMPEL
10
20
20
58
30
0.0
0
VERTEX
8
STEMPEL
10
18
20
58
30
0.0
0
SEQEND
0
POLYLINE
8
STEMPEL
66
1
70
1
0
VERTEX
8
STEMPEL
10
22
20
40
30
0.0
0
VERTEX
8
STEMPEL
10
26
20
40
30
0.0
0
VERTEX
8
STEMPEL
10
26
20
58
30
0.0
0
VERTEX
8
STEMPEL
10
22
20
58
30
0.0
0
SEQEND
0
POLYLINE
8
STEMPEL
66
1
70
1
0
VERTEX
8
STEMPEL
10
20
20
40
30
0.0
0
VERTEX
8
STEMPEL
10
22
20
40
30
0.0
0
VERTEX
8
STEMPEL
10
22
20
42
30
0.0
0
VERTEX
8
STEMPEL
10
20
20
42
30
0.0
0
SEQEND
0
POLYLINE
8
STEMPEL
66
1
70
1
0
VERTEX
8
STEMPEL
10
24
20
38
30
0.0
0
VERTEX
8
STEMPEL
10
44
20
38
30
0.0
0
VERTEX
8
STEMPEL
10
44
20
40
30
0.0
0
VERTEX
8
STEMPEL
10
24
20
40
30
0.0
0
SEQEND
0
POLYLINE
8
STEMPEL
66
1
70
1
0
VERTEX
8
STEMPEL
10
40
20
34
30
0.0
0
VERTEX
8
STEMPEL
10
44
20
34
30
0.0
0
VERTEX
8
STEMPEL
10
44
20
38
30
0.0
0
VERTEX
8
STEMPEL
10
40
20
38
30
0.0
0
SEQEND
0
POLYLINE
8
STEMPEL
66
1
70
1
0
VERTEX
8
STEMPEL
10
42
20
28
30
0.0
0
VERTEX
8
STEMPEL
10
44
20
28
30
0.0
0
VERTEX
8
STEMPEL
10
44
20
34
30
0.0
0
VERTEX
8
STEMPEL
10
42
20
34
30
0.0
0
SEQEND
0
POLYLINE
8
STEMPEL
66
1
70
1
0
VERTEX
8
STEMPEL
10
40
20
28
30
0.0
0
VERTEX
8
STEMPEL
10
42
20
28
30
0.0
0
VERTEX
8
STEMPEL
10
42
20
32
30
0.0
0
VERTEX
8
STEMPEL
10
40
20
32
30
0.0
0
SEQEND
0
POLYLINE
8
STEMPEL
66
1
70
1
0
VERTEX
8
STEMPEL
10
24
20
28
30
0.0
0
VERTEX
8
STEMPEL
10
40
20
28
30
0.0
0
VERTEX
8
STEMPEL
10
40
20
30
30
0.0
0
VERTEX
8
STEMPEL
10
24
20
30
30
0.0
0
SEQEND
0
POLYLINE
8
STEMPEL
66
1
70
1
0
VERTEX
8
STEMPEL
10
30
20
44
30
0.0
0
VERTEX
8
STEMPEL
10
32
20
44
30
0.0
0
VERTEX
8
STEMPEL
10
32
20
58
30
0.0
0
VERTEX
8
STEMPEL
10
30
20
58
30
0.0
0
SEQEND
0
POLYLINE
8
STEMPEL
66
1
70
1
0
VERTEX
8
STEMPEL
10
48
20
54
30
0.0
0
VERTEX
8
STEMPEL
10
50
20
54
30
0.0
0
VERTEX
8
STEMPEL
10
50
20
58
30
0.0
0
VERTEX
8
STEMPEL
10
48
20
58
30
0.0
0
SEQEND
0
POLYLINE
8
STEMPEL
66
1
70
1
0
VERTEX
8
STEMPEL
10
28
20
48
30
0.0
0
VERTEX
8
STEMPEL
10
30
20
48
30
0.0
0
VERTEX
8
STEMPEL
10
30
20
56
30
0.0
0
VERTEX
8
STEMPEL
10
28
20
56
30
0.0
0
SEQEND
0
POLYLINE
8
STEMPEL
66
1
70
1
0
VERTEX
8
STEMPEL
10
32
20
54
30
0.0
0
VERTEX
8
STEMPEL
10
48
20
54
30
0.0
0
VERTEX
8
STEMPEL
10
48
20
56
30
0.0
0
VERTEX
8
STEMPEL
10
32
20
56
30
0.0
0
SEQEND
0
POLYLINE
8
STEMPEL
66
1
70
1
0
VERTEX
8
STEMPEL
10
54
20
52
30
0.0
0
VERTEX
8
STEMPEL
10
62
20
52
30
0.0
0
VERTEX
8
STEMPEL
10
62
20
56
30
0.0
0
VERTEX
8
STEMPEL
10
54
20
56
30
0.0
0
SEQEND
0
POLYLINE
8
STEMPEL
66
1
70
1
0
VERTEX
8
STEMPEL
10
54
20
38
30
0.0
0
VERTEX
8
STEMPEL
10
58
20
38
30
0.0
0
VERTEX
8
STEMPEL
10
58
20
52
30
0.0
0
VERTEX
8
STEMPEL
10
54
20
52
30
0.0
0
SEQEND
0
POLYLINE
8
STEMPEL
66
1
70
1
0
VERTEX
8
STEMPEL
10
60
20
48
30
0.0
0
VERTEX
8
STEMPEL
10
64
20
48
30
0.0
0
VERTEX
8
STEMPEL
10
64
20
50
30
0.0
0
VERTEX
8
STEMPEL
10
60
20
50
30
0.0
0
SEQEND
0
POLYLINE
8
STEMPEL
66
1
70
1
0
VERTEX
8
STEMPEL
10
62
20
28
30
0.0
0
VERTEX
8
STEMPEL
10
64
20
28
30
0.0
0
VERTEX
8
STEMPEL
10
64
20
48
30
0.0
0
VERTEX
8
STEMPEL
10
62
20
48
30
0.0
0
SEQEND
0
POLYLINE
8
STEMPEL
66
1
70
1
0
VERTEX
8
STEMPEL
10
60
20
36
30
0.0
0
VERTEX
8
STEMPEL
10
62
20
36
30
0.0
0
VERTEX
8
STEMPEL
10
62
20
46
30
0.0
0
VERTEX
8
STEMPEL
10
60
20
46
30
0.0
0
SEQEND
0
POLYLINE
8
STEMPEL
66
1
70
1
0
VERTEX
8
STEMPEL
10
54
20
22
30
0.0
0
VERTEX
8
STEMPEL
10
56
20
22
30
0.0
0
VERTEX
8
STEMPEL
10
56
20
38
30
0.0
0
VERTEX
8
STEMPEL
10
54
20
38
30
0.0
0
SEQEND
0
POLYLINE
8
STEMPEL
66
1
70
1
0
VERTEX
8
STEMPEL
10
56
20
32
30
0.0
0
VERTEX
8
STEMPEL
10
62
20
32
30
0.0
0
VERTEX
8
STEMPEL
10
62
20
34
30
0.0
0
VERTEX
8
STEMPEL
10
56
20
34
30
0.0
0
SEQEND
0
POLYLINE
8
STEMPEL
66
1
70
1
0
VERTEX
8
STEMPEL
10
56
20
22
30
0.0
0
VERTEX
8
STEMPEL
10
58
20
22
30
0.0
0
VERTEX
8
STEMPEL
10
58
20
32
30
0.0
0
VERTEX
8
STEMPEL
10
56
20
32
30
0.0
0
SEQEND
0
POLYLINE
8
STEMPEL
66
1
70
1
0
VERTEX
8
STEMPEL
10
60
20
28
30
0.0
0
VERTEX
8
STEMPEL
10
62
20
28
30
0.0
0
VERTEX
8
STEMPEL
10
62
20
30
30
0.0
0
VERTEX
8
STEMPEL
10
60
20
30
30
0.0
0
SEQEND
0
POLYLINE
8
STEMPEL
66
1
70
1
0
VERTEX
8
STEMPEL
10
58
20
22
30
0.0
0
VERTEX
8
STEMPEL
10
64
20
22
30
0.0
0
VERTEX
8
STEMPEL
10
64
20
24
30
0.0
0
VERTEX
8
STEMPEL
10
58
20
24
30
0.0
0
SEQEND
0
POLYLINE
8
STEMPEL
66
1
70
1
0
VERTEX
8
STEMPEL
10
94
20
40
30
0.0
0
VERTEX
8
STEMPEL
10
98
20
40
30
0.0
0
VERTEX
8
STEMPEL
10
98
20
54
30
0.0
0
VERTEX
8
STEMPEL
10
94
20
54
30
0.0
0
SEQEND
0
POLYLINE
8
STEMPEL
66
1
70
1
0
VERTEX
8
STEMPEL
10
80
20
40
30
0.0
0
VERTEX
8
STEMPEL
10
82
20
40
30
0.0
0
VERTEX
8
STEMPEL
10
82
20
44
30
0.0
0
VERTEX
8
STEMPEL
10
80
20
44
30
0.0
0
SEQEND
0
POLYLINE
8
STEMPEL
66
1
70
1
0
VERTEX
8
STEMPEL
10
82
20
40
30
0.0
0
VERTEX
8
STEMPEL
10
94
20
40
30
0.0
0
VERTEX
8
STEMPEL
10
94
20
42
30
0.0
0
VERTEX
8
STEMPEL
10
82
20
42
30
0.0
0
SEQEND
0
POLYLINE
8
STEMPEL
66
1
70
1
0
VERTEX
8
STEMPEL
10
6
20
40
30
0.0
0
VERTEX
8
STEMPEL
10
8
20
40
30
0.0
0
VERTEX
8
STEMPEL
10
8
20
52
30
0.0
0
VERTEX
8
STEMPEL
10
6
20
52
30
0.0
0
SEQEND
0
POLYLINE
8
STEMPEL
66
1
70
1
0
VERTEX
8
STEMPEL
10
34
20
48
30
0.0
0
VERTEX
8
STEMPEL
10
38
20
48
30
0.0
0
VERTEX
8
STEMPEL
10
38
20
52
30
0.0
0
VERTEX
8
STEMPEL
10
34
20
52
30
0.0
0
SEQEND
0
POLYLINE
8
STEMPEL
66
1
70
1
0
VERTEX
8
STEMPEL
10
38
20
48
30
0.0
0
VERTEX
8
STEMPEL
10
44
20
48
30
0.0
0
VERTEX
8
STEMPEL
10
44
20
50
30
0.0
0
VERTEX
8
STEMPEL
10
38
20
50
30
0.0
0
SEQEND
0
POLYLINE
8
STEMPEL
66
1
70
1
0
VERTEX
8
STEMPEL
10
48
20
22
30
0.0
0
VERTEX
8
STEMPEL
10
50
20
22
30
0.0
0
VERTEX
8
STEMPEL
10
50
20
52
30
0.0
0
VERTEX
8
STEMPEL
10
48
20
52
30
0.0
0
SEQEND
0
POLYLINE
8
STEMPEL
66
1
70
1
0
VERTEX
8
STEMPEL
10
12
20
24
30
0.0
0
VERTEX
8
STEMPEL
10
32
20
24
30
0.0
0
VERTEX
8
STEMPEL
10
32
20
26
30
0.0
0
VERTEX
8
STEMPEL
10
12
20
26
30
0.0
0
SEQEND
0
POLYLINE
8
STEMPEL
66
1
70
1
0
VERTEX
8
STEMPEL
10
46
20
22
30
0.0
0
VERTEX
8
STEMPEL
10
48
20
22
30
0.0
0
VERTEX
8
STEMPEL
10
48
20
26
30
0.0
0
VERTEX
8
STEMPEL
10
46
20
26
30
0.0
0
SEQEND
0
POLYLINE
8
STEMPEL
66
1
70
1
0
VERTEX
8
STEMPEL
10
12
20
14
30
0.0
0
VERTEX
8
STEMPEL
10
14
20
14
30
0.0
0
VERTEX
8
STEMPEL
10
14
20
24
30
0.0
0
VERTEX
8
STEMPEL
10
12
20
24
30
0.0
0
SEQEND
0
POLYLINE
8
STEMPEL
66
1
70
1
0
VERTEX
8
STEMPEL
10
26
20
22
30
0.0
0
VERTEX
8
STEMPEL
10
46
20
22
30
0.0
0
VERTEX
8
STEMPEL
10
46
20
24
30
0.0
0
VERTEX
8
STEMPEL
10
26
20
24
30
0.0
0
SEQEND
0
POLYLINE
8
STEMPEL
66
1
70
1
0
VERTEX
8
STEMPEL
10
14
20
18
30
0.0
0
VERTEX
8
STEMPEL
10
44
20
18
30
0.0
0
VERTEX
8
STEMPEL
10
44
20
20
30
0.0
0
VERTEX
8
STEMPEL
10
14
20
20
30
0.0
0
SEQEND
0
POLYLINE
8
STEMPEL
66
1
70
1
0
VERTEX
8
STEMPEL
10
52
20
16
30
0.0
0
VERTEX
8
STEMPEL
10
54
20
16
30
0.0
0
VERTEX
8
STEMPEL
10
54
20
20
30
0.0
0
VERTEX
8
STEMPEL
10
52
20
20
30
0.0
0
SEQEND
0
POLYLINE
8
STEMPEL
66
1
70
1
0
VERTEX
8
STEMPEL
10
20
20
12
30
0.0
0
VERTEX
8
STEMPEL
10
24
20
12
30
0.0
0
VERTEX
8
STEMPEL
10
24
20
18
30
0.0
0
VERTEX
8
STEMPEL
10
20
20
18
30
0.0
0
SEQEND
0
POLYLINE
8
STEMPEL
66
1
70
1
0
VERTEX
8
STEMPEL
10
26
20
12
30
0.0
0
VERTEX
8
STEMPEL
10
28
20
12
30
0.0
0
VERTEX
8
STEMPEL
10
28
20
18
30
0.0
0
VERTEX
8
STEMPEL
10
26
20
18
30
0.0
0
SEQEND
0
POLYLINE
8
STEMPEL
66
1
70
1
0
VERTEX
8
STEMPEL
10
40
20
16
30
0.0
0
VERTEX
8
STEMPEL
10
52
20
16
30
0.0
0
VERTEX
8
STEMPEL
10
52
20
18
30
0.0
0
VERTEX
8
STEMPEL
10
40
20
18
30
0.0
0
SEQEND
0
POLYLINE
8
STEMPEL
66
1
70
1
0
VERTEX
8
STEMPEL
10
54
20
16
30
0.0
0
VERTEX
8
STEMPEL
10
64
20
16
30
0.0
0
VERTEX
8
STEMPEL
10
64
20
18
30
0.0
0
VERTEX
8
STEMPEL
10
54
20
18
30
0.0
0
SEQEND
0
POLYLINE
8
STEMPEL
66
1
70
1
0
VERTEX
8
STEMPEL
10
62
20
10
30
0.0
0
VERTEX
8
STEMPEL
10
64
20
10
30
0.0
0
VERTEX
8
STEMPEL
10
64
20
16
30
0.0
0
VERTEX
8
STEMPEL
10
62
20
16
30
0.0
0
SEQEND
0
POLYLINE
8
STEMPEL
66
1
70
1
0
VERTEX
8
STEMPEL
10
28
20
12
30
0.0
0
VERTEX
8
STEMPEL
10
58
20
12
30
0.0
0
VERTEX
8
STEMPEL
10
58
20
14
30
0.0
0
VERTEX
8
STEMPEL
10
28
20
14
30
0.0
0
SEQEND
0
POLYLINE
8
STEMPEL
66
1
70
1
0
VERTEX
8
STEMPEL
10
60
20
10
30
0.0
0
VERTEX
8
STEMPEL
10
62
20
10
30
0.0
0
VERTEX
8
STEMPEL
10
62
20
14
30
0.0
0
VERTEX
8
STEMPEL
10
60
20
14
30
0.0
0
SEQEND
0
POLYLINE
8
STEMPEL
66
1
70
1
0
VERTEX
8
STEMPEL
10
52
20
10
30
0.0
0
VERTEX
8
STEMPEL
10
60
20
10
30
0.0
0
VERTEX
8
STEMPEL
10
60
20
12
30
0.0
0
VERTEX
8
STEMPEL
10
52
20
12
30
0.0
0
SEQEND
0
POLYLINE
8
STEMPEL
66
1
70
1
0
VERTEX
8
STEMPEL
10
74
20
46
30
0.0
0
VERTEX
8
STEMPEL
10
92
20
46
30
0.0
0
VERTEX
8
STEMPEL
10
92
20
48
30
0.0
0
VERTEX
8
STEMPEL
10
74
20
48
30
0.0
0
SEQEND
0
POLYLINE
8
STEMPEL
66
1
70
1
0
VERTEX
8
STEMPEL
10
72
20
36
30
0.0
0
VERTEX
8
STEMPEL
10
76
20
36
30
0.0
0
VERTEX
8
STEMPEL
10
76
20
46
30
0.0
0
VERTEX
8
STEMPEL
10
72
20
46
30
0.0
0
SEQEND
0
POLYLINE
8
STEMPEL
66
1
70
1
0
VERTEX
8
STEMPEL
10
34
20
44
30
0.0
0
VERTEX
8
STEMPEL
10
44
20
44
30
0.0
0
VERTEX
8
STEMPEL
10
44
20
46
30
0.0
0
VERTEX
8
STEMPEL
10
34
20
46
30
0.0
0
SEQEND
0
POLYLINE
8
STEMPEL
66
1
70
1
0
VERTEX
8
STEMPEL
10
38
20
42
30
0.0
0
VERTEX
8
STEMPEL
10
44
20
42
30
0.0
0
VERTEX
8
STEMPEL
10
44
20
44
30
0.0
0
VERTEX
8
STEMPEL
10
38
20
44
30
0.0
0
SEQEND
0
POLYLINE
8
STEMPEL
66
1
70
1
0
VERTEX
8
STEMPEL
10
6
20
30
30
0.0
0
VERTEX
8
STEMPEL
10
14
20
30
30
0.0
0
VERTEX
8
STEMPEL
10
14
20
32
30
0.0
0
VERTEX
8
STEMPEL
10
6
20
32
30
0.0
0
SEQEND
0
POLYLINE
8
STEMPEL
66
1
70
1
0
VERTEX
8
STEMPEL
10
6
20
28
30
0.0
0
VERTEX
8
STEMPEL
10
8
20
28
30
0.0
0
VERTEX
8
STEMPEL
10
8
20
30
30
0.0
0
VERTEX
8
STEMPEL
10
6
20
30
30
0.0
0
SEQEND
0
POLYLINE
8
STEMPEL
66
1
70
1
0
VERTEX
8
STEMPEL
10
6
20
18
30
0.0
0
VERTEX
8
STEMPEL
10
10
20
18
30
0.0
0
VERTEX
8
STEMPEL
10
10
20
26
30
0.0
0
VERTEX
8
STEMPEL
10
6
20
26
30
0.0
0
SEQEND
0
POLYLINE
8
STEMPEL
66
1
70
1
0
VERTEX
8
STEMPEL
10
8
20
14
30
0.0
0
VERTEX
8
STEMPEL
10
10
20
14
30
0.0
0
VERTEX
8
STEMPEL
10
10
20
18
30
0.0
0
VERTEX
8
STEMPEL
10
8
20
18
30
0.0
0
SEQEND
0
POLYLINE
8
FRAESEN
66
1
70
1
0
VERTEX
8
FRAESEN
10
2
20
214
30
0.0
0
VERTEX
8
FRAESEN
10
138
20
214
30
0.0
0
VERTEX
8
FRAESEN
10
138
20
218
30
0.0
0
VERTEX
8
FRAESEN
10
2
20
218
30
0.0
0
SEQEND
0
POLYLINE
8
FRAESEN
66
1
70
1
0
VERTEX
8
FRAESEN
10
2
20
212
30
0.0
0
VERTEX
8
FRAESEN
10
8
20
212
30
0.0
0
VERTEX
8
FRAESEN
10
8
20
214
30
0.0
0
VERTEX
8
FRAESEN
10
2
20
214
30
0.0
0
SEQEND
0
POLYLINE
8
FRAESEN
66
1
70
1
0
VERTEX
8
FRAESEN
10
34
20
212
30
0.0
0
VERTEX
8
FRAESEN
10
36
20
212
30
0.0
0
VERTEX
8
FRAESEN
10
36
20
214
30
0.0
0
VERTEX
8
FRAESEN
10
34
20
214
30
0.0
0
SEQEND
0
POLYLINE
8
FRAESEN
66
1
70
1
0
VERTEX
8
FRAESEN
10
48
20
212
30
0.0
0
VERTEX
8
FRAESEN
10
50
20
212
30
0.0
0
VERTEX
8
FRAESEN
10
50
20
214
30
0.0
0
VERTEX
8
FRAESEN
10
48
20
214
30
0.0
0
SEQEND
0
POLYLINE
8
FRAESEN
66
1
70
1
0
VERTEX
8
FRAESEN
10
54
20
212
30
0.0
0
VERTEX
8
FRAESEN
10
58
20
212
30
0.0
0
VERTEX
8
FRAESEN
10
58
20
214
30
0.0
0
VERTEX
8
FRAESEN
10
54
20
214
30
0.0
0
SEQEND
0
POLYLINE
8
FRAESEN
66
1
70
1
0
VERTEX
8
FRAESEN
10
76
20
212
30
0.0
0
VERTEX
8
FRAESEN
10
80
20
212
30
0.0
0
VERTEX
8
FRAESEN
10
80
20
214
30
0.0
0
VERTEX
8
FRAESEN
10
76
20
214
30
0.0
0
SEQEND
0
POLYLINE
8
FRAESEN
66
1
70
1
0
VERTEX
8
FRAESEN
10
84
20
212
30
0.0
0
VERTEX
8
FRAESEN
10
138
20
212
30
0.0
0
VERTEX
8
FRAESEN
10
138
20
214
30
0.0
0
VERTEX
8
FRAESEN
10
84
20
214
30
0.0
0
SEQEND
0
POLYLINE
8
FRAESEN
66
1
70
1
0
VERTEX
8
FRAESEN
10
2
20
184
30
0.0
0
VERTEX
8
FRAESEN
10
6
20
184
30
0.0
0
VERTEX
8
FRAESEN
10
6
20
212
30
0.0
0
VERTEX
8
FRAESEN
10
2
20
212
30
0.0
0
SEQEND
0
POLYLINE
8
FRAESEN
66
1
70
1
0
VERTEX
8
FRAESEN
10
84
20
164
30
0.0
0
VERTEX
8
FRAESEN
10
86
20
164
30
0.0
0
VERTEX
8
FRAESEN
10
86
20
212
30
0.0
0
VERTEX
8
FRAESEN
10
84
20
212
30
0.0
0
SEQEND
0
POLYLINE
8
FRAESEN
66
1
70
1
0
VERTEX
8
FRAESEN
10
8
20
208
30
0.0
0
VERTEX
8
FRAESEN
10
30
20
208
30
0.0
0
VERTEX
8
FRAESEN
10
30
20
210
30
0.0
0
VERTEX
8
FRAESEN
10
8
20
210
30
0.0
0
SEQEND
0
POLYLINE
8
FRAESEN
66
1
70
1
0
VERTEX
8
FRAESEN
10
32
20
208
30
0.0
0
VERTEX
8
FRAESEN
10
56
20
208
30
0.0
0
VERTEX
8
FRAESEN
10
56
20
210
30
0.0
0
VERTEX
8
FRAESEN
10
32
20
210
30
0.0
0
SEQEND
0
POLYLINE
8
FRAESEN
66
1
70
1
0
VERTEX
8
FRAESEN
10
58
20
208
30
0.0
0
VERTEX
8
FRAESEN
10
82
20
208
30
0.0
0
VERTEX
8
FRAESEN
10
82
20
210
30
0.0
0
VERTEX
8
FRAESEN
10
58
20
210
30
0.0
0
SEQEND
0
POLYLINE
8
FRAESEN
66
1
70
1
0
VERTEX
8
FRAESEN
10
86
20
202
30
0.0
0
VERTEX
8
FRAESEN
10
88
20
202
30
0.0
0
VERTEX
8
FRAESEN
10
88
20
210
30
0.0
0
VERTEX
8
FRAESEN
10
86
20
210
30
0.0
0
SEQEND
0
POLYLINE
8
FRAESEN
66
1
70
1
0
VERTEX
8
FRAESEN
10
90
20
208
30
0.0
0
VERTEX
8
FRAESEN
10
100
20
208
30
0.0
0
VERTEX
8
FRAESEN
10
100
20
210
30
0.0
0
VERTEX
8
FRAESEN
10
90
20
210
30
0.0
0
SEQEND
0
POLYLINE
8
FRAESEN
66
1
70
1
0
VERTEX
8
FRAESEN
10
104
20
206
30
0.0
0
VERTEX
8
FRAESEN
10
128
20
206
30
0.0
0
VERTEX
8
FRAESEN
10
128
20
210
30
0.0
0
VERTEX
8
FRAESEN
10
104
20
210
30
0.0
0
SEQEND
0
POLYLINE
8
FRAESEN
66
1
70
1
0
VERTEX
8
FRAESEN
10
132
20
158
30
0.0
0
VERTEX
8
FRAESEN
10
134
20
158
30
0.0
0
VERTEX
8
FRAESEN
10
134
20
210
30
0.0
0
VERTEX
8
FRAESEN
10
132
20
210
30
0.0
0
SEQEND
0
POLYLINE
8
FRAESEN
66
1
70
1
0
VERTEX
8
FRAESEN
10
8
20
206
30
0.0
0
VERTEX
8
FRAESEN
10
14
20
206
30
0.0
0
VERTEX
8
FRAESEN
10
14
20
208
30
0.0
0
VERTEX
8
FRAESEN
10
8
20
208
30
0.0
0
SEQEND
0
POLYLINE
8
FRAESEN
66
1
70
1
0
VERTEX
8
FRAESEN
10
26
20
192
30
0.0
0
VERTEX
8
FRAESEN
10
30
20
192
30
0.0
0
VERTEX
8
FRAESEN
10
30
20
208
30
0.0
0
VERTEX
8
FRAESEN
10
26
20
208
30
0.0
0
SEQEND
0
POLYLINE
8
FRAESEN
66
1
70
1
0
VERTEX
8
FRAESEN
10
32
20
206
30
0.0
0
VERTEX
8
FRAESEN
10
38
20
206
30
0.0
0
VERTEX
8
FRAESEN
10
38
20
208
30
0.0
0
VERTEX
8
FRAESEN
10
32
20
208
30
0.0
0
SEQEND
0
POLYLINE
8
FRAESEN
66
1
70
1
0
VERTEX
8
FRAESEN
10
52
20
198
30
0.0
0
VERTEX
8
FRAESEN
10
56
20
198
30
0.0
0
VERTEX
8
FRAESEN
10
56
20
208
30
0.0
0
VERTEX
8
FRAESEN
10
52
20
208
30
0.0
0
SEQEND
0
POLYLINE
8
FRAESEN
66
1
70
1
0
VERTEX
8
FRAESEN
10
58
20
192
30
0.0
0
VERTEX
8
FRAESEN
10
62
20
192
30
0.0
0
VERTEX
8
FRAESEN
10
62
20
208
30
0.0
0
VERTEX
8
FRAESEN
10
58
20
208
30
0.0
0
SEQEND
0
POLYLINE
8
FRAESEN
66
1
70
1
0
VERTEX
8
FRAESEN
10
64
20
206
30
0.0
0
VERTEX
8
FRAESEN
10
80
20
206
30
0.0
0
VERTEX
8
FRAESEN
10
80
20
208
30
0.0
0
VERTEX
8
FRAESEN
10
64
20
208
30
0.0
0
SEQEND
0
POLYLINE
8
FRAESEN
66
1
70
1
0
VERTEX
8
FRAESEN
10
90
20
192
30
0.0
0
VERTEX
8
FRAESEN
10
94
20
192
30
0.0
0
VERTEX
8
FRAESEN
10
94
20
208
30
0.0
0
VERTEX
8
FRAESEN
10
90
20
208
30
0.0
0
SEQEND
0
POLYLINE
8
FRAESEN
66
1
70
1
0
VERTEX
8
FRAESEN
10
96
20
196
30
0.0
0
VERTEX
8
FRAESEN
10
100
20
196
30
0.0
0
VERTEX
8
FRAESEN
10
100
20
208
30
0.0
0
VERTEX
8
FRAESEN
10
96
20
208
30
0.0
0
SEQEND
0
POLYLINE
8
FRAESEN
66
1
70
1
0
VERTEX
8
FRAESEN
10
102
20
190
30
0.0
0
VERTEX
8
FRAESEN
10
104
20
190
30
0.0
0
VERTEX
8
FRAESEN
10
104
20
208
30
0.0
0
VERTEX
8
FRAESEN
10
102
20
208
30
0.0
0
SEQEND
0
POLYLINE
8
FRAESEN
66
1
70
1
0
VERTEX
8
FRAESEN
10
128
20
206
30
0.0
0
VERTEX
8
FRAESEN
10
130
20
206
30
0.0
0
VERTEX
8
FRAESEN
10
130
20
208
30
0.0
0
VERTEX
8
FRAESEN
10
128
20
208
30
0.0
0
SEQEND
0
POLYLINE
8
FRAESEN
66
1
70
1
0
VERTEX
8
FRAESEN
10
134
20
198
30
0.0
0
VERTEX
8
FRAESEN
10
136
20
198
30
0.0
0
VERTEX
8
FRAESEN
10
136
20
208
30
0.0
0
VERTEX
8
FRAESEN
10
134
20
208
30
0.0
0
SEQEND
0
POLYLINE
8
FRAESEN
66
1
70
1
0
VERTEX
8
FRAESEN
10
8
20
192
30
0.0
0
VERTEX
8
FRAESEN
10
12
20
192
30
0.0
0
VERTEX
8
FRAESEN
10
12
20
206
30
0.0
0
VERTEX
8
FRAESEN
10
8
20
206
30
0.0
0
SEQEND
0
POLYLINE
8
FRAESEN
66
1
70
1
0
VERTEX
8
FRAESEN
10
16
20
202
30
0.0
0
VERTEX
8
FRAESEN
10
26
20
202
30
0.0
0
VERTEX
8
FRAESEN
10
26
20
206
30
0.0
0
VERTEX
8
FRAESEN
10
16
20
206
30
0.0
0
SEQEND
0
POLYLINE
8
FRAESEN
66
1
70
1
0
VERTEX
8
FRAESEN
10
32
20
192
30
0.0
0
VERTEX
8
FRAESEN
10
36
20
192
30
0.0
0
VERTEX
8
FRAESEN
10
36
20
206
30
0.0
0
VERTEX
8
FRAESEN
10
32
20
206
30
0.0
0
SEQEND
0
POLYLINE
8
FRAESEN
66
1
70
1
0
VERTEX
8
FRAESEN
10
64
20
186
30
0.0
0
VERTEX
8
FRAESEN
10
68
20
186
30
0.0
0
VERTEX
8
FRAESEN
10
68
20
206
30
0.0
0
VERTEX
8
FRAESEN
10
64
20
206
30
0.0
0
SEQEND
0
POLYLINE
8
FRAESEN
66
1
70
1
0
VERTEX
8
FRAESEN
10
70
20
182
30
0.0
0
VERTEX
8
FRAESEN
10
74
20
182
30
0.0
0
VERTEX
8
FRAESEN
10
74
20
206
30
0.0
0
VERTEX
8
FRAESEN
10
70
20
206
30
0.0
0
SEQEND
0
POLYLINE
8
FRAESEN
66
1
70
1
0
VERTEX
8
FRAESEN
10
76
20
182
30
0.0
0
VERTEX
8
FRAESEN
10
80
20
182
30
0.0
0
VERTEX
8
FRAESEN
10
80
20
206
30
0.0
0
VERTEX
8
FRAESEN
10
76
20
206
30
0.0
0
SEQEND
0
POLYLINE
8
FRAESEN
66
1
70
1
0
VERTEX
8
FRAESEN
10
104
20
190
30
0.0
0
VERTEX
8
FRAESEN
10
106
20
190
30
0.0
0
VERTEX
8
FRAESEN
10
106
20
206
30
0.0
0
VERTEX
8
FRAESEN
10
104
20
206
30
0.0
0
SEQEND
0
POLYLINE
8
FRAESEN
66
1
70
1
0
VERTEX
8
FRAESEN
10
126
20
196
30
0.0
0
VERTEX
8
FRAESEN
10
128
20
196
30
0.0
0
VERTEX
8
FRAESEN
10
128
20
206
30
0.0
0
VERTEX
8
FRAESEN
10
126
20
206
30
0.0
0
SEQEND
0
POLYLINE
8
FRAESEN
66
1
70
1
0
VERTEX
8
FRAESEN
10
14
20
192
30
0.0
0
VERTEX
8
FRAESEN
10
16
20
192
30
0.0
0
VERTEX
8
FRAESEN
10
16
20
204
30
0.0
0
VERTEX
8
FRAESEN
10
14
20
204
30
0.0
0
SEQEND
0
POLYLINE
8
FRAESEN
66
1
70
1
0
VERTEX
8
FRAESEN
10
94
20
202
30
0.0
0
VERTEX
8
FRAESEN
10
96
20
202
30
0.0
0
VERTEX
8
FRAESEN
10
96
20
204
30
0.0
0
VERTEX
8
FRAESEN
10
94
20
204
30
0.0
0
SEQEND
0
POLYLINE
8
FRAESEN
66
1
70
1
0
VERTEX
8
FRAESEN
10
108
20
202
30
0.0
0
VERTEX
8
FRAESEN
10
126
20
202
30
0.0
0
VERTEX
8
FRAESEN
10
126
20
204
30
0.0
0
VERTEX
8
FRAESEN
10
108
20
204
30
0.0
0
SEQEND
0
POLYLINE
8
FRAESEN
66
1
70
1
0
VERTEX
8
FRAESEN
10
16
20
192
30
0.0
0
VERTEX
8
FRAESEN
10
18
20
192
30
0.0
0
VERTEX
8
FRAESEN
10
18
20
202
30
0.0
0
VERTEX
8
FRAESEN
10
16
20
202
30
0.0
0
SEQEND
0
POLYLINE
8
FRAESEN
66
1
70
1
0
VERTEX
8
FRAESEN
10
108
20
200
30
0.0
0
VERTEX
8
FRAESEN
10
124
20
200
30
0.0
0
VERTEX
8
FRAESEN
10
124
20
202
30
0.0
0
VERTEX
8
FRAESEN
10
108
20
202
30
0.0
0
SEQEND
0
POLYLINE
8
FRAESEN
66
1
70
1
0
VERTEX
8
FRAESEN
10
18
20
198
30
0.0
0
VERTEX
8
FRAESEN
10
26
20
198
30
0.0
0
VERTEX
8
FRAESEN
10
26
20
200
30
0.0
0
VERTEX
8
FRAESEN
10
18
20
200
30
0.0
0
SEQEND
0
POLYLINE
8
FRAESEN
66
1
70
1
0
VERTEX
8
FRAESEN
10
38
20
198
30
0.0
0
VERTEX
8
FRAESEN
10
52
20
198
30
0.0
0
VERTEX
8
FRAESEN
10
52
20
200
30
0.0
0
VERTEX
8
FRAESEN
10
38
20
200
30
0.0
0
SEQEND
0
POLYLINE
8
FRAESEN
66
1
70
1
0
VERTEX
8
FRAESEN
10
94
20
192
30
0.0
0
VERTEX
8
FRAESEN
10
96
20
192
30
0.0
0
VERTEX
8
FRAESEN
10
96
20
200
30
0.0
0
VERTEX
8
FRAESEN
10
94
20
200
30
0.0
0
SEQEND
0
POLYLINE
8
FRAESEN
66
1
70
1
0
VERTEX
8
FRAESEN
10
108
20
196
30
0.0
0
VERTEX
8
FRAESEN
10
110
20
196
30
0.0
0
VERTEX
8
FRAESEN
10
110
20
200
30
0.0
0
VERTEX
8
FRAESEN
10
108
20
200
30
0.0
0
SEQEND
0
POLYLINE
8
FRAESEN
66
1
70
1
0
VERTEX
8
FRAESEN
10
18
20
192
30
0.0
0
VERTEX
8
FRAESEN
10
24
20
192
30
0.0
0
VERTEX
8
FRAESEN
10
24
20
198
30
0.0
0
VERTEX
8
FRAESEN
10
18
20
198
30
0.0
0
SEQEND
0
POLYLINE
8
FRAESEN
66
1
70
1
0
VERTEX
8
FRAESEN
10
52
20
192
30
0.0
0
VERTEX
8
FRAESEN
10
54
20
192
30
0.0
0
VERTEX
8
FRAESEN
10
54
20
198
30
0.0
0
VERTEX
8
FRAESEN
10
52
20
198
30
0.0
0
SEQEND
0
POLYLINE
8
FRAESEN
66
1
70
1
0
VERTEX
8
FRAESEN
10
110
20
196
30
0.0
0
VERTEX
8
FRAESEN
10
126
20
196
30
0.0
0
VERTEX
8
FRAESEN
10
126
20
198
30
0.0
0
VERTEX
8
FRAESEN
10
110
20
198
30
0.0
0
SEQEND
0
POLYLINE
8
FRAESEN
66
1
70
1
0
VERTEX
8
FRAESEN
10
12
20
192
30
0.0
0
VERTEX
8
FRAESEN
10
14
20
192
30
0.0
0
VERTEX
8
FRAESEN
10
14
20
196
30
0.0
0
VERTEX
8
FRAESEN
10
12
20
196
30
0.0
0
SEQEND
0
POLYLINE
8
FRAESEN
66
1
70
1
0
VERTEX
8
FRAESEN
10
24
20
192
30
0.0
0
VERTEX
8
FRAESEN
10
26
20
192
30
0.0
0
VERTEX
8
FRAESEN
10
26
20
196
30
0.0
0
VERTEX
8
FRAESEN
10
24
20
196
30
0.0
0
SEQEND
0
POLYLINE
8
FRAESEN
66
1
70
1
0
VERTEX
8
FRAESEN
10
30
20
192
30
0.0
0
VERTEX
8
FRAESEN
10
32
20
192
30
0.0
0
VERTEX
8
FRAESEN
10
32
20
196
30
0.0
0
VERTEX
8
FRAESEN
10
30
20
196
30
0.0
0
SEQEND
0
POLYLINE
8
FRAESEN
66
1
70
1
0
VERTEX
8
FRAESEN
10
36
20
192
30
0.0
0
VERTEX
8
FRAESEN
10
52
20
192
30
0.0
0
VERTEX
8
FRAESEN
10
52
20
196
30
0.0
0
VERTEX
8
FRAESEN
10
36
20
196
30
0.0
0
SEQEND
0
POLYLINE
8
FRAESEN
66
1
70
1
0
VERTEX
8
FRAESEN
10
54
20
192
30
0.0
0
VERTEX
8
FRAESEN
10
58
20
192
30
0.0
0
VERTEX
8
FRAESEN
10
58
20
196
30
0.0
0
VERTEX
8
FRAESEN
10
54
20
196
30
0.0
0
SEQEND
0
POLYLINE
8
FRAESEN
66
1
70
1
0
VERTEX
8
FRAESEN
10
82
20
160
30
0.0
0
VERTEX
8
FRAESEN
10
84
20
160
30
0.0
0
VERTEX
8
FRAESEN
10
84
20
196
30
0.0
0
VERTEX
8
FRAESEN
10
82
20
196
30
0.0
0
SEQEND
0
POLYLINE
8
FRAESEN
66
1
70
1
0
VERTEX
8
FRAESEN
10
96
20
190
30
0.0
0
VERTEX
8
FRAESEN
10
102
20
190
30
0.0
0
VERTEX
8
FRAESEN
10
102
20
194
30
0.0
0
VERTEX
8
FRAESEN
10
96
20
194
30
0.0
0
SEQEND
0
POLYLINE
8
FRAESEN
66
1
70
1
0
VERTEX
8
FRAESEN
10
106
20
190
30
0.0
0
VERTEX
8
FRAESEN
10
132
20
190
30
0.0
0
VERTEX
8
FRAESEN
10
132
20
194
30
0.0
0
VERTEX
8
FRAESEN
10
106
20
194
30
0.0
0
SEQEND
0
POLYLINE
8
FRAESEN
66
1
70
1
0
VERTEX
8
FRAESEN
10
8
20
160
30
0.0
0
VERTEX
8
FRAESEN
10
10
20
160
30
0.0
0
VERTEX
8
FRAESEN
10
10
20
192
30
0.0
0
VERTEX
8
FRAESEN
10
8
20
192
30
0.0
0
SEQEND
0
POLYLINE
8
FRAESEN
66
1
70
1
0
VERTEX
8
FRAESEN
10
58
20
190
30
0.0
0
VERTEX
8
FRAESEN
10
60
20
190
30
0.0
0
VERTEX
8
FRAESEN
10
60
20
192
30
0.0
0
VERTEX
8
FRAESEN
10
58
20
192
30
0.0
0
SEQEND
0
POLYLINE
8
FRAESEN
66
1
70
1
0
VERTEX
8
FRAESEN
10
90
20
190
30
0.0
0
VERTEX
8
FRAESEN
10
92
20
190
30
0.0
0
VERTEX
8
FRAESEN
10
92
20
192
30
0.0
0
VERTEX
8
FRAESEN
10
90
20
192
30
0.0
0
SEQEND
0
POLYLINE
8
FRAESEN
66
1
70
1
0
VERTEX
8
FRAESEN
10
14
20
180
30
0.0
0
VERTEX
8
FRAESEN
10
18
20
180
30
0.0
0
VERTEX
8
FRAESEN
10
18
20
190
30
0.0
0
VERTEX
8
FRAESEN
10
14
20
190
30
0.0
0
SEQEND
0
POLYLINE
8
FRAESEN
66
1
70
1
0
VERTEX
8
FRAESEN
10
40
20
186
30
0.0
0
VERTEX
8
FRAESEN
10
44
20
186
30
0.0
0
VERTEX
8
FRAESEN
10
44
20
190
30
0.0
0
VERTEX
8
FRAESEN
10
40
20
190
30
0.0
0
SEQEND
0
POLYLINE
8
FRAESEN
66
1
70
1
0
VERTEX
8
FRAESEN
10
130
20
186
30
0.0
0
VERTEX
8
FRAESEN
10
132
20
186
30
0.0
0
VERTEX
8
FRAESEN
10
132
20
190
30
0.0
0
VERTEX
8
FRAESEN
10
130
20
190
30
0.0
0
SEQEND
0
POLYLINE
8
FRAESEN
66
1
70
1
0
VERTEX
8
FRAESEN
10
44
20
186
30
0.0
0
VERTEX
8
FRAESEN
10
54
20
186
30
0.0
0
VERTEX
8
FRAESEN
10
54
20
188
30
0.0
0
VERTEX
8
FRAESEN
10
44
20
188
30
0.0
0
SEQEND
0
POLYLINE
8
FRAESEN
66
1
70
1
0
VERTEX
8
FRAESEN
10
86
20
186
30
0.0
0
VERTEX
8
FRAESEN
10
128
20
186
30
0.0
0
VERTEX
8
FRAESEN
10
128
20
188
30
0.0
0
VERTEX
8
FRAESEN
10
86
20
188
30
0.0
0
SEQEND
0
POLYLINE
8
FRAESEN
66
1
70
1
0
VERTEX
8
FRAESEN
10
52
20
176
30
0.0
0
VERTEX
8
FRAESEN
10
54
20
176
30
0.0
0
VERTEX
8
FRAESEN
10
54
20
186
30
0.0
0
VERTEX
8
FRAESEN
10
52
20
186
30
0.0
0
SEQEND
0
POLYLINE
8
FRAESEN
66
1
70
1
0
VERTEX
8
FRAESEN
10
64
20
166
30
0.0
0
VERTEX
8
FRAESEN
10
66
20
166
30
0.0
0
VERTEX
8
FRAESEN
10
66
20
186
30
0.0
0
VERTEX
8
FRAESEN
10
64
20
186
30
0.0
0
SEQEND
0
POLYLINE
8
FRAESEN
66
1
70
1
0
VERTEX
8
FRAESEN
10
100
20
184
30
0.0
0
VERTEX
8
FRAESEN
10
124
20
184
30
0.0
0
VERTEX
8
FRAESEN
10
124
20
186
30
0.0
0
VERTEX
8
FRAESEN
10
100
20
186
30
0.0
0
SEQEND
0
POLYLINE
8
FRAESEN
66
1
70
1
0
VERTEX
8
FRAESEN
10
126
20
158
30
0.0
0
VERTEX
8
FRAESEN
10
128
20
158
30
0.0
0
VERTEX
8
FRAESEN
10
128
20
186
30
0.0
0
VERTEX
8
FRAESEN
10
126
20
186
30
0.0
0
SEQEND
0
POLYLINE
8
FRAESEN
66
1
70
1
0
VERTEX
8
FRAESEN
10
2
20
154
30
0.0
0
VERTEX
8
FRAESEN
10
4
20
154
30
0.0
0
VERTEX
8
FRAESEN
10
4
20
184
30
0.0
0
VERTEX
8
FRAESEN
10
2
20
184
30
0.0
0
SEQEND
0
POLYLINE
8
FRAESEN
66
1
70
1
0
VERTEX
8
FRAESEN
10
40
20
182
30
0.0
0
VERTEX
8
FRAESEN
10
52
20
182
30
0.0
0
VERTEX
8
FRAESEN
10
52
20
184
30
0.0
0
VERTEX
8
FRAESEN
10
40
20
184
30
0.0
0
SEQEND
0
POLYLINE
8
FRAESEN
66
1
70
1
0
VERTEX
8
FRAESEN
10
88
20
180
30
0.0
0
VERTEX
8
FRAESEN
10
118
20
180
30
0.0
0
VERTEX
8
FRAESEN
10
118
20
184
30
0.0
0
VERTEX
8
FRAESEN
10
88
20
184
30
0.0
0
SEQEND
0
POLYLINE
8
FRAESEN
66
1
70
1
0
VERTEX
8
FRAESEN
10
120
20
172
30
0.0
0
VERTEX
8
FRAESEN
10
124
20
172
30
0.0
0
VERTEX
8
FRAESEN
10
124
20
184
30
0.0
0
VERTEX
8
FRAESEN
10
120
20
184
30
0.0
0
SEQEND
0
POLYLINE
8
FRAESEN
66
1
70
1
0
VERTEX
8
FRAESEN
10
6
20
128
30
0.0
0
VERTEX
8
FRAESEN
10
8
20
128
30
0.0
0
VERTEX
8
FRAESEN
10
8
20
182
30
0.0
0
VERTEX
8
FRAESEN
10
6
20
182
30
0.0
0
SEQEND
0
POLYLINE
8
FRAESEN
66
1
70
1
0
VERTEX
8
FRAESEN
10
46
20
176
30
0.0
0
VERTEX
8
FRAESEN
10
52
20
176
30
0.0
0
VERTEX
8
FRAESEN
10
52
20
182
30
0.0
0
VERTEX
8
FRAESEN
10
46
20
182
30
0.0
0
SEQEND
0
POLYLINE
8
FRAESEN
66
1
70
1
0
VERTEX
8
FRAESEN
10
70
20
156
30
0.0
0
VERTEX
8
FRAESEN
10
72
20
156
30
0.0
0
VERTEX
8
FRAESEN
10
72
20
182
30
0.0
0
VERTEX
8
FRAESEN
10
70
20
182
30
0.0
0
SEQEND
0
POLYLINE
8
FRAESEN
66
1
70
1
0
VERTEX
8
FRAESEN
10
76
20
160
30
0.0
0
VERTEX
8
FRAESEN
10
78
20
160
30
0.0
0
VERTEX
8
FRAESEN
10
78
20
182
30
0.0
0
VERTEX
8
FRAESEN
10
76
20
182
30
0.0
0
SEQEND
0
POLYLINE
8
FRAESEN
66
1
70
1
0
VERTEX
8
FRAESEN
10
12
20
162
30
0.0
0
VERTEX
8
FRAESEN
10
16
20
162
30
0.0
0
VERTEX
8
FRAESEN
10
16
20
180
30
0.0
0
VERTEX
8
FRAESEN
10
12
20
180
30
0.0
0
SEQEND
0
POLYLINE
8
FRAESEN
66
1
70
1
0
VERTEX
8
FRAESEN
10
20
20
176
30
0.0
0
VERTEX
8
FRAESEN
10
46
20
176
30
0.0
0
VERTEX
8
FRAESEN
10
46
20
180
30
0.0
0
VERTEX
8
FRAESEN
10
20
20
180
30
0.0
0
SEQEND
0
POLYLINE
8
FRAESEN
66
1
70
1
0
VERTEX
8
FRAESEN
10
62
20
166
30
0.0
0
VERTEX
8
FRAESEN
10
64
20
166
30
0.0
0
VERTEX
8
FRAESEN
10
64
20
180
30
0.0
0
VERTEX
8
FRAESEN
10
62
20
180
30
0.0
0
SEQEND
0
POLYLINE
8
FRAESEN
66
1
70
1
0
VERTEX
8
FRAESEN
10
88
20
170
30
0.0
0
VERTEX
8
FRAESEN
10
92
20
170
30
0.0
0
VERTEX
8
FRAESEN
10
92
20
180
30
0.0
0
VERTEX
8
FRAESEN
10
88
20
180
30
0.0
0
SEQEND
0
POLYLINE
8
FRAESEN
66
1
70
1
0
VERTEX
8
FRAESEN
10
114
20
170
30
0.0
0
VERTEX
8
FRAESEN
10
118
20
170
30
0.0
0
VERTEX
8
FRAESEN
10
118
20
180
30
0.0
0
VERTEX
8
FRAESEN
10
114
20
180
30
0.0
0
SEQEND
0
POLYLINE
8
FRAESEN
66
1
70
1
0
VERTEX
8
FRAESEN
10
130
20
158
30
0.0
0
VERTEX
8
FRAESEN
10
132
20
158
30
0.0
0
VERTEX
8
FRAESEN
10
132
20
180
30
0.0
0
VERTEX
8
FRAESEN
10
130
20
180
30
0.0
0
SEQEND
0
POLYLINE
8
FRAESEN
66
1
70
1
0
VERTEX
8
FRAESEN
10
78
20
176
30
0.0
0
VERTEX
8
FRAESEN
10
82
20
176
30
0.0
0
VERTEX
8
FRAESEN
10
82
20
178
30
0.0
0
VERTEX
8
FRAESEN
10
78
20
178
30
0.0
0
SEQEND
0
POLYLINE
8
FRAESEN
66
1
70
1
0
VERTEX
8
FRAESEN
10
96
20
176
30
0.0
0
VERTEX
8
FRAESEN
10
114
20
176
30
0.0
0
VERTEX
8
FRAESEN
10
114
20
178
30
0.0
0
VERTEX
8
FRAESEN
10
96
20
178
30
0.0
0
SEQEND
0
POLYLINE
8
FRAESEN
66
1
70
1
0
VERTEX
8
FRAESEN
10
20
20
174
30
0.0
0
VERTEX
8
FRAESEN
10
28
20
174
30
0.0
0
VERTEX
8
FRAESEN
10
28
20
176
30
0.0
0
VERTEX
8
FRAESEN
10
20
20
176
30
0.0
0
SEQEND
0
POLYLINE
8
FRAESEN
66
1
70
1
0
VERTEX
8
FRAESEN
10
94
20
170
30
0.0
0
VERTEX
8
FRAESEN
10
98
20
170
30
0.0
0
VERTEX
8
FRAESEN
10
98
20
176
30
0.0
0
VERTEX
8
FRAESEN
10
94
20
176
30
0.0
0
SEQEND
0
POLYLINE
8
FRAESEN
66
1
70
1
0
VERTEX
8
FRAESEN
10
104
20
174
30
0.0
0
VERTEX
8
FRAESEN
10
112
20
174
30
0.0
0
VERTEX
8
FRAESEN
10
112
20
176
30
0.0
0
VERTEX
8
FRAESEN
10
104
20
176
30
0.0
0
SEQEND
0
POLYLINE
8
FRAESEN
66
1
70
1
0
VERTEX
8
FRAESEN
10
18
20
160
30
0.0
0
VERTEX
8
FRAESEN
10
22
20
160
30
0.0
0
VERTEX
8
FRAESEN
10
22
20
174
30
0.0
0
VERTEX
8
FRAESEN
10
18
20
174
30
0.0
0
SEQEND
0
POLYLINE
8
FRAESEN
66
1
70
1
0
VERTEX
8
FRAESEN
10
24
20
166
30
0.0
0
VERTEX
8
FRAESEN
10
28
20
166
30
0.0
0
VERTEX
8
FRAESEN
10
28
20
174
30
0.0
0
VERTEX
8
FRAESEN
10
24
20
174
30
0.0
0
SEQEND
0
POLYLINE
8
FRAESEN
66
1
70
1
0
VERTEX
8
FRAESEN
10
68
20
104
30
0.0
0
VERTEX
8
FRAESEN
10
70
20
104
30
0.0
0
VERTEX
8
FRAESEN
10
70
20
174
30
0.0
0
VERTEX
8
FRAESEN
10
68
20
174
30
0.0
0
SEQEND
0
POLYLINE
8
FRAESEN
66
1
70
1
0
VERTEX
8
FRAESEN
10
92
20
170
30
0.0
0
VERTEX
8
FRAESEN
10
94
20
170
30
0.0
0
VERTEX
8
FRAESEN
10
94
20
174
30
0.0
0
VERTEX
8
FRAESEN
10
92
20
174
30
0.0
0
SEQEND
0
POLYLINE
8
FRAESEN
66
1
70
1
0
VERTEX
8
FRAESEN
10
104
20
164
30
0.0
0
VERTEX
8
FRAESEN
10
106
20
164
30
0.0
0
VERTEX
8
FRAESEN
10
106
20
174
30
0.0
0
VERTEX
8
FRAESEN
10
104
20
174
30
0.0
0
SEQEND
0
POLYLINE
8
FRAESEN
66
1
70
1
0
VERTEX
8
FRAESEN
10
108
20
160
30
0.0
0
VERTEX
8
FRAESEN
10
112
20
160
30
0.0
0
VERTEX
8
FRAESEN
10
112
20
174
30
0.0
0
VERTEX
8
FRAESEN
10
108
20
174
30
0.0
0
SEQEND
0
POLYLINE
8
FRAESEN
66
1
70
1
0
VERTEX
8
FRAESEN
10
86
20
170
30
0.0
0
VERTEX
8
FRAESEN
10
88
20
170
30
0.0
0
VERTEX
8
FRAESEN
10
88
20
172
30
0.0
0
VERTEX
8
FRAESEN
10
86
20
172
30
0.0
0
SEQEND
0
POLYLINE
8
FRAESEN
66
1
70
1
0
VERTEX
8
FRAESEN
10
98
20
170
30
0.0
0
VERTEX
8
FRAESEN
10
104
20
170
30
0.0
0
VERTEX
8
FRAESEN
10
104
20
172
30
0.0
0
VERTEX
8
FRAESEN
10
98
20
172
30
0.0
0
SEQEND
0
POLYLINE
8
FRAESEN
66
1
70
1
0
VERTEX
8
FRAESEN
10
120
20
158
30
0.0
0
VERTEX
8
FRAESEN
10
122
20
158
30
0.0
0
VERTEX
8
FRAESEN
10
122
20
172
30
0.0
0
VERTEX
8
FRAESEN
10
120
20
172
30
0.0
0
SEQEND
0
POLYLINE
8
FRAESEN
66
1
70
1
0
VERTEX
8
FRAESEN
10
28
20
166
30
0.0
0
VERTEX
8
FRAESEN
10
62
20
166
30
0.0
0
VERTEX
8
FRAESEN
10
62
20
170
30
0.0
0
VERTEX
8
FRAESEN
10
28
20
170
30
0.0
0
SEQEND
0
POLYLINE
8
FRAESEN
66
1
70
1
0
VERTEX
8
FRAESEN
10
74
20
160
30
0.0
0
VERTEX
8
FRAESEN
10
76
20
160
30
0.0
0
VERTEX
8
FRAESEN
10
76
20
170
30
0.0
0
VERTEX
8
FRAESEN
10
74
20
170
30
0.0
0
SEQEND
0
POLYLINE
8
FRAESEN
66
1
70
1
0
VERTEX
8
FRAESEN
10
102
20
164
30
0.0
0
VERTEX
8
FRAESEN
10
104
20
164
30
0.0
0
VERTEX
8
FRAESEN
10
104
20
170
30
0.0
0
VERTEX
8
FRAESEN
10
102
20
170
30
0.0
0
SEQEND
0
POLYLINE
8
FRAESEN
66
1
70
1
0
VERTEX
8
FRAESEN
10
114
20
158
30
0.0
0
VERTEX
8
FRAESEN
10
116
20
158
30
0.0
0
VERTEX
8
FRAESEN
10
116
20
170
30
0.0
0
VERTEX
8
FRAESEN
10
114
20
170
30
0.0
0
SEQEND
0
POLYLINE
8
FRAESEN
66
1
70
1
0
VERTEX
8
FRAESEN
10
10
20
166
30
0.0
0
VERTEX
8
FRAESEN
10
12
20
166
30
0.0
0
VERTEX
8
FRAESEN
10
12
20
168
30
0.0
0
VERTEX
8
FRAESEN
10
10
20
168
30
0.0
0
SEQEND
0
POLYLINE
8
FRAESEN
66
1
70
1
0
VERTEX
8
FRAESEN
10
86
20
164
30
0.0
0
VERTEX
8
FRAESEN
10
102
20
164
30
0.0
0
VERTEX
8
FRAESEN
10
102
20
168
30
0.0
0
VERTEX
8
FRAESEN
10
86
20
168
30
0.0
0
SEQEND
0
POLYLINE
8
FRAESEN
66
1
70
1
0
VERTEX
8
FRAESEN
10
22
20
160
30
0.0
0
VERTEX
8
FRAESEN
10
68
20
160
30
0.0
0
VERTEX
8
FRAESEN
10
68
20
164
30
0.0
0
VERTEX
8
FRAESEN
10
22
20
164
30
0.0
0
SEQEND
0
POLYLINE
8
FRAESEN
66
1
70
1
0
VERTEX
8
FRAESEN
10
12
20
128
30
0.0
0
VERTEX
8
FRAESEN
10
14
20
128
30
0.0
0
VERTEX
8
FRAESEN
10
14
20
162
30
0.0
0
VERTEX
8
FRAESEN
10
12
20
162
30
0.0
0
SEQEND
0
POLYLINE
8
FRAESEN
66
1
70
1
0
VERTEX
8
FRAESEN
10
72
20
160
30
0.0
0
VERTEX
8
FRAESEN
10
74
20
160
30
0.0
0
VERTEX
8
FRAESEN
10
74
20
162
30
0.0
0
VERTEX
8
FRAESEN
10
72
20
162
30
0.0
0
SEQEND
0
POLYLINE
8
FRAESEN
66
1
70
1
0
VERTEX
8
FRAESEN
10
78
20
160
30
0.0
0
VERTEX
8
FRAESEN
10
82
20
160
30
0.0
0
VERTEX
8
FRAESEN
10
82
20
162
30
0.0
0
VERTEX
8
FRAESEN
10
78
20
162
30
0.0
0
SEQEND
0
POLYLINE
8
FRAESEN
66
1
70
1
0
VERTEX
8
FRAESEN
10
84
20
160
30
0.0
0
VERTEX
8
FRAESEN
10
108
20
160
30
0.0
0
VERTEX
8
FRAESEN
10
108
20
162
30
0.0
0
VERTEX
8
FRAESEN
10
84
20
162
30
0.0
0
SEQEND
0
POLYLINE
8
FRAESEN
66
1
70
1
0
VERTEX
8
FRAESEN
10
116
20
158
30
0.0
0
VERTEX
8
FRAESEN
10
120
20
158
30
0.0
0
VERTEX
8
FRAESEN
10
120
20
162
30
0.0
0
VERTEX
8
FRAESEN
10
116
20
162
30
0.0
0
SEQEND
0
POLYLINE
8
FRAESEN
66
1
70
1
0
VERTEX
8
FRAESEN
10
122
20
158
30
0.0
0
VERTEX
8
FRAESEN
10
126
20
158
30
0.0
0
VERTEX
8
FRAESEN
10
126
20
162
30
0.0
0
VERTEX
8
FRAESEN
10
122
20
162
30
0.0
0
SEQEND
0
POLYLINE
8
FRAESEN
66
1
70
1
0
VERTEX
8
FRAESEN
10
128
20
158
30
0.0
0
VERTEX
8
FRAESEN
10
130
20
158
30
0.0
0
VERTEX
8
FRAESEN
10
130
20
162
30
0.0
0
VERTEX
8
FRAESEN
10
128
20
162
30
0.0
0
SEQEND
0
POLYLINE
8
FRAESEN
66
1
70
1
0
VERTEX
8
FRAESEN
10
90
20
158
30
0.0
0
VERTEX
8
FRAESEN
10
110
20
158
30
0.0
0
VERTEX
8
FRAESEN
10
110
20
160
30
0.0
0
VERTEX
8
FRAESEN
10
90
20
160
30
0.0
0
SEQEND
0
POLYLINE
8
FRAESEN
66
1
70
1
0
VERTEX
8
FRAESEN
10
4
20
104
30
0.0
0
VERTEX
8
FRAESEN
10
6
20
104
30
0.0
0
VERTEX
8
FRAESEN
10
6
20
158
30
0.0
0
VERTEX
8
FRAESEN
10
4
20
158
30
0.0
0
SEQEND
0
POLYLINE
8
FRAESEN
66
1
70
1
0
VERTEX
8
FRAESEN
10
8
20
156
30
0.0
0
VERTEX
8
FRAESEN
10
10
20
156
30
0.0
0
VERTEX
8
FRAESEN
10
10
20
158
30
0.0
0
VERTEX
8
FRAESEN
10
8
20
158
30
0.0
0
SEQEND
0
POLYLINE
8
FRAESEN
66
1
70
1
0
VERTEX
8
FRAESEN
10
14
20
154
30
0.0
0
VERTEX
8
FRAESEN
10
16
20
154
30
0.0
0
VERTEX
8
FRAESEN
10
16
20
158
30
0.0
0
VERTEX
8
FRAESEN
10
14
20
158
30
0.0
0
SEQEND
0
POLYLINE
8
FRAESEN
66
1
70
1
0
VERTEX
8
FRAESEN
10
18
20
154
30
0.0
0
VERTEX
8
FRAESEN
10
26
20
154
30
0.0
0
VERTEX
8
FRAESEN
10
26
20
158
30
0.0
0
VERTEX
8
FRAESEN
10
18
20
158
30
0.0
0
SEQEND
0
POLYLINE
8
FRAESEN
66
1
70
1
0
VERTEX
8
FRAESEN
10
28
20
154
30
0.0
0
VERTEX
8
FRAESEN
10
66
20
154
30
0.0
0
VERTEX
8
FRAESEN
10
66
20
158
30
0.0
0
VERTEX
8
FRAESEN
10
28
20
158
30
0.0
0
SEQEND
0
POLYLINE
8
FRAESEN
66
1
70
1
0
VERTEX
8
FRAESEN
10
18
20
124
30
0.0
0
VERTEX
8
FRAESEN
10
20
20
124
30
0.0
0
VERTEX
8
FRAESEN
10
20
20
154
30
0.0
0
VERTEX
8
FRAESEN
10
18
20
154
30
0.0
0
SEQEND
0
POLYLINE
8
FRAESEN
66
1
70
1
0
VERTEX
8
FRAESEN
10
24
20
142
30
0.0
0
VERTEX
8
FRAESEN
10
26
20
142
30
0.0
0
VERTEX
8
FRAESEN
10
26
20
154
30
0.0
0
VERTEX
8
FRAESEN
10
24
20
154
30
0.0
0
SEQEND
0
POLYLINE
8
FRAESEN
66
1
70
1
0
VERTEX
8
FRAESEN
10
28
20
132
30
0.0
0
VERTEX
8
FRAESEN
10
32
20
132
30
0.0
0
VERTEX
8
FRAESEN
10
32
20
154
30
0.0
0
VERTEX
8
FRAESEN
10
28
20
154
30
0.0
0
SEQEND
0
POLYLINE
8
FRAESEN
66
1
70
1
0
VERTEX
8
FRAESEN
10
62
20
116
30
0.0
0
VERTEX
8
FRAESEN
10
64
20
116
30
0.0
0
VERTEX
8
FRAESEN
10
64
20
154
30
0.0
0
VERTEX
8
FRAESEN
10
62
20
154
30
0.0
0
SEQEND
0
POLYLINE
8
FRAESEN
66
1
70
1
0
VERTEX
8
FRAESEN
10
22
20
122
30
0.0
0
VERTEX
8
FRAESEN
10
24
20
122
30
0.0
0
VERTEX
8
FRAESEN
10
24
20
152
30
0.0
0
VERTEX
8
FRAESEN
10
22
20
152
30
0.0
0
SEQEND
0
POLYLINE
8
FRAESEN
66
1
70
1
0
VERTEX
8
FRAESEN
10
32
20
150
30
0.0
0
VERTEX
8
FRAESEN
10
60
20
150
30
0.0
0
VERTEX
8
FRAESEN
10
60
20
152
30
0.0
0
VERTEX
8
FRAESEN
10
32
20
152
30
0.0
0
SEQEND
0
POLYLINE
8
FRAESEN
66
1
70
1
0
VERTEX
8
FRAESEN
10
10
20
122
30
0.0
0
VERTEX
8
FRAESEN
10
12
20
122
30
0.0
0
VERTEX
8
FRAESEN
10
12
20
150
30
0.0
0
VERTEX
8
FRAESEN
10
10
20
150
30
0.0
0
SEQEND
0
POLYLINE
8
FRAESEN
66
1
70
1
0
VERTEX
8
FRAESEN
10
16
20
110
30
0.0
0
VERTEX
8
FRAESEN
10
18
20
110
30
0.0
0
VERTEX
8
FRAESEN
10
18
20
150
30
0.0
0
VERTEX
8
FRAESEN
10
16
20
150
30
0.0
0
SEQEND
0
POLYLINE
8
FRAESEN
66
1
70
1
0
VERTEX
8
FRAESEN
10
38
20
148
30
0.0
0
VERTEX
8
FRAESEN
10
58
20
148
30
0.0
0
VERTEX
8
FRAESEN
10
58
20
150
30
0.0
0
VERTEX
8
FRAESEN
10
38
20
150
30
0.0
0
SEQEND
0
POLYLINE
8
FRAESEN
66
1
70
1
0
VERTEX
8
FRAESEN
10
20
20
138
30
0.0
0
VERTEX
8
FRAESEN
10
22
20
138
30
0.0
0
VERTEX
8
FRAESEN
10
22
20
146
30
0.0
0
VERTEX
8
FRAESEN
10
20
20
146
30
0.0
0
SEQEND
0
POLYLINE
8
FRAESEN
66
1
70
1
0
VERTEX
8
FRAESEN
10
26
20
142
30
0.0
0
VERTEX
8
FRAESEN
10
28
20
142
30
0.0
0
VERTEX
8
FRAESEN
10
28
20
146
30
0.0
0
VERTEX
8
FRAESEN
10
26
20
146
30
0.0
0
SEQEND
0
POLYLINE
8
FRAESEN
66
1
70
1
0
VERTEX
8
FRAESEN
10
36
20
142
30
0.0
0
VERTEX
8
FRAESEN
10
62
20
142
30
0.0
0
VERTEX
8
FRAESEN
10
62
20
146
30
0.0
0
VERTEX
8
FRAESEN
10
36
20
146
30
0.0
0
SEQEND
0
POLYLINE
8
FRAESEN
66
1
70
1
0
VERTEX
8
FRAESEN
10
60
20
116
30
0.0
0
VERTEX
8
FRAESEN
10
62
20
116
30
0.0
0
VERTEX
8
FRAESEN
10
62
20
142
30
0.0
0
VERTEX
8
FRAESEN
10
60
20
142
30
0.0
0
SEQEND
0
POLYLINE
8
FRAESEN
66
1
70
1
0
VERTEX
8
FRAESEN
10
34
20
138
30
0.0
0
VERTEX
8
FRAESEN
10
52
20
138
30
0.0
0
VERTEX
8
FRAESEN
10
52
20
140
30
0.0
0
VERTEX
8
FRAESEN
10
34
20
140
30
0.0
0
SEQEND
0
POLYLINE
8
FRAESEN
66
1
70
1
0
VERTEX
8
FRAESEN
10
54
20
122
30
0.0
0
VERTEX
8
FRAESEN
10
58
20
122
30
0.0
0
VERTEX
8
FRAESEN
10
58
20
140
30
0.0
0
VERTEX
8
FRAESEN
10
54
20
140
30
0.0
0
SEQEND
0
POLYLINE
8
FRAESEN
66
1
70
1
0
VERTEX
8
FRAESEN
10
66
20
104
30
0.0
0
VERTEX
8
FRAESEN
10
68
20
104
30
0.0
0
VERTEX
8
FRAESEN
10
68
20
140
30
0.0
0
VERTEX
8
FRAESEN
10
66
20
140
30
0.0
0
SEQEND
0
POLYLINE
8
FRAESEN
66
1
70
1
0
VERTEX
8
FRAESEN
10
34
20
136
30
0.0
0
VERTEX
8
FRAESEN
10
40
20
136
30
0.0
0
VERTEX
8
FRAESEN
10
40
20
138
30
0.0
0
VERTEX
8
FRAESEN
10
34
20
138
30
0.0
0
SEQEND
0
POLYLINE
8
FRAESEN
66
1
70
1
0
VERTEX
8
FRAESEN
10
48
20
136
30
0.0
0
VERTEX
8
FRAESEN
10
52
20
136
30
0.0
0
VERTEX
8
FRAESEN
10
52
20
138
30
0.0
0
VERTEX
8
FRAESEN
10
48
20
138
30
0.0
0
SEQEND
0
POLYLINE
8
FRAESEN
66
1
70
1
0
VERTEX
8
FRAESEN
10
32
20
132
30
0.0
0
VERTEX
8
FRAESEN
10
38
20
132
30
0.0
0
VERTEX
8
FRAESEN
10
38
20
136
30
0.0
0
VERTEX
8
FRAESEN
10
32
20
136
30
0.0
0
SEQEND
0
POLYLINE
8
FRAESEN
66
1
70
1
0
VERTEX
8
FRAESEN
10
20
20
126
30
0.0
0
VERTEX
8
FRAESEN
10
22
20
126
30
0.0
0
VERTEX
8
FRAESEN
10
22
20
134
30
0.0
0
VERTEX
8
FRAESEN
10
20
20
134
30
0.0
0
SEQEND
0
POLYLINE
8
FRAESEN
66
1
70
1
0
VERTEX
8
FRAESEN
10
38
20
132
30
0.0
0
VERTEX
8
FRAESEN
10
52
20
132
30
0.0
0
VERTEX
8
FRAESEN
10
52
20
134
30
0.0
0
VERTEX
8
FRAESEN
10
38
20
134
30
0.0
0
SEQEND
0
POLYLINE
8
FRAESEN
66
1
70
1
0
VERTEX
8
FRAESEN
10
50
20
122
30
0.0
0
VERTEX
8
FRAESEN
10
52
20
122
30
0.0
0
VERTEX
8
FRAESEN
10
52
20
132
30
0.0
0
VERTEX
8
FRAESEN
10
50
20
132
30
0.0
0
SEQEND
0
POLYLINE
8
FRAESEN
66
1
70
1
0
VERTEX
8
FRAESEN
10
28
20
122
30
0.0
0
VERTEX
8
FRAESEN
10
50
20
122
30
0.0
0
VERTEX
8
FRAESEN
10
50
20
130
30
0.0
0
VERTEX
8
FRAESEN
10
28
20
130
30
0.0
0
SEQEND
0
POLYLINE
8
FRAESEN
66
1
70
1
0
VERTEX
8
FRAESEN
10
26
20
122
30
0.0
0
VERTEX
8
FRAESEN
10
28
20
122
30
0.0
0
VERTEX
8
FRAESEN
10
28
20
128
30
0.0
0
VERTEX
8
FRAESEN
10
26
20
128
30
0.0
0
SEQEND
0
POLYLINE
8
FRAESEN
66
1
70
1
0
VERTEX
8
FRAESEN
10
6
20
122
30
0.0
0
VERTEX
8
FRAESEN
10
8
20
122
30
0.0
0
VERTEX
8
FRAESEN
10
8
20
126
30
0.0
0
VERTEX
8
FRAESEN
10
6
20
126
30
0.0
0
SEQEND
0
POLYLINE
8
FRAESEN
66
1
70
1
0
VERTEX
8
FRAESEN
10
24
20
122
30
0.0
0
VERTEX
8
FRAESEN
10
26
20
122
30
0.0
0
VERTEX
8
FRAESEN
10
26
20
126
30
0.0
0
VERTEX
8
FRAESEN
10
24
20
126
30
0.0
0
SEQEND
0
POLYLINE
8
FRAESEN
66
1
70
1
0
VERTEX
8
FRAESEN
10
8
20
122
30
0.0
0
VERTEX
8
FRAESEN
10
10
20
122
30
0.0
0
VERTEX
8
FRAESEN
10
10
20
124
30
0.0
0
VERTEX
8
FRAESEN
10
8
20
124
30
0.0
0
SEQEND
0
POLYLINE
8
FRAESEN
66
1
70
1
0
VERTEX
8
FRAESEN
10
20
20
122
30
0.0
0
VERTEX
8
FRAESEN
10
22
20
122
30
0.0
0
VERTEX
8
FRAESEN
10
22
20
124
30
0.0
0
VERTEX
8
FRAESEN
10
20
20
124
30
0.0
0
SEQEND
0
POLYLINE
8
FRAESEN
66
1
70
1
0
VERTEX
8
FRAESEN
10
52
20
122
30
0.0
0
VERTEX
8
FRAESEN
10
54
20
122
30
0.0
0
VERTEX
8
FRAESEN
10
54
20
124
30
0.0
0
VERTEX
8
FRAESEN
10
52
20
124
30
0.0
0
SEQEND
0
POLYLINE
8
FRAESEN
66
1
70
1
0
VERTEX
8
FRAESEN
10
6
20
116
30
0.0
0
VERTEX
8
FRAESEN
10
12
20
116
30
0.0
0
VERTEX
8
FRAESEN
10
12
20
120
30
0.0
0
VERTEX
8
FRAESEN
10
6
20
120
30
0.0
0
SEQEND
0
POLYLINE
8
FRAESEN
66
1
70
1
0
VERTEX
8
FRAESEN
10
14
20
116
30
0.0
0
VERTEX
8
FRAESEN
10
16
20
116
30
0.0
0
VERTEX
8
FRAESEN
10
16
20
120
30
0.0
0
VERTEX
8
FRAESEN
10
14
20
120
30
0.0
0
SEQEND
0
POLYLINE
8
FRAESEN
66
1
70
1
0
VERTEX
8
FRAESEN
10
18
20
116
30
0.0
0
VERTEX
8
FRAESEN
10
24
20
116
30
0.0
0
VERTEX
8
FRAESEN
10
24
20
120
30
0.0
0
VERTEX
8
FRAESEN
10
18
20
120
30
0.0
0
SEQEND
0
POLYLINE
8
FRAESEN
66
1
70
1
0
VERTEX
8
FRAESEN
10
26
20
116
30
0.0
0
VERTEX
8
FRAESEN
10
34
20
116
30
0.0
0
VERTEX
8
FRAESEN
10
34
20
120
30
0.0
0
VERTEX
8
FRAESEN
10
26
20
120
30
0.0
0
SEQEND
0
POLYLINE
8
FRAESEN
66
1
70
1
0
VERTEX
8
FRAESEN
10
38
20
118
30
0.0
0
VERTEX
8
FRAESEN
10
60
20
118
30
0.0
0
VERTEX
8
FRAESEN
10
60
20
120
30
0.0
0
VERTEX
8
FRAESEN
10
38
20
120
30
0.0
0
SEQEND
0
POLYLINE
8
FRAESEN
66
1
70
1
0
VERTEX
8
FRAESEN
10
38
20
104
30
0.0
0
VERTEX
8
FRAESEN
10
40
20
104
30
0.0
0
VERTEX
8
FRAESEN
10
40
20
118
30
0.0
0
VERTEX
8
FRAESEN
10
38
20
118
30
0.0
0
SEQEND
0
POLYLINE
8
FRAESEN
66
1
70
1
0
VERTEX
8
FRAESEN
10
42
20
116
30
0.0
0
VERTEX
8
FRAESEN
10
60
20
116
30
0.0
0
VERTEX
8
FRAESEN
10
60
20
118
30
0.0
0
VERTEX
8
FRAESEN
10
42
20
118
30
0.0
0
SEQEND
0
POLYLINE
8
FRAESEN
66
1
70
1
0
VERTEX
8
FRAESEN
10
20
20
110
30
0.0
0
VERTEX
8
FRAESEN
10
24
20
110
30
0.0
0
VERTEX
8
FRAESEN
10
24
20
116
30
0.0
0
VERTEX
8
FRAESEN
10
20
20
116
30
0.0
0
SEQEND
0
POLYLINE
8
FRAESEN
66
1
70
1
0
VERTEX
8
FRAESEN
10
26
20
110
30
0.0
0
VERTEX
8
FRAESEN
10
30
20
110
30
0.0
0
VERTEX
8
FRAESEN
10
30
20
116
30
0.0
0
VERTEX
8
FRAESEN
10
26
20
116
30
0.0
0
SEQEND
0
POLYLINE
8
FRAESEN
66
1
70
1
0
VERTEX
8
FRAESEN
10
32
20
104
30
0.0
0
VERTEX
8
FRAESEN
10
34
20
104
30
0.0
0
VERTEX
8
FRAESEN
10
34
20
116
30
0.0
0
VERTEX
8
FRAESEN
10
32
20
116
30
0.0
0
SEQEND
0
POLYLINE
8
FRAESEN
66
1
70
1
0
VERTEX
8
FRAESEN
10
42
20
110
30
0.0
0
VERTEX
8
FRAESEN
10
44
20
110
30
0.0
0
VERTEX
8
FRAESEN
10
44
20
116
30
0.0
0
VERTEX
8
FRAESEN
10
42
20
116
30
0.0
0
SEQEND
0
POLYLINE
8
FRAESEN
66
1
70
1
0
VERTEX
8
FRAESEN
10
6
20
110
30
0.0
0
VERTEX
8
FRAESEN
10
16
20
110
30
0.0
0
VERTEX
8
FRAESEN
10
16
20
114
30
0.0
0
VERTEX
8
FRAESEN
10
6
20
114
30
0.0
0
SEQEND
0
POLYLINE
8
FRAESEN
66
1
70
1
0
VERTEX
8
FRAESEN
10
18
20
110
30
0.0
0
VERTEX
8
FRAESEN
10
20
20
110
30
0.0
0
VERTEX
8
FRAESEN
10
20
20
114
30
0.0
0
VERTEX
8
FRAESEN
10
18
20
114
30
0.0
0
SEQEND
0
POLYLINE
8
FRAESEN
66
1
70
1
0
VERTEX
8
FRAESEN
10
44
20
110
30
0.0
0
VERTEX
8
FRAESEN
10
66
20
110
30
0.0
0
VERTEX
8
FRAESEN
10
66
20
114
30
0.0
0
VERTEX
8
FRAESEN
10
44
20
114
30
0.0
0
SEQEND
0
POLYLINE
8
FRAESEN
66
1
70
1
0
VERTEX
8
FRAESEN
10
36
20
104
30
0.0
0
VERTEX
8
FRAESEN
10
38
20
104
30
0.0
0
VERTEX
8
FRAESEN
10
38
20
112
30
0.0
0
VERTEX
8
FRAESEN
10
36
20
112
30
0.0
0
SEQEND
0
POLYLINE
8
FRAESEN
66
1
70
1
0
VERTEX
8
FRAESEN
10
2
20
104
30
0.0
0
VERTEX
8
FRAESEN
10
4
20
104
30
0.0
0
VERTEX
8
FRAESEN
10
4
20
108
30
0.0
0
VERTEX
8
FRAESEN
10
2
20
108
30
0.0
0
SEQEND
0
POLYLINE
8
FRAESEN
66
1
70
1
0
VERTEX
8
FRAESEN
10
6
20
106
30
0.0
0
VERTEX
8
FRAESEN
10
32
20
106
30
0.0
0
VERTEX
8
FRAESEN
10
32
20
108
30
0.0
0
VERTEX
8
FRAESEN
10
6
20
108
30
0.0
0
SEQEND
0
POLYLINE
8
FRAESEN
66
1
70
1
0
VERTEX
8
FRAESEN
10
34
20
104
30
0.0
0
VERTEX
8
FRAESEN
10
36
20
104
30
0.0
0
VERTEX
8
FRAESEN
10
36
20
108
30
0.0
0
VERTEX
8
FRAESEN
10
34
20
108
30
0.0
0
SEQEND
0
POLYLINE
8
FRAESEN
66
1
70
1
0
VERTEX
8
FRAESEN
10
40
20
104
30
0.0
0
VERTEX
8
FRAESEN
10
66
20
104
30
0.0
0
VERTEX
8
FRAESEN
10
66
20
108
30
0.0
0
VERTEX
8
FRAESEN
10
40
20
108
30
0.0
0
SEQEND
0
POLYLINE
8
FRAESEN
66
1
70
1
0
VERTEX
8
FRAESEN
10
12
20
104
30
0.0
0
VERTEX
8
FRAESEN
10
32
20
104
30
0.0
0
VERTEX
8
FRAESEN
10
32
20
106
30
0.0
0
VERTEX
8
FRAESEN
10
12
20
106
30
0.0
0
SEQEND
0
POLYLINE
8
FRAESEN
66
1
70
1
0
VERTEX
8
FRAESEN
10
42
20
92
30
0.0
0
VERTEX
8
FRAESEN
10
44
20
92
30
0.0
0
VERTEX
8
FRAESEN
10
44
20
104
30
0.0
0
VERTEX
8
FRAESEN
10
42
20
104
30
0.0
0
SEQEND
0
POLYLINE
8
FRAESEN
66
1
70
1
0
VERTEX
8
FRAESEN
10
26
20
98
30
0.0
0
VERTEX
8
FRAESEN
10
42
20
98
30
0.0
0
VERTEX
8
FRAESEN
10
42
20
102
30
0.0
0
VERTEX
8
FRAESEN
10
26
20
102
30
0.0
0
SEQEND
0
POLYLINE
8
FRAESEN
66
1
70
1
0
VERTEX
8
FRAESEN
10
26
20
92
30
0.0
0
VERTEX
8
FRAESEN
10
30
20
92
30
0.0
0
VERTEX
8
FRAESEN
10
30
20
98
30
0.0
0
VERTEX
8
FRAESEN
10
26
20
98
30
0.0
0
SEQEND
0
POLYLINE
8
FRAESEN
66
1
70
1
0
VERTEX
8
FRAESEN
10
40
20
92
30
0.0
0
VERTEX
8
FRAESEN
10
42
20
92
30
0.0
0
VERTEX
8
FRAESEN
10
42
20
98
30
0.0
0
VERTEX
8
FRAESEN
10
40
20
98
30
0.0
0
SEQEND
0
POLYLINE
8
FRAESEN
66
1
70
1
0
VERTEX
8
FRAESEN
10
30
20
94
30
0.0
0
VERTEX
8
FRAESEN
10
40
20
94
30
0.0
0
VERTEX
8
FRAESEN
10
40
20
96
30
0.0
0
VERTEX
8
FRAESEN
10
30
20
96
30
0.0
0
SEQEND
0
POLYLINE
8
FRAESEN
66
1
70
1
0
VERTEX
8
FRAESEN
10
32
20
92
30
0.0
0
VERTEX
8
FRAESEN
10
40
20
92
30
0.0
0
VERTEX
8
FRAESEN
10
40
20
94
30
0.0
0
VERTEX
8
FRAESEN
10
32
20
94
30
0.0
0
SEQEND
0
POLYLINE
8
FRAESEN
66
1
70
1
0
VERTEX
8
FRAESEN
10
38
20
202
30
0.0
0
VERTEX
8
FRAESEN
10
40
20
202
30
0.0
0
VERTEX
8
FRAESEN
10
40
20
204
30
0.0
0
VERTEX
8
FRAESEN
10
38
20
204
30
0.0
0
SEQEND
0
POLYLINE
8
FRAESEN
66
1
70
1
0
VERTEX
8
FRAESEN
10
42
20
202
30
0.0
0
VERTEX
8
FRAESEN
10
50
20
202
30
0.0
0
VERTEX
8
FRAESEN
10
50
20
204
30
0.0
0
VERTEX
8
FRAESEN
10
42
20
204
30
0.0
0
SEQEND
0
POLYLINE
8
FRAESEN
66
1
70
1
0
VERTEX
8
FRAESEN
10
136
20
2
30
0.0
0
VERTEX
8
FRAESEN
10
138
20
2
30
0.0
0
VERTEX
8
FRAESEN
10
138
20
194
30
0.0
0
VERTEX
8
FRAESEN
10
136
20
194
30
0.0
0
SEQEND
0
POLYLINE
8
FRAESEN
66
1
70
1
0
VERTEX
8
FRAESEN
10
108
20
152
30
0.0
0
VERTEX
8
FRAESEN
10
134
20
152
30
0.0
0
VERTEX
8
FRAESEN
10
134
20
156
30
0.0
0
VERTEX
8
FRAESEN
10
108
20
156
30
0.0
0
SEQEND
0
POLYLINE
8
FRAESEN
66
1
70
1
0
VERTEX
8
FRAESEN
10
108
20
130
30
0.0
0
VERTEX
8
FRAESEN
10
110
20
130
30
0.0
0
VERTEX
8
FRAESEN
10
110
20
152
30
0.0
0
VERTEX
8
FRAESEN
10
108
20
152
30
0.0
0
SEQEND
0
POLYLINE
8
FRAESEN
66
1
70
1
0
VERTEX
8
FRAESEN
10
130
20
132
30
0.0
0
VERTEX
8
FRAESEN
10
134
20
132
30
0.0
0
VERTEX
8
FRAESEN
10
134
20
152
30
0.0
0
VERTEX
8
FRAESEN
10
130
20
152
30
0.0
0
SEQEND
0
POLYLINE
8
FRAESEN
66
1
70
1
0
VERTEX
8
FRAESEN
10
80
20
148
30
0.0
0
VERTEX
8
FRAESEN
10
100
20
148
30
0.0
0
VERTEX
8
FRAESEN
10
100
20
150
30
0.0
0
VERTEX
8
FRAESEN
10
80
20
150
30
0.0
0
SEQEND
0
POLYLINE
8
FRAESEN
66
1
70
1
0
VERTEX
8
FRAESEN
10
114
20
146
30
0.0
0
VERTEX
8
FRAESEN
10
128
20
146
30
0.0
0
VERTEX
8
FRAESEN
10
128
20
150
30
0.0
0
VERTEX
8
FRAESEN
10
114
20
150
30
0.0
0
SEQEND
0
POLYLINE
8
FRAESEN
66
1
70
1
0
VERTEX
8
FRAESEN
10
80
20
138
30
0.0
0
VERTEX
8
FRAESEN
10
84
20
138
30
0.0
0
VERTEX
8
FRAESEN
10
84
20
148
30
0.0
0
VERTEX
8
FRAESEN
10
80
20
148
30
0.0
0
SEQEND
0
POLYLINE
8
FRAESEN
66
1
70
1
0
VERTEX
8
FRAESEN
10
94
20
146
30
0.0
0
VERTEX
8
FRAESEN
10
100
20
146
30
0.0
0
VERTEX
8
FRAESEN
10
100
20
148
30
0.0
0
VERTEX
8
FRAESEN
10
94
20
148
30
0.0
0
SEQEND
0
POLYLINE
8
FRAESEN
66
1
70
1
0
VERTEX
8
FRAESEN
10
96
20
142
30
0.0
0
VERTEX
8
FRAESEN
10
100
20
142
30
0.0
0
VERTEX
8
FRAESEN
10
100
20
146
30
0.0
0
VERTEX
8
FRAESEN
10
96
20
146
30
0.0
0
SEQEND
0
POLYLINE
8
FRAESEN
66
1
70
1
0
VERTEX
8
FRAESEN
10
112
20
126
30
0.0
0
VERTEX
8
FRAESEN
10
116
20
126
30
0.0
0
VERTEX
8
FRAESEN
10
116
20
146
30
0.0
0
VERTEX
8
FRAESEN
10
112
20
146
30
0.0
0
SEQEND
0
POLYLINE
8
FRAESEN
66
1
70
1
0
VERTEX
8
FRAESEN
10
124
20
136
30
0.0
0
VERTEX
8
FRAESEN
10
128
20
136
30
0.0
0
VERTEX
8
FRAESEN
10
128
20
146
30
0.0
0
VERTEX
8
FRAESEN
10
124
20
146
30
0.0
0
SEQEND
0
POLYLINE
8
FRAESEN
66
1
70
1
0
VERTEX
8
FRAESEN
10
86
20
142
30
0.0
0
VERTEX
8
FRAESEN
10
96
20
142
30
0.0
0
VERTEX
8
FRAESEN
10
96
20
144
30
0.0
0
VERTEX
8
FRAESEN
10
86
20
144
30
0.0
0
SEQEND
0
POLYLINE
8
FRAESEN
66
1
70
1
0
VERTEX
8
FRAESEN
10
120
20
142
30
0.0
0
VERTEX
8
FRAESEN
10
124
20
142
30
0.0
0
VERTEX
8
FRAESEN
10
124
20
144
30
0.0
0
VERTEX
8
FRAESEN
10
120
20
144
30
0.0
0
SEQEND
0
POLYLINE
8
FRAESEN
66
1
70
1
0
VERTEX
8
FRAESEN
10
86
20
130
30
0.0
0
VERTEX
8
FRAESEN
10
88
20
130
30
0.0
0
VERTEX
8
FRAESEN
10
88
20
142
30
0.0
0
VERTEX
8
FRAESEN
10
86
20
142
30
0.0
0
SEQEND
0
POLYLINE
8
FRAESEN
66
1
70
1
0
VERTEX
8
FRAESEN
10
120
20
122
30
0.0
0
VERTEX
8
FRAESEN
10
122
20
122
30
0.0
0
VERTEX
8
FRAESEN
10
122
20
142
30
0.0
0
VERTEX
8
FRAESEN
10
120
20
142
30
0.0
0
SEQEND
0
POLYLINE
8
FRAESEN
66
1
70
1
0
VERTEX
8
FRAESEN
10
122
20
136
30
0.0
0
VERTEX
8
FRAESEN
10
124
20
136
30
0.0
0
VERTEX
8
FRAESEN
10
124
20
140
30
0.0
0
VERTEX
8
FRAESEN
10
122
20
140
30
0.0
0
SEQEND
0
POLYLINE
8
FRAESEN
66
1
70
1
0
VERTEX
8
FRAESEN
10
128
20
138
30
0.0
0
VERTEX
8
FRAESEN
10
130
20
138
30
0.0
0
VERTEX
8
FRAESEN
10
130
20
140
30
0.0
0
VERTEX
8
FRAESEN
10
128
20
140
30
0.0
0
SEQEND
0
POLYLINE
8
FRAESEN
66
1
70
1
0
VERTEX
8
FRAESEN
10
80
20
126
30
0.0
0
VERTEX
8
FRAESEN
10
82
20
126
30
0.0
0
VERTEX
8
FRAESEN
10
82
20
138
30
0.0
0
VERTEX
8
FRAESEN
10
80
20
138
30
0.0
0
SEQEND
0
POLYLINE
8
FRAESEN
66
1
70
1
0
VERTEX
8
FRAESEN
10
118
20
120
30
0.0
0
VERTEX
8
FRAESEN
10
120
20
120
30
0.0
0
VERTEX
8
FRAESEN
10
120
20
138
30
0.0
0
VERTEX
8
FRAESEN
10
118
20
138
30
0.0
0
SEQEND
0
POLYLINE
8
FRAESEN
66
1
70
1
0
VERTEX
8
FRAESEN
10
88
20
130
30
0.0
0
VERTEX
8
FRAESEN
10
108
20
130
30
0.0
0
VERTEX
8
FRAESEN
10
108
20
134
30
0.0
0
VERTEX
8
FRAESEN
10
88
20
134
30
0.0
0
SEQEND
0
POLYLINE
8
FRAESEN
66
1
70
1
0
VERTEX
8
FRAESEN
10
124
20
128
30
0.0
0
VERTEX
8
FRAESEN
10
128
20
128
30
0.0
0
VERTEX
8
FRAESEN
10
128
20
134
30
0.0
0
VERTEX
8
FRAESEN
10
124
20
134
30
0.0
0
SEQEND
0
POLYLINE
8
FRAESEN
66
1
70
1
0
VERTEX
8
FRAESEN
10
130
20
114
30
0.0
0
VERTEX
8
FRAESEN
10
132
20
114
30
0.0
0
VERTEX
8
FRAESEN
10
132
20
132
30
0.0
0
VERTEX
8
FRAESEN
10
130
20
132
30
0.0
0
SEQEND
0
POLYLINE
8
FRAESEN
66
1
70
1
0
VERTEX
8
FRAESEN
10
82
20
126
30
0.0
0
VERTEX
8
FRAESEN
10
112
20
126
30
0.0
0
VERTEX
8
FRAESEN
10
112
20
128
30
0.0
0
VERTEX
8
FRAESEN
10
82
20
128
30
0.0
0
SEQEND
0
POLYLINE
8
FRAESEN
66
1
70
1
0
VERTEX
8
FRAESEN
10
124
20
120
30
0.0
0
VERTEX
8
FRAESEN
10
126
20
120
30
0.0
0
VERTEX
8
FRAESEN
10
126
20
128
30
0.0
0
VERTEX
8
FRAESEN
10
124
20
128
30
0.0
0
SEQEND
0
POLYLINE
8
FRAESEN
66
1
70
1
0
VERTEX
8
FRAESEN
10
122
20
120
30
0.0
0
VERTEX
8
FRAESEN
10
124
20
120
30
0.0
0
VERTEX
8
FRAESEN
10
124
20
124
30
0.0
0
VERTEX
8
FRAESEN
10
122
20
124
30
0.0
0
SEQEND
0
POLYLINE
8
FRAESEN
66
1
70
1
0
VERTEX
8
FRAESEN
10
126
20
120
30
0.0
0
VERTEX
8
FRAESEN
10
128
20
120
30
0.0
0
VERTEX
8
FRAESEN
10
128
20
122
30
0.0
0
VERTEX
8
FRAESEN
10
126
20
122
30
0.0
0
SEQEND
0
POLYLINE
8
FRAESEN
66
1
70
1
0
VERTEX
8
FRAESEN
10
134
20
2
30
0.0
0
VERTEX
8
FRAESEN
10
136
20
2
30
0.0
0
VERTEX
8
FRAESEN
10
136
20
122
30
0.0
0
VERTEX
8
FRAESEN
10
134
20
122
30
0.0
0
SEQEND
0
POLYLINE
8
FRAESEN
66
1
70
1
0
VERTEX
8
FRAESEN
10
118
20
114
30
0.0
0
VERTEX
8
FRAESEN
10
130
20
114
30
0.0
0
VERTEX
8
FRAESEN
10
130
20
118
30
0.0
0
VERTEX
8
FRAESEN
10
118
20
118
30
0.0
0
SEQEND
0
POLYLINE
8
FRAESEN
66
1
70
1
0
VERTEX
8
FRAESEN
10
132
20
116
30
0.0
0
VERTEX
8
FRAESEN
10
134
20
116
30
0.0
0
VERTEX
8
FRAESEN
10
134
20
118
30
0.0
0
VERTEX
8
FRAESEN
10
132
20
118
30
0.0
0
SEQEND
0
POLYLINE
8
FRAESEN
66
1
70
1
0
VERTEX
8
FRAESEN
10
20
20
186
30
0.0
0
VERTEX
8
FRAESEN
10
38
20
186
30
0.0
0
VERTEX
8
FRAESEN
10
38
20
190
30
0.0
0
VERTEX
8
FRAESEN
10
20
20
190
30
0.0
0
SEQEND
0
POLYLINE
8
FRAESEN
66
1
70
1
0
VERTEX
8
FRAESEN
10
56
20
186
30
0.0
0
VERTEX
8
FRAESEN
10
62
20
186
30
0.0
0
VERTEX
8
FRAESEN
10
62
20
188
30
0.0
0
VERTEX
8
FRAESEN
10
56
20
188
30
0.0
0
SEQEND
0
POLYLINE
8
FRAESEN
66
1
70
1
0
VERTEX
8
FRAESEN
10
56
20
172
30
0.0
0
VERTEX
8
FRAESEN
10
60
20
172
30
0.0
0
VERTEX
8
FRAESEN
10
60
20
186
30
0.0
0
VERTEX
8
FRAESEN
10
56
20
186
30
0.0
0
SEQEND
0
POLYLINE
8
FRAESEN
66
1
70
1
0
VERTEX
8
FRAESEN
10
30
20
172
30
0.0
0
VERTEX
8
FRAESEN
10
56
20
172
30
0.0
0
VERTEX
8
FRAESEN
10
56
20
174
30
0.0
0
VERTEX
8
FRAESEN
10
30
20
174
30
0.0
0
SEQEND
0
POLYLINE
8
FRAESEN
66
1
70
1
0
VERTEX
8
FRAESEN
10
20
20
182
30
0.0
0
VERTEX
8
FRAESEN
10
38
20
182
30
0.0
0
VERTEX
8
FRAESEN
10
38
20
184
30
0.0
0
VERTEX
8
FRAESEN
10
20
20
184
30
0.0
0
SEQEND
0
POLYLINE
8
FRAESEN
66
1
70
1
0
VERTEX
8
FRAESEN
10
74
20
154
30
0.0
0
VERTEX
8
FRAESEN
10
106
20
154
30
0.0
0
VERTEX
8
FRAESEN
10
106
20
156
30
0.0
0
VERTEX
8
FRAESEN
10
74
20
156
30
0.0
0
SEQEND
0
POLYLINE
8
FRAESEN
66
1
70
1
0
VERTEX
8
FRAESEN
10
74
20
142
30
0.0
0
VERTEX
8
FRAESEN
10
78
20
142
30
0.0
0
VERTEX
8
FRAESEN
10
78
20
154
30
0.0
0
VERTEX
8
FRAESEN
10
74
20
154
30
0.0
0
SEQEND
0
POLYLINE
8
FRAESEN
66
1
70
1
0
VERTEX
8
FRAESEN
10
90
20
152
30
0.0
0
VERTEX
8
FRAESEN
10
106
20
152
30
0.0
0
VERTEX
8
FRAESEN
10
106
20
154
30
0.0
0
VERTEX
8
FRAESEN
10
90
20
154
30
0.0
0
SEQEND
0
POLYLINE
8
FRAESEN
66
1
70
1
0
VERTEX
8
FRAESEN
10
102
20
142
30
0.0
0
VERTEX
8
FRAESEN
10
106
20
142
30
0.0
0
VERTEX
8
FRAESEN
10
106
20
152
30
0.0
0
VERTEX
8
FRAESEN
10
102
20
152
30
0.0
0
SEQEND
0
POLYLINE
8
FRAESEN
66
1
70
1
0
VERTEX
8
FRAESEN
10
74
20
80
30
0.0
0
VERTEX
8
FRAESEN
10
76
20
80
30
0.0
0
VERTEX
8
FRAESEN
10
76
20
142
30
0.0
0
VERTEX
8
FRAESEN
10
74
20
142
30
0.0
0
SEQEND
0
POLYLINE
8
FRAESEN
66
1
70
1
0
VERTEX
8
FRAESEN
10
102
20
136
30
0.0
0
VERTEX
8
FRAESEN
10
104
20
136
30
0.0
0
VERTEX
8
FRAESEN
10
104
20
142
30
0.0
0
VERTEX
8
FRAESEN
10
102
20
142
30
0.0
0
SEQEND
0
POLYLINE
8
FRAESEN
66
1
70
1
0
VERTEX
8
FRAESEN
10
90
20
136
30
0.0
0
VERTEX
8
FRAESEN
10
102
20
136
30
0.0
0
VERTEX
8
FRAESEN
10
102
20
138
30
0.0
0
VERTEX
8
FRAESEN
10
90
20
138
30
0.0
0
SEQEND
0
POLYLINE
8
FRAESEN
66
1
70
1
0
VERTEX
8
FRAESEN
10
72
20
72
30
0.0
0
VERTEX
8
FRAESEN
10
74
20
72
30
0.0
0
VERTEX
8
FRAESEN
10
74
20
134
30
0.0
0
VERTEX
8
FRAESEN
10
72
20
134
30
0.0
0
SEQEND
0
POLYLINE
8
FRAESEN
66
1
70
1
0
VERTEX
8
FRAESEN
10
76
20
122
30
0.0
0
VERTEX
8
FRAESEN
10
116
20
122
30
0.0
0
VERTEX
8
FRAESEN
10
116
20
124
30
0.0
0
VERTEX
8
FRAESEN
10
76
20
124
30
0.0
0
SEQEND
0
POLYLINE
8
FRAESEN
66
1
70
1
0
VERTEX
8
FRAESEN
10
92
20
120
30
0.0
0
VERTEX
8
FRAESEN
10
94
20
120
30
0.0
0
VERTEX
8
FRAESEN
10
94
20
122
30
0.0
0
VERTEX
8
FRAESEN
10
92
20
122
30
0.0
0
SEQEND
0
POLYLINE
8
FRAESEN
66
1
70
1
0
VERTEX
8
FRAESEN
10
96
20
120
30
0.0
0
VERTEX
8
FRAESEN
10
116
20
120
30
0.0
0
VERTEX
8
FRAESEN
10
116
20
122
30
0.0
0
VERTEX
8
FRAESEN
10
96
20
122
30
0.0
0
SEQEND
0
POLYLINE
8
FRAESEN
66
1
70
1
0
VERTEX
8
FRAESEN
10
112
20
110
30
0.0
0
VERTEX
8
FRAESEN
10
116
20
110
30
0.0
0
VERTEX
8
FRAESEN
10
116
20
120
30
0.0
0
VERTEX
8
FRAESEN
10
112
20
120
30
0.0
0
SEQEND
0
POLYLINE
8
FRAESEN
66
1
70
1
0
VERTEX
8
FRAESEN
10
76
20
116
30
0.0
0
VERTEX
8
FRAESEN
10
96
20
116
30
0.0
0
VERTEX
8
FRAESEN
10
96
20
118
30
0.0
0
VERTEX
8
FRAESEN
10
76
20
118
30
0.0
0
SEQEND
0
POLYLINE
8
FRAESEN
66
1
70
1
0
VERTEX
8
FRAESEN
10
98
20
104
30
0.0
0
VERTEX
8
FRAESEN
10
102
20
104
30
0.0
0
VERTEX
8
FRAESEN
10
102
20
118
30
0.0
0
VERTEX
8
FRAESEN
10
98
20
118
30
0.0
0
SEQEND
0
POLYLINE
8
FRAESEN
66
1
70
1
0
VERTEX
8
FRAESEN
10
104
20
114
30
0.0
0
VERTEX
8
FRAESEN
10
112
20
114
30
0.0
0
VERTEX
8
FRAESEN
10
112
20
118
30
0.0
0
VERTEX
8
FRAESEN
10
104
20
118
30
0.0
0
SEQEND
0
POLYLINE
8
FRAESEN
66
1
70
1
0
VERTEX
8
FRAESEN
10
84
20
104
30
0.0
0
VERTEX
8
FRAESEN
10
88
20
104
30
0.0
0
VERTEX
8
FRAESEN
10
88
20
116
30
0.0
0
VERTEX
8
FRAESEN
10
84
20
116
30
0.0
0
SEQEND
0
POLYLINE
8
FRAESEN
66
1
70
1
0
VERTEX
8
FRAESEN
10
90
20
104
30
0.0
0
VERTEX
8
FRAESEN
10
94
20
104
30
0.0
0
VERTEX
8
FRAESEN
10
94
20
116
30
0.0
0
VERTEX
8
FRAESEN
10
90
20
116
30
0.0
0
SEQEND
0
POLYLINE
8
FRAESEN
66
1
70
1
0
VERTEX
8
FRAESEN
10
104
20
108
30
0.0
0
VERTEX
8
FRAESEN
10
108
20
108
30
0.0
0
VERTEX
8
FRAESEN
10
108
20
114
30
0.0
0
VERTEX
8
FRAESEN
10
104
20
114
30
0.0
0
SEQEND
0
POLYLINE
8
FRAESEN
66
1
70
1
0
VERTEX
8
FRAESEN
10
78
20
110
30
0.0
0
VERTEX
8
FRAESEN
10
84
20
110
30
0.0
0
VERTEX
8
FRAESEN
10
84
20
112
30
0.0
0
VERTEX
8
FRAESEN
10
78
20
112
30
0.0
0
SEQEND
0
POLYLINE
8
FRAESEN
66
1
70
1
0
VERTEX
8
FRAESEN
10
108
20
110
30
0.0
0
VERTEX
8
FRAESEN
10
112
20
110
30
0.0
0
VERTEX
8
FRAESEN
10
112
20
112
30
0.0
0
VERTEX
8
FRAESEN
10
108
20
112
30
0.0
0
SEQEND
0
POLYLINE
8
FRAESEN
66
1
70
1
0
VERTEX
8
FRAESEN
10
110
20
108
30
0.0
0
VERTEX
8
FRAESEN
10
114
20
108
30
0.0
0
VERTEX
8
FRAESEN
10
114
20
110
30
0.0
0
VERTEX
8
FRAESEN
10
110
20
110
30
0.0
0
SEQEND
0
POLYLINE
8
FRAESEN
66
1
70
1
0
VERTEX
8
FRAESEN
10
76
20
104
30
0.0
0
VERTEX
8
FRAESEN
10
84
20
104
30
0.0
0
VERTEX
8
FRAESEN
10
84
20
108
30
0.0
0
VERTEX
8
FRAESEN
10
76
20
108
30
0.0
0
SEQEND
0
POLYLINE
8
FRAESEN
66
1
70
1
0
VERTEX
8
FRAESEN
10
94
20
104
30
0.0
0
VERTEX
8
FRAESEN
10
98
20
104
30
0.0
0
VERTEX
8
FRAESEN
10
98
20
108
30
0.0
0
VERTEX
8
FRAESEN
10
94
20
108
30
0.0
0
SEQEND
0
POLYLINE
8
FRAESEN
66
1
70
1
0
VERTEX
8
FRAESEN
10
102
20
104
30
0.0
0
VERTEX
8
FRAESEN
10
106
20
104
30
0.0
0
VERTEX
8
FRAESEN
10
106
20
108
30
0.0
0
VERTEX
8
FRAESEN
10
102
20
108
30
0.0
0
SEQEND
0
POLYLINE
8
FRAESEN
66
1
70
1
0
VERTEX
8
FRAESEN
10
88
20
104
30
0.0
0
VERTEX
8
FRAESEN
10
90
20
104
30
0.0
0
VERTEX
8
FRAESEN
10
90
20
106
30
0.0
0
VERTEX
8
FRAESEN
10
88
20
106
30
0.0
0
SEQEND
0
POLYLINE
8
FRAESEN
66
1
70
1
0
VERTEX
8
FRAESEN
10
106
20
104
30
0.0
0
VERTEX
8
FRAESEN
10
132
20
104
30
0.0
0
VERTEX
8
FRAESEN
10
132
20
106
30
0.0
0
VERTEX
8
FRAESEN
10
106
20
106
30
0.0
0
SEQEND
0
POLYLINE
8
FRAESEN
66
1
70
1
0
VERTEX
8
FRAESEN
10
118
20
102
30
0.0
0
VERTEX
8
FRAESEN
10
132
20
102
30
0.0
0
VERTEX
8
FRAESEN
10
132
20
104
30
0.0
0
VERTEX
8
FRAESEN
10
118
20
104
30
0.0
0
SEQEND
0
POLYLINE
8
FRAESEN
66
1
70
1
0
VERTEX
8
FRAESEN
10
92
20
86
30
0.0
0
VERTEX
8
FRAESEN
10
94
20
86
30
0.0
0
VERTEX
8
FRAESEN
10
94
20
102
30
0.0
0
VERTEX
8
FRAESEN
10
92
20
102
30
0.0
0
SEQEND
0
POLYLINE
8
FRAESEN
66
1
70
1
0
VERTEX
8
FRAESEN
10
130
20
92
30
0.0
0
VERTEX
8
FRAESEN
10
132
20
92
30
0.0
0
VERTEX
8
FRAESEN
10
132
20
102
30
0.0
0
VERTEX
8
FRAESEN
10
130
20
102
30
0.0
0
SEQEND
0
POLYLINE
8
FRAESEN
66
1
70
1
0
VERTEX
8
FRAESEN
10
90
20
86
30
0.0
0
VERTEX
8
FRAESEN
10
92
20
86
30
0.0
0
VERTEX
8
FRAESEN
10
92
20
100
30
0.0
0
VERTEX
8
FRAESEN
10
90
20
100
30
0.0
0
SEQEND
0
POLYLINE
8
FRAESEN
66
1
70
1
0
VERTEX
8
FRAESEN
10
94
20
98
30
0.0
0
VERTEX
8
FRAESEN
10
106
20
98
30
0.0
0
VERTEX
8
FRAESEN
10
106
20
100
30
0.0
0
VERTEX
8
FRAESEN
10
94
20
100
30
0.0
0
SEQEND
0
POLYLINE
8
FRAESEN
66
1
70
1
0
VERTEX
8
FRAESEN
10
108
20
98
30
0.0
0
VERTEX
8
FRAESEN
10
116
20
98
30
0.0
0
VERTEX
8
FRAESEN
10
116
20
100
30
0.0
0
VERTEX
8
FRAESEN
10
108
20
100
30
0.0
0
SEQEND
0
POLYLINE
8
FRAESEN
66
1
70
1
0
VERTEX
8
FRAESEN
10
118
20
98
30
0.0
0
VERTEX
8
FRAESEN
10
130
20
98
30
0.0
0
VERTEX
8
FRAESEN
10
130
20
100
30
0.0
0
VERTEX
8
FRAESEN
10
118
20
100
30
0.0
0
SEQEND
0
POLYLINE
8
FRAESEN
66
1
70
1
0
VERTEX
8
FRAESEN
10
112
20
92
30
0.0
0
VERTEX
8
FRAESEN
10
116
20
92
30
0.0
0
VERTEX
8
FRAESEN
10
116
20
98
30
0.0
0
VERTEX
8
FRAESEN
10
112
20
98
30
0.0
0
SEQEND
0
POLYLINE
8
FRAESEN
66
1
70
1
0
VERTEX
8
FRAESEN
10
118
20
96
30
0.0
0
VERTEX
8
FRAESEN
10
126
20
96
30
0.0
0
VERTEX
8
FRAESEN
10
126
20
98
30
0.0
0
VERTEX
8
FRAESEN
10
118
20
98
30
0.0
0
SEQEND
0
POLYLINE
8
FRAESEN
66
1
70
1
0
VERTEX
8
FRAESEN
10
128
20
92
30
0.0
0
VERTEX
8
FRAESEN
10
130
20
92
30
0.0
0
VERTEX
8
FRAESEN
10
130
20
98
30
0.0
0
VERTEX
8
FRAESEN
10
128
20
98
30
0.0
0
SEQEND
0
POLYLINE
8
FRAESEN
66
1
70
1
0
VERTEX
8
FRAESEN
10
118
20
90
30
0.0
0
VERTEX
8
FRAESEN
10
120
20
90
30
0.0
0
VERTEX
8
FRAESEN
10
120
20
96
30
0.0
0
VERTEX
8
FRAESEN
10
118
20
96
30
0.0
0
SEQEND
0
POLYLINE
8
FRAESEN
66
1
70
1
0
VERTEX
8
FRAESEN
10
108
20
92
30
0.0
0
VERTEX
8
FRAESEN
10
112
20
92
30
0.0
0
VERTEX
8
FRAESEN
10
112
20
94
30
0.0
0
VERTEX
8
FRAESEN
10
108
20
94
30
0.0
0
SEQEND
0
POLYLINE
8
FRAESEN
66
1
70
1
0
VERTEX
8
FRAESEN
10
120
20
90
30
0.0
0
VERTEX
8
FRAESEN
10
128
20
90
30
0.0
0
VERTEX
8
FRAESEN
10
128
20
94
30
0.0
0
VERTEX
8
FRAESEN
10
120
20
94
30
0.0
0
SEQEND
0
POLYLINE
8
FRAESEN
66
1
70
1
0
VERTEX
8
FRAESEN
10
112
20
86
30
0.0
0
VERTEX
8
FRAESEN
10
114
20
86
30
0.0
0
VERTEX
8
FRAESEN
10
114
20
92
30
0.0
0
VERTEX
8
FRAESEN
10
112
20
92
30
0.0
0
SEQEND
0
POLYLINE
8
FRAESEN
66
1
70
1
0
VERTEX
8
FRAESEN
10
76
20
86
30
0.0
0
VERTEX
8
FRAESEN
10
90
20
86
30
0.0
0
VERTEX
8
FRAESEN
10
90
20
90
30
0.0
0
VERTEX
8
FRAESEN
10
76
20
90
30
0.0
0
SEQEND
0
POLYLINE
8
FRAESEN
66
1
70
1
0
VERTEX
8
FRAESEN
10
94
20
86
30
0.0
0
VERTEX
8
FRAESEN
10
112
20
86
30
0.0
0
VERTEX
8
FRAESEN
10
112
20
90
30
0.0
0
VERTEX
8
FRAESEN
10
94
20
90
30
0.0
0
SEQEND
0
POLYLINE
8
FRAESEN
66
1
70
1
0
VERTEX
8
FRAESEN
10
114
20
86
30
0.0
0
VERTEX
8
FRAESEN
10
132
20
86
30
0.0
0
VERTEX
8
FRAESEN
10
132
20
88
30
0.0
0
VERTEX
8
FRAESEN
10
114
20
88
30
0.0
0
SEQEND
0
POLYLINE
8
FRAESEN
66
1
70
1
0
VERTEX
8
FRAESEN
10
128
20
64
30
0.0
0
VERTEX
8
FRAESEN
10
132
20
64
30
0.0
0
VERTEX
8
FRAESEN
10
132
20
86
30
0.0
0
VERTEX
8
FRAESEN
10
128
20
86
30
0.0
0
SEQEND
0
POLYLINE
8
FRAESEN
66
1
70
1
0
VERTEX
8
FRAESEN
10
78
20
78
30
0.0
0
VERTEX
8
FRAESEN
10
98
20
78
30
0.0
0
VERTEX
8
FRAESEN
10
98
20
84
30
0.0
0
VERTEX
8
FRAESEN
10
78
20
84
30
0.0
0
SEQEND
0
POLYLINE
8
FRAESEN
66
1
70
1
0
VERTEX
8
FRAESEN
10
98
20
80
30
0.0
0
VERTEX
8
FRAESEN
10
120
20
80
30
0.0
0
VERTEX
8
FRAESEN
10
120
20
82
30
0.0
0
VERTEX
8
FRAESEN
10
98
20
82
30
0.0
0
SEQEND
0
POLYLINE
8
FRAESEN
66
1
70
1
0
VERTEX
8
FRAESEN
10
98
20
78
30
0.0
0
VERTEX
8
FRAESEN
10
114
20
78
30
0.0
0
VERTEX
8
FRAESEN
10
114
20
80
30
0.0
0
VERTEX
8
FRAESEN
10
98
20
80
30
0.0
0
SEQEND
0
POLYLINE
8
FRAESEN
66
1
70
1
0
VERTEX
8
FRAESEN
10
116
20
78
30
0.0
0
VERTEX
8
FRAESEN
10
120
20
78
30
0.0
0
VERTEX
8
FRAESEN
10
120
20
80
30
0.0
0
VERTEX
8
FRAESEN
10
116
20
80
30
0.0
0
SEQEND
0
POLYLINE
8
FRAESEN
66
1
70
1
0
VERTEX
8
FRAESEN
10
78
20
72
30
0.0
0
VERTEX
8
FRAESEN
10
80
20
72
30
0.0
0
VERTEX
8
FRAESEN
10
80
20
78
30
0.0
0
VERTEX
8
FRAESEN
10
78
20
78
30
0.0
0
SEQEND
0
POLYLINE
8
FRAESEN
66
1
70
1
0
VERTEX
8
FRAESEN
10
110
20
32
30
0.0
0
VERTEX
8
FRAESEN
10
114
20
32
30
0.0
0
VERTEX
8
FRAESEN
10
114
20
78
30
0.0
0
VERTEX
8
FRAESEN
10
110
20
78
30
0.0
0
SEQEND
0
POLYLINE
8
FRAESEN
66
1
70
1
0
VERTEX
8
FRAESEN
10
70
20
74
30
0.0
0
VERTEX
8
FRAESEN
10
72
20
74
30
0.0
0
VERTEX
8
FRAESEN
10
72
20
76
30
0.0
0
VERTEX
8
FRAESEN
10
70
20
76
30
0.0
0
SEQEND
0
POLYLINE
8
FRAESEN
66
1
70
1
0
VERTEX
8
FRAESEN
10
74
20
72
30
0.0
0
VERTEX
8
FRAESEN
10
78
20
72
30
0.0
0
VERTEX
8
FRAESEN
10
78
20
76
30
0.0
0
VERTEX
8
FRAESEN
10
74
20
76
30
0.0
0
SEQEND
0
POLYLINE
8
FRAESEN
66
1
70
1
0
VERTEX
8
FRAESEN
10
80
20
72
30
0.0
0
VERTEX
8
FRAESEN
10
100
20
72
30
0.0
0
VERTEX
8
FRAESEN
10
100
20
76
30
0.0
0
VERTEX
8
FRAESEN
10
80
20
76
30
0.0
0
SEQEND
0
POLYLINE
8
FRAESEN
66
1
70
1
0
VERTEX
8
FRAESEN
10
104
20
44
30
0.0
0
VERTEX
8
FRAESEN
10
108
20
44
30
0.0
0
VERTEX
8
FRAESEN
10
108
20
76
30
0.0
0
VERTEX
8
FRAESEN
10
104
20
76
30
0.0
0
SEQEND
0
POLYLINE
8
FRAESEN
66
1
70
1
0
VERTEX
8
FRAESEN
10
116
20
66
30
0.0
0
VERTEX
8
FRAESEN
10
120
20
66
30
0.0
0
VERTEX
8
FRAESEN
10
120
20
76
30
0.0
0
VERTEX
8
FRAESEN
10
116
20
76
30
0.0
0
SEQEND
0
POLYLINE
8
FRAESEN
66
1
70
1
0
VERTEX
8
FRAESEN
10
100
20
72
30
0.0
0
VERTEX
8
FRAESEN
10
104
20
72
30
0.0
0
VERTEX
8
FRAESEN
10
104
20
74
30
0.0
0
VERTEX
8
FRAESEN
10
100
20
74
30
0.0
0
SEQEND
0
POLYLINE
8
FRAESEN
66
1
70
1
0
VERTEX
8
FRAESEN
10
120
20
66
30
0.0
0
VERTEX
8
FRAESEN
10
128
20
66
30
0.0
0
VERTEX
8
FRAESEN
10
128
20
68
30
0.0
0
VERTEX
8
FRAESEN
10
120
20
68
30
0.0
0
SEQEND
0
POLYLINE
8
FRAESEN
66
1
70
1
0
VERTEX
8
FRAESEN
10
114
20
60
30
0.0
0
VERTEX
8
FRAESEN
10
118
20
60
30
0.0
0
VERTEX
8
FRAESEN
10
118
20
64
30
0.0
0
VERTEX
8
FRAESEN
10
114
20
64
30
0.0
0
SEQEND
0
POLYLINE
8
FRAESEN
66
1
70
1
0
VERTEX
8
FRAESEN
10
118
20
60
30
0.0
0
VERTEX
8
FRAESEN
10
132
20
60
30
0.0
0
VERTEX
8
FRAESEN
10
132
20
62
30
0.0
0
VERTEX
8
FRAESEN
10
118
20
62
30
0.0
0
SEQEND
0
POLYLINE
8
FRAESEN
66
1
70
1
0
VERTEX
8
FRAESEN
10
124
20
58
30
0.0
0
VERTEX
8
FRAESEN
10
132
20
58
30
0.0
0
VERTEX
8
FRAESEN
10
132
20
60
30
0.0
0
VERTEX
8
FRAESEN
10
124
20
60
30
0.0
0
SEQEND
0
POLYLINE
8
FRAESEN
66
1
70
1
0
VERTEX
8
FRAESEN
10
116
20
52
30
0.0
0
VERTEX
8
FRAESEN
10
132
20
52
30
0.0
0
VERTEX
8
FRAESEN
10
132
20
56
30
0.0
0
VERTEX
8
FRAESEN
10
116
20
56
30
0.0
0
SEQEND
0
POLYLINE
8
FRAESEN
66
1
70
1
0
VERTEX
8
FRAESEN
10
116
20
32
30
0.0
0
VERTEX
8
FRAESEN
10
120
20
32
30
0.0
0
VERTEX
8
FRAESEN
10
120
20
52
30
0.0
0
VERTEX
8
FRAESEN
10
116
20
52
30
0.0
0
SEQEND
0
POLYLINE
8
FRAESEN
66
1
70
1
0
VERTEX
8
FRAESEN
10
104
20
38
30
0.0
0
VERTEX
8
FRAESEN
10
110
20
38
30
0.0
0
VERTEX
8
FRAESEN
10
110
20
40
30
0.0
0
VERTEX
8
FRAESEN
10
104
20
40
30
0.0
0
SEQEND
0
POLYLINE
8
FRAESEN
66
1
70
1
0
VERTEX
8
FRAESEN
10
106
20
32
30
0.0
0
VERTEX
8
FRAESEN
10
110
20
32
30
0.0
0
VERTEX
8
FRAESEN
10
110
20
38
30
0.0
0
VERTEX
8
FRAESEN
10
106
20
38
30
0.0
0
SEQEND
0
POLYLINE
8
FRAESEN
66
1
70
1
0
VERTEX
8
FRAESEN
10
104
20
32
30
0.0
0
VERTEX
8
FRAESEN
10
106
20
32
30
0.0
0
VERTEX
8
FRAESEN
10
106
20
36
30
0.0
0
VERTEX
8
FRAESEN
10
104
20
36
30
0.0
0
SEQEND
0
POLYLINE
8
FRAESEN
66
1
70
1
0
VERTEX
8
FRAESEN
10
114
20
32
30
0.0
0
VERTEX
8
FRAESEN
10
116
20
32
30
0.0
0
VERTEX
8
FRAESEN
10
116
20
36
30
0.0
0
VERTEX
8
FRAESEN
10
114
20
36
30
0.0
0
SEQEND
0
POLYLINE
8
FRAESEN
66
1
70
1
0
VERTEX
8
FRAESEN
10
102
20
32
30
0.0
0
VERTEX
8
FRAESEN
10
104
20
32
30
0.0
0
VERTEX
8
FRAESEN
10
104
20
34
30
0.0
0
VERTEX
8
FRAESEN
10
102
20
34
30
0.0
0
SEQEND
0
POLYLINE
8
FRAESEN
66
1
70
1
0
VERTEX
8
FRAESEN
10
118
20
108
30
0.0
0
VERTEX
8
FRAESEN
10
132
20
108
30
0.0
0
VERTEX
8
FRAESEN
10
132
20
112
30
0.0
0
VERTEX
8
FRAESEN
10
118
20
112
30
0.0
0
SEQEND
0
POLYLINE
8
FRAESEN
66
1
70
1
0
VERTEX
8
FRAESEN
10
4
20
100
30
0.0
0
VERTEX
8
FRAESEN
10
24
20
100
30
0.0
0
VERTEX
8
FRAESEN
10
24
20
102
30
0.0
0
VERTEX
8
FRAESEN
10
4
20
102
30
0.0
0
SEQEND
0
POLYLINE
8
FRAESEN
66
1
70
1
0
VERTEX
8
FRAESEN
10
46
20
92
30
0.0
0
VERTEX
8
FRAESEN
10
50
20
92
30
0.0
0
VERTEX
8
FRAESEN
10
50
20
102
30
0.0
0
VERTEX
8
FRAESEN
10
46
20
102
30
0.0
0
SEQEND
0
POLYLINE
8
FRAESEN
66
1
70
1
0
VERTEX
8
FRAESEN
10
52
20
100
30
0.0
0
VERTEX
8
FRAESEN
10
70
20
100
30
0.0
0
VERTEX
8
FRAESEN
10
70
20
102
30
0.0
0
VERTEX
8
FRAESEN
10
52
20
102
30
0.0
0
SEQEND
0
POLYLINE
8
FRAESEN
66
1
70
1
0
VERTEX
8
FRAESEN
10
4
20
98
30
0.0
0
VERTEX
8
FRAESEN
10
18
20
98
30
0.0
0
VERTEX
8
FRAESEN
10
18
20
100
30
0.0
0
VERTEX
8
FRAESEN
10
4
20
100
30
0.0
0
SEQEND
0
POLYLINE
8
FRAESEN
66
1
70
1
0
VERTEX
8
FRAESEN
10
20
20
94
30
0.0
0
VERTEX
8
FRAESEN
10
24
20
94
30
0.0
0
VERTEX
8
FRAESEN
10
24
20
100
30
0.0
0
VERTEX
8
FRAESEN
10
20
20
100
30
0.0
0
SEQEND
0
POLYLINE
8
FRAESEN
66
1
70
1
0
VERTEX
8
FRAESEN
10
52
20
98
30
0.0
0
VERTEX
8
FRAESEN
10
68
20
98
30
0.0
0
VERTEX
8
FRAESEN
10
68
20
100
30
0.0
0
VERTEX
8
FRAESEN
10
52
20
100
30
0.0
0
SEQEND
0
POLYLINE
8
FRAESEN
66
1
70
1
0
VERTEX
8
FRAESEN
10
4
20
62
30
0.0
0
VERTEX
8
FRAESEN
10
6
20
62
30
0.0
0
VERTEX
8
FRAESEN
10
6
20
98
30
0.0
0
VERTEX
8
FRAESEN
10
4
20
98
30
0.0
0
SEQEND
0
POLYLINE
8
FRAESEN
66
1
70
1
0
VERTEX
8
FRAESEN
10
10
20
88
30
0.0
0
VERTEX
8
FRAESEN
10
12
20
88
30
0.0
0
VERTEX
8
FRAESEN
10
12
20
98
30
0.0
0
VERTEX
8
FRAESEN
10
10
20
98
30
0.0
0
SEQEND
0
POLYLINE
8
FRAESEN
66
1
70
1
0
VERTEX
8
FRAESEN
10
52
20
92
30
0.0
0
VERTEX
8
FRAESEN
10
54
20
92
30
0.0
0
VERTEX
8
FRAESEN
10
54
20
98
30
0.0
0
VERTEX
8
FRAESEN
10
52
20
98
30
0.0
0
SEQEND
0
POLYLINE
8
FRAESEN
66
1
70
1
0
VERTEX
8
FRAESEN
10
66
20
66
30
0.0
0
VERTEX
8
FRAESEN
10
68
20
66
30
0.0
0
VERTEX
8
FRAESEN
10
68
20
98
30
0.0
0
VERTEX
8
FRAESEN
10
66
20
98
30
0.0
0
SEQEND
0
POLYLINE
8
FRAESEN
66
1
70
1
0
VERTEX
8
FRAESEN
10
2
20
40
30
0.0
0
VERTEX
8
FRAESEN
10
4
20
40
30
0.0
0
VERTEX
8
FRAESEN
10
4
20
96
30
0.0
0
VERTEX
8
FRAESEN
10
2
20
96
30
0.0
0
SEQEND
0
POLYLINE
8
FRAESEN
66
1
70
1
0
VERTEX
8
FRAESEN
10
14
20
92
30
0.0
0
VERTEX
8
FRAESEN
10
20
20
92
30
0.0
0
VERTEX
8
FRAESEN
10
20
20
96
30
0.0
0
VERTEX
8
FRAESEN
10
14
20
96
30
0.0
0
SEQEND
0
POLYLINE
8
FRAESEN
66
1
70
1
0
VERTEX
8
FRAESEN
10
50
20
92
30
0.0
0
VERTEX
8
FRAESEN
10
52
20
92
30
0.0
0
VERTEX
8
FRAESEN
10
52
20
96
30
0.0
0
VERTEX
8
FRAESEN
10
50
20
96
30
0.0
0
SEQEND
0
POLYLINE
8
FRAESEN
66
1
70
1
0
VERTEX
8
FRAESEN
10
54
20
92
30
0.0
0
VERTEX
8
FRAESEN
10
66
20
92
30
0.0
0
VERTEX
8
FRAESEN
10
66
20
96
30
0.0
0
VERTEX
8
FRAESEN
10
54
20
96
30
0.0
0
SEQEND
0
POLYLINE
8
FRAESEN
66
1
70
1
0
VERTEX
8
FRAESEN
10
20
20
92
30
0.0
0
VERTEX
8
FRAESEN
10
22
20
92
30
0.0
0
VERTEX
8
FRAESEN
10
22
20
94
30
0.0
0
VERTEX
8
FRAESEN
10
20
20
94
30
0.0
0
SEQEND
0
POLYLINE
8
FRAESEN
66
1
70
1
0
VERTEX
8
FRAESEN
10
12
20
88
30
0.0
0
VERTEX
8
FRAESEN
10
18
20
88
30
0.0
0
VERTEX
8
FRAESEN
10
18
20
92
30
0.0
0
VERTEX
8
FRAESEN
10
12
20
92
30
0.0
0
SEQEND
0
POLYLINE
8
FRAESEN
66
1
70
1
0
VERTEX
8
FRAESEN
10
64
20
66
30
0.0
0
VERTEX
8
FRAESEN
10
66
20
66
30
0.0
0
VERTEX
8
FRAESEN
10
66
20
92
30
0.0
0
VERTEX
8
FRAESEN
10
64
20
92
30
0.0
0
SEQEND
0
POLYLINE
8
FRAESEN
66
1
70
1
0
VERTEX
8
FRAESEN
10
18
20
88
30
0.0
0
VERTEX
8
FRAESEN
10
64
20
88
30
0.0
0
VERTEX
8
FRAESEN
10
64
20
90
30
0.0
0
VERTEX
8
FRAESEN
10
18
20
90
30
0.0
0
SEQEND
0
POLYLINE
8
FRAESEN
66
1
70
1
0
VERTEX
8
FRAESEN
10
20
20
86
30
0.0
0
VERTEX
8
FRAESEN
10
62
20
86
30
0.0
0
VERTEX
8
FRAESEN
10
62
20
88
30
0.0
0
VERTEX
8
FRAESEN
10
20
20
88
30
0.0
0
SEQEND
0
POLYLINE
8
FRAESEN
66
1
70
1
0
VERTEX
8
FRAESEN
10
58
20
68
30
0.0
0
VERTEX
8
FRAESEN
10
62
20
68
30
0.0
0
VERTEX
8
FRAESEN
10
62
20
86
30
0.0
0
VERTEX
8
FRAESEN
10
58
20
86
30
0.0
0
SEQEND
0
POLYLINE
8
FRAESEN
66
1
70
1
0
VERTEX
8
FRAESEN
10
6
20
80
30
0.0
0
VERTEX
8
FRAESEN
10
56
20
80
30
0.0
0
VERTEX
8
FRAESEN
10
56
20
84
30
0.0
0
VERTEX
8
FRAESEN
10
6
20
84
30
0.0
0
SEQEND
0
POLYLINE
8
FRAESEN
66
1
70
1
0
VERTEX
8
FRAESEN
10
12
20
36
30
0.0
0
VERTEX
8
FRAESEN
10
14
20
36
30
0.0
0
VERTEX
8
FRAESEN
10
14
20
80
30
0.0
0
VERTEX
8
FRAESEN
10
12
20
80
30
0.0
0
SEQEND
0
POLYLINE
8
FRAESEN
66
1
70
1
0
VERTEX
8
FRAESEN
10
16
20
64
30
0.0
0
VERTEX
8
FRAESEN
10
18
20
64
30
0.0
0
VERTEX
8
FRAESEN
10
18
20
80
30
0.0
0
VERTEX
8
FRAESEN
10
16
20
80
30
0.0
0
SEQEND
0
POLYLINE
8
FRAESEN
66
1
70
1
0
VERTEX
8
FRAESEN
10
20
20
62
30
0.0
0
VERTEX
8
FRAESEN
10
22
20
62
30
0.0
0
VERTEX
8
FRAESEN
10
22
20
80
30
0.0
0
VERTEX
8
FRAESEN
10
20
20
80
30
0.0
0
SEQEND
0
POLYLINE
8
FRAESEN
66
1
70
1
0
VERTEX
8
FRAESEN
10
52
20
74
30
0.0
0
VERTEX
8
FRAESEN
10
56
20
74
30
0.0
0
VERTEX
8
FRAESEN
10
56
20
80
30
0.0
0
VERTEX
8
FRAESEN
10
52
20
80
30
0.0
0
SEQEND
0
POLYLINE
8
FRAESEN
66
1
70
1
0
VERTEX
8
FRAESEN
10
6
20
62
30
0.0
0
VERTEX
8
FRAESEN
10
12
20
62
30
0.0
0
VERTEX
8
FRAESEN
10
12
20
78
30
0.0
0
VERTEX
8
FRAESEN
10
6
20
78
30
0.0
0
SEQEND
0
POLYLINE
8
FRAESEN
66
1
70
1
0
VERTEX
8
FRAESEN
10
22
20
76
30
0.0
0
VERTEX
8
FRAESEN
10
30
20
76
30
0.0
0
VERTEX
8
FRAESEN
10
30
20
78
30
0.0
0
VERTEX
8
FRAESEN
10
22
20
78
30
0.0
0
SEQEND
0
POLYLINE
8
FRAESEN
66
1
70
1
0
VERTEX
8
FRAESEN
10
32
20
74
30
0.0
0
VERTEX
8
FRAESEN
10
42
20
74
30
0.0
0
VERTEX
8
FRAESEN
10
42
20
78
30
0.0
0
VERTEX
8
FRAESEN
10
32
20
78
30
0.0
0
SEQEND
0
POLYLINE
8
FRAESEN
66
1
70
1
0
VERTEX
8
FRAESEN
10
46
20
74
30
0.0
0
VERTEX
8
FRAESEN
10
48
20
74
30
0.0
0
VERTEX
8
FRAESEN
10
48
20
78
30
0.0
0
VERTEX
8
FRAESEN
10
46
20
78
30
0.0
0
SEQEND
0
POLYLINE
8
FRAESEN
66
1
70
1
0
VERTEX
8
FRAESEN
10
56
20
74
30
0.0
0
VERTEX
8
FRAESEN
10
58
20
74
30
0.0
0
VERTEX
8
FRAESEN
10
58
20
78
30
0.0
0
VERTEX
8
FRAESEN
10
56
20
78
30
0.0
0
SEQEND
0
POLYLINE
8
FRAESEN
66
1
70
1
0
VERTEX
8
FRAESEN
10
22
20
74
30
0.0
0
VERTEX
8
FRAESEN
10
24
20
74
30
0.0
0
VERTEX
8
FRAESEN
10
24
20
76
30
0.0
0
VERTEX
8
FRAESEN
10
22
20
76
30
0.0
0
SEQEND
0
POLYLINE
8
FRAESEN
66
1
70
1
0
VERTEX
8
FRAESEN
10
26
20
74
30
0.0
0
VERTEX
8
FRAESEN
10
30
20
74
30
0.0
0
VERTEX
8
FRAESEN
10
30
20
76
30
0.0
0
VERTEX
8
FRAESEN
10
26
20
76
30
0.0
0
SEQEND
0
POLYLINE
8
FRAESEN
66
1
70
1
0
VERTEX
8
FRAESEN
10
42
20
74
30
0.0
0
VERTEX
8
FRAESEN
10
46
20
74
30
0.0
0
VERTEX
8
FRAESEN
10
46
20
76
30
0.0
0
VERTEX
8
FRAESEN
10
42
20
76
30
0.0
0
SEQEND
0
POLYLINE
8
FRAESEN
66
1
70
1
0
VERTEX
8
FRAESEN
10
48
20
74
30
0.0
0
VERTEX
8
FRAESEN
10
52
20
74
30
0.0
0
VERTEX
8
FRAESEN
10
52
20
76
30
0.0
0
VERTEX
8
FRAESEN
10
48
20
76
30
0.0
0
SEQEND
0
POLYLINE
8
FRAESEN
66
1
70
1
0
VERTEX
8
FRAESEN
10
32
20
68
30
0.0
0
VERTEX
8
FRAESEN
10
34
20
68
30
0.0
0
VERTEX
8
FRAESEN
10
34
20
74
30
0.0
0
VERTEX
8
FRAESEN
10
32
20
74
30
0.0
0
SEQEND
0
POLYLINE
8
FRAESEN
66
1
70
1
0
VERTEX
8
FRAESEN
10
22
20
68
30
0.0
0
VERTEX
8
FRAESEN
10
32
20
68
30
0.0
0
VERTEX
8
FRAESEN
10
32
20
72
30
0.0
0
VERTEX
8
FRAESEN
10
22
20
72
30
0.0
0
SEQEND
0
POLYLINE
8
FRAESEN
66
1
70
1
0
VERTEX
8
FRAESEN
10
34
20
68
30
0.0
0
VERTEX
8
FRAESEN
10
52
20
68
30
0.0
0
VERTEX
8
FRAESEN
10
52
20
72
30
0.0
0
VERTEX
8
FRAESEN
10
34
20
72
30
0.0
0
SEQEND
0
POLYLINE
8
FRAESEN
66
1
70
1
0
VERTEX
8
FRAESEN
10
52
20
62
30
0.0
0
VERTEX
8
FRAESEN
10
54
20
62
30
0.0
0
VERTEX
8
FRAESEN
10
54
20
70
30
0.0
0
VERTEX
8
FRAESEN
10
52
20
70
30
0.0
0
SEQEND
0
POLYLINE
8
FRAESEN
66
1
70
1
0
VERTEX
8
FRAESEN
10
56
20
66
30
0.0
0
VERTEX
8
FRAESEN
10
58
20
66
30
0.0
0
VERTEX
8
FRAESEN
10
58
20
70
30
0.0
0
VERTEX
8
FRAESEN
10
56
20
70
30
0.0
0
SEQEND
0
POLYLINE
8
FRAESEN
66
1
70
1
0
VERTEX
8
FRAESEN
10
62
20
68
30
0.0
0
VERTEX
8
FRAESEN
10
64
20
68
30
0.0
0
VERTEX
8
FRAESEN
10
64
20
70
30
0.0
0
VERTEX
8
FRAESEN
10
62
20
70
30
0.0
0
SEQEND
0
POLYLINE
8
FRAESEN
66
1
70
1
0
VERTEX
8
FRAESEN
10
50
20
62
30
0.0
0
VERTEX
8
FRAESEN
10
52
20
62
30
0.0
0
VERTEX
8
FRAESEN
10
52
20
68
30
0.0
0
VERTEX
8
FRAESEN
10
50
20
68
30
0.0
0
SEQEND
0
POLYLINE
8
FRAESEN
66
1
70
1
0
VERTEX
8
FRAESEN
10
58
20
66
30
0.0
0
VERTEX
8
FRAESEN
10
60
20
66
30
0.0
0
VERTEX
8
FRAESEN
10
60
20
68
30
0.0
0
VERTEX
8
FRAESEN
10
58
20
68
30
0.0
0
SEQEND
0
POLYLINE
8
FRAESEN
66
1
70
1
0
VERTEX
8
FRAESEN
10
18
20
64
30
0.0
0
VERTEX
8
FRAESEN
10
20
20
64
30
0.0
0
VERTEX
8
FRAESEN
10
20
20
66
30
0.0
0
VERTEX
8
FRAESEN
10
18
20
66
30
0.0
0
SEQEND
0
POLYLINE
8
FRAESEN
66
1
70
1
0
VERTEX
8
FRAESEN
10
22
20
62
30
0.0
0
VERTEX
8
FRAESEN
10
50
20
62
30
0.0
0
VERTEX
8
FRAESEN
10
50
20
66
30
0.0
0
VERTEX
8
FRAESEN
10
22
20
66
30
0.0
0
SEQEND
0
POLYLINE
8
FRAESEN
66
1
70
1
0
VERTEX
8
FRAESEN
10
56
20
62
30
0.0
0
VERTEX
8
FRAESEN
10
100
20
62
30
0.0
0
VERTEX
8
FRAESEN
10
100
20
64
30
0.0
0
VERTEX
8
FRAESEN
10
56
20
64
30
0.0
0
SEQEND
0
POLYLINE
8
FRAESEN
66
1
70
1
0
VERTEX
8
FRAESEN
10
6
20
52
30
0.0
0
VERTEX
8
FRAESEN
10
8
20
52
30
0.0
0
VERTEX
8
FRAESEN
10
8
20
62
30
0.0
0
VERTEX
8
FRAESEN
10
6
20
62
30
0.0
0
SEQEND
0
POLYLINE
8
FRAESEN
66
1
70
1
0
VERTEX
8
FRAESEN
10
10
20
36
30
0.0
0
VERTEX
8
FRAESEN
10
12
20
36
30
0.0
0
VERTEX
8
FRAESEN
10
12
20
62
30
0.0
0
VERTEX
8
FRAESEN
10
10
20
62
30
0.0
0
SEQEND
0
POLYLINE
8
FRAESEN
66
1
70
1
0
VERTEX
8
FRAESEN
10
16
20
36
30
0.0
0
VERTEX
8
FRAESEN
10
18
20
36
30
0.0
0
VERTEX
8
FRAESEN
10
18
20
62
30
0.0
0
VERTEX
8
FRAESEN
10
16
20
62
30
0.0
0
SEQEND
0
POLYLINE
8
FRAESEN
66
1
70
1
0
VERTEX
8
FRAESEN
10
66
20
60
30
0.0
0
VERTEX
8
FRAESEN
10
102
20
60
30
0.0
0
VERTEX
8
FRAESEN
10
102
20
62
30
0.0
0
VERTEX
8
FRAESEN
10
66
20
62
30
0.0
0
SEQEND
0
POLYLINE
8
FRAESEN
66
1
70
1
0
VERTEX
8
FRAESEN
10
4
20
10
30
0.0
0
VERTEX
8
FRAESEN
10
6
20
10
30
0.0
0
VERTEX
8
FRAESEN
10
6
20
60
30
0.0
0
VERTEX
8
FRAESEN
10
4
20
60
30
0.0
0
SEQEND
0
POLYLINE
8
FRAESEN
66
1
70
1
0
VERTEX
8
FRAESEN
10
8
20
36
30
0.0
0
VERTEX
8
FRAESEN
10
10
20
36
30
0.0
0
VERTEX
8
FRAESEN
10
10
20
60
30
0.0
0
VERTEX
8
FRAESEN
10
8
20
60
30
0.0
0
SEQEND
0
POLYLINE
8
FRAESEN
66
1
70
1
0
VERTEX
8
FRAESEN
10
18
20
58
30
0.0
0
VERTEX
8
FRAESEN
10
60
20
58
30
0.0
0
VERTEX
8
FRAESEN
10
60
20
60
30
0.0
0
VERTEX
8
FRAESEN
10
18
20
60
30
0.0
0
SEQEND
0
POLYLINE
8
FRAESEN
66
1
70
1
0
VERTEX
8
FRAESEN
10
76
20
48
30
0.0
0
VERTEX
8
FRAESEN
10
80
20
48
30
0.0
0
VERTEX
8
FRAESEN
10
80
20
60
30
0.0
0
VERTEX
8
FRAESEN
10
76
20
60
30
0.0
0
SEQEND
0
POLYLINE
8
FRAESEN
66
1
70
1
0
VERTEX
8
FRAESEN
10
20
20
42
30
0.0
0
VERTEX
8
FRAESEN
10
22
20
42
30
0.0
0
VERTEX
8
FRAESEN
10
22
20
58
30
0.0
0
VERTEX
8
FRAESEN
10
20
20
58
30
0.0
0
SEQEND
0
POLYLINE
8
FRAESEN
66
1
70
1
0
VERTEX
8
FRAESEN
10
26
20
56
30
0.0
0
VERTEX
8
FRAESEN
10
30
20
56
30
0.0
0
VERTEX
8
FRAESEN
10
30
20
58
30
0.0
0
VERTEX
8
FRAESEN
10
26
20
58
30
0.0
0
SEQEND
0
POLYLINE
8
FRAESEN
66
1
70
1
0
VERTEX
8
FRAESEN
10
32
20
56
30
0.0
0
VERTEX
8
FRAESEN
10
48
20
56
30
0.0
0
VERTEX
8
FRAESEN
10
48
20
58
30
0.0
0
VERTEX
8
FRAESEN
10
32
20
58
30
0.0
0
SEQEND
0
POLYLINE
8
FRAESEN
66
1
70
1
0
VERTEX
8
FRAESEN
10
50
20
56
30
0.0
0
VERTEX
8
FRAESEN
10
74
20
56
30
0.0
0
VERTEX
8
FRAESEN
10
74
20
58
30
0.0
0
VERTEX
8
FRAESEN
10
50
20
58
30
0.0
0
SEQEND
0
POLYLINE
8
FRAESEN
66
1
70
1
0
VERTEX
8
FRAESEN
10
82
20
56
30
0.0
0
VERTEX
8
FRAESEN
10
102
20
56
30
0.0
0
VERTEX
8
FRAESEN
10
102
20
58
30
0.0
0
VERTEX
8
FRAESEN
10
82
20
58
30
0.0
0
SEQEND
0
POLYLINE
8
FRAESEN
66
1
70
1
0
VERTEX
8
FRAESEN
10
26
20
40
30
0.0
0
VERTEX
8
FRAESEN
10
28
20
40
30
0.0
0
VERTEX
8
FRAESEN
10
28
20
56
30
0.0
0
VERTEX
8
FRAESEN
10
26
20
56
30
0.0
0
SEQEND
0
POLYLINE
8
FRAESEN
66
1
70
1
0
VERTEX
8
FRAESEN
10
50
20
20
30
0.0
0
VERTEX
8
FRAESEN
10
54
20
20
30
0.0
0
VERTEX
8
FRAESEN
10
54
20
56
30
0.0
0
VERTEX
8
FRAESEN
10
50
20
56
30
0.0
0
SEQEND
0
POLYLINE
8
FRAESEN
66
1
70
1
0
VERTEX
8
FRAESEN
10
62
20
50
30
0.0
0
VERTEX
8
FRAESEN
10
66
20
50
30
0.0
0
VERTEX
8
FRAESEN
10
66
20
56
30
0.0
0
VERTEX
8
FRAESEN
10
62
20
56
30
0.0
0
SEQEND
0
POLYLINE
8
FRAESEN
66
1
70
1
0
VERTEX
8
FRAESEN
10
70
20
54
30
0.0
0
VERTEX
8
FRAESEN
10
74
20
54
30
0.0
0
VERTEX
8
FRAESEN
10
74
20
56
30
0.0
0
VERTEX
8
FRAESEN
10
70
20
56
30
0.0
0
SEQEND
0
POLYLINE
8
FRAESEN
66
1
70
1
0
VERTEX
8
FRAESEN
10
82
20
54
30
0.0
0
VERTEX
8
FRAESEN
10
100
20
54
30
0.0
0
VERTEX
8
FRAESEN
10
100
20
56
30
0.0
0
VERTEX
8
FRAESEN
10
82
20
56
30
0.0
0
SEQEND
0
POLYLINE
8
FRAESEN
66
1
70
1
0
VERTEX
8
FRAESEN
10
32
20
52
30
0.0
0
VERTEX
8
FRAESEN
10
50
20
52
30
0.0
0
VERTEX
8
FRAESEN
10
50
20
54
30
0.0
0
VERTEX
8
FRAESEN
10
32
20
54
30
0.0
0
SEQEND
0
POLYLINE
8
FRAESEN
66
1
70
1
0
VERTEX
8
FRAESEN
10
92
20
42
30
0.0
0
VERTEX
8
FRAESEN
10
94
20
42
30
0.0
0
VERTEX
8
FRAESEN
10
94
20
54
30
0.0
0
VERTEX
8
FRAESEN
10
92
20
54
30
0.0
0
SEQEND
0
POLYLINE
8
FRAESEN
66
1
70
1
0
VERTEX
8
FRAESEN
10
98
20
32
30
0.0
0
VERTEX
8
FRAESEN
10
100
20
32
30
0.0
0
VERTEX
8
FRAESEN
10
100
20
54
30
0.0
0
VERTEX
8
FRAESEN
10
98
20
54
30
0.0
0
SEQEND
0
POLYLINE
8
FRAESEN
66
1
70
1
0
VERTEX
8
FRAESEN
10
32
20
40
30
0.0
0
VERTEX
8
FRAESEN
10
34
20
40
30
0.0
0
VERTEX
8
FRAESEN
10
34
20
52
30
0.0
0
VERTEX
8
FRAESEN
10
32
20
52
30
0.0
0
SEQEND
0
POLYLINE
8
FRAESEN
66
1
70
1
0
VERTEX
8
FRAESEN
10
38
20
50
30
0.0
0
VERTEX
8
FRAESEN
10
48
20
50
30
0.0
0
VERTEX
8
FRAESEN
10
48
20
52
30
0.0
0
VERTEX
8
FRAESEN
10
38
20
52
30
0.0
0
SEQEND
0
POLYLINE
8
FRAESEN
66
1
70
1
0
VERTEX
8
FRAESEN
10
58
20
50
30
0.0
0
VERTEX
8
FRAESEN
10
62
20
50
30
0.0
0
VERTEX
8
FRAESEN
10
62
20
52
30
0.0
0
VERTEX
8
FRAESEN
10
58
20
52
30
0.0
0
SEQEND
0
POLYLINE
8
FRAESEN
66
1
70
1
0
VERTEX
8
FRAESEN
10
70
20
48
30
0.0
0
VERTEX
8
FRAESEN
10
76
20
48
30
0.0
0
VERTEX
8
FRAESEN
10
76
20
52
30
0.0
0
VERTEX
8
FRAESEN
10
70
20
52
30
0.0
0
SEQEND
0
POLYLINE
8
FRAESEN
66
1
70
1
0
VERTEX
8
FRAESEN
10
80
20
48
30
0.0
0
VERTEX
8
FRAESEN
10
92
20
48
30
0.0
0
VERTEX
8
FRAESEN
10
92
20
52
30
0.0
0
VERTEX
8
FRAESEN
10
80
20
52
30
0.0
0
SEQEND
0
POLYLINE
8
FRAESEN
66
1
70
1
0
VERTEX
8
FRAESEN
10
44
20
26
30
0.0
0
VERTEX
8
FRAESEN
10
48
20
26
30
0.0
0
VERTEX
8
FRAESEN
10
48
20
50
30
0.0
0
VERTEX
8
FRAESEN
10
44
20
50
30
0.0
0
SEQEND
0
POLYLINE
8
FRAESEN
66
1
70
1
0
VERTEX
8
FRAESEN
10
58
20
34
30
0.0
0
VERTEX
8
FRAESEN
10
60
20
34
30
0.0
0
VERTEX
8
FRAESEN
10
60
20
50
30
0.0
0
VERTEX
8
FRAESEN
10
58
20
50
30
0.0
0
SEQEND
0
POLYLINE
8
FRAESEN
66
1
70
1
0
VERTEX
8
FRAESEN
10
64
20
6
30
0.0
0
VERTEX
8
FRAESEN
10
66
20
6
30
0.0
0
VERTEX
8
FRAESEN
10
66
20
50
30
0.0
0
VERTEX
8
FRAESEN
10
64
20
50
30
0.0
0
SEQEND
0
POLYLINE
8
FRAESEN
66
1
70
1
0
VERTEX
8
FRAESEN
10
28
20
40
30
0.0
0
VERTEX
8
FRAESEN
10
30
20
40
30
0.0
0
VERTEX
8
FRAESEN
10
30
20
48
30
0.0
0
VERTEX
8
FRAESEN
10
28
20
48
30
0.0
0
SEQEND
0
POLYLINE
8
FRAESEN
66
1
70
1
0
VERTEX
8
FRAESEN
10
34
20
46
30
0.0
0
VERTEX
8
FRAESEN
10
44
20
46
30
0.0
0
VERTEX
8
FRAESEN
10
44
20
48
30
0.0
0
VERTEX
8
FRAESEN
10
34
20
48
30
0.0
0
SEQEND
0
POLYLINE
8
FRAESEN
66
1
70
1
0
VERTEX
8
FRAESEN
10
60
20
46
30
0.0
0
VERTEX
8
FRAESEN
10
62
20
46
30
0.0
0
VERTEX
8
FRAESEN
10
62
20
48
30
0.0
0
VERTEX
8
FRAESEN
10
60
20
48
30
0.0
0
SEQEND
0
POLYLINE
8
FRAESEN
66
1
70
1
0
VERTEX
8
FRAESEN
10
66
20
42
30
0.0
0
VERTEX
8
FRAESEN
10
68
20
42
30
0.0
0
VERTEX
8
FRAESEN
10
68
20
48
30
0.0
0
VERTEX
8
FRAESEN
10
66
20
48
30
0.0
0
SEQEND
0
POLYLINE
8
FRAESEN
66
1
70
1
0
VERTEX
8
FRAESEN
10
70
20
46
30
0.0
0
VERTEX
8
FRAESEN
10
74
20
46
30
0.0
0
VERTEX
8
FRAESEN
10
74
20
48
30
0.0
0
VERTEX
8
FRAESEN
10
70
20
48
30
0.0
0
SEQEND
0
POLYLINE
8
FRAESEN
66
1
70
1
0
VERTEX
8
FRAESEN
10
70
20
6
30
0.0
0
VERTEX
8
FRAESEN
10
72
20
6
30
0.0
0
VERTEX
8
FRAESEN
10
72
20
46
30
0.0
0
VERTEX
8
FRAESEN
10
70
20
46
30
0.0
0
SEQEND
0
POLYLINE
8
FRAESEN
66
1
70
1
0
VERTEX
8
FRAESEN
10
76
20
44
30
0.0
0
VERTEX
8
FRAESEN
10
92
20
44
30
0.0
0
VERTEX
8
FRAESEN
10
92
20
46
30
0.0
0
VERTEX
8
FRAESEN
10
76
20
46
30
0.0
0
SEQEND
0
POLYLINE
8
FRAESEN
66
1
70
1
0
VERTEX
8
FRAESEN
10
100
20
42
30
0.0
0
VERTEX
8
FRAESEN
10
102
20
42
30
0.0
0
VERTEX
8
FRAESEN
10
102
20
46
30
0.0
0
VERTEX
8
FRAESEN
10
100
20
46
30
0.0
0
SEQEND
0
POLYLINE
8
FRAESEN
66
1
70
1
0
VERTEX
8
FRAESEN
10
30
20
40
30
0.0
0
VERTEX
8
FRAESEN
10
32
20
40
30
0.0
0
VERTEX
8
FRAESEN
10
32
20
44
30
0.0
0
VERTEX
8
FRAESEN
10
30
20
44
30
0.0
0
SEQEND
0
POLYLINE
8
FRAESEN
66
1
70
1
0
VERTEX
8
FRAESEN
10
34
20
40
30
0.0
0
VERTEX
8
FRAESEN
10
38
20
40
30
0.0
0
VERTEX
8
FRAESEN
10
38
20
44
30
0.0
0
VERTEX
8
FRAESEN
10
34
20
44
30
0.0
0
SEQEND
0
POLYLINE
8
FRAESEN
66
1
70
1
0
VERTEX
8
FRAESEN
10
76
20
38
30
0.0
0
VERTEX
8
FRAESEN
10
80
20
38
30
0.0
0
VERTEX
8
FRAESEN
10
80
20
44
30
0.0
0
VERTEX
8
FRAESEN
10
76
20
44
30
0.0
0
SEQEND
0
POLYLINE
8
FRAESEN
66
1
70
1
0
VERTEX
8
FRAESEN
10
82
20
42
30
0.0
0
VERTEX
8
FRAESEN
10
92
20
42
30
0.0
0
VERTEX
8
FRAESEN
10
92
20
44
30
0.0
0
VERTEX
8
FRAESEN
10
82
20
44
30
0.0
0
SEQEND
0
POLYLINE
8
FRAESEN
66
1
70
1
0
VERTEX
8
FRAESEN
10
38
20
40
30
0.0
0
VERTEX
8
FRAESEN
10
44
20
40
30
0.0
0
VERTEX
8
FRAESEN
10
44
20
42
30
0.0
0
VERTEX
8
FRAESEN
10
38
20
42
30
0.0
0
SEQEND
0
POLYLINE
8
FRAESEN
66
1
70
1
0
VERTEX
8
FRAESEN
10
6
20
36
30
0.0
0
VERTEX
8
FRAESEN
10
8
20
36
30
0.0
0
VERTEX
8
FRAESEN
10
8
20
40
30
0.0
0
VERTEX
8
FRAESEN
10
6
20
40
30
0.0
0
SEQEND
0
POLYLINE
8
FRAESEN
66
1
70
1
0
VERTEX
8
FRAESEN
10
18
20
36
30
0.0
0
VERTEX
8
FRAESEN
10
24
20
36
30
0.0
0
VERTEX
8
FRAESEN
10
24
20
40
30
0.0
0
VERTEX
8
FRAESEN
10
18
20
40
30
0.0
0
SEQEND
0
POLYLINE
8
FRAESEN
66
1
70
1
0
VERTEX
8
FRAESEN
10
80
20
38
30
0.0
0
VERTEX
8
FRAESEN
10
98
20
38
30
0.0
0
VERTEX
8
FRAESEN
10
98
20
40
30
0.0
0
VERTEX
8
FRAESEN
10
80
20
40
30
0.0
0
SEQEND
0
POLYLINE
8
FRAESEN
66
1
70
1
0
VERTEX
8
FRAESEN
10
24
20
36
30
0.0
0
VERTEX
8
FRAESEN
10
40
20
36
30
0.0
0
VERTEX
8
FRAESEN
10
40
20
38
30
0.0
0
VERTEX
8
FRAESEN
10
24
20
38
30
0.0
0
SEQEND
0
POLYLINE
8
FRAESEN
66
1
70
1
0
VERTEX
8
FRAESEN
10
56
20
34
30
0.0
0
VERTEX
8
FRAESEN
10
58
20
34
30
0.0
0
VERTEX
8
FRAESEN
10
58
20
38
30
0.0
0
VERTEX
8
FRAESEN
10
56
20
38
30
0.0
0
SEQEND
0
POLYLINE
8
FRAESEN
66
1
70
1
0
VERTEX
8
FRAESEN
10
76
20
32
30
0.0
0
VERTEX
8
FRAESEN
10
78
20
32
30
0.0
0
VERTEX
8
FRAESEN
10
78
20
38
30
0.0
0
VERTEX
8
FRAESEN
10
76
20
38
30
0.0
0
SEQEND
0
POLYLINE
8
FRAESEN
66
1
70
1
0
VERTEX
8
FRAESEN
10
34
20
34
30
0.0
0
VERTEX
8
FRAESEN
10
36
20
34
30
0.0
0
VERTEX
8
FRAESEN
10
36
20
36
30
0.0
0
VERTEX
8
FRAESEN
10
34
20
36
30
0.0
0
SEQEND
0
POLYLINE
8
FRAESEN
66
1
70
1
0
VERTEX
8
FRAESEN
10
38
20
30
30
0.0
0
VERTEX
8
FRAESEN
10
40
20
30
30
0.0
0
VERTEX
8
FRAESEN
10
40
20
36
30
0.0
0
VERTEX
8
FRAESEN
10
38
20
36
30
0.0
0
SEQEND
0
POLYLINE
8
FRAESEN
66
1
70
1
0
VERTEX
8
FRAESEN
10
60
20
34
30
0.0
0
VERTEX
8
FRAESEN
10
62
20
34
30
0.0
0
VERTEX
8
FRAESEN
10
62
20
36
30
0.0
0
VERTEX
8
FRAESEN
10
60
20
36
30
0.0
0
SEQEND
0
POLYLINE
8
FRAESEN
66
1
70
1
0
VERTEX
8
FRAESEN
10
72
20
32
30
0.0
0
VERTEX
8
FRAESEN
10
76
20
32
30
0.0
0
VERTEX
8
FRAESEN
10
76
20
36
30
0.0
0
VERTEX
8
FRAESEN
10
72
20
36
30
0.0
0
SEQEND
0
POLYLINE
8
FRAESEN
66
1
70
1
0
VERTEX
8
FRAESEN
10
78
20
34
30
0.0
0
VERTEX
8
FRAESEN
10
80
20
34
30
0.0
0
VERTEX
8
FRAESEN
10
80
20
36
30
0.0
0
VERTEX
8
FRAESEN
10
78
20
36
30
0.0
0
SEQEND
0
POLYLINE
8
FRAESEN
66
1
70
1
0
VERTEX
8
FRAESEN
10
94
20
32
30
0.0
0
VERTEX
8
FRAESEN
10
98
20
32
30
0.0
0
VERTEX
8
FRAESEN
10
98
20
36
30
0.0
0
VERTEX
8
FRAESEN
10
94
20
36
30
0.0
0
SEQEND
0
POLYLINE
8
FRAESEN
66
1
70
1
0
VERTEX
8
FRAESEN
10
6
20
32
30
0.0
0
VERTEX
8
FRAESEN
10
32
20
32
30
0.0
0
VERTEX
8
FRAESEN
10
32
20
34
30
0.0
0
VERTEX
8
FRAESEN
10
6
20
34
30
0.0
0
SEQEND
0
POLYLINE
8
FRAESEN
66
1
70
1
0
VERTEX
8
FRAESEN
10
40
20
32
30
0.0
0
VERTEX
8
FRAESEN
10
42
20
32
30
0.0
0
VERTEX
8
FRAESEN
10
42
20
34
30
0.0
0
VERTEX
8
FRAESEN
10
40
20
34
30
0.0
0
SEQEND
0
POLYLINE
8
FRAESEN
66
1
70
1
0
VERTEX
8
FRAESEN
10
14
20
30
30
0.0
0
VERTEX
8
FRAESEN
10
38
20
30
30
0.0
0
VERTEX
8
FRAESEN
10
38
20
32
30
0.0
0
VERTEX
8
FRAESEN
10
14
20
32
30
0.0
0
SEQEND
0
POLYLINE
8
FRAESEN
66
1
70
1
0
VERTEX
8
FRAESEN
10
58
20
30
30
0.0
0
VERTEX
8
FRAESEN
10
62
20
30
30
0.0
0
VERTEX
8
FRAESEN
10
62
20
32
30
0.0
0
VERTEX
8
FRAESEN
10
58
20
32
30
0.0
0
SEQEND
0
POLYLINE
8
FRAESEN
66
1
70
1
0
VERTEX
8
FRAESEN
10
72
20
30
30
0.0
0
VERTEX
8
FRAESEN
10
74
20
30
30
0.0
0
VERTEX
8
FRAESEN
10
74
20
32
30
0.0
0
VERTEX
8
FRAESEN
10
72
20
32
30
0.0
0
SEQEND
0
POLYLINE
8
FRAESEN
66
1
70
1
0
VERTEX
8
FRAESEN
10
8
20
26
30
0.0
0
VERTEX
8
FRAESEN
10
24
20
26
30
0.0
0
VERTEX
8
FRAESEN
10
24
20
30
30
0.0
0
VERTEX
8
FRAESEN
10
8
20
30
30
0.0
0
SEQEND
0
POLYLINE
8
FRAESEN
66
1
70
1
0
VERTEX
8
FRAESEN
10
58
20
24
30
0.0
0
VERTEX
8
FRAESEN
10
60
20
24
30
0.0
0
VERTEX
8
FRAESEN
10
60
20
30
30
0.0
0
VERTEX
8
FRAESEN
10
58
20
30
30
0.0
0
SEQEND
0
POLYLINE
8
FRAESEN
66
1
70
1
0
VERTEX
8
FRAESEN
10
6
20
26
30
0.0
0
VERTEX
8
FRAESEN
10
8
20
26
30
0.0
0
VERTEX
8
FRAESEN
10
8
20
28
30
0.0
0
VERTEX
8
FRAESEN
10
6
20
28
30
0.0
0
SEQEND
0
POLYLINE
8
FRAESEN
66
1
70
1
0
VERTEX
8
FRAESEN
10
24
20
26
30
0.0
0
VERTEX
8
FRAESEN
10
44
20
26
30
0.0
0
VERTEX
8
FRAESEN
10
44
20
28
30
0.0
0
VERTEX
8
FRAESEN
10
24
20
28
30
0.0
0
SEQEND
0
POLYLINE
8
FRAESEN
66
1
70
1
0
VERTEX
8
FRAESEN
10
60
20
24
30
0.0
0
VERTEX
8
FRAESEN
10
64
20
24
30
0.0
0
VERTEX
8
FRAESEN
10
64
20
28
30
0.0
0
VERTEX
8
FRAESEN
10
60
20
28
30
0.0
0
SEQEND
0
POLYLINE
8
FRAESEN
66
1
70
1
0
VERTEX
8
FRAESEN
10
10
20
10
30
0.0
0
VERTEX
8
FRAESEN
10
12
20
10
30
0.0
0
VERTEX
8
FRAESEN
10
12
20
26
30
0.0
0
VERTEX
8
FRAESEN
10
10
20
26
30
0.0
0
SEQEND
0
POLYLINE
8
FRAESEN
66
1
70
1
0
VERTEX
8
FRAESEN
10
32
20
24
30
0.0
0
VERTEX
8
FRAESEN
10
46
20
24
30
0.0
0
VERTEX
8
FRAESEN
10
46
20
26
30
0.0
0
VERTEX
8
FRAESEN
10
32
20
26
30
0.0
0
SEQEND
0
POLYLINE
8
FRAESEN
66
1
70
1
0
VERTEX
8
FRAESEN
10
14
20
20
30
0.0
0
VERTEX
8
FRAESEN
10
26
20
20
30
0.0
0
VERTEX
8
FRAESEN
10
26
20
24
30
0.0
0
VERTEX
8
FRAESEN
10
14
20
24
30
0.0
0
SEQEND
0
POLYLINE
8
FRAESEN
66
1
70
1
0
VERTEX
8
FRAESEN
10
26
20
20
30
0.0
0
VERTEX
8
FRAESEN
10
50
20
20
30
0.0
0
VERTEX
8
FRAESEN
10
50
20
22
30
0.0
0
VERTEX
8
FRAESEN
10
26
20
22
30
0.0
0
SEQEND
0
POLYLINE
8
FRAESEN
66
1
70
1
0
VERTEX
8
FRAESEN
10
54
20
18
30
0.0
0
VERTEX
8
FRAESEN
10
64
20
18
30
0.0
0
VERTEX
8
FRAESEN
10
64
20
22
30
0.0
0
VERTEX
8
FRAESEN
10
54
20
22
30
0.0
0
SEQEND
0
POLYLINE
8
FRAESEN
66
1
70
1
0
VERTEX
8
FRAESEN
10
44
20
18
30
0.0
0
VERTEX
8
FRAESEN
10
52
20
18
30
0.0
0
VERTEX
8
FRAESEN
10
52
20
20
30
0.0
0
VERTEX
8
FRAESEN
10
44
20
20
30
0.0
0
SEQEND
0
POLYLINE
8
FRAESEN
66
1
70
1
0
VERTEX
8
FRAESEN
10
126
20
18
30
0.0
0
VERTEX
8
FRAESEN
10
132
20
18
30
0.0
0
VERTEX
8
FRAESEN
10
132
20
20
30
0.0
0
VERTEX
8
FRAESEN
10
126
20
20
30
0.0
0
SEQEND
0
POLYLINE
8
FRAESEN
66
1
70
1
0
VERTEX
8
FRAESEN
10
6
20
10
30
0.0
0
VERTEX
8
FRAESEN
10
8
20
10
30
0.0
0
VERTEX
8
FRAESEN
10
8
20
18
30
0.0
0
VERTEX
8
FRAESEN
10
6
20
18
30
0.0
0
SEQEND
0
POLYLINE
8
FRAESEN
66
1
70
1
0
VERTEX
8
FRAESEN
10
14
20
10
30
0.0
0
VERTEX
8
FRAESEN
10
20
20
10
30
0.0
0
VERTEX
8
FRAESEN
10
20
20
18
30
0.0
0
VERTEX
8
FRAESEN
10
14
20
18
30
0.0
0
SEQEND
0
POLYLINE
8
FRAESEN
66
1
70
1
0
VERTEX
8
FRAESEN
10
24
20
8
30
0.0
0
VERTEX
8
FRAESEN
10
26
20
8
30
0.0
0
VERTEX
8
FRAESEN
10
26
20
18
30
0.0
0
VERTEX
8
FRAESEN
10
24
20
18
30
0.0
0
SEQEND
0
POLYLINE
8
FRAESEN
66
1
70
1
0
VERTEX
8
FRAESEN
10
126
20
4
30
0.0
0
VERTEX
8
FRAESEN
10
130
20
4
30
0.0
0
VERTEX
8
FRAESEN
10
130
20
18
30
0.0
0
VERTEX
8
FRAESEN
10
126
20
18
30
0.0
0
SEQEND
0
POLYLINE
8
FRAESEN
66
1
70
1
0
VERTEX
8
FRAESEN
10
88
20
12
30
0.0
0
VERTEX
8
FRAESEN
10
92
20
12
30
0.0
0
VERTEX
8
FRAESEN
10
92
20
16
30
0.0
0
VERTEX
8
FRAESEN
10
88
20
16
30
0.0
0
SEQEND
0
POLYLINE
8
FRAESEN
66
1
70
1
0
VERTEX
8
FRAESEN
10
8
20
10
30
0.0
0
VERTEX
8
FRAESEN
10
10
20
10
30
0.0
0
VERTEX
8
FRAESEN
10
10
20
14
30
0.0
0
VERTEX
8
FRAESEN
10
8
20
14
30
0.0
0
SEQEND
0
POLYLINE
8
FRAESEN
66
1
70
1
0
VERTEX
8
FRAESEN
10
12
20
10
30
0.0
0
VERTEX
8
FRAESEN
10
14
20
10
30
0.0
0
VERTEX
8
FRAESEN
10
14
20
14
30
0.0
0
VERTEX
8
FRAESEN
10
12
20
14
30
0.0
0
SEQEND
0
POLYLINE
8
FRAESEN
66
1
70
1
0
VERTEX
8
FRAESEN
10
96
20
12
30
0.0
0
VERTEX
8
FRAESEN
10
104
20
12
30
0.0
0
VERTEX
8
FRAESEN
10
104
20
14
30
0.0
0
VERTEX
8
FRAESEN
10
96
20
14
30
0.0
0
SEQEND
0
POLYLINE
8
FRAESEN
66
1
70
1
0
VERTEX
8
FRAESEN
10
106
20
12
30
0.0
0
VERTEX
8
FRAESEN
10
124
20
12
30
0.0
0
VERTEX
8
FRAESEN
10
124
20
14
30
0.0
0
VERTEX
8
FRAESEN
10
106
20
14
30
0.0
0
SEQEND
0
POLYLINE
8
FRAESEN
66
1
70
1
0
VERTEX
8
FRAESEN
10
130
20
12
30
0.0
0
VERTEX
8
FRAESEN
10
132
20
12
30
0.0
0
VERTEX
8
FRAESEN
10
132
20
14
30
0.0
0
VERTEX
8
FRAESEN
10
130
20
14
30
0.0
0
SEQEND
0
POLYLINE
8
FRAESEN
66
1
70
1
0
VERTEX
8
FRAESEN
10
20
20
8
30
0.0
0
VERTEX
8
FRAESEN
10
24
20
8
30
0.0
0
VERTEX
8
FRAESEN
10
24
20
12
30
0.0
0
VERTEX
8
FRAESEN
10
20
20
12
30
0.0
0
SEQEND
0
POLYLINE
8
FRAESEN
66
1
70
1
0
VERTEX
8
FRAESEN
10
26
20
8
30
0.0
0
VERTEX
8
FRAESEN
10
52
20
8
30
0.0
0
VERTEX
8
FRAESEN
10
52
20
12
30
0.0
0
VERTEX
8
FRAESEN
10
26
20
12
30
0.0
0
SEQEND
0
POLYLINE
8
FRAESEN
66
1
70
1
0
VERTEX
8
FRAESEN
10
88
20
6
30
0.0
0
VERTEX
8
FRAESEN
10
90
20
6
30
0.0
0
VERTEX
8
FRAESEN
10
90
20
12
30
0.0
0
VERTEX
8
FRAESEN
10
88
20
12
30
0.0
0
SEQEND
0
POLYLINE
8
FRAESEN
66
1
70
1
0
VERTEX
8
FRAESEN
10
96
20
6
30
0.0
0
VERTEX
8
FRAESEN
10
98
20
6
30
0.0
0
VERTEX
8
FRAESEN
10
98
20
12
30
0.0
0
VERTEX
8
FRAESEN
10
96
20
12
30
0.0
0
SEQEND
0
POLYLINE
8
FRAESEN
66
1
70
1
0
VERTEX
8
FRAESEN
10
106
20
6
30
0.0
0
VERTEX
8
FRAESEN
10
108
20
6
30
0.0
0
VERTEX
8
FRAESEN
10
108
20
12
30
0.0
0
VERTEX
8
FRAESEN
10
106
20
12
30
0.0
0
SEQEND
0
POLYLINE
8
FRAESEN
66
1
70
1
0
VERTEX
8
FRAESEN
10
116
20
10
30
0.0
0
VERTEX
8
FRAESEN
10
122
20
10
30
0.0
0
VERTEX
8
FRAESEN
10
122
20
12
30
0.0
0
VERTEX
8
FRAESEN
10
116
20
12
30
0.0
0
SEQEND
0
POLYLINE
8
FRAESEN
66
1
70
1
0
VERTEX
8
FRAESEN
10
52
20
8
30
0.0
0
VERTEX
8
FRAESEN
10
64
20
8
30
0.0
0
VERTEX
8
FRAESEN
10
64
20
10
30
0.0
0
VERTEX
8
FRAESEN
10
52
20
10
30
0.0
0
SEQEND
0
POLYLINE
8
FRAESEN
66
1
70
1
0
VERTEX
8
FRAESEN
10
66
20
6
30
0.0
0
VERTEX
8
FRAESEN
10
70
20
6
30
0.0
0
VERTEX
8
FRAESEN
10
70
20
10
30
0.0
0
VERTEX
8
FRAESEN
10
66
20
10
30
0.0
0
SEQEND
0
POLYLINE
8
FRAESEN
66
1
70
1
0
VERTEX
8
FRAESEN
10
72
20
6
30
0.0
0
VERTEX
8
FRAESEN
10
88
20
6
30
0.0
0
VERTEX
8
FRAESEN
10
88
20
10
30
0.0
0
VERTEX
8
FRAESEN
10
72
20
10
30
0.0
0
SEQEND
0
POLYLINE
8
FRAESEN
66
1
70
1
0
VERTEX
8
FRAESEN
10
90
20
6
30
0.0
0
VERTEX
8
FRAESEN
10
96
20
6
30
0.0
0
VERTEX
8
FRAESEN
10
96
20
10
30
0.0
0
VERTEX
8
FRAESEN
10
90
20
10
30
0.0
0
SEQEND
0
POLYLINE
8
FRAESEN
66
1
70
1
0
VERTEX
8
FRAESEN
10
98
20
6
30
0.0
0
VERTEX
8
FRAESEN
10
106
20
6
30
0.0
0
VERTEX
8
FRAESEN
10
106
20
10
30
0.0
0
VERTEX
8
FRAESEN
10
98
20
10
30
0.0
0
SEQEND
0
POLYLINE
8
FRAESEN
66
1
70
1
0
VERTEX
8
FRAESEN
10
58
20
6
30
0.0
0
VERTEX
8
FRAESEN
10
64
20
6
30
0.0
0
VERTEX
8
FRAESEN
10
64
20
8
30
0.0
0
VERTEX
8
FRAESEN
10
58
20
8
30
0.0
0
SEQEND
0
POLYLINE
8
FRAESEN
66
1
70
1
0
VERTEX
8
FRAESEN
10
108
20
6
30
0.0
0
VERTEX
8
FRAESEN
10
126
20
6
30
0.0
0
VERTEX
8
FRAESEN
10
126
20
8
30
0.0
0
VERTEX
8
FRAESEN
10
108
20
8
30
0.0
0
SEQEND
0
POLYLINE
8
FRAESEN
66
1
70
1
0
VERTEX
8
FRAESEN
10
112
20
4
30
0.0
0
VERTEX
8
FRAESEN
10
126
20
4
30
0.0
0
VERTEX
8
FRAESEN
10
126
20
6
30
0.0
0
VERTEX
8
FRAESEN
10
112
20
6
30
0.0
0
SEQEND
0
POLYLINE
8
FRAESEN
66
1
70
1
0
VERTEX
8
FRAESEN
10
78
20
98
30
0.0
0
VERTEX
8
FRAESEN
10
88
20
98
30
0.0
0
VERTEX
8
FRAESEN
10
88
20
102
30
0.0
0
VERTEX
8
FRAESEN
10
78
20
102
30
0.0
0
SEQEND
0
POLYLINE
8
FRAESEN
66
1
70
1
0
VERTEX
8
FRAESEN
10
78
20
92
30
0.0
0
VERTEX
8
FRAESEN
10
82
20
92
30
0.0
0
VERTEX
8
FRAESEN
10
82
20
98
30
0.0
0
VERTEX
8
FRAESEN
10
78
20
98
30
0.0
0
SEQEND
0
POLYLINE
8
FRAESEN
66
1
70
1
0
VERTEX
8
FRAESEN
10
84
20
92
30
0.0
0
VERTEX
8
FRAESEN
10
88
20
92
30
0.0
0
VERTEX
8
FRAESEN
10
88
20
98
30
0.0
0
VERTEX
8
FRAESEN
10
84
20
98
30
0.0
0
SEQEND
0
POLYLINE
8
FRAESEN
66
1
70
1
0
VERTEX
8
FRAESEN
10
82
20
92
30
0.0
0
VERTEX
8
FRAESEN
10
84
20
92
30
0.0
0
VERTEX
8
FRAESEN
10
84
20
94
30
0.0
0
VERTEX
8
FRAESEN
10
82
20
94
30
0.0
0
SEQEND
0
POLYLINE
8
FRAESEN
66
1
70
1
0
VERTEX
8
FRAESEN
10
98
20
92
30
0.0
0
VERTEX
8
FRAESEN
10
100
20
92
30
0.0
0
VERTEX
8
FRAESEN
10
100
20
96
30
0.0
0
VERTEX
8
FRAESEN
10
98
20
96
30
0.0
0
SEQEND
0
POLYLINE
8
FRAESEN
66
1
70
1
0
VERTEX
8
FRAESEN
10
104
20
92
30
0.0
0
VERTEX
8
FRAESEN
10
106
20
92
30
0.0
0
VERTEX
8
FRAESEN
10
106
20
96
30
0.0
0
VERTEX
8
FRAESEN
10
104
20
96
30
0.0
0
SEQEND
0
POLYLINE
8
FRAESEN
66
1
70
1
0
VERTEX
8
FRAESEN
10
96
20
92
30
0.0
0
VERTEX
8
FRAESEN
10
98
20
92
30
0.0
0
VERTEX
8
FRAESEN
10
98
20
94
30
0.0
0
VERTEX
8
FRAESEN
10
96
20
94
30
0.0
0
SEQEND
0
POLYLINE
8
FRAESEN
66
1
70
1
0
VERTEX
8
FRAESEN
10
100
20
92
30
0.0
0
VERTEX
8
FRAESEN
10
104
20
92
30
0.0
0
VERTEX
8
FRAESEN
10
104
20
94
30
0.0
0
VERTEX
8
FRAESEN
10
100
20
94
30
0.0
0
SEQEND
0
POLYLINE
8
FRAESEN
66
1
70
1
0
VERTEX
8
FRAESEN
10
122
20
72
30
0.0
0
VERTEX
8
FRAESEN
10
126
20
72
30
0.0
0
VERTEX
8
FRAESEN
10
126
20
82
30
0.0
0
VERTEX
8
FRAESEN
10
122
20
82
30
0.0
0
SEQEND
0
POLYLINE
8
FRAESEN
66
1
70
1
0
VERTEX
8
FRAESEN
10
122
20
70
30
0.0
0
VERTEX
8
FRAESEN
10
124
20
70
30
0.0
0
VERTEX
8
FRAESEN
10
124
20
72
30
0.0
0
VERTEX
8
FRAESEN
10
122
20
72
30
0.0
0
SEQEND
0
POLYLINE
8
FRAESEN
66
1
70
1
0
VERTEX
8
FRAESEN
10
70
20
66
30
0.0
0
VERTEX
8
FRAESEN
10
102
20
66
30
0.0
0
VERTEX
8
FRAESEN
10
102
20
70
30
0.0
0
VERTEX
8
FRAESEN
10
70
20
70
30
0.0
0
SEQEND
0
POLYLINE
8
FRAESEN
66
1
70
1
0
VERTEX
8
FRAESEN
10
122
20
48
30
0.0
0
VERTEX
8
FRAESEN
10
132
20
48
30
0.0
0
VERTEX
8
FRAESEN
10
132
20
50
30
0.0
0
VERTEX
8
FRAESEN
10
122
20
50
30
0.0
0
SEQEND
0
POLYLINE
8
FRAESEN
66
1
70
1
0
VERTEX
8
FRAESEN
10
122
20
36
30
0.0
0
VERTEX
8
FRAESEN
10
126
20
36
30
0.0
0
VERTEX
8
FRAESEN
10
126
20
48
30
0.0
0
VERTEX
8
FRAESEN
10
122
20
48
30
0.0
0
SEQEND
0
POLYLINE
8
FRAESEN
66
1
70
1
0
VERTEX
8
FRAESEN
10
128
20
46
30
0.0
0
VERTEX
8
FRAESEN
10
132
20
46
30
0.0
0
VERTEX
8
FRAESEN
10
132
20
48
30
0.0
0
VERTEX
8
FRAESEN
10
128
20
48
30
0.0
0
SEQEND
0
POLYLINE
8
FRAESEN
66
1
70
1
0
VERTEX
8
FRAESEN
10
128
20
22
30
0.0
0
VERTEX
8
FRAESEN
10
130
20
22
30
0.0
0
VERTEX
8
FRAESEN
10
130
20
46
30
0.0
0
VERTEX
8
FRAESEN
10
128
20
46
30
0.0
0
SEQEND
0
POLYLINE
8
FRAESEN
66
1
70
1
0
VERTEX
8
FRAESEN
10
130
20
42
30
0.0
0
VERTEX
8
FRAESEN
10
132
20
42
30
0.0
0
VERTEX
8
FRAESEN
10
132
20
44
30
0.0
0
VERTEX
8
FRAESEN
10
130
20
44
30
0.0
0
SEQEND
0
POLYLINE
8
FRAESEN
66
1
70
1
0
VERTEX
8
FRAESEN
10
130
20
30
30
0.0
0
VERTEX
8
FRAESEN
10
132
20
30
30
0.0
0
VERTEX
8
FRAESEN
10
132
20
38
30
0.0
0
VERTEX
8
FRAESEN
10
130
20
38
30
0.0
0
SEQEND
0
POLYLINE
8
FRAESEN
66
1
70
1
0
VERTEX
8
FRAESEN
10
88
20
22
30
0.0
0
VERTEX
8
FRAESEN
10
90
20
22
30
0.0
0
VERTEX
8
FRAESEN
10
90
20
36
30
0.0
0
VERTEX
8
FRAESEN
10
88
20
36
30
0.0
0
SEQEND
0
POLYLINE
8
FRAESEN
66
1
70
1
0
VERTEX
8
FRAESEN
10
122
20
28
30
0.0
0
VERTEX
8
FRAESEN
10
124
20
28
30
0.0
0
VERTEX
8
FRAESEN
10
124
20
36
30
0.0
0
VERTEX
8
FRAESEN
10
122
20
36
30
0.0
0
SEQEND
0
POLYLINE
8
FRAESEN
66
1
70
1
0
VERTEX
8
FRAESEN
10
90
20
30
30
0.0
0
VERTEX
8
FRAESEN
10
92
20
30
30
0.0
0
VERTEX
8
FRAESEN
10
92
20
32
30
0.0
0
VERTEX
8
FRAESEN
10
90
20
32
30
0.0
0
SEQEND
0
POLYLINE
8
FRAESEN
66
1
70
1
0
VERTEX
8
FRAESEN
10
94
20
28
30
0.0
0
VERTEX
8
FRAESEN
10
122
20
28
30
0.0
0
VERTEX
8
FRAESEN
10
122
20
30
30
0.0
0
VERTEX
8
FRAESEN
10
94
20
30
30
0.0
0
SEQEND
0
POLYLINE
8
FRAESEN
66
1
70
1
0
VERTEX
8
FRAESEN
10
90
20
22
30
0.0
0
VERTEX
8
FRAESEN
10
118
20
22
30
0.0
0
VERTEX
8
FRAESEN
10
118
20
26
30
0.0
0
VERTEX
8
FRAESEN
10
90
20
26
30
0.0
0
SEQEND
0
POLYLINE
8
FRAESEN
66
1
70
1
0
VERTEX
8
FRAESEN
10
126
20
22
30
0.0
0
VERTEX
8
FRAESEN
10
128
20
22
30
0.0
0
VERTEX
8
FRAESEN
10
128
20
26
30
0.0
0
VERTEX
8
FRAESEN
10
126
20
26
30
0.0
0
SEQEND
0
POLYLINE
8
FRAESEN
66
1
70
1
0
VERTEX
8
FRAESEN
10
118
20
22
30
0.0
0
VERTEX
8
FRAESEN
10
126
20
22
30
0.0
0
VERTEX
8
FRAESEN
10
126
20
24
30
0.0
0
VERTEX
8
FRAESEN
10
118
20
24
30
0.0
0
SEQEND
0
POLYLINE
8
FRAESEN
66
1
70
1
0
VERTEX
8
FRAESEN
10
82
20
12
30
0.0
0
VERTEX
8
FRAESEN
10
84
20
12
30
0.0
0
VERTEX
8
FRAESEN
10
84
20
36
30
0.0
0
VERTEX
8
FRAESEN
10
82
20
36
30
0.0
0
SEQEND
0
POLYLINE
8
FRAESEN
66
1
70
1
0
VERTEX
8
FRAESEN
10
80
20
12
30
0.0
0
VERTEX
8
FRAESEN
10
82
20
12
30
0.0
0
VERTEX
8
FRAESEN
10
82
20
20
30
0.0
0
VERTEX
8
FRAESEN
10
80
20
20
30
0.0
0
SEQEND
0
POLYLINE
8
FRAESEN
66
1
70
1
0
VERTEX
8
FRAESEN
10
76
20
24
30
0.0
0
VERTEX
8
FRAESEN
10
80
20
24
30
0.0
0
VERTEX
8
FRAESEN
10
80
20
30
30
0.0
0
VERTEX
8
FRAESEN
10
76
20
30
30
0.0
0
SEQEND
0
POLYLINE
8
FRAESEN
66
1
70
1
0
VERTEX
8
FRAESEN
10
76
20
12
30
0.0
0
VERTEX
8
FRAESEN
10
78
20
12
30
0.0
0
VERTEX
8
FRAESEN
10
78
20
24
30
0.0
0
VERTEX
8
FRAESEN
10
76
20
24
30
0.0
0
SEQEND
0
POLYLINE
8
FRAESEN
66
1
70
1
0
VERTEX
8
FRAESEN
10
86
20
18
30
0.0
0
VERTEX
8
FRAESEN
10
124
20
18
30
0.0
0
VERTEX
8
FRAESEN
10
124
20
20
30
0.0
0
VERTEX
8
FRAESEN
10
86
20
20
30
0.0
0
SEQEND
0
POLYLINE
8
FRAESEN
66
1
70
1
0
VERTEX
8
FRAESEN
10
96
20
16
30
0.0
0
VERTEX
8
FRAESEN
10
98
20
16
30
0.0
0
VERTEX
8
FRAESEN
10
98
20
18
30
0.0
0
VERTEX
8
FRAESEN
10
96
20
18
30
0.0
0
SEQEND
0
POLYLINE
8
FRAESEN
66
1
70
1
0
VERTEX
8
FRAESEN
10
106
20
16
30
0.0
0
VERTEX
8
FRAESEN
10
124
20
16
30
0.0
0
VERTEX
8
FRAESEN
10
124
20
18
30
0.0
0
VERTEX
8
FRAESEN
10
106
20
18
30
0.0
0
SEQEND
0
POLYLINE
8
FRAESEN
66
1
70
1
0
VERTEX
8
FRAESEN
10
28
20
14
30
0.0
0
VERTEX
8
FRAESEN
10
40
20
14
30
0.0
0
VERTEX
8
FRAESEN
10
40
20
18
30
0.0
0
VERTEX
8
FRAESEN
10
28
20
18
30
0.0
0
SEQEND
0
POLYLINE
8
FRAESEN
66
1
70
1
0
VERTEX
8
FRAESEN
10
40
20
14
30
0.0
0
VERTEX
8
FRAESEN
10
62
20
14
30
0.0
0
VERTEX
8
FRAESEN
10
62
20
16
30
0.0
0
VERTEX
8
FRAESEN
10
40
20
16
30
0.0
0
SEQEND
0
POLYLINE
8
FRAESEN
66
1
70
1
0
VERTEX
8
FRAESEN
10
58
20
12
30
0.0
0
VERTEX
8
FRAESEN
10
60
20
12
30
0.0
0
VERTEX
8
FRAESEN
10
60
20
14
30
0.0
0
VERTEX
8
FRAESEN
10
58
20
14
30
0.0
0
SEQEND
0
POLYLINE
8
FRAESEN
66
1
70
1
0
VERTEX
8
FRAESEN
10
2
20
2
30
0.0
0
VERTEX
8
FRAESEN
10
10
20
2
30
0.0
0
VERTEX
8
FRAESEN
10
10
20
8
30
0.0
0
VERTEX
8
FRAESEN
10
2
20
8
30
0.0
0
SEQEND
0
POLYLINE
8
FRAESEN
66
1
70
1
0
VERTEX
8
FRAESEN
10
10
20
2
30
0.0
0
VERTEX
8
FRAESEN
10
44
20
2
30
0.0
0
VERTEX
8
FRAESEN
10
44
20
6
30
0.0
0
VERTEX
8
FRAESEN
10
10
20
6
30
0.0
0
SEQEND
0
POLYLINE
8
FRAESEN
66
1
70
1
0
VERTEX
8
FRAESEN
10
48
20
2
30
0.0
0
VERTEX
8
FRAESEN
10
50
20
2
30
0.0
0
VERTEX
8
FRAESEN
10
50
20
6
30
0.0
0
VERTEX
8
FRAESEN
10
48
20
6
30
0.0
0
SEQEND
0
POLYLINE
8
FRAESEN
66
1
70
1
0
VERTEX
8
FRAESEN
10
44
20
2
30
0.0
0
VERTEX
8
FRAESEN
10
48
20
2
30
0.0
0
VERTEX
8
FRAESEN
10
48
20
4
30
0.0
0
VERTEX
8
FRAESEN
10
44
20
4
30
0.0
0
SEQEND
0
POLYLINE
8
FRAESEN
66
1
70
1
0
VERTEX
8
FRAESEN
10
50
20
2
30
0.0
0
VERTEX
8
FRAESEN
10
96
20
2
30
0.0
0
VERTEX
8
FRAESEN
10
96
20
4
30
0.0
0
VERTEX
8
FRAESEN
10
50
20
4
30
0.0
0
SEQEND
0
TEXT
8
INFO
10
2
20
226
30
0.0
40
3
1
4M 140x220mm Raster 2mm STEMPEL=schwarz
0
ENDSEC
0
EOF
